%TF.GenerationSoftware,KiCad,Pcbnew,8.0.6*%
%TF.CreationDate,2024-11-17T15:14:54-07:00*%
%TF.ProjectId,SRX160,53525831-3630-42e6-9b69-6361645f7063,rev?*%
%TF.SameCoordinates,Original*%
%TF.FileFunction,Legend,Bot*%
%TF.FilePolarity,Positive*%
%FSLAX46Y46*%
G04 Gerber Fmt 4.6, Leading zero omitted, Abs format (unit mm)*
G04 Created by KiCad (PCBNEW 8.0.6) date 2024-11-17 15:14:54*
%MOMM*%
%LPD*%
G01*
G04 APERTURE LIST*
%ADD10R,2.000000X1.905000*%
%ADD11O,2.000000X1.905000*%
%ADD12C,9.200000*%
%ADD13C,5.000000*%
%ADD14C,2.000000*%
%ADD15C,1.600000*%
%ADD16O,1.600000X1.600000*%
%ADD17R,1.600000X1.600000*%
%ADD18C,2.500000*%
%ADD19C,9.000000*%
%ADD20R,1.905000X2.000000*%
%ADD21O,1.905000X2.000000*%
%ADD22R,3.000000X2.000000*%
%ADD23O,3.000000X2.000000*%
%ADD24R,2.000000X3.000000*%
%ADD25O,2.000000X3.000000*%
G04 APERTURE END LIST*
%LPC*%
D10*
%TO.C,U2*%
X176555000Y-59960000D03*
D11*
X176555000Y-62500000D03*
X176555000Y-65040000D03*
%TD*%
D12*
%TO.C,H2*%
X40690800Y-40843200D03*
%TD*%
D13*
%TO.C,FlowPin1*%
X61200000Y-98950000D03*
%TD*%
D14*
%TO.C,RV3*%
X55187200Y-52628000D03*
X57687200Y-52628000D03*
X60187200Y-52628000D03*
%TD*%
D13*
%TO.C,Sec7*%
X166800000Y-114150000D03*
%TD*%
D14*
%TO.C,RV4*%
X74875100Y-52578000D03*
X72375100Y-52578000D03*
X69875100Y-52578000D03*
%TD*%
D13*
%TO.C,MotorB1*%
X143100000Y-114150000D03*
%TD*%
D15*
%TO.C,R2*%
X51770000Y-77300000D03*
D16*
X61930000Y-77300000D03*
%TD*%
D12*
%TO.C,H3*%
X40208200Y-117043200D03*
%TD*%
D13*
%TO.C,GndSensor1*%
X81200000Y-98875000D03*
%TD*%
%TO.C,Sec4*%
X127600000Y-114150000D03*
%TD*%
%TO.C,Pressure1*%
X71550000Y-98950000D03*
%TD*%
D12*
%TO.C,H1*%
X198196200Y-40894000D03*
%TD*%
D17*
%TO.C,A1*%
X107950000Y-79593600D03*
D16*
X110490000Y-79593600D03*
X113030000Y-79593600D03*
X115570000Y-79593600D03*
X118110000Y-79593600D03*
X120650000Y-79593600D03*
X123190000Y-79593600D03*
X125730000Y-79593600D03*
X128270000Y-79593600D03*
X130810000Y-79593600D03*
X133350000Y-79593600D03*
X135890000Y-79593600D03*
X138430000Y-79593600D03*
X140970000Y-79593600D03*
X143510000Y-79593600D03*
X143510000Y-64353600D03*
X140970000Y-64353600D03*
X138430000Y-64353600D03*
X135890000Y-64353600D03*
X133350000Y-64353600D03*
X130810000Y-64353600D03*
X128270000Y-64353600D03*
X125730000Y-64353600D03*
X123190000Y-64353600D03*
X120650000Y-64353600D03*
X118110000Y-64353600D03*
X115570000Y-64353600D03*
X113030000Y-64353600D03*
X110490000Y-64353600D03*
X107950000Y-64353600D03*
%TD*%
D18*
%TO.C,TP6*%
X75443100Y-46101000D03*
%TD*%
D19*
%TO.C,J5*%
X192300000Y-90000000D03*
%TD*%
D18*
%TO.C,TP8*%
X61704200Y-45847000D03*
%TD*%
%TO.C,TP7*%
X55989200Y-45847000D03*
%TD*%
D20*
%TO.C,U5*%
X100384000Y-55876000D03*
D21*
X97844000Y-55876000D03*
X95304000Y-55876000D03*
%TD*%
D13*
%TO.C,Sec3*%
X119700000Y-114150000D03*
%TD*%
%TO.C,Sec2*%
X111900000Y-114150000D03*
%TD*%
D12*
%TO.C,H4*%
X197840600Y-117119400D03*
%TD*%
D13*
%TO.C,Sec6*%
X158300000Y-114150000D03*
%TD*%
D10*
%TO.C,U3*%
X176555000Y-42460000D03*
D11*
X176555000Y-45000000D03*
X176555000Y-47540000D03*
%TD*%
D13*
%TO.C,Sec1*%
X103950000Y-114150000D03*
%TD*%
D22*
%TO.C,F2*%
X85144000Y-39984000D03*
D23*
X85144000Y-43684000D03*
X85144000Y-47984000D03*
X85144000Y-51684000D03*
%TD*%
D13*
%TO.C,Sec8*%
X174150000Y-114150000D03*
%TD*%
%TO.C,Sec5*%
X150900000Y-114150000D03*
%TD*%
D18*
%TO.C,TP5*%
X70744100Y-45974000D03*
%TD*%
D19*
%TO.C,J6*%
X172600000Y-83000000D03*
%TD*%
D15*
%TO.C,R5*%
X61200000Y-81470000D03*
D16*
X61200000Y-91630000D03*
%TD*%
D13*
%TO.C,MotorA1*%
X135550000Y-114150000D03*
%TD*%
%TO.C,5VSensors1*%
X51300000Y-98950000D03*
%TD*%
D24*
%TO.C,F1*%
X184300000Y-100500000D03*
D25*
X188000000Y-100500000D03*
X192300000Y-100500000D03*
X196000000Y-100500000D03*
%TD*%
%LPD*%
M02*
