%TF.GenerationSoftware,KiCad,Pcbnew,8.0.6*%
%TF.CreationDate,2024-11-17T15:14:54-07:00*%
%TF.ProjectId,SRX160,53525831-3630-42e6-9b69-6361645f7063,rev?*%
%TF.SameCoordinates,Original*%
%TF.FileFunction,Soldermask,Top*%
%TF.FilePolarity,Negative*%
%FSLAX46Y46*%
G04 Gerber Fmt 4.6, Leading zero omitted, Abs format (unit mm)*
G04 Created by KiCad (PCBNEW 8.0.6) date 2024-11-17 15:14:54*
%MOMM*%
%LPD*%
G01*
G04 APERTURE LIST*
G04 Aperture macros list*
%AMRoundRect*
0 Rectangle with rounded corners*
0 $1 Rounding radius*
0 $2 $3 $4 $5 $6 $7 $8 $9 X,Y pos of 4 corners*
0 Add a 4 corners polygon primitive as box body*
4,1,4,$2,$3,$4,$5,$6,$7,$8,$9,$2,$3,0*
0 Add four circle primitives for the rounded corners*
1,1,$1+$1,$2,$3*
1,1,$1+$1,$4,$5*
1,1,$1+$1,$6,$7*
1,1,$1+$1,$8,$9*
0 Add four rect primitives between the rounded corners*
20,1,$1+$1,$2,$3,$4,$5,0*
20,1,$1+$1,$4,$5,$6,$7,0*
20,1,$1+$1,$6,$7,$8,$9,0*
20,1,$1+$1,$8,$9,$2,$3,0*%
G04 Aperture macros list end*
%ADD10R,2.000000X1.905000*%
%ADD11O,2.000000X1.905000*%
%ADD12RoundRect,0.250000X1.950000X1.000000X-1.950000X1.000000X-1.950000X-1.000000X1.950000X-1.000000X0*%
%ADD13C,9.200000*%
%ADD14C,5.000000*%
%ADD15R,0.558800X1.460500*%
%ADD16R,3.403600X2.717800*%
%ADD17C,2.000000*%
%ADD18RoundRect,0.200000X0.275000X-0.200000X0.275000X0.200000X-0.275000X0.200000X-0.275000X-0.200000X0*%
%ADD19RoundRect,0.175000X0.175000X0.175000X-0.175000X0.175000X-0.175000X-0.175000X0.175000X-0.175000X0*%
%ADD20RoundRect,0.200000X-0.200000X-0.275000X0.200000X-0.275000X0.200000X0.275000X-0.200000X0.275000X0*%
%ADD21R,5.400000X2.900000*%
%ADD22C,1.600000*%
%ADD23O,1.600000X1.600000*%
%ADD24RoundRect,0.225000X-0.250000X0.225000X-0.250000X-0.225000X0.250000X-0.225000X0.250000X0.225000X0*%
%ADD25R,1.500000X0.650000*%
%ADD26RoundRect,0.225000X0.250000X-0.225000X0.250000X0.225000X-0.250000X0.225000X-0.250000X-0.225000X0*%
%ADD27R,1.600000X1.600000*%
%ADD28C,2.500000*%
%ADD29RoundRect,0.250000X-0.550000X1.500000X-0.550000X-1.500000X0.550000X-1.500000X0.550000X1.500000X0*%
%ADD30RoundRect,0.218750X0.256250X-0.218750X0.256250X0.218750X-0.256250X0.218750X-0.256250X-0.218750X0*%
%ADD31C,9.000000*%
%ADD32RoundRect,0.218750X-0.218750X-0.256250X0.218750X-0.256250X0.218750X0.256250X-0.218750X0.256250X0*%
%ADD33RoundRect,0.225000X0.225000X0.250000X-0.225000X0.250000X-0.225000X-0.250000X0.225000X-0.250000X0*%
%ADD34R,1.905000X2.000000*%
%ADD35O,1.905000X2.000000*%
%ADD36RoundRect,0.250000X1.000000X-1.950000X1.000000X1.950000X-1.000000X1.950000X-1.000000X-1.950000X0*%
%ADD37R,3.000000X2.000000*%
%ADD38O,3.000000X2.000000*%
%ADD39RoundRect,0.175000X-0.175000X-0.175000X0.175000X-0.175000X0.175000X0.175000X-0.175000X0.175000X0*%
%ADD40RoundRect,0.250000X-1.950000X-1.000000X1.950000X-1.000000X1.950000X1.000000X-1.950000X1.000000X0*%
%ADD41RoundRect,0.250000X0.550000X-1.500000X0.550000X1.500000X-0.550000X1.500000X-0.550000X-1.500000X0*%
%ADD42RoundRect,0.250000X-1.000000X-0.650000X1.000000X-0.650000X1.000000X0.650000X-1.000000X0.650000X0*%
%ADD43R,2.900000X5.400000*%
%ADD44RoundRect,0.250000X-0.650000X1.000000X-0.650000X-1.000000X0.650000X-1.000000X0.650000X1.000000X0*%
%ADD45RoundRect,0.225000X-0.225000X-0.250000X0.225000X-0.250000X0.225000X0.250000X-0.225000X0.250000X0*%
%ADD46RoundRect,0.250000X0.250000X0.475000X-0.250000X0.475000X-0.250000X-0.475000X0.250000X-0.475000X0*%
%ADD47R,2.000000X3.000000*%
%ADD48O,2.000000X3.000000*%
%ADD49RoundRect,0.250000X0.475000X-0.250000X0.475000X0.250000X-0.475000X0.250000X-0.475000X-0.250000X0*%
%ADD50R,0.650000X1.500000*%
G04 APERTURE END LIST*
D10*
%TO.C,U2*%
X176555000Y-59960000D03*
D11*
X176555000Y-62500000D03*
X176555000Y-65040000D03*
%TD*%
D12*
%TO.C,C2*%
X168700000Y-50000000D03*
X160300000Y-50000000D03*
%TD*%
D13*
%TO.C,H2*%
X40690800Y-40843200D03*
%TD*%
D14*
%TO.C,FlowPin1*%
X61200000Y-98950000D03*
%TD*%
D15*
%TO.C,U9*%
X113069800Y-88775850D03*
X111799800Y-88775850D03*
X110529800Y-88775850D03*
X109259800Y-88775850D03*
X109259800Y-94224150D03*
X110529800Y-94224150D03*
X111799800Y-94224150D03*
X113069800Y-94224150D03*
D16*
X111164800Y-91500000D03*
%TD*%
D17*
%TO.C,RV3*%
X55187200Y-52628000D03*
X57687200Y-52628000D03*
X60187200Y-52628000D03*
%TD*%
D18*
%TO.C,R4*%
X48945800Y-65595000D03*
X48945800Y-63945000D03*
%TD*%
D14*
%TO.C,Sec7*%
X166800000Y-114150000D03*
%TD*%
D17*
%TO.C,RV4*%
X74875100Y-52578000D03*
X72375100Y-52578000D03*
X69875100Y-52578000D03*
%TD*%
D19*
%TO.C,D10*%
X60132700Y-71331000D03*
X57982700Y-71331000D03*
%TD*%
D20*
%TO.C,R10*%
X185075000Y-106350000D03*
X186725000Y-106350000D03*
%TD*%
D14*
%TO.C,MotorB1*%
X143100000Y-114150000D03*
%TD*%
D21*
%TO.C,L1*%
X193000000Y-77400000D03*
X193000000Y-67500000D03*
%TD*%
D22*
%TO.C,R2*%
X51770000Y-77300000D03*
D23*
X61930000Y-77300000D03*
%TD*%
D13*
%TO.C,H3*%
X40208200Y-117043200D03*
%TD*%
D18*
%TO.C,R3*%
X183989304Y-66704461D03*
X183989304Y-65054461D03*
%TD*%
D24*
%TO.C,C14*%
X61874400Y-66763600D03*
X61874400Y-68313600D03*
%TD*%
D25*
%TO.C,U7*%
X76037400Y-65354200D03*
X76037400Y-64084200D03*
X76037400Y-62814200D03*
X76037400Y-61544200D03*
X70637400Y-61544200D03*
X70637400Y-62814200D03*
X70637400Y-64084200D03*
X70637400Y-65354200D03*
%TD*%
D14*
%TO.C,GndSensor1*%
X81200000Y-98875000D03*
%TD*%
%TO.C,Sec4*%
X127600000Y-114150000D03*
%TD*%
%TO.C,Pressure1*%
X71550000Y-98950000D03*
%TD*%
D26*
%TO.C,C27*%
X106750000Y-94675000D03*
X106750000Y-93125000D03*
%TD*%
D24*
%TO.C,C24*%
X100892000Y-51545000D03*
X100892000Y-53095000D03*
%TD*%
D13*
%TO.C,H1*%
X198196200Y-40894000D03*
%TD*%
D27*
%TO.C,A1*%
X107950000Y-79593600D03*
D23*
X110490000Y-79593600D03*
X113030000Y-79593600D03*
X115570000Y-79593600D03*
X118110000Y-79593600D03*
X120650000Y-79593600D03*
X123190000Y-79593600D03*
X125730000Y-79593600D03*
X128270000Y-79593600D03*
X130810000Y-79593600D03*
X133350000Y-79593600D03*
X135890000Y-79593600D03*
X138430000Y-79593600D03*
X140970000Y-79593600D03*
X143510000Y-79593600D03*
X143510000Y-64353600D03*
X140970000Y-64353600D03*
X138430000Y-64353600D03*
X135890000Y-64353600D03*
X133350000Y-64353600D03*
X130810000Y-64353600D03*
X128270000Y-64353600D03*
X125730000Y-64353600D03*
X123190000Y-64353600D03*
X120650000Y-64353600D03*
X118110000Y-64353600D03*
X115570000Y-64353600D03*
X113030000Y-64353600D03*
X110490000Y-64353600D03*
X107950000Y-64353600D03*
%TD*%
D26*
%TO.C,C25*%
X140650000Y-94275000D03*
X140650000Y-92725000D03*
%TD*%
D28*
%TO.C,TP6*%
X75443100Y-46101000D03*
%TD*%
D29*
%TO.C,C1*%
X129387600Y-99098800D03*
X129387600Y-104698800D03*
%TD*%
D30*
%TO.C,D5*%
X48920400Y-69316700D03*
X48920400Y-67741700D03*
%TD*%
D31*
%TO.C,J5*%
X192300000Y-90000000D03*
%TD*%
D19*
%TO.C,D9*%
X63862900Y-71323200D03*
X61712900Y-71323200D03*
%TD*%
D28*
%TO.C,TP8*%
X61704200Y-45847000D03*
%TD*%
D32*
%TO.C,D8*%
X185128400Y-108300000D03*
X186703400Y-108300000D03*
%TD*%
D24*
%TO.C,R9*%
X78417400Y-63830200D03*
X78417400Y-65380200D03*
%TD*%
D28*
%TO.C,TP7*%
X55989200Y-45847000D03*
%TD*%
D33*
%TO.C,C19*%
X71912400Y-67224200D03*
X70362400Y-67224200D03*
%TD*%
D34*
%TO.C,U5*%
X100384000Y-55876000D03*
D35*
X97844000Y-55876000D03*
X95304000Y-55876000D03*
%TD*%
D14*
%TO.C,Sec3*%
X119700000Y-114150000D03*
%TD*%
%TO.C,Sec2*%
X111900000Y-114150000D03*
%TD*%
D13*
%TO.C,H4*%
X197840600Y-117119400D03*
%TD*%
D14*
%TO.C,Sec6*%
X158300000Y-114150000D03*
%TD*%
D36*
%TO.C,C23*%
X96828000Y-48900000D03*
X96828000Y-40500000D03*
%TD*%
D32*
%TO.C,D1*%
X182412500Y-68800000D03*
X183987500Y-68800000D03*
%TD*%
D10*
%TO.C,U3*%
X176555000Y-42460000D03*
D11*
X176555000Y-45000000D03*
X176555000Y-47540000D03*
%TD*%
D12*
%TO.C,C4*%
X168700000Y-65000000D03*
X160300000Y-65000000D03*
%TD*%
D14*
%TO.C,Sec1*%
X103950000Y-114150000D03*
%TD*%
D37*
%TO.C,F2*%
X85144000Y-39984000D03*
D38*
X85144000Y-43684000D03*
X85144000Y-47984000D03*
X85144000Y-51684000D03*
%TD*%
D39*
%TO.C,D12*%
X74726900Y-69621400D03*
X76876900Y-69621400D03*
%TD*%
D40*
%TO.C,C3*%
X188662200Y-56667400D03*
X197062200Y-56667400D03*
%TD*%
D29*
%TO.C,C30*%
X118087600Y-99098800D03*
X118087600Y-104698800D03*
%TD*%
D14*
%TO.C,Sec8*%
X174150000Y-114150000D03*
%TD*%
D26*
%TO.C,C28*%
X118200000Y-94575000D03*
X118200000Y-93025000D03*
%TD*%
D14*
%TO.C,Sec5*%
X150900000Y-114150000D03*
%TD*%
D36*
%TO.C,C22*%
X110544000Y-48900000D03*
X110544000Y-40500000D03*
%TD*%
D41*
%TO.C,C7*%
X115595400Y-59442000D03*
X115595400Y-53842000D03*
%TD*%
D29*
%TO.C,C26*%
X140687600Y-99098800D03*
X140687600Y-104698800D03*
%TD*%
D28*
%TO.C,TP5*%
X70744100Y-45974000D03*
%TD*%
D31*
%TO.C,J6*%
X172600000Y-83000000D03*
%TD*%
D42*
%TO.C,D2*%
X162500000Y-41000000D03*
X166500000Y-41000000D03*
%TD*%
D22*
%TO.C,R5*%
X61200000Y-81470000D03*
D23*
X61200000Y-91630000D03*
%TD*%
D29*
%TO.C,C29*%
X106787600Y-99098800D03*
X106787600Y-104698800D03*
%TD*%
D43*
%TO.C,L2*%
X151950000Y-45500000D03*
X142050000Y-45500000D03*
%TD*%
D39*
%TO.C,D13*%
X78435300Y-69621400D03*
X80585300Y-69621400D03*
%TD*%
D42*
%TO.C,D3*%
X132250000Y-44650000D03*
X136250000Y-44650000D03*
%TD*%
D44*
%TO.C,D11*%
X182000000Y-87500000D03*
X182000000Y-91500000D03*
%TD*%
D15*
%TO.C,U8*%
X147055000Y-88775850D03*
X145785000Y-88775850D03*
X144515000Y-88775850D03*
X143245000Y-88775850D03*
X143245000Y-94224150D03*
X144515000Y-94224150D03*
X145785000Y-94224150D03*
X147055000Y-94224150D03*
D16*
X145150000Y-91500000D03*
%TD*%
D14*
%TO.C,MotorA1*%
X135550000Y-114150000D03*
%TD*%
D42*
%TO.C,D7*%
X183250000Y-42900000D03*
X187250000Y-42900000D03*
%TD*%
D14*
%TO.C,5VSensors1*%
X51300000Y-98950000D03*
%TD*%
D45*
%TO.C,C20*%
X70423400Y-59385200D03*
X71973400Y-59385200D03*
%TD*%
D36*
%TO.C,C21*%
X124260000Y-48900000D03*
X124260000Y-40500000D03*
%TD*%
D46*
%TO.C,C18*%
X76291400Y-59385200D03*
X74391400Y-59385200D03*
%TD*%
D15*
%TO.C,U1*%
X135726600Y-88775850D03*
X134456600Y-88775850D03*
X133186600Y-88775850D03*
X131916600Y-88775850D03*
X131916600Y-94224150D03*
X133186600Y-94224150D03*
X134456600Y-94224150D03*
X135726600Y-94224150D03*
D16*
X133821600Y-91500000D03*
%TD*%
D47*
%TO.C,F1*%
X184300000Y-100500000D03*
D48*
X188000000Y-100500000D03*
X192300000Y-100500000D03*
X196000000Y-100500000D03*
%TD*%
D33*
%TO.C,C17*%
X56185200Y-70231000D03*
X54635200Y-70231000D03*
%TD*%
D49*
%TO.C,C13*%
X57710200Y-60391800D03*
X57710200Y-58491800D03*
%TD*%
D15*
%TO.C,U10*%
X124398200Y-88775850D03*
X123128200Y-88775850D03*
X121858200Y-88775850D03*
X120588200Y-88775850D03*
X120588200Y-94224150D03*
X121858200Y-94224150D03*
X123128200Y-94224150D03*
X124398200Y-94224150D03*
D16*
X122493200Y-91500000D03*
%TD*%
D42*
%TO.C,D14*%
X192800000Y-108800000D03*
X196800000Y-108800000D03*
%TD*%
D24*
%TO.C,R1*%
X60410200Y-58866800D03*
X60410200Y-60416800D03*
%TD*%
%TO.C,C6*%
X121158000Y-59943400D03*
X121158000Y-61493400D03*
%TD*%
D26*
%TO.C,C5*%
X129286000Y-94475600D03*
X129286000Y-92925600D03*
%TD*%
D50*
%TO.C,U6*%
X59890200Y-62866800D03*
X58620200Y-62866800D03*
X57350200Y-62866800D03*
X56080200Y-62866800D03*
X56080200Y-68266800D03*
X57350200Y-68266800D03*
X58620200Y-68266800D03*
X59890200Y-68266800D03*
%TD*%
M02*
