%TF.GenerationSoftware,KiCad,Pcbnew,8.0.6*%
%TF.CreationDate,2024-11-17T15:14:54-07:00*%
%TF.ProjectId,SRX160,53525831-3630-42e6-9b69-6361645f7063,rev?*%
%TF.SameCoordinates,Original*%
%TF.FileFunction,Legend,Top*%
%TF.FilePolarity,Positive*%
%FSLAX46Y46*%
G04 Gerber Fmt 4.6, Leading zero omitted, Abs format (unit mm)*
G04 Created by KiCad (PCBNEW 8.0.6) date 2024-11-17 15:14:54*
%MOMM*%
%LPD*%
G01*
G04 APERTURE LIST*
G04 Aperture macros list*
%AMRoundRect*
0 Rectangle with rounded corners*
0 $1 Rounding radius*
0 $2 $3 $4 $5 $6 $7 $8 $9 X,Y pos of 4 corners*
0 Add a 4 corners polygon primitive as box body*
4,1,4,$2,$3,$4,$5,$6,$7,$8,$9,$2,$3,0*
0 Add four circle primitives for the rounded corners*
1,1,$1+$1,$2,$3*
1,1,$1+$1,$4,$5*
1,1,$1+$1,$6,$7*
1,1,$1+$1,$8,$9*
0 Add four rect primitives between the rounded corners*
20,1,$1+$1,$2,$3,$4,$5,0*
20,1,$1+$1,$4,$5,$6,$7,0*
20,1,$1+$1,$6,$7,$8,$9,0*
20,1,$1+$1,$8,$9,$2,$3,0*%
G04 Aperture macros list end*
%ADD10C,0.150000*%
%ADD11C,0.254000*%
%ADD12C,0.120000*%
%ADD13C,0.152400*%
%ADD14C,0.100000*%
%ADD15C,0.200000*%
%ADD16R,2.000000X1.905000*%
%ADD17O,2.000000X1.905000*%
%ADD18RoundRect,0.250000X1.950000X1.000000X-1.950000X1.000000X-1.950000X-1.000000X1.950000X-1.000000X0*%
%ADD19C,9.200000*%
%ADD20C,5.000000*%
%ADD21R,0.558800X1.460500*%
%ADD22R,3.403600X2.717800*%
%ADD23C,2.000000*%
%ADD24RoundRect,0.200000X0.275000X-0.200000X0.275000X0.200000X-0.275000X0.200000X-0.275000X-0.200000X0*%
%ADD25RoundRect,0.175000X0.175000X0.175000X-0.175000X0.175000X-0.175000X-0.175000X0.175000X-0.175000X0*%
%ADD26RoundRect,0.200000X-0.200000X-0.275000X0.200000X-0.275000X0.200000X0.275000X-0.200000X0.275000X0*%
%ADD27R,5.400000X2.900000*%
%ADD28C,1.600000*%
%ADD29O,1.600000X1.600000*%
%ADD30RoundRect,0.225000X-0.250000X0.225000X-0.250000X-0.225000X0.250000X-0.225000X0.250000X0.225000X0*%
%ADD31R,1.500000X0.650000*%
%ADD32RoundRect,0.225000X0.250000X-0.225000X0.250000X0.225000X-0.250000X0.225000X-0.250000X-0.225000X0*%
%ADD33R,1.600000X1.600000*%
%ADD34C,2.500000*%
%ADD35RoundRect,0.250000X-0.550000X1.500000X-0.550000X-1.500000X0.550000X-1.500000X0.550000X1.500000X0*%
%ADD36RoundRect,0.218750X0.256250X-0.218750X0.256250X0.218750X-0.256250X0.218750X-0.256250X-0.218750X0*%
%ADD37C,9.000000*%
%ADD38RoundRect,0.218750X-0.218750X-0.256250X0.218750X-0.256250X0.218750X0.256250X-0.218750X0.256250X0*%
%ADD39RoundRect,0.225000X0.225000X0.250000X-0.225000X0.250000X-0.225000X-0.250000X0.225000X-0.250000X0*%
%ADD40R,1.905000X2.000000*%
%ADD41O,1.905000X2.000000*%
%ADD42RoundRect,0.250000X1.000000X-1.950000X1.000000X1.950000X-1.000000X1.950000X-1.000000X-1.950000X0*%
%ADD43R,3.000000X2.000000*%
%ADD44O,3.000000X2.000000*%
%ADD45RoundRect,0.175000X-0.175000X-0.175000X0.175000X-0.175000X0.175000X0.175000X-0.175000X0.175000X0*%
%ADD46RoundRect,0.250000X-1.950000X-1.000000X1.950000X-1.000000X1.950000X1.000000X-1.950000X1.000000X0*%
%ADD47RoundRect,0.250000X0.550000X-1.500000X0.550000X1.500000X-0.550000X1.500000X-0.550000X-1.500000X0*%
%ADD48RoundRect,0.250000X-1.000000X-0.650000X1.000000X-0.650000X1.000000X0.650000X-1.000000X0.650000X0*%
%ADD49R,2.900000X5.400000*%
%ADD50RoundRect,0.250000X-0.650000X1.000000X-0.650000X-1.000000X0.650000X-1.000000X0.650000X1.000000X0*%
%ADD51RoundRect,0.225000X-0.225000X-0.250000X0.225000X-0.250000X0.225000X0.250000X-0.225000X0.250000X0*%
%ADD52RoundRect,0.250000X0.250000X0.475000X-0.250000X0.475000X-0.250000X-0.475000X0.250000X-0.475000X0*%
%ADD53R,2.000000X3.000000*%
%ADD54O,2.000000X3.000000*%
%ADD55RoundRect,0.250000X0.475000X-0.250000X0.475000X0.250000X-0.475000X0.250000X-0.475000X-0.250000X0*%
%ADD56R,0.650000X1.500000*%
G04 APERTURE END LIST*
D10*
X72316212Y-41894009D02*
X71982879Y-41894009D01*
X71982879Y-42417819D02*
X71982879Y-41417819D01*
X71982879Y-41417819D02*
X72459069Y-41417819D01*
X72982879Y-42417819D02*
X72887641Y-42370200D01*
X72887641Y-42370200D02*
X72840022Y-42274961D01*
X72840022Y-42274961D02*
X72840022Y-41417819D01*
X73506689Y-42417819D02*
X73411451Y-42370200D01*
X73411451Y-42370200D02*
X73363832Y-42322580D01*
X73363832Y-42322580D02*
X73316213Y-42227342D01*
X73316213Y-42227342D02*
X73316213Y-41941628D01*
X73316213Y-41941628D02*
X73363832Y-41846390D01*
X73363832Y-41846390D02*
X73411451Y-41798771D01*
X73411451Y-41798771D02*
X73506689Y-41751152D01*
X73506689Y-41751152D02*
X73649546Y-41751152D01*
X73649546Y-41751152D02*
X73744784Y-41798771D01*
X73744784Y-41798771D02*
X73792403Y-41846390D01*
X73792403Y-41846390D02*
X73840022Y-41941628D01*
X73840022Y-41941628D02*
X73840022Y-42227342D01*
X73840022Y-42227342D02*
X73792403Y-42322580D01*
X73792403Y-42322580D02*
X73744784Y-42370200D01*
X73744784Y-42370200D02*
X73649546Y-42417819D01*
X73649546Y-42417819D02*
X73506689Y-42417819D01*
X74173356Y-41751152D02*
X74363832Y-42417819D01*
X74363832Y-42417819D02*
X74554308Y-41941628D01*
X74554308Y-41941628D02*
X74744784Y-42417819D01*
X74744784Y-42417819D02*
X74935260Y-41751152D01*
X187710588Y-103919819D02*
X187139160Y-103919819D01*
X187424874Y-103919819D02*
X187424874Y-102919819D01*
X187424874Y-102919819D02*
X187329636Y-103062676D01*
X187329636Y-103062676D02*
X187234398Y-103157914D01*
X187234398Y-103157914D02*
X187139160Y-103205533D01*
X188091541Y-103015057D02*
X188139160Y-102967438D01*
X188139160Y-102967438D02*
X188234398Y-102919819D01*
X188234398Y-102919819D02*
X188472493Y-102919819D01*
X188472493Y-102919819D02*
X188567731Y-102967438D01*
X188567731Y-102967438D02*
X188615350Y-103015057D01*
X188615350Y-103015057D02*
X188662969Y-103110295D01*
X188662969Y-103110295D02*
X188662969Y-103205533D01*
X188662969Y-103205533D02*
X188615350Y-103348390D01*
X188615350Y-103348390D02*
X188043922Y-103919819D01*
X188043922Y-103919819D02*
X188662969Y-103919819D01*
X188948684Y-102919819D02*
X189282017Y-103919819D01*
X189282017Y-103919819D02*
X189615350Y-102919819D01*
X190567732Y-103253152D02*
X190948684Y-103253152D01*
X190710589Y-103919819D02*
X190710589Y-103062676D01*
X190710589Y-103062676D02*
X190758208Y-102967438D01*
X190758208Y-102967438D02*
X190853446Y-102919819D01*
X190853446Y-102919819D02*
X190948684Y-102919819D01*
X191710589Y-103253152D02*
X191710589Y-103919819D01*
X191282018Y-103253152D02*
X191282018Y-103776961D01*
X191282018Y-103776961D02*
X191329637Y-103872200D01*
X191329637Y-103872200D02*
X191424875Y-103919819D01*
X191424875Y-103919819D02*
X191567732Y-103919819D01*
X191567732Y-103919819D02*
X191662970Y-103872200D01*
X191662970Y-103872200D02*
X191710589Y-103824580D01*
X192139161Y-103872200D02*
X192234399Y-103919819D01*
X192234399Y-103919819D02*
X192424875Y-103919819D01*
X192424875Y-103919819D02*
X192520113Y-103872200D01*
X192520113Y-103872200D02*
X192567732Y-103776961D01*
X192567732Y-103776961D02*
X192567732Y-103729342D01*
X192567732Y-103729342D02*
X192520113Y-103634104D01*
X192520113Y-103634104D02*
X192424875Y-103586485D01*
X192424875Y-103586485D02*
X192282018Y-103586485D01*
X192282018Y-103586485D02*
X192186780Y-103538866D01*
X192186780Y-103538866D02*
X192139161Y-103443628D01*
X192139161Y-103443628D02*
X192139161Y-103396009D01*
X192139161Y-103396009D02*
X192186780Y-103300771D01*
X192186780Y-103300771D02*
X192282018Y-103253152D01*
X192282018Y-103253152D02*
X192424875Y-103253152D01*
X192424875Y-103253152D02*
X192520113Y-103300771D01*
X193377256Y-103872200D02*
X193282018Y-103919819D01*
X193282018Y-103919819D02*
X193091542Y-103919819D01*
X193091542Y-103919819D02*
X192996304Y-103872200D01*
X192996304Y-103872200D02*
X192948685Y-103776961D01*
X192948685Y-103776961D02*
X192948685Y-103396009D01*
X192948685Y-103396009D02*
X192996304Y-103300771D01*
X192996304Y-103300771D02*
X193091542Y-103253152D01*
X193091542Y-103253152D02*
X193282018Y-103253152D01*
X193282018Y-103253152D02*
X193377256Y-103300771D01*
X193377256Y-103300771D02*
X193424875Y-103396009D01*
X193424875Y-103396009D02*
X193424875Y-103491247D01*
X193424875Y-103491247D02*
X192948685Y-103586485D01*
X83121092Y-36841106D02*
X82644902Y-36841106D01*
X82644902Y-36841106D02*
X82597283Y-37317296D01*
X82597283Y-37317296D02*
X82644902Y-37269677D01*
X82644902Y-37269677D02*
X82740140Y-37222058D01*
X82740140Y-37222058D02*
X82978235Y-37222058D01*
X82978235Y-37222058D02*
X83073473Y-37269677D01*
X83073473Y-37269677D02*
X83121092Y-37317296D01*
X83121092Y-37317296D02*
X83168711Y-37412534D01*
X83168711Y-37412534D02*
X83168711Y-37650629D01*
X83168711Y-37650629D02*
X83121092Y-37745867D01*
X83121092Y-37745867D02*
X83073473Y-37793487D01*
X83073473Y-37793487D02*
X82978235Y-37841106D01*
X82978235Y-37841106D02*
X82740140Y-37841106D01*
X82740140Y-37841106D02*
X82644902Y-37793487D01*
X82644902Y-37793487D02*
X82597283Y-37745867D01*
X83454426Y-36841106D02*
X83787759Y-37841106D01*
X83787759Y-37841106D02*
X84121092Y-36841106D01*
X85073474Y-37174439D02*
X85454426Y-37174439D01*
X85216331Y-37841106D02*
X85216331Y-36983963D01*
X85216331Y-36983963D02*
X85263950Y-36888725D01*
X85263950Y-36888725D02*
X85359188Y-36841106D01*
X85359188Y-36841106D02*
X85454426Y-36841106D01*
X86216331Y-37174439D02*
X86216331Y-37841106D01*
X85787760Y-37174439D02*
X85787760Y-37698248D01*
X85787760Y-37698248D02*
X85835379Y-37793487D01*
X85835379Y-37793487D02*
X85930617Y-37841106D01*
X85930617Y-37841106D02*
X86073474Y-37841106D01*
X86073474Y-37841106D02*
X86168712Y-37793487D01*
X86168712Y-37793487D02*
X86216331Y-37745867D01*
X86644903Y-37793487D02*
X86740141Y-37841106D01*
X86740141Y-37841106D02*
X86930617Y-37841106D01*
X86930617Y-37841106D02*
X87025855Y-37793487D01*
X87025855Y-37793487D02*
X87073474Y-37698248D01*
X87073474Y-37698248D02*
X87073474Y-37650629D01*
X87073474Y-37650629D02*
X87025855Y-37555391D01*
X87025855Y-37555391D02*
X86930617Y-37507772D01*
X86930617Y-37507772D02*
X86787760Y-37507772D01*
X86787760Y-37507772D02*
X86692522Y-37460153D01*
X86692522Y-37460153D02*
X86644903Y-37364915D01*
X86644903Y-37364915D02*
X86644903Y-37317296D01*
X86644903Y-37317296D02*
X86692522Y-37222058D01*
X86692522Y-37222058D02*
X86787760Y-37174439D01*
X86787760Y-37174439D02*
X86930617Y-37174439D01*
X86930617Y-37174439D02*
X87025855Y-37222058D01*
X87882998Y-37793487D02*
X87787760Y-37841106D01*
X87787760Y-37841106D02*
X87597284Y-37841106D01*
X87597284Y-37841106D02*
X87502046Y-37793487D01*
X87502046Y-37793487D02*
X87454427Y-37698248D01*
X87454427Y-37698248D02*
X87454427Y-37317296D01*
X87454427Y-37317296D02*
X87502046Y-37222058D01*
X87502046Y-37222058D02*
X87597284Y-37174439D01*
X87597284Y-37174439D02*
X87787760Y-37174439D01*
X87787760Y-37174439D02*
X87882998Y-37222058D01*
X87882998Y-37222058D02*
X87930617Y-37317296D01*
X87930617Y-37317296D02*
X87930617Y-37412534D01*
X87930617Y-37412534D02*
X87454427Y-37507772D01*
X53658979Y-42287819D02*
X53658979Y-41287819D01*
X53658979Y-41287819D02*
X54039931Y-41287819D01*
X54039931Y-41287819D02*
X54135169Y-41335438D01*
X54135169Y-41335438D02*
X54182788Y-41383057D01*
X54182788Y-41383057D02*
X54230407Y-41478295D01*
X54230407Y-41478295D02*
X54230407Y-41621152D01*
X54230407Y-41621152D02*
X54182788Y-41716390D01*
X54182788Y-41716390D02*
X54135169Y-41764009D01*
X54135169Y-41764009D02*
X54039931Y-41811628D01*
X54039931Y-41811628D02*
X53658979Y-41811628D01*
X54658979Y-42287819D02*
X54658979Y-41621152D01*
X54658979Y-41811628D02*
X54706598Y-41716390D01*
X54706598Y-41716390D02*
X54754217Y-41668771D01*
X54754217Y-41668771D02*
X54849455Y-41621152D01*
X54849455Y-41621152D02*
X54944693Y-41621152D01*
X55658979Y-42240200D02*
X55563741Y-42287819D01*
X55563741Y-42287819D02*
X55373265Y-42287819D01*
X55373265Y-42287819D02*
X55278027Y-42240200D01*
X55278027Y-42240200D02*
X55230408Y-42144961D01*
X55230408Y-42144961D02*
X55230408Y-41764009D01*
X55230408Y-41764009D02*
X55278027Y-41668771D01*
X55278027Y-41668771D02*
X55373265Y-41621152D01*
X55373265Y-41621152D02*
X55563741Y-41621152D01*
X55563741Y-41621152D02*
X55658979Y-41668771D01*
X55658979Y-41668771D02*
X55706598Y-41764009D01*
X55706598Y-41764009D02*
X55706598Y-41859247D01*
X55706598Y-41859247D02*
X55230408Y-41954485D01*
X56087551Y-42240200D02*
X56182789Y-42287819D01*
X56182789Y-42287819D02*
X56373265Y-42287819D01*
X56373265Y-42287819D02*
X56468503Y-42240200D01*
X56468503Y-42240200D02*
X56516122Y-42144961D01*
X56516122Y-42144961D02*
X56516122Y-42097342D01*
X56516122Y-42097342D02*
X56468503Y-42002104D01*
X56468503Y-42002104D02*
X56373265Y-41954485D01*
X56373265Y-41954485D02*
X56230408Y-41954485D01*
X56230408Y-41954485D02*
X56135170Y-41906866D01*
X56135170Y-41906866D02*
X56087551Y-41811628D01*
X56087551Y-41811628D02*
X56087551Y-41764009D01*
X56087551Y-41764009D02*
X56135170Y-41668771D01*
X56135170Y-41668771D02*
X56230408Y-41621152D01*
X56230408Y-41621152D02*
X56373265Y-41621152D01*
X56373265Y-41621152D02*
X56468503Y-41668771D01*
X56897075Y-42240200D02*
X56992313Y-42287819D01*
X56992313Y-42287819D02*
X57182789Y-42287819D01*
X57182789Y-42287819D02*
X57278027Y-42240200D01*
X57278027Y-42240200D02*
X57325646Y-42144961D01*
X57325646Y-42144961D02*
X57325646Y-42097342D01*
X57325646Y-42097342D02*
X57278027Y-42002104D01*
X57278027Y-42002104D02*
X57182789Y-41954485D01*
X57182789Y-41954485D02*
X57039932Y-41954485D01*
X57039932Y-41954485D02*
X56944694Y-41906866D01*
X56944694Y-41906866D02*
X56897075Y-41811628D01*
X56897075Y-41811628D02*
X56897075Y-41764009D01*
X56897075Y-41764009D02*
X56944694Y-41668771D01*
X56944694Y-41668771D02*
X57039932Y-41621152D01*
X57039932Y-41621152D02*
X57182789Y-41621152D01*
X57182789Y-41621152D02*
X57278027Y-41668771D01*
X58182789Y-41621152D02*
X58182789Y-42287819D01*
X57754218Y-41621152D02*
X57754218Y-42144961D01*
X57754218Y-42144961D02*
X57801837Y-42240200D01*
X57801837Y-42240200D02*
X57897075Y-42287819D01*
X57897075Y-42287819D02*
X58039932Y-42287819D01*
X58039932Y-42287819D02*
X58135170Y-42240200D01*
X58135170Y-42240200D02*
X58182789Y-42192580D01*
X58658980Y-42287819D02*
X58658980Y-41621152D01*
X58658980Y-41811628D02*
X58706599Y-41716390D01*
X58706599Y-41716390D02*
X58754218Y-41668771D01*
X58754218Y-41668771D02*
X58849456Y-41621152D01*
X58849456Y-41621152D02*
X58944694Y-41621152D01*
X59658980Y-42240200D02*
X59563742Y-42287819D01*
X59563742Y-42287819D02*
X59373266Y-42287819D01*
X59373266Y-42287819D02*
X59278028Y-42240200D01*
X59278028Y-42240200D02*
X59230409Y-42144961D01*
X59230409Y-42144961D02*
X59230409Y-41764009D01*
X59230409Y-41764009D02*
X59278028Y-41668771D01*
X59278028Y-41668771D02*
X59373266Y-41621152D01*
X59373266Y-41621152D02*
X59563742Y-41621152D01*
X59563742Y-41621152D02*
X59658980Y-41668771D01*
X59658980Y-41668771D02*
X59706599Y-41764009D01*
X59706599Y-41764009D02*
X59706599Y-41859247D01*
X59706599Y-41859247D02*
X59230409Y-41954485D01*
X61425788Y-63486619D02*
X60854360Y-63486619D01*
X61140074Y-63486619D02*
X61140074Y-62486619D01*
X61140074Y-62486619D02*
X61044836Y-62629476D01*
X61044836Y-62629476D02*
X60949598Y-62724714D01*
X60949598Y-62724714D02*
X60854360Y-62772333D01*
X76382219Y-66398611D02*
X76382219Y-66970039D01*
X76382219Y-66684325D02*
X75382219Y-66684325D01*
X75382219Y-66684325D02*
X75525076Y-66779563D01*
X75525076Y-66779563D02*
X75620314Y-66874801D01*
X75620314Y-66874801D02*
X75667933Y-66970039D01*
X170660588Y-90917438D02*
X170565350Y-90869819D01*
X170565350Y-90869819D02*
X170422493Y-90869819D01*
X170422493Y-90869819D02*
X170279636Y-90917438D01*
X170279636Y-90917438D02*
X170184398Y-91012676D01*
X170184398Y-91012676D02*
X170136779Y-91107914D01*
X170136779Y-91107914D02*
X170089160Y-91298390D01*
X170089160Y-91298390D02*
X170089160Y-91441247D01*
X170089160Y-91441247D02*
X170136779Y-91631723D01*
X170136779Y-91631723D02*
X170184398Y-91726961D01*
X170184398Y-91726961D02*
X170279636Y-91822200D01*
X170279636Y-91822200D02*
X170422493Y-91869819D01*
X170422493Y-91869819D02*
X170517731Y-91869819D01*
X170517731Y-91869819D02*
X170660588Y-91822200D01*
X170660588Y-91822200D02*
X170708207Y-91774580D01*
X170708207Y-91774580D02*
X170708207Y-91441247D01*
X170708207Y-91441247D02*
X170517731Y-91441247D01*
X171136779Y-91869819D02*
X171136779Y-91203152D01*
X171136779Y-91393628D02*
X171184398Y-91298390D01*
X171184398Y-91298390D02*
X171232017Y-91250771D01*
X171232017Y-91250771D02*
X171327255Y-91203152D01*
X171327255Y-91203152D02*
X171422493Y-91203152D01*
X171898684Y-91869819D02*
X171803446Y-91822200D01*
X171803446Y-91822200D02*
X171755827Y-91774580D01*
X171755827Y-91774580D02*
X171708208Y-91679342D01*
X171708208Y-91679342D02*
X171708208Y-91393628D01*
X171708208Y-91393628D02*
X171755827Y-91298390D01*
X171755827Y-91298390D02*
X171803446Y-91250771D01*
X171803446Y-91250771D02*
X171898684Y-91203152D01*
X171898684Y-91203152D02*
X172041541Y-91203152D01*
X172041541Y-91203152D02*
X172136779Y-91250771D01*
X172136779Y-91250771D02*
X172184398Y-91298390D01*
X172184398Y-91298390D02*
X172232017Y-91393628D01*
X172232017Y-91393628D02*
X172232017Y-91679342D01*
X172232017Y-91679342D02*
X172184398Y-91774580D01*
X172184398Y-91774580D02*
X172136779Y-91822200D01*
X172136779Y-91822200D02*
X172041541Y-91869819D01*
X172041541Y-91869819D02*
X171898684Y-91869819D01*
X173089160Y-91203152D02*
X173089160Y-91869819D01*
X172660589Y-91203152D02*
X172660589Y-91726961D01*
X172660589Y-91726961D02*
X172708208Y-91822200D01*
X172708208Y-91822200D02*
X172803446Y-91869819D01*
X172803446Y-91869819D02*
X172946303Y-91869819D01*
X172946303Y-91869819D02*
X173041541Y-91822200D01*
X173041541Y-91822200D02*
X173089160Y-91774580D01*
X173565351Y-91203152D02*
X173565351Y-91869819D01*
X173565351Y-91298390D02*
X173612970Y-91250771D01*
X173612970Y-91250771D02*
X173708208Y-91203152D01*
X173708208Y-91203152D02*
X173851065Y-91203152D01*
X173851065Y-91203152D02*
X173946303Y-91250771D01*
X173946303Y-91250771D02*
X173993922Y-91346009D01*
X173993922Y-91346009D02*
X173993922Y-91869819D01*
X174898684Y-91869819D02*
X174898684Y-90869819D01*
X174898684Y-91822200D02*
X174803446Y-91869819D01*
X174803446Y-91869819D02*
X174612970Y-91869819D01*
X174612970Y-91869819D02*
X174517732Y-91822200D01*
X174517732Y-91822200D02*
X174470113Y-91774580D01*
X174470113Y-91774580D02*
X174422494Y-91679342D01*
X174422494Y-91679342D02*
X174422494Y-91393628D01*
X174422494Y-91393628D02*
X174470113Y-91298390D01*
X174470113Y-91298390D02*
X174517732Y-91250771D01*
X174517732Y-91250771D02*
X174612970Y-91203152D01*
X174612970Y-91203152D02*
X174803446Y-91203152D01*
X174803446Y-91203152D02*
X174898684Y-91250771D01*
X197710588Y-94019819D02*
X197139160Y-94019819D01*
X197424874Y-94019819D02*
X197424874Y-93019819D01*
X197424874Y-93019819D02*
X197329636Y-93162676D01*
X197329636Y-93162676D02*
X197234398Y-93257914D01*
X197234398Y-93257914D02*
X197139160Y-93305533D01*
X198091541Y-93115057D02*
X198139160Y-93067438D01*
X198139160Y-93067438D02*
X198234398Y-93019819D01*
X198234398Y-93019819D02*
X198472493Y-93019819D01*
X198472493Y-93019819D02*
X198567731Y-93067438D01*
X198567731Y-93067438D02*
X198615350Y-93115057D01*
X198615350Y-93115057D02*
X198662969Y-93210295D01*
X198662969Y-93210295D02*
X198662969Y-93305533D01*
X198662969Y-93305533D02*
X198615350Y-93448390D01*
X198615350Y-93448390D02*
X198043922Y-94019819D01*
X198043922Y-94019819D02*
X198662969Y-94019819D01*
X198948684Y-93019819D02*
X199282017Y-94019819D01*
X199282017Y-94019819D02*
X199615350Y-93019819D01*
X180288095Y-62104819D02*
X180288095Y-62914342D01*
X180288095Y-62914342D02*
X180335714Y-63009580D01*
X180335714Y-63009580D02*
X180383333Y-63057200D01*
X180383333Y-63057200D02*
X180478571Y-63104819D01*
X180478571Y-63104819D02*
X180669047Y-63104819D01*
X180669047Y-63104819D02*
X180764285Y-63057200D01*
X180764285Y-63057200D02*
X180811904Y-63009580D01*
X180811904Y-63009580D02*
X180859523Y-62914342D01*
X180859523Y-62914342D02*
X180859523Y-62104819D01*
X181288095Y-62200057D02*
X181335714Y-62152438D01*
X181335714Y-62152438D02*
X181430952Y-62104819D01*
X181430952Y-62104819D02*
X181669047Y-62104819D01*
X181669047Y-62104819D02*
X181764285Y-62152438D01*
X181764285Y-62152438D02*
X181811904Y-62200057D01*
X181811904Y-62200057D02*
X181859523Y-62295295D01*
X181859523Y-62295295D02*
X181859523Y-62390533D01*
X181859523Y-62390533D02*
X181811904Y-62533390D01*
X181811904Y-62533390D02*
X181240476Y-63104819D01*
X181240476Y-63104819D02*
X181859523Y-63104819D01*
X164333333Y-56659580D02*
X164285714Y-56707200D01*
X164285714Y-56707200D02*
X164142857Y-56754819D01*
X164142857Y-56754819D02*
X164047619Y-56754819D01*
X164047619Y-56754819D02*
X163904762Y-56707200D01*
X163904762Y-56707200D02*
X163809524Y-56611961D01*
X163809524Y-56611961D02*
X163761905Y-56516723D01*
X163761905Y-56516723D02*
X163714286Y-56326247D01*
X163714286Y-56326247D02*
X163714286Y-56183390D01*
X163714286Y-56183390D02*
X163761905Y-55992914D01*
X163761905Y-55992914D02*
X163809524Y-55897676D01*
X163809524Y-55897676D02*
X163904762Y-55802438D01*
X163904762Y-55802438D02*
X164047619Y-55754819D01*
X164047619Y-55754819D02*
X164142857Y-55754819D01*
X164142857Y-55754819D02*
X164285714Y-55802438D01*
X164285714Y-55802438D02*
X164333333Y-55850057D01*
X164714286Y-55850057D02*
X164761905Y-55802438D01*
X164761905Y-55802438D02*
X164857143Y-55754819D01*
X164857143Y-55754819D02*
X165095238Y-55754819D01*
X165095238Y-55754819D02*
X165190476Y-55802438D01*
X165190476Y-55802438D02*
X165238095Y-55850057D01*
X165238095Y-55850057D02*
X165285714Y-55945295D01*
X165285714Y-55945295D02*
X165285714Y-56040533D01*
X165285714Y-56040533D02*
X165238095Y-56183390D01*
X165238095Y-56183390D02*
X164666667Y-56754819D01*
X164666667Y-56754819D02*
X165285714Y-56754819D01*
X58388095Y-103781009D02*
X58054762Y-103781009D01*
X58054762Y-104304819D02*
X58054762Y-103304819D01*
X58054762Y-103304819D02*
X58530952Y-103304819D01*
X59054762Y-104304819D02*
X58959524Y-104257200D01*
X58959524Y-104257200D02*
X58911905Y-104161961D01*
X58911905Y-104161961D02*
X58911905Y-103304819D01*
X59578572Y-104304819D02*
X59483334Y-104257200D01*
X59483334Y-104257200D02*
X59435715Y-104209580D01*
X59435715Y-104209580D02*
X59388096Y-104114342D01*
X59388096Y-104114342D02*
X59388096Y-103828628D01*
X59388096Y-103828628D02*
X59435715Y-103733390D01*
X59435715Y-103733390D02*
X59483334Y-103685771D01*
X59483334Y-103685771D02*
X59578572Y-103638152D01*
X59578572Y-103638152D02*
X59721429Y-103638152D01*
X59721429Y-103638152D02*
X59816667Y-103685771D01*
X59816667Y-103685771D02*
X59864286Y-103733390D01*
X59864286Y-103733390D02*
X59911905Y-103828628D01*
X59911905Y-103828628D02*
X59911905Y-104114342D01*
X59911905Y-104114342D02*
X59864286Y-104209580D01*
X59864286Y-104209580D02*
X59816667Y-104257200D01*
X59816667Y-104257200D02*
X59721429Y-104304819D01*
X59721429Y-104304819D02*
X59578572Y-104304819D01*
X60245239Y-103638152D02*
X60435715Y-104304819D01*
X60435715Y-104304819D02*
X60626191Y-103828628D01*
X60626191Y-103828628D02*
X60816667Y-104304819D01*
X60816667Y-104304819D02*
X61007143Y-103638152D01*
X61388096Y-104304819D02*
X61388096Y-103304819D01*
X61388096Y-103304819D02*
X61769048Y-103304819D01*
X61769048Y-103304819D02*
X61864286Y-103352438D01*
X61864286Y-103352438D02*
X61911905Y-103400057D01*
X61911905Y-103400057D02*
X61959524Y-103495295D01*
X61959524Y-103495295D02*
X61959524Y-103638152D01*
X61959524Y-103638152D02*
X61911905Y-103733390D01*
X61911905Y-103733390D02*
X61864286Y-103781009D01*
X61864286Y-103781009D02*
X61769048Y-103828628D01*
X61769048Y-103828628D02*
X61388096Y-103828628D01*
X62388096Y-104304819D02*
X62388096Y-103638152D01*
X62388096Y-103304819D02*
X62340477Y-103352438D01*
X62340477Y-103352438D02*
X62388096Y-103400057D01*
X62388096Y-103400057D02*
X62435715Y-103352438D01*
X62435715Y-103352438D02*
X62388096Y-103304819D01*
X62388096Y-103304819D02*
X62388096Y-103400057D01*
X62864286Y-103638152D02*
X62864286Y-104304819D01*
X62864286Y-103733390D02*
X62911905Y-103685771D01*
X62911905Y-103685771D02*
X63007143Y-103638152D01*
X63007143Y-103638152D02*
X63150000Y-103638152D01*
X63150000Y-103638152D02*
X63245238Y-103685771D01*
X63245238Y-103685771D02*
X63292857Y-103781009D01*
X63292857Y-103781009D02*
X63292857Y-104304819D01*
X64292857Y-104304819D02*
X63721429Y-104304819D01*
X64007143Y-104304819D02*
X64007143Y-103304819D01*
X64007143Y-103304819D02*
X63911905Y-103447676D01*
X63911905Y-103447676D02*
X63816667Y-103542914D01*
X63816667Y-103542914D02*
X63721429Y-103590533D01*
X115309980Y-91338095D02*
X114500457Y-91338095D01*
X114500457Y-91338095D02*
X114405219Y-91385714D01*
X114405219Y-91385714D02*
X114357600Y-91433333D01*
X114357600Y-91433333D02*
X114309980Y-91528571D01*
X114309980Y-91528571D02*
X114309980Y-91719047D01*
X114309980Y-91719047D02*
X114357600Y-91814285D01*
X114357600Y-91814285D02*
X114405219Y-91861904D01*
X114405219Y-91861904D02*
X114500457Y-91909523D01*
X114500457Y-91909523D02*
X115309980Y-91909523D01*
X114309980Y-92433333D02*
X114309980Y-92623809D01*
X114309980Y-92623809D02*
X114357600Y-92719047D01*
X114357600Y-92719047D02*
X114405219Y-92766666D01*
X114405219Y-92766666D02*
X114548076Y-92861904D01*
X114548076Y-92861904D02*
X114738552Y-92909523D01*
X114738552Y-92909523D02*
X115119504Y-92909523D01*
X115119504Y-92909523D02*
X115214742Y-92861904D01*
X115214742Y-92861904D02*
X115262361Y-92814285D01*
X115262361Y-92814285D02*
X115309980Y-92719047D01*
X115309980Y-92719047D02*
X115309980Y-92528571D01*
X115309980Y-92528571D02*
X115262361Y-92433333D01*
X115262361Y-92433333D02*
X115214742Y-92385714D01*
X115214742Y-92385714D02*
X115119504Y-92338095D01*
X115119504Y-92338095D02*
X114881409Y-92338095D01*
X114881409Y-92338095D02*
X114786171Y-92385714D01*
X114786171Y-92385714D02*
X114738552Y-92433333D01*
X114738552Y-92433333D02*
X114690933Y-92528571D01*
X114690933Y-92528571D02*
X114690933Y-92719047D01*
X114690933Y-92719047D02*
X114738552Y-92814285D01*
X114738552Y-92814285D02*
X114786171Y-92861904D01*
X114786171Y-92861904D02*
X114881409Y-92909523D01*
X47970619Y-64936666D02*
X47494428Y-65269999D01*
X47970619Y-65508094D02*
X46970619Y-65508094D01*
X46970619Y-65508094D02*
X46970619Y-65127142D01*
X46970619Y-65127142D02*
X47018238Y-65031904D01*
X47018238Y-65031904D02*
X47065857Y-64984285D01*
X47065857Y-64984285D02*
X47161095Y-64936666D01*
X47161095Y-64936666D02*
X47303952Y-64936666D01*
X47303952Y-64936666D02*
X47399190Y-64984285D01*
X47399190Y-64984285D02*
X47446809Y-65031904D01*
X47446809Y-65031904D02*
X47494428Y-65127142D01*
X47494428Y-65127142D02*
X47494428Y-65508094D01*
X47303952Y-64079523D02*
X47970619Y-64079523D01*
X46923000Y-64317618D02*
X47637285Y-64555713D01*
X47637285Y-64555713D02*
X47637285Y-63936666D01*
X165180952Y-118657200D02*
X165323809Y-118704819D01*
X165323809Y-118704819D02*
X165561904Y-118704819D01*
X165561904Y-118704819D02*
X165657142Y-118657200D01*
X165657142Y-118657200D02*
X165704761Y-118609580D01*
X165704761Y-118609580D02*
X165752380Y-118514342D01*
X165752380Y-118514342D02*
X165752380Y-118419104D01*
X165752380Y-118419104D02*
X165704761Y-118323866D01*
X165704761Y-118323866D02*
X165657142Y-118276247D01*
X165657142Y-118276247D02*
X165561904Y-118228628D01*
X165561904Y-118228628D02*
X165371428Y-118181009D01*
X165371428Y-118181009D02*
X165276190Y-118133390D01*
X165276190Y-118133390D02*
X165228571Y-118085771D01*
X165228571Y-118085771D02*
X165180952Y-117990533D01*
X165180952Y-117990533D02*
X165180952Y-117895295D01*
X165180952Y-117895295D02*
X165228571Y-117800057D01*
X165228571Y-117800057D02*
X165276190Y-117752438D01*
X165276190Y-117752438D02*
X165371428Y-117704819D01*
X165371428Y-117704819D02*
X165609523Y-117704819D01*
X165609523Y-117704819D02*
X165752380Y-117752438D01*
X166561904Y-118657200D02*
X166466666Y-118704819D01*
X166466666Y-118704819D02*
X166276190Y-118704819D01*
X166276190Y-118704819D02*
X166180952Y-118657200D01*
X166180952Y-118657200D02*
X166133333Y-118561961D01*
X166133333Y-118561961D02*
X166133333Y-118181009D01*
X166133333Y-118181009D02*
X166180952Y-118085771D01*
X166180952Y-118085771D02*
X166276190Y-118038152D01*
X166276190Y-118038152D02*
X166466666Y-118038152D01*
X166466666Y-118038152D02*
X166561904Y-118085771D01*
X166561904Y-118085771D02*
X166609523Y-118181009D01*
X166609523Y-118181009D02*
X166609523Y-118276247D01*
X166609523Y-118276247D02*
X166133333Y-118371485D01*
X167466666Y-118657200D02*
X167371428Y-118704819D01*
X167371428Y-118704819D02*
X167180952Y-118704819D01*
X167180952Y-118704819D02*
X167085714Y-118657200D01*
X167085714Y-118657200D02*
X167038095Y-118609580D01*
X167038095Y-118609580D02*
X166990476Y-118514342D01*
X166990476Y-118514342D02*
X166990476Y-118228628D01*
X166990476Y-118228628D02*
X167038095Y-118133390D01*
X167038095Y-118133390D02*
X167085714Y-118085771D01*
X167085714Y-118085771D02*
X167180952Y-118038152D01*
X167180952Y-118038152D02*
X167371428Y-118038152D01*
X167371428Y-118038152D02*
X167466666Y-118085771D01*
X167800000Y-117704819D02*
X168466666Y-117704819D01*
X168466666Y-117704819D02*
X168038095Y-118704819D01*
X59335714Y-73251219D02*
X59335714Y-72251219D01*
X59335714Y-72251219D02*
X59573809Y-72251219D01*
X59573809Y-72251219D02*
X59716666Y-72298838D01*
X59716666Y-72298838D02*
X59811904Y-72394076D01*
X59811904Y-72394076D02*
X59859523Y-72489314D01*
X59859523Y-72489314D02*
X59907142Y-72679790D01*
X59907142Y-72679790D02*
X59907142Y-72822647D01*
X59907142Y-72822647D02*
X59859523Y-73013123D01*
X59859523Y-73013123D02*
X59811904Y-73108361D01*
X59811904Y-73108361D02*
X59716666Y-73203600D01*
X59716666Y-73203600D02*
X59573809Y-73251219D01*
X59573809Y-73251219D02*
X59335714Y-73251219D01*
X60859523Y-73251219D02*
X60288095Y-73251219D01*
X60573809Y-73251219D02*
X60573809Y-72251219D01*
X60573809Y-72251219D02*
X60478571Y-72394076D01*
X60478571Y-72394076D02*
X60383333Y-72489314D01*
X60383333Y-72489314D02*
X60288095Y-72536933D01*
X61478571Y-72251219D02*
X61573809Y-72251219D01*
X61573809Y-72251219D02*
X61669047Y-72298838D01*
X61669047Y-72298838D02*
X61716666Y-72346457D01*
X61716666Y-72346457D02*
X61764285Y-72441695D01*
X61764285Y-72441695D02*
X61811904Y-72632171D01*
X61811904Y-72632171D02*
X61811904Y-72870266D01*
X61811904Y-72870266D02*
X61764285Y-73060742D01*
X61764285Y-73060742D02*
X61716666Y-73155980D01*
X61716666Y-73155980D02*
X61669047Y-73203600D01*
X61669047Y-73203600D02*
X61573809Y-73251219D01*
X61573809Y-73251219D02*
X61478571Y-73251219D01*
X61478571Y-73251219D02*
X61383333Y-73203600D01*
X61383333Y-73203600D02*
X61335714Y-73155980D01*
X61335714Y-73155980D02*
X61288095Y-73060742D01*
X61288095Y-73060742D02*
X61240476Y-72870266D01*
X61240476Y-72870266D02*
X61240476Y-72632171D01*
X61240476Y-72632171D02*
X61288095Y-72441695D01*
X61288095Y-72441695D02*
X61335714Y-72346457D01*
X61335714Y-72346457D02*
X61383333Y-72298838D01*
X61383333Y-72298838D02*
X61478571Y-72251219D01*
X188457142Y-106754819D02*
X188123809Y-106278628D01*
X187885714Y-106754819D02*
X187885714Y-105754819D01*
X187885714Y-105754819D02*
X188266666Y-105754819D01*
X188266666Y-105754819D02*
X188361904Y-105802438D01*
X188361904Y-105802438D02*
X188409523Y-105850057D01*
X188409523Y-105850057D02*
X188457142Y-105945295D01*
X188457142Y-105945295D02*
X188457142Y-106088152D01*
X188457142Y-106088152D02*
X188409523Y-106183390D01*
X188409523Y-106183390D02*
X188361904Y-106231009D01*
X188361904Y-106231009D02*
X188266666Y-106278628D01*
X188266666Y-106278628D02*
X187885714Y-106278628D01*
X189409523Y-106754819D02*
X188838095Y-106754819D01*
X189123809Y-106754819D02*
X189123809Y-105754819D01*
X189123809Y-105754819D02*
X189028571Y-105897676D01*
X189028571Y-105897676D02*
X188933333Y-105992914D01*
X188933333Y-105992914D02*
X188838095Y-106040533D01*
X190028571Y-105754819D02*
X190123809Y-105754819D01*
X190123809Y-105754819D02*
X190219047Y-105802438D01*
X190219047Y-105802438D02*
X190266666Y-105850057D01*
X190266666Y-105850057D02*
X190314285Y-105945295D01*
X190314285Y-105945295D02*
X190361904Y-106135771D01*
X190361904Y-106135771D02*
X190361904Y-106373866D01*
X190361904Y-106373866D02*
X190314285Y-106564342D01*
X190314285Y-106564342D02*
X190266666Y-106659580D01*
X190266666Y-106659580D02*
X190219047Y-106707200D01*
X190219047Y-106707200D02*
X190123809Y-106754819D01*
X190123809Y-106754819D02*
X190028571Y-106754819D01*
X190028571Y-106754819D02*
X189933333Y-106707200D01*
X189933333Y-106707200D02*
X189885714Y-106659580D01*
X189885714Y-106659580D02*
X189838095Y-106564342D01*
X189838095Y-106564342D02*
X189790476Y-106373866D01*
X189790476Y-106373866D02*
X189790476Y-106135771D01*
X189790476Y-106135771D02*
X189838095Y-105945295D01*
X189838095Y-105945295D02*
X189885714Y-105850057D01*
X189885714Y-105850057D02*
X189933333Y-105802438D01*
X189933333Y-105802438D02*
X190028571Y-105754819D01*
X140390476Y-118704819D02*
X140390476Y-117704819D01*
X140390476Y-117704819D02*
X140723809Y-118419104D01*
X140723809Y-118419104D02*
X141057142Y-117704819D01*
X141057142Y-117704819D02*
X141057142Y-118704819D01*
X141676190Y-118704819D02*
X141580952Y-118657200D01*
X141580952Y-118657200D02*
X141533333Y-118609580D01*
X141533333Y-118609580D02*
X141485714Y-118514342D01*
X141485714Y-118514342D02*
X141485714Y-118228628D01*
X141485714Y-118228628D02*
X141533333Y-118133390D01*
X141533333Y-118133390D02*
X141580952Y-118085771D01*
X141580952Y-118085771D02*
X141676190Y-118038152D01*
X141676190Y-118038152D02*
X141819047Y-118038152D01*
X141819047Y-118038152D02*
X141914285Y-118085771D01*
X141914285Y-118085771D02*
X141961904Y-118133390D01*
X141961904Y-118133390D02*
X142009523Y-118228628D01*
X142009523Y-118228628D02*
X142009523Y-118514342D01*
X142009523Y-118514342D02*
X141961904Y-118609580D01*
X141961904Y-118609580D02*
X141914285Y-118657200D01*
X141914285Y-118657200D02*
X141819047Y-118704819D01*
X141819047Y-118704819D02*
X141676190Y-118704819D01*
X142295238Y-118038152D02*
X142676190Y-118038152D01*
X142438095Y-117704819D02*
X142438095Y-118561961D01*
X142438095Y-118561961D02*
X142485714Y-118657200D01*
X142485714Y-118657200D02*
X142580952Y-118704819D01*
X142580952Y-118704819D02*
X142676190Y-118704819D01*
X143152381Y-118704819D02*
X143057143Y-118657200D01*
X143057143Y-118657200D02*
X143009524Y-118609580D01*
X143009524Y-118609580D02*
X142961905Y-118514342D01*
X142961905Y-118514342D02*
X142961905Y-118228628D01*
X142961905Y-118228628D02*
X143009524Y-118133390D01*
X143009524Y-118133390D02*
X143057143Y-118085771D01*
X143057143Y-118085771D02*
X143152381Y-118038152D01*
X143152381Y-118038152D02*
X143295238Y-118038152D01*
X143295238Y-118038152D02*
X143390476Y-118085771D01*
X143390476Y-118085771D02*
X143438095Y-118133390D01*
X143438095Y-118133390D02*
X143485714Y-118228628D01*
X143485714Y-118228628D02*
X143485714Y-118514342D01*
X143485714Y-118514342D02*
X143438095Y-118609580D01*
X143438095Y-118609580D02*
X143390476Y-118657200D01*
X143390476Y-118657200D02*
X143295238Y-118704819D01*
X143295238Y-118704819D02*
X143152381Y-118704819D01*
X143914286Y-118704819D02*
X143914286Y-118038152D01*
X143914286Y-118228628D02*
X143961905Y-118133390D01*
X143961905Y-118133390D02*
X144009524Y-118085771D01*
X144009524Y-118085771D02*
X144104762Y-118038152D01*
X144104762Y-118038152D02*
X144200000Y-118038152D01*
X144866667Y-118181009D02*
X145009524Y-118228628D01*
X145009524Y-118228628D02*
X145057143Y-118276247D01*
X145057143Y-118276247D02*
X145104762Y-118371485D01*
X145104762Y-118371485D02*
X145104762Y-118514342D01*
X145104762Y-118514342D02*
X145057143Y-118609580D01*
X145057143Y-118609580D02*
X145009524Y-118657200D01*
X145009524Y-118657200D02*
X144914286Y-118704819D01*
X144914286Y-118704819D02*
X144533334Y-118704819D01*
X144533334Y-118704819D02*
X144533334Y-117704819D01*
X144533334Y-117704819D02*
X144866667Y-117704819D01*
X144866667Y-117704819D02*
X144961905Y-117752438D01*
X144961905Y-117752438D02*
X145009524Y-117800057D01*
X145009524Y-117800057D02*
X145057143Y-117895295D01*
X145057143Y-117895295D02*
X145057143Y-117990533D01*
X145057143Y-117990533D02*
X145009524Y-118085771D01*
X145009524Y-118085771D02*
X144961905Y-118133390D01*
X144961905Y-118133390D02*
X144866667Y-118181009D01*
X144866667Y-118181009D02*
X144533334Y-118181009D01*
X146057143Y-118704819D02*
X145485715Y-118704819D01*
X145771429Y-118704819D02*
X145771429Y-117704819D01*
X145771429Y-117704819D02*
X145676191Y-117847676D01*
X145676191Y-117847676D02*
X145580953Y-117942914D01*
X145580953Y-117942914D02*
X145485715Y-117990533D01*
X197083333Y-64804819D02*
X196607143Y-64804819D01*
X196607143Y-64804819D02*
X196607143Y-63804819D01*
X197940476Y-64804819D02*
X197369048Y-64804819D01*
X197654762Y-64804819D02*
X197654762Y-63804819D01*
X197654762Y-63804819D02*
X197559524Y-63947676D01*
X197559524Y-63947676D02*
X197464286Y-64042914D01*
X197464286Y-64042914D02*
X197369048Y-64090533D01*
X56683333Y-75384819D02*
X56350000Y-74908628D01*
X56111905Y-75384819D02*
X56111905Y-74384819D01*
X56111905Y-74384819D02*
X56492857Y-74384819D01*
X56492857Y-74384819D02*
X56588095Y-74432438D01*
X56588095Y-74432438D02*
X56635714Y-74480057D01*
X56635714Y-74480057D02*
X56683333Y-74575295D01*
X56683333Y-74575295D02*
X56683333Y-74718152D01*
X56683333Y-74718152D02*
X56635714Y-74813390D01*
X56635714Y-74813390D02*
X56588095Y-74861009D01*
X56588095Y-74861009D02*
X56492857Y-74908628D01*
X56492857Y-74908628D02*
X56111905Y-74908628D01*
X57064286Y-74480057D02*
X57111905Y-74432438D01*
X57111905Y-74432438D02*
X57207143Y-74384819D01*
X57207143Y-74384819D02*
X57445238Y-74384819D01*
X57445238Y-74384819D02*
X57540476Y-74432438D01*
X57540476Y-74432438D02*
X57588095Y-74480057D01*
X57588095Y-74480057D02*
X57635714Y-74575295D01*
X57635714Y-74575295D02*
X57635714Y-74670533D01*
X57635714Y-74670533D02*
X57588095Y-74813390D01*
X57588095Y-74813390D02*
X57016667Y-75384819D01*
X57016667Y-75384819D02*
X57635714Y-75384819D01*
X39446295Y-111898019D02*
X39446295Y-110898019D01*
X39446295Y-111374209D02*
X40017723Y-111374209D01*
X40017723Y-111898019D02*
X40017723Y-110898019D01*
X40398676Y-110898019D02*
X41017723Y-110898019D01*
X41017723Y-110898019D02*
X40684390Y-111278971D01*
X40684390Y-111278971D02*
X40827247Y-111278971D01*
X40827247Y-111278971D02*
X40922485Y-111326590D01*
X40922485Y-111326590D02*
X40970104Y-111374209D01*
X40970104Y-111374209D02*
X41017723Y-111469447D01*
X41017723Y-111469447D02*
X41017723Y-111707542D01*
X41017723Y-111707542D02*
X40970104Y-111802780D01*
X40970104Y-111802780D02*
X40922485Y-111850400D01*
X40922485Y-111850400D02*
X40827247Y-111898019D01*
X40827247Y-111898019D02*
X40541533Y-111898019D01*
X40541533Y-111898019D02*
X40446295Y-111850400D01*
X40446295Y-111850400D02*
X40398676Y-111802780D01*
X182122637Y-66434280D02*
X181789304Y-65958089D01*
X181551209Y-66434280D02*
X181551209Y-65434280D01*
X181551209Y-65434280D02*
X181932161Y-65434280D01*
X181932161Y-65434280D02*
X182027399Y-65481899D01*
X182027399Y-65481899D02*
X182075018Y-65529518D01*
X182075018Y-65529518D02*
X182122637Y-65624756D01*
X182122637Y-65624756D02*
X182122637Y-65767613D01*
X182122637Y-65767613D02*
X182075018Y-65862851D01*
X182075018Y-65862851D02*
X182027399Y-65910470D01*
X182027399Y-65910470D02*
X181932161Y-65958089D01*
X181932161Y-65958089D02*
X181551209Y-65958089D01*
X182455971Y-65434280D02*
X183075018Y-65434280D01*
X183075018Y-65434280D02*
X182741685Y-65815232D01*
X182741685Y-65815232D02*
X182884542Y-65815232D01*
X182884542Y-65815232D02*
X182979780Y-65862851D01*
X182979780Y-65862851D02*
X183027399Y-65910470D01*
X183027399Y-65910470D02*
X183075018Y-66005708D01*
X183075018Y-66005708D02*
X183075018Y-66243803D01*
X183075018Y-66243803D02*
X183027399Y-66339041D01*
X183027399Y-66339041D02*
X182979780Y-66386661D01*
X182979780Y-66386661D02*
X182884542Y-66434280D01*
X182884542Y-66434280D02*
X182598828Y-66434280D01*
X182598828Y-66434280D02*
X182503590Y-66386661D01*
X182503590Y-66386661D02*
X182455971Y-66339041D01*
X61831542Y-70087380D02*
X61783923Y-70135000D01*
X61783923Y-70135000D02*
X61641066Y-70182619D01*
X61641066Y-70182619D02*
X61545828Y-70182619D01*
X61545828Y-70182619D02*
X61402971Y-70135000D01*
X61402971Y-70135000D02*
X61307733Y-70039761D01*
X61307733Y-70039761D02*
X61260114Y-69944523D01*
X61260114Y-69944523D02*
X61212495Y-69754047D01*
X61212495Y-69754047D02*
X61212495Y-69611190D01*
X61212495Y-69611190D02*
X61260114Y-69420714D01*
X61260114Y-69420714D02*
X61307733Y-69325476D01*
X61307733Y-69325476D02*
X61402971Y-69230238D01*
X61402971Y-69230238D02*
X61545828Y-69182619D01*
X61545828Y-69182619D02*
X61641066Y-69182619D01*
X61641066Y-69182619D02*
X61783923Y-69230238D01*
X61783923Y-69230238D02*
X61831542Y-69277857D01*
X62783923Y-70182619D02*
X62212495Y-70182619D01*
X62498209Y-70182619D02*
X62498209Y-69182619D01*
X62498209Y-69182619D02*
X62402971Y-69325476D01*
X62402971Y-69325476D02*
X62307733Y-69420714D01*
X62307733Y-69420714D02*
X62212495Y-69468333D01*
X63641066Y-69515952D02*
X63641066Y-70182619D01*
X63402971Y-69135000D02*
X63164876Y-69849285D01*
X63164876Y-69849285D02*
X63783923Y-69849285D01*
D11*
X72369780Y-62753518D02*
X72369780Y-63781613D01*
X72369780Y-63781613D02*
X72430257Y-63902565D01*
X72430257Y-63902565D02*
X72490733Y-63963042D01*
X72490733Y-63963042D02*
X72611685Y-64023518D01*
X72611685Y-64023518D02*
X72853590Y-64023518D01*
X72853590Y-64023518D02*
X72974542Y-63963042D01*
X72974542Y-63963042D02*
X73035019Y-63902565D01*
X73035019Y-63902565D02*
X73095495Y-63781613D01*
X73095495Y-63781613D02*
X73095495Y-62753518D01*
X73579304Y-62753518D02*
X74425971Y-62753518D01*
X74425971Y-62753518D02*
X73881685Y-64023518D01*
D10*
X77757142Y-103302438D02*
X77661904Y-103254819D01*
X77661904Y-103254819D02*
X77519047Y-103254819D01*
X77519047Y-103254819D02*
X77376190Y-103302438D01*
X77376190Y-103302438D02*
X77280952Y-103397676D01*
X77280952Y-103397676D02*
X77233333Y-103492914D01*
X77233333Y-103492914D02*
X77185714Y-103683390D01*
X77185714Y-103683390D02*
X77185714Y-103826247D01*
X77185714Y-103826247D02*
X77233333Y-104016723D01*
X77233333Y-104016723D02*
X77280952Y-104111961D01*
X77280952Y-104111961D02*
X77376190Y-104207200D01*
X77376190Y-104207200D02*
X77519047Y-104254819D01*
X77519047Y-104254819D02*
X77614285Y-104254819D01*
X77614285Y-104254819D02*
X77757142Y-104207200D01*
X77757142Y-104207200D02*
X77804761Y-104159580D01*
X77804761Y-104159580D02*
X77804761Y-103826247D01*
X77804761Y-103826247D02*
X77614285Y-103826247D01*
X78233333Y-103588152D02*
X78233333Y-104254819D01*
X78233333Y-103683390D02*
X78280952Y-103635771D01*
X78280952Y-103635771D02*
X78376190Y-103588152D01*
X78376190Y-103588152D02*
X78519047Y-103588152D01*
X78519047Y-103588152D02*
X78614285Y-103635771D01*
X78614285Y-103635771D02*
X78661904Y-103731009D01*
X78661904Y-103731009D02*
X78661904Y-104254819D01*
X79566666Y-104254819D02*
X79566666Y-103254819D01*
X79566666Y-104207200D02*
X79471428Y-104254819D01*
X79471428Y-104254819D02*
X79280952Y-104254819D01*
X79280952Y-104254819D02*
X79185714Y-104207200D01*
X79185714Y-104207200D02*
X79138095Y-104159580D01*
X79138095Y-104159580D02*
X79090476Y-104064342D01*
X79090476Y-104064342D02*
X79090476Y-103778628D01*
X79090476Y-103778628D02*
X79138095Y-103683390D01*
X79138095Y-103683390D02*
X79185714Y-103635771D01*
X79185714Y-103635771D02*
X79280952Y-103588152D01*
X79280952Y-103588152D02*
X79471428Y-103588152D01*
X79471428Y-103588152D02*
X79566666Y-103635771D01*
X79995238Y-104207200D02*
X80138095Y-104254819D01*
X80138095Y-104254819D02*
X80376190Y-104254819D01*
X80376190Y-104254819D02*
X80471428Y-104207200D01*
X80471428Y-104207200D02*
X80519047Y-104159580D01*
X80519047Y-104159580D02*
X80566666Y-104064342D01*
X80566666Y-104064342D02*
X80566666Y-103969104D01*
X80566666Y-103969104D02*
X80519047Y-103873866D01*
X80519047Y-103873866D02*
X80471428Y-103826247D01*
X80471428Y-103826247D02*
X80376190Y-103778628D01*
X80376190Y-103778628D02*
X80185714Y-103731009D01*
X80185714Y-103731009D02*
X80090476Y-103683390D01*
X80090476Y-103683390D02*
X80042857Y-103635771D01*
X80042857Y-103635771D02*
X79995238Y-103540533D01*
X79995238Y-103540533D02*
X79995238Y-103445295D01*
X79995238Y-103445295D02*
X80042857Y-103350057D01*
X80042857Y-103350057D02*
X80090476Y-103302438D01*
X80090476Y-103302438D02*
X80185714Y-103254819D01*
X80185714Y-103254819D02*
X80423809Y-103254819D01*
X80423809Y-103254819D02*
X80566666Y-103302438D01*
X81376190Y-104207200D02*
X81280952Y-104254819D01*
X81280952Y-104254819D02*
X81090476Y-104254819D01*
X81090476Y-104254819D02*
X80995238Y-104207200D01*
X80995238Y-104207200D02*
X80947619Y-104111961D01*
X80947619Y-104111961D02*
X80947619Y-103731009D01*
X80947619Y-103731009D02*
X80995238Y-103635771D01*
X80995238Y-103635771D02*
X81090476Y-103588152D01*
X81090476Y-103588152D02*
X81280952Y-103588152D01*
X81280952Y-103588152D02*
X81376190Y-103635771D01*
X81376190Y-103635771D02*
X81423809Y-103731009D01*
X81423809Y-103731009D02*
X81423809Y-103826247D01*
X81423809Y-103826247D02*
X80947619Y-103921485D01*
X81852381Y-103588152D02*
X81852381Y-104254819D01*
X81852381Y-103683390D02*
X81900000Y-103635771D01*
X81900000Y-103635771D02*
X81995238Y-103588152D01*
X81995238Y-103588152D02*
X82138095Y-103588152D01*
X82138095Y-103588152D02*
X82233333Y-103635771D01*
X82233333Y-103635771D02*
X82280952Y-103731009D01*
X82280952Y-103731009D02*
X82280952Y-104254819D01*
X82709524Y-104207200D02*
X82804762Y-104254819D01*
X82804762Y-104254819D02*
X82995238Y-104254819D01*
X82995238Y-104254819D02*
X83090476Y-104207200D01*
X83090476Y-104207200D02*
X83138095Y-104111961D01*
X83138095Y-104111961D02*
X83138095Y-104064342D01*
X83138095Y-104064342D02*
X83090476Y-103969104D01*
X83090476Y-103969104D02*
X82995238Y-103921485D01*
X82995238Y-103921485D02*
X82852381Y-103921485D01*
X82852381Y-103921485D02*
X82757143Y-103873866D01*
X82757143Y-103873866D02*
X82709524Y-103778628D01*
X82709524Y-103778628D02*
X82709524Y-103731009D01*
X82709524Y-103731009D02*
X82757143Y-103635771D01*
X82757143Y-103635771D02*
X82852381Y-103588152D01*
X82852381Y-103588152D02*
X82995238Y-103588152D01*
X82995238Y-103588152D02*
X83090476Y-103635771D01*
X83709524Y-104254819D02*
X83614286Y-104207200D01*
X83614286Y-104207200D02*
X83566667Y-104159580D01*
X83566667Y-104159580D02*
X83519048Y-104064342D01*
X83519048Y-104064342D02*
X83519048Y-103778628D01*
X83519048Y-103778628D02*
X83566667Y-103683390D01*
X83566667Y-103683390D02*
X83614286Y-103635771D01*
X83614286Y-103635771D02*
X83709524Y-103588152D01*
X83709524Y-103588152D02*
X83852381Y-103588152D01*
X83852381Y-103588152D02*
X83947619Y-103635771D01*
X83947619Y-103635771D02*
X83995238Y-103683390D01*
X83995238Y-103683390D02*
X84042857Y-103778628D01*
X84042857Y-103778628D02*
X84042857Y-104064342D01*
X84042857Y-104064342D02*
X83995238Y-104159580D01*
X83995238Y-104159580D02*
X83947619Y-104207200D01*
X83947619Y-104207200D02*
X83852381Y-104254819D01*
X83852381Y-104254819D02*
X83709524Y-104254819D01*
X84471429Y-104254819D02*
X84471429Y-103588152D01*
X84471429Y-103778628D02*
X84519048Y-103683390D01*
X84519048Y-103683390D02*
X84566667Y-103635771D01*
X84566667Y-103635771D02*
X84661905Y-103588152D01*
X84661905Y-103588152D02*
X84757143Y-103588152D01*
X85614286Y-104254819D02*
X85042858Y-104254819D01*
X85328572Y-104254819D02*
X85328572Y-103254819D01*
X85328572Y-103254819D02*
X85233334Y-103397676D01*
X85233334Y-103397676D02*
X85138096Y-103492914D01*
X85138096Y-103492914D02*
X85042858Y-103540533D01*
X126230952Y-118657200D02*
X126373809Y-118704819D01*
X126373809Y-118704819D02*
X126611904Y-118704819D01*
X126611904Y-118704819D02*
X126707142Y-118657200D01*
X126707142Y-118657200D02*
X126754761Y-118609580D01*
X126754761Y-118609580D02*
X126802380Y-118514342D01*
X126802380Y-118514342D02*
X126802380Y-118419104D01*
X126802380Y-118419104D02*
X126754761Y-118323866D01*
X126754761Y-118323866D02*
X126707142Y-118276247D01*
X126707142Y-118276247D02*
X126611904Y-118228628D01*
X126611904Y-118228628D02*
X126421428Y-118181009D01*
X126421428Y-118181009D02*
X126326190Y-118133390D01*
X126326190Y-118133390D02*
X126278571Y-118085771D01*
X126278571Y-118085771D02*
X126230952Y-117990533D01*
X126230952Y-117990533D02*
X126230952Y-117895295D01*
X126230952Y-117895295D02*
X126278571Y-117800057D01*
X126278571Y-117800057D02*
X126326190Y-117752438D01*
X126326190Y-117752438D02*
X126421428Y-117704819D01*
X126421428Y-117704819D02*
X126659523Y-117704819D01*
X126659523Y-117704819D02*
X126802380Y-117752438D01*
X127611904Y-118657200D02*
X127516666Y-118704819D01*
X127516666Y-118704819D02*
X127326190Y-118704819D01*
X127326190Y-118704819D02*
X127230952Y-118657200D01*
X127230952Y-118657200D02*
X127183333Y-118561961D01*
X127183333Y-118561961D02*
X127183333Y-118181009D01*
X127183333Y-118181009D02*
X127230952Y-118085771D01*
X127230952Y-118085771D02*
X127326190Y-118038152D01*
X127326190Y-118038152D02*
X127516666Y-118038152D01*
X127516666Y-118038152D02*
X127611904Y-118085771D01*
X127611904Y-118085771D02*
X127659523Y-118181009D01*
X127659523Y-118181009D02*
X127659523Y-118276247D01*
X127659523Y-118276247D02*
X127183333Y-118371485D01*
X128516666Y-118657200D02*
X128421428Y-118704819D01*
X128421428Y-118704819D02*
X128230952Y-118704819D01*
X128230952Y-118704819D02*
X128135714Y-118657200D01*
X128135714Y-118657200D02*
X128088095Y-118609580D01*
X128088095Y-118609580D02*
X128040476Y-118514342D01*
X128040476Y-118514342D02*
X128040476Y-118228628D01*
X128040476Y-118228628D02*
X128088095Y-118133390D01*
X128088095Y-118133390D02*
X128135714Y-118085771D01*
X128135714Y-118085771D02*
X128230952Y-118038152D01*
X128230952Y-118038152D02*
X128421428Y-118038152D01*
X128421428Y-118038152D02*
X128516666Y-118085771D01*
X129373809Y-118038152D02*
X129373809Y-118704819D01*
X129135714Y-117657200D02*
X128897619Y-118371485D01*
X128897619Y-118371485D02*
X129516666Y-118371485D01*
X68073809Y-104354819D02*
X68073809Y-103354819D01*
X68073809Y-103354819D02*
X68454761Y-103354819D01*
X68454761Y-103354819D02*
X68549999Y-103402438D01*
X68549999Y-103402438D02*
X68597618Y-103450057D01*
X68597618Y-103450057D02*
X68645237Y-103545295D01*
X68645237Y-103545295D02*
X68645237Y-103688152D01*
X68645237Y-103688152D02*
X68597618Y-103783390D01*
X68597618Y-103783390D02*
X68549999Y-103831009D01*
X68549999Y-103831009D02*
X68454761Y-103878628D01*
X68454761Y-103878628D02*
X68073809Y-103878628D01*
X69073809Y-104354819D02*
X69073809Y-103688152D01*
X69073809Y-103878628D02*
X69121428Y-103783390D01*
X69121428Y-103783390D02*
X69169047Y-103735771D01*
X69169047Y-103735771D02*
X69264285Y-103688152D01*
X69264285Y-103688152D02*
X69359523Y-103688152D01*
X70073809Y-104307200D02*
X69978571Y-104354819D01*
X69978571Y-104354819D02*
X69788095Y-104354819D01*
X69788095Y-104354819D02*
X69692857Y-104307200D01*
X69692857Y-104307200D02*
X69645238Y-104211961D01*
X69645238Y-104211961D02*
X69645238Y-103831009D01*
X69645238Y-103831009D02*
X69692857Y-103735771D01*
X69692857Y-103735771D02*
X69788095Y-103688152D01*
X69788095Y-103688152D02*
X69978571Y-103688152D01*
X69978571Y-103688152D02*
X70073809Y-103735771D01*
X70073809Y-103735771D02*
X70121428Y-103831009D01*
X70121428Y-103831009D02*
X70121428Y-103926247D01*
X70121428Y-103926247D02*
X69645238Y-104021485D01*
X70502381Y-104307200D02*
X70597619Y-104354819D01*
X70597619Y-104354819D02*
X70788095Y-104354819D01*
X70788095Y-104354819D02*
X70883333Y-104307200D01*
X70883333Y-104307200D02*
X70930952Y-104211961D01*
X70930952Y-104211961D02*
X70930952Y-104164342D01*
X70930952Y-104164342D02*
X70883333Y-104069104D01*
X70883333Y-104069104D02*
X70788095Y-104021485D01*
X70788095Y-104021485D02*
X70645238Y-104021485D01*
X70645238Y-104021485D02*
X70550000Y-103973866D01*
X70550000Y-103973866D02*
X70502381Y-103878628D01*
X70502381Y-103878628D02*
X70502381Y-103831009D01*
X70502381Y-103831009D02*
X70550000Y-103735771D01*
X70550000Y-103735771D02*
X70645238Y-103688152D01*
X70645238Y-103688152D02*
X70788095Y-103688152D01*
X70788095Y-103688152D02*
X70883333Y-103735771D01*
X71311905Y-104307200D02*
X71407143Y-104354819D01*
X71407143Y-104354819D02*
X71597619Y-104354819D01*
X71597619Y-104354819D02*
X71692857Y-104307200D01*
X71692857Y-104307200D02*
X71740476Y-104211961D01*
X71740476Y-104211961D02*
X71740476Y-104164342D01*
X71740476Y-104164342D02*
X71692857Y-104069104D01*
X71692857Y-104069104D02*
X71597619Y-104021485D01*
X71597619Y-104021485D02*
X71454762Y-104021485D01*
X71454762Y-104021485D02*
X71359524Y-103973866D01*
X71359524Y-103973866D02*
X71311905Y-103878628D01*
X71311905Y-103878628D02*
X71311905Y-103831009D01*
X71311905Y-103831009D02*
X71359524Y-103735771D01*
X71359524Y-103735771D02*
X71454762Y-103688152D01*
X71454762Y-103688152D02*
X71597619Y-103688152D01*
X71597619Y-103688152D02*
X71692857Y-103735771D01*
X72597619Y-103688152D02*
X72597619Y-104354819D01*
X72169048Y-103688152D02*
X72169048Y-104211961D01*
X72169048Y-104211961D02*
X72216667Y-104307200D01*
X72216667Y-104307200D02*
X72311905Y-104354819D01*
X72311905Y-104354819D02*
X72454762Y-104354819D01*
X72454762Y-104354819D02*
X72550000Y-104307200D01*
X72550000Y-104307200D02*
X72597619Y-104259580D01*
X73073810Y-104354819D02*
X73073810Y-103688152D01*
X73073810Y-103878628D02*
X73121429Y-103783390D01*
X73121429Y-103783390D02*
X73169048Y-103735771D01*
X73169048Y-103735771D02*
X73264286Y-103688152D01*
X73264286Y-103688152D02*
X73359524Y-103688152D01*
X74073810Y-104307200D02*
X73978572Y-104354819D01*
X73978572Y-104354819D02*
X73788096Y-104354819D01*
X73788096Y-104354819D02*
X73692858Y-104307200D01*
X73692858Y-104307200D02*
X73645239Y-104211961D01*
X73645239Y-104211961D02*
X73645239Y-103831009D01*
X73645239Y-103831009D02*
X73692858Y-103735771D01*
X73692858Y-103735771D02*
X73788096Y-103688152D01*
X73788096Y-103688152D02*
X73978572Y-103688152D01*
X73978572Y-103688152D02*
X74073810Y-103735771D01*
X74073810Y-103735771D02*
X74121429Y-103831009D01*
X74121429Y-103831009D02*
X74121429Y-103926247D01*
X74121429Y-103926247D02*
X73645239Y-104021485D01*
X75073810Y-104354819D02*
X74502382Y-104354819D01*
X74788096Y-104354819D02*
X74788096Y-103354819D01*
X74788096Y-103354819D02*
X74692858Y-103497676D01*
X74692858Y-103497676D02*
X74597620Y-103592914D01*
X74597620Y-103592914D02*
X74502382Y-103640533D01*
X105679580Y-94542857D02*
X105727200Y-94590476D01*
X105727200Y-94590476D02*
X105774819Y-94733333D01*
X105774819Y-94733333D02*
X105774819Y-94828571D01*
X105774819Y-94828571D02*
X105727200Y-94971428D01*
X105727200Y-94971428D02*
X105631961Y-95066666D01*
X105631961Y-95066666D02*
X105536723Y-95114285D01*
X105536723Y-95114285D02*
X105346247Y-95161904D01*
X105346247Y-95161904D02*
X105203390Y-95161904D01*
X105203390Y-95161904D02*
X105012914Y-95114285D01*
X105012914Y-95114285D02*
X104917676Y-95066666D01*
X104917676Y-95066666D02*
X104822438Y-94971428D01*
X104822438Y-94971428D02*
X104774819Y-94828571D01*
X104774819Y-94828571D02*
X104774819Y-94733333D01*
X104774819Y-94733333D02*
X104822438Y-94590476D01*
X104822438Y-94590476D02*
X104870057Y-94542857D01*
X104870057Y-94161904D02*
X104822438Y-94114285D01*
X104822438Y-94114285D02*
X104774819Y-94019047D01*
X104774819Y-94019047D02*
X104774819Y-93780952D01*
X104774819Y-93780952D02*
X104822438Y-93685714D01*
X104822438Y-93685714D02*
X104870057Y-93638095D01*
X104870057Y-93638095D02*
X104965295Y-93590476D01*
X104965295Y-93590476D02*
X105060533Y-93590476D01*
X105060533Y-93590476D02*
X105203390Y-93638095D01*
X105203390Y-93638095D02*
X105774819Y-94209523D01*
X105774819Y-94209523D02*
X105774819Y-93590476D01*
X104774819Y-93257142D02*
X104774819Y-92590476D01*
X104774819Y-92590476D02*
X105774819Y-93019047D01*
X102789142Y-52679580D02*
X102741523Y-52727200D01*
X102741523Y-52727200D02*
X102598666Y-52774819D01*
X102598666Y-52774819D02*
X102503428Y-52774819D01*
X102503428Y-52774819D02*
X102360571Y-52727200D01*
X102360571Y-52727200D02*
X102265333Y-52631961D01*
X102265333Y-52631961D02*
X102217714Y-52536723D01*
X102217714Y-52536723D02*
X102170095Y-52346247D01*
X102170095Y-52346247D02*
X102170095Y-52203390D01*
X102170095Y-52203390D02*
X102217714Y-52012914D01*
X102217714Y-52012914D02*
X102265333Y-51917676D01*
X102265333Y-51917676D02*
X102360571Y-51822438D01*
X102360571Y-51822438D02*
X102503428Y-51774819D01*
X102503428Y-51774819D02*
X102598666Y-51774819D01*
X102598666Y-51774819D02*
X102741523Y-51822438D01*
X102741523Y-51822438D02*
X102789142Y-51870057D01*
X103170095Y-51870057D02*
X103217714Y-51822438D01*
X103217714Y-51822438D02*
X103312952Y-51774819D01*
X103312952Y-51774819D02*
X103551047Y-51774819D01*
X103551047Y-51774819D02*
X103646285Y-51822438D01*
X103646285Y-51822438D02*
X103693904Y-51870057D01*
X103693904Y-51870057D02*
X103741523Y-51965295D01*
X103741523Y-51965295D02*
X103741523Y-52060533D01*
X103741523Y-52060533D02*
X103693904Y-52203390D01*
X103693904Y-52203390D02*
X103122476Y-52774819D01*
X103122476Y-52774819D02*
X103741523Y-52774819D01*
X104598666Y-52108152D02*
X104598666Y-52774819D01*
X104360571Y-51727200D02*
X104122476Y-52441485D01*
X104122476Y-52441485D02*
X104741523Y-52441485D01*
X103039104Y-72687885D02*
X103039104Y-72211695D01*
X103324819Y-72783123D02*
X102324819Y-72449790D01*
X102324819Y-72449790D02*
X103324819Y-72116457D01*
X103324819Y-71259314D02*
X103324819Y-71830742D01*
X103324819Y-71545028D02*
X102324819Y-71545028D01*
X102324819Y-71545028D02*
X102467676Y-71640266D01*
X102467676Y-71640266D02*
X102562914Y-71735504D01*
X102562914Y-71735504D02*
X102610533Y-71830742D01*
X142964819Y-73235504D02*
X143774342Y-73235504D01*
X143774342Y-73235504D02*
X143869580Y-73187885D01*
X143869580Y-73187885D02*
X143917200Y-73140266D01*
X143917200Y-73140266D02*
X143964819Y-73045028D01*
X143964819Y-73045028D02*
X143964819Y-72854552D01*
X143964819Y-72854552D02*
X143917200Y-72759314D01*
X143917200Y-72759314D02*
X143869580Y-72711695D01*
X143869580Y-72711695D02*
X143774342Y-72664076D01*
X143774342Y-72664076D02*
X142964819Y-72664076D01*
X143917200Y-72235504D02*
X143964819Y-72092647D01*
X143964819Y-72092647D02*
X143964819Y-71854552D01*
X143964819Y-71854552D02*
X143917200Y-71759314D01*
X143917200Y-71759314D02*
X143869580Y-71711695D01*
X143869580Y-71711695D02*
X143774342Y-71664076D01*
X143774342Y-71664076D02*
X143679104Y-71664076D01*
X143679104Y-71664076D02*
X143583866Y-71711695D01*
X143583866Y-71711695D02*
X143536247Y-71759314D01*
X143536247Y-71759314D02*
X143488628Y-71854552D01*
X143488628Y-71854552D02*
X143441009Y-72045028D01*
X143441009Y-72045028D02*
X143393390Y-72140266D01*
X143393390Y-72140266D02*
X143345771Y-72187885D01*
X143345771Y-72187885D02*
X143250533Y-72235504D01*
X143250533Y-72235504D02*
X143155295Y-72235504D01*
X143155295Y-72235504D02*
X143060057Y-72187885D01*
X143060057Y-72187885D02*
X143012438Y-72140266D01*
X143012438Y-72140266D02*
X142964819Y-72045028D01*
X142964819Y-72045028D02*
X142964819Y-71806933D01*
X142964819Y-71806933D02*
X143012438Y-71664076D01*
X143441009Y-70902171D02*
X143488628Y-70759314D01*
X143488628Y-70759314D02*
X143536247Y-70711695D01*
X143536247Y-70711695D02*
X143631485Y-70664076D01*
X143631485Y-70664076D02*
X143774342Y-70664076D01*
X143774342Y-70664076D02*
X143869580Y-70711695D01*
X143869580Y-70711695D02*
X143917200Y-70759314D01*
X143917200Y-70759314D02*
X143964819Y-70854552D01*
X143964819Y-70854552D02*
X143964819Y-71235504D01*
X143964819Y-71235504D02*
X142964819Y-71235504D01*
X142964819Y-71235504D02*
X142964819Y-70902171D01*
X142964819Y-70902171D02*
X143012438Y-70806933D01*
X143012438Y-70806933D02*
X143060057Y-70759314D01*
X143060057Y-70759314D02*
X143155295Y-70711695D01*
X143155295Y-70711695D02*
X143250533Y-70711695D01*
X143250533Y-70711695D02*
X143345771Y-70759314D01*
X143345771Y-70759314D02*
X143393390Y-70806933D01*
X143393390Y-70806933D02*
X143441009Y-70902171D01*
X143441009Y-70902171D02*
X143441009Y-71235504D01*
X139579580Y-94142857D02*
X139627200Y-94190476D01*
X139627200Y-94190476D02*
X139674819Y-94333333D01*
X139674819Y-94333333D02*
X139674819Y-94428571D01*
X139674819Y-94428571D02*
X139627200Y-94571428D01*
X139627200Y-94571428D02*
X139531961Y-94666666D01*
X139531961Y-94666666D02*
X139436723Y-94714285D01*
X139436723Y-94714285D02*
X139246247Y-94761904D01*
X139246247Y-94761904D02*
X139103390Y-94761904D01*
X139103390Y-94761904D02*
X138912914Y-94714285D01*
X138912914Y-94714285D02*
X138817676Y-94666666D01*
X138817676Y-94666666D02*
X138722438Y-94571428D01*
X138722438Y-94571428D02*
X138674819Y-94428571D01*
X138674819Y-94428571D02*
X138674819Y-94333333D01*
X138674819Y-94333333D02*
X138722438Y-94190476D01*
X138722438Y-94190476D02*
X138770057Y-94142857D01*
X138770057Y-93761904D02*
X138722438Y-93714285D01*
X138722438Y-93714285D02*
X138674819Y-93619047D01*
X138674819Y-93619047D02*
X138674819Y-93380952D01*
X138674819Y-93380952D02*
X138722438Y-93285714D01*
X138722438Y-93285714D02*
X138770057Y-93238095D01*
X138770057Y-93238095D02*
X138865295Y-93190476D01*
X138865295Y-93190476D02*
X138960533Y-93190476D01*
X138960533Y-93190476D02*
X139103390Y-93238095D01*
X139103390Y-93238095D02*
X139674819Y-93809523D01*
X139674819Y-93809523D02*
X139674819Y-93190476D01*
X138674819Y-92285714D02*
X138674819Y-92761904D01*
X138674819Y-92761904D02*
X139151009Y-92809523D01*
X139151009Y-92809523D02*
X139103390Y-92761904D01*
X139103390Y-92761904D02*
X139055771Y-92666666D01*
X139055771Y-92666666D02*
X139055771Y-92428571D01*
X139055771Y-92428571D02*
X139103390Y-92333333D01*
X139103390Y-92333333D02*
X139151009Y-92285714D01*
X139151009Y-92285714D02*
X139246247Y-92238095D01*
X139246247Y-92238095D02*
X139484342Y-92238095D01*
X139484342Y-92238095D02*
X139579580Y-92285714D01*
X139579580Y-92285714D02*
X139627200Y-92333333D01*
X139627200Y-92333333D02*
X139674819Y-92428571D01*
X139674819Y-92428571D02*
X139674819Y-92666666D01*
X139674819Y-92666666D02*
X139627200Y-92761904D01*
X139627200Y-92761904D02*
X139579580Y-92809523D01*
X74181195Y-43407819D02*
X74752623Y-43407819D01*
X74466909Y-44407819D02*
X74466909Y-43407819D01*
X75085957Y-44407819D02*
X75085957Y-43407819D01*
X75085957Y-43407819D02*
X75466909Y-43407819D01*
X75466909Y-43407819D02*
X75562147Y-43455438D01*
X75562147Y-43455438D02*
X75609766Y-43503057D01*
X75609766Y-43503057D02*
X75657385Y-43598295D01*
X75657385Y-43598295D02*
X75657385Y-43741152D01*
X75657385Y-43741152D02*
X75609766Y-43836390D01*
X75609766Y-43836390D02*
X75562147Y-43884009D01*
X75562147Y-43884009D02*
X75466909Y-43931628D01*
X75466909Y-43931628D02*
X75085957Y-43931628D01*
X76514528Y-43407819D02*
X76324052Y-43407819D01*
X76324052Y-43407819D02*
X76228814Y-43455438D01*
X76228814Y-43455438D02*
X76181195Y-43503057D01*
X76181195Y-43503057D02*
X76085957Y-43645914D01*
X76085957Y-43645914D02*
X76038338Y-43836390D01*
X76038338Y-43836390D02*
X76038338Y-44217342D01*
X76038338Y-44217342D02*
X76085957Y-44312580D01*
X76085957Y-44312580D02*
X76133576Y-44360200D01*
X76133576Y-44360200D02*
X76228814Y-44407819D01*
X76228814Y-44407819D02*
X76419290Y-44407819D01*
X76419290Y-44407819D02*
X76514528Y-44360200D01*
X76514528Y-44360200D02*
X76562147Y-44312580D01*
X76562147Y-44312580D02*
X76609766Y-44217342D01*
X76609766Y-44217342D02*
X76609766Y-43979247D01*
X76609766Y-43979247D02*
X76562147Y-43884009D01*
X76562147Y-43884009D02*
X76514528Y-43836390D01*
X76514528Y-43836390D02*
X76419290Y-43788771D01*
X76419290Y-43788771D02*
X76228814Y-43788771D01*
X76228814Y-43788771D02*
X76133576Y-43836390D01*
X76133576Y-43836390D02*
X76085957Y-43884009D01*
X76085957Y-43884009D02*
X76038338Y-43979247D01*
X129220933Y-107858380D02*
X129173314Y-107906000D01*
X129173314Y-107906000D02*
X129030457Y-107953619D01*
X129030457Y-107953619D02*
X128935219Y-107953619D01*
X128935219Y-107953619D02*
X128792362Y-107906000D01*
X128792362Y-107906000D02*
X128697124Y-107810761D01*
X128697124Y-107810761D02*
X128649505Y-107715523D01*
X128649505Y-107715523D02*
X128601886Y-107525047D01*
X128601886Y-107525047D02*
X128601886Y-107382190D01*
X128601886Y-107382190D02*
X128649505Y-107191714D01*
X128649505Y-107191714D02*
X128697124Y-107096476D01*
X128697124Y-107096476D02*
X128792362Y-107001238D01*
X128792362Y-107001238D02*
X128935219Y-106953619D01*
X128935219Y-106953619D02*
X129030457Y-106953619D01*
X129030457Y-106953619D02*
X129173314Y-107001238D01*
X129173314Y-107001238D02*
X129220933Y-107048857D01*
X130173314Y-107953619D02*
X129601886Y-107953619D01*
X129887600Y-107953619D02*
X129887600Y-106953619D01*
X129887600Y-106953619D02*
X129792362Y-107096476D01*
X129792362Y-107096476D02*
X129697124Y-107191714D01*
X129697124Y-107191714D02*
X129601886Y-107239333D01*
X47945219Y-69267294D02*
X46945219Y-69267294D01*
X46945219Y-69267294D02*
X46945219Y-69029199D01*
X46945219Y-69029199D02*
X46992838Y-68886342D01*
X46992838Y-68886342D02*
X47088076Y-68791104D01*
X47088076Y-68791104D02*
X47183314Y-68743485D01*
X47183314Y-68743485D02*
X47373790Y-68695866D01*
X47373790Y-68695866D02*
X47516647Y-68695866D01*
X47516647Y-68695866D02*
X47707123Y-68743485D01*
X47707123Y-68743485D02*
X47802361Y-68791104D01*
X47802361Y-68791104D02*
X47897600Y-68886342D01*
X47897600Y-68886342D02*
X47945219Y-69029199D01*
X47945219Y-69029199D02*
X47945219Y-69267294D01*
X46945219Y-67791104D02*
X46945219Y-68267294D01*
X46945219Y-68267294D02*
X47421409Y-68314913D01*
X47421409Y-68314913D02*
X47373790Y-68267294D01*
X47373790Y-68267294D02*
X47326171Y-68172056D01*
X47326171Y-68172056D02*
X47326171Y-67933961D01*
X47326171Y-67933961D02*
X47373790Y-67838723D01*
X47373790Y-67838723D02*
X47421409Y-67791104D01*
X47421409Y-67791104D02*
X47516647Y-67743485D01*
X47516647Y-67743485D02*
X47754742Y-67743485D01*
X47754742Y-67743485D02*
X47849980Y-67791104D01*
X47849980Y-67791104D02*
X47897600Y-67838723D01*
X47897600Y-67838723D02*
X47945219Y-67933961D01*
X47945219Y-67933961D02*
X47945219Y-68172056D01*
X47945219Y-68172056D02*
X47897600Y-68267294D01*
X47897600Y-68267294D02*
X47849980Y-68314913D01*
X185674666Y-91187019D02*
X185674666Y-91901304D01*
X185674666Y-91901304D02*
X185627047Y-92044161D01*
X185627047Y-92044161D02*
X185531809Y-92139400D01*
X185531809Y-92139400D02*
X185388952Y-92187019D01*
X185388952Y-92187019D02*
X185293714Y-92187019D01*
X186627047Y-91187019D02*
X186150857Y-91187019D01*
X186150857Y-91187019D02*
X186103238Y-91663209D01*
X186103238Y-91663209D02*
X186150857Y-91615590D01*
X186150857Y-91615590D02*
X186246095Y-91567971D01*
X186246095Y-91567971D02*
X186484190Y-91567971D01*
X186484190Y-91567971D02*
X186579428Y-91615590D01*
X186579428Y-91615590D02*
X186627047Y-91663209D01*
X186627047Y-91663209D02*
X186674666Y-91758447D01*
X186674666Y-91758447D02*
X186674666Y-91996542D01*
X186674666Y-91996542D02*
X186627047Y-92091780D01*
X186627047Y-92091780D02*
X186579428Y-92139400D01*
X186579428Y-92139400D02*
X186484190Y-92187019D01*
X186484190Y-92187019D02*
X186246095Y-92187019D01*
X186246095Y-92187019D02*
X186150857Y-92139400D01*
X186150857Y-92139400D02*
X186103238Y-92091780D01*
X63711905Y-73254819D02*
X63711905Y-72254819D01*
X63711905Y-72254819D02*
X63950000Y-72254819D01*
X63950000Y-72254819D02*
X64092857Y-72302438D01*
X64092857Y-72302438D02*
X64188095Y-72397676D01*
X64188095Y-72397676D02*
X64235714Y-72492914D01*
X64235714Y-72492914D02*
X64283333Y-72683390D01*
X64283333Y-72683390D02*
X64283333Y-72826247D01*
X64283333Y-72826247D02*
X64235714Y-73016723D01*
X64235714Y-73016723D02*
X64188095Y-73111961D01*
X64188095Y-73111961D02*
X64092857Y-73207200D01*
X64092857Y-73207200D02*
X63950000Y-73254819D01*
X63950000Y-73254819D02*
X63711905Y-73254819D01*
X64759524Y-73254819D02*
X64950000Y-73254819D01*
X64950000Y-73254819D02*
X65045238Y-73207200D01*
X65045238Y-73207200D02*
X65092857Y-73159580D01*
X65092857Y-73159580D02*
X65188095Y-73016723D01*
X65188095Y-73016723D02*
X65235714Y-72826247D01*
X65235714Y-72826247D02*
X65235714Y-72445295D01*
X65235714Y-72445295D02*
X65188095Y-72350057D01*
X65188095Y-72350057D02*
X65140476Y-72302438D01*
X65140476Y-72302438D02*
X65045238Y-72254819D01*
X65045238Y-72254819D02*
X64854762Y-72254819D01*
X64854762Y-72254819D02*
X64759524Y-72302438D01*
X64759524Y-72302438D02*
X64711905Y-72350057D01*
X64711905Y-72350057D02*
X64664286Y-72445295D01*
X64664286Y-72445295D02*
X64664286Y-72683390D01*
X64664286Y-72683390D02*
X64711905Y-72778628D01*
X64711905Y-72778628D02*
X64759524Y-72826247D01*
X64759524Y-72826247D02*
X64854762Y-72873866D01*
X64854762Y-72873866D02*
X65045238Y-72873866D01*
X65045238Y-72873866D02*
X65140476Y-72826247D01*
X65140476Y-72826247D02*
X65188095Y-72778628D01*
X65188095Y-72778628D02*
X65235714Y-72683390D01*
X60442295Y-43153819D02*
X61013723Y-43153819D01*
X60728009Y-44153819D02*
X60728009Y-43153819D01*
X61347057Y-44153819D02*
X61347057Y-43153819D01*
X61347057Y-43153819D02*
X61728009Y-43153819D01*
X61728009Y-43153819D02*
X61823247Y-43201438D01*
X61823247Y-43201438D02*
X61870866Y-43249057D01*
X61870866Y-43249057D02*
X61918485Y-43344295D01*
X61918485Y-43344295D02*
X61918485Y-43487152D01*
X61918485Y-43487152D02*
X61870866Y-43582390D01*
X61870866Y-43582390D02*
X61823247Y-43630009D01*
X61823247Y-43630009D02*
X61728009Y-43677628D01*
X61728009Y-43677628D02*
X61347057Y-43677628D01*
X62489914Y-43582390D02*
X62394676Y-43534771D01*
X62394676Y-43534771D02*
X62347057Y-43487152D01*
X62347057Y-43487152D02*
X62299438Y-43391914D01*
X62299438Y-43391914D02*
X62299438Y-43344295D01*
X62299438Y-43344295D02*
X62347057Y-43249057D01*
X62347057Y-43249057D02*
X62394676Y-43201438D01*
X62394676Y-43201438D02*
X62489914Y-43153819D01*
X62489914Y-43153819D02*
X62680390Y-43153819D01*
X62680390Y-43153819D02*
X62775628Y-43201438D01*
X62775628Y-43201438D02*
X62823247Y-43249057D01*
X62823247Y-43249057D02*
X62870866Y-43344295D01*
X62870866Y-43344295D02*
X62870866Y-43391914D01*
X62870866Y-43391914D02*
X62823247Y-43487152D01*
X62823247Y-43487152D02*
X62775628Y-43534771D01*
X62775628Y-43534771D02*
X62680390Y-43582390D01*
X62680390Y-43582390D02*
X62489914Y-43582390D01*
X62489914Y-43582390D02*
X62394676Y-43630009D01*
X62394676Y-43630009D02*
X62347057Y-43677628D01*
X62347057Y-43677628D02*
X62299438Y-43772866D01*
X62299438Y-43772866D02*
X62299438Y-43963342D01*
X62299438Y-43963342D02*
X62347057Y-44058580D01*
X62347057Y-44058580D02*
X62394676Y-44106200D01*
X62394676Y-44106200D02*
X62489914Y-44153819D01*
X62489914Y-44153819D02*
X62680390Y-44153819D01*
X62680390Y-44153819D02*
X62775628Y-44106200D01*
X62775628Y-44106200D02*
X62823247Y-44058580D01*
X62823247Y-44058580D02*
X62870866Y-43963342D01*
X62870866Y-43963342D02*
X62870866Y-43772866D01*
X62870866Y-43772866D02*
X62823247Y-43677628D01*
X62823247Y-43677628D02*
X62775628Y-43630009D01*
X62775628Y-43630009D02*
X62680390Y-43582390D01*
X187927805Y-108754819D02*
X187927805Y-107754819D01*
X187927805Y-107754819D02*
X188165900Y-107754819D01*
X188165900Y-107754819D02*
X188308757Y-107802438D01*
X188308757Y-107802438D02*
X188403995Y-107897676D01*
X188403995Y-107897676D02*
X188451614Y-107992914D01*
X188451614Y-107992914D02*
X188499233Y-108183390D01*
X188499233Y-108183390D02*
X188499233Y-108326247D01*
X188499233Y-108326247D02*
X188451614Y-108516723D01*
X188451614Y-108516723D02*
X188403995Y-108611961D01*
X188403995Y-108611961D02*
X188308757Y-108707200D01*
X188308757Y-108707200D02*
X188165900Y-108754819D01*
X188165900Y-108754819D02*
X187927805Y-108754819D01*
X189070662Y-108183390D02*
X188975424Y-108135771D01*
X188975424Y-108135771D02*
X188927805Y-108088152D01*
X188927805Y-108088152D02*
X188880186Y-107992914D01*
X188880186Y-107992914D02*
X188880186Y-107945295D01*
X188880186Y-107945295D02*
X188927805Y-107850057D01*
X188927805Y-107850057D02*
X188975424Y-107802438D01*
X188975424Y-107802438D02*
X189070662Y-107754819D01*
X189070662Y-107754819D02*
X189261138Y-107754819D01*
X189261138Y-107754819D02*
X189356376Y-107802438D01*
X189356376Y-107802438D02*
X189403995Y-107850057D01*
X189403995Y-107850057D02*
X189451614Y-107945295D01*
X189451614Y-107945295D02*
X189451614Y-107992914D01*
X189451614Y-107992914D02*
X189403995Y-108088152D01*
X189403995Y-108088152D02*
X189356376Y-108135771D01*
X189356376Y-108135771D02*
X189261138Y-108183390D01*
X189261138Y-108183390D02*
X189070662Y-108183390D01*
X189070662Y-108183390D02*
X188975424Y-108231009D01*
X188975424Y-108231009D02*
X188927805Y-108278628D01*
X188927805Y-108278628D02*
X188880186Y-108373866D01*
X188880186Y-108373866D02*
X188880186Y-108564342D01*
X188880186Y-108564342D02*
X188927805Y-108659580D01*
X188927805Y-108659580D02*
X188975424Y-108707200D01*
X188975424Y-108707200D02*
X189070662Y-108754819D01*
X189070662Y-108754819D02*
X189261138Y-108754819D01*
X189261138Y-108754819D02*
X189356376Y-108707200D01*
X189356376Y-108707200D02*
X189403995Y-108659580D01*
X189403995Y-108659580D02*
X189451614Y-108564342D01*
X189451614Y-108564342D02*
X189451614Y-108373866D01*
X189451614Y-108373866D02*
X189403995Y-108278628D01*
X189403995Y-108278628D02*
X189356376Y-108231009D01*
X189356376Y-108231009D02*
X189261138Y-108183390D01*
X78270733Y-67676619D02*
X77937400Y-67200428D01*
X77699305Y-67676619D02*
X77699305Y-66676619D01*
X77699305Y-66676619D02*
X78080257Y-66676619D01*
X78080257Y-66676619D02*
X78175495Y-66724238D01*
X78175495Y-66724238D02*
X78223114Y-66771857D01*
X78223114Y-66771857D02*
X78270733Y-66867095D01*
X78270733Y-66867095D02*
X78270733Y-67009952D01*
X78270733Y-67009952D02*
X78223114Y-67105190D01*
X78223114Y-67105190D02*
X78175495Y-67152809D01*
X78175495Y-67152809D02*
X78080257Y-67200428D01*
X78080257Y-67200428D02*
X77699305Y-67200428D01*
X78746924Y-67676619D02*
X78937400Y-67676619D01*
X78937400Y-67676619D02*
X79032638Y-67629000D01*
X79032638Y-67629000D02*
X79080257Y-67581380D01*
X79080257Y-67581380D02*
X79175495Y-67438523D01*
X79175495Y-67438523D02*
X79223114Y-67248047D01*
X79223114Y-67248047D02*
X79223114Y-66867095D01*
X79223114Y-66867095D02*
X79175495Y-66771857D01*
X79175495Y-66771857D02*
X79127876Y-66724238D01*
X79127876Y-66724238D02*
X79032638Y-66676619D01*
X79032638Y-66676619D02*
X78842162Y-66676619D01*
X78842162Y-66676619D02*
X78746924Y-66724238D01*
X78746924Y-66724238D02*
X78699305Y-66771857D01*
X78699305Y-66771857D02*
X78651686Y-66867095D01*
X78651686Y-66867095D02*
X78651686Y-67105190D01*
X78651686Y-67105190D02*
X78699305Y-67200428D01*
X78699305Y-67200428D02*
X78746924Y-67248047D01*
X78746924Y-67248047D02*
X78842162Y-67295666D01*
X78842162Y-67295666D02*
X79032638Y-67295666D01*
X79032638Y-67295666D02*
X79127876Y-67248047D01*
X79127876Y-67248047D02*
X79175495Y-67200428D01*
X79175495Y-67200428D02*
X79223114Y-67105190D01*
X54727295Y-43153819D02*
X55298723Y-43153819D01*
X55013009Y-44153819D02*
X55013009Y-43153819D01*
X55632057Y-44153819D02*
X55632057Y-43153819D01*
X55632057Y-43153819D02*
X56013009Y-43153819D01*
X56013009Y-43153819D02*
X56108247Y-43201438D01*
X56108247Y-43201438D02*
X56155866Y-43249057D01*
X56155866Y-43249057D02*
X56203485Y-43344295D01*
X56203485Y-43344295D02*
X56203485Y-43487152D01*
X56203485Y-43487152D02*
X56155866Y-43582390D01*
X56155866Y-43582390D02*
X56108247Y-43630009D01*
X56108247Y-43630009D02*
X56013009Y-43677628D01*
X56013009Y-43677628D02*
X55632057Y-43677628D01*
X56536819Y-43153819D02*
X57203485Y-43153819D01*
X57203485Y-43153819D02*
X56774914Y-44153819D01*
X70505042Y-69066580D02*
X70457423Y-69114200D01*
X70457423Y-69114200D02*
X70314566Y-69161819D01*
X70314566Y-69161819D02*
X70219328Y-69161819D01*
X70219328Y-69161819D02*
X70076471Y-69114200D01*
X70076471Y-69114200D02*
X69981233Y-69018961D01*
X69981233Y-69018961D02*
X69933614Y-68923723D01*
X69933614Y-68923723D02*
X69885995Y-68733247D01*
X69885995Y-68733247D02*
X69885995Y-68590390D01*
X69885995Y-68590390D02*
X69933614Y-68399914D01*
X69933614Y-68399914D02*
X69981233Y-68304676D01*
X69981233Y-68304676D02*
X70076471Y-68209438D01*
X70076471Y-68209438D02*
X70219328Y-68161819D01*
X70219328Y-68161819D02*
X70314566Y-68161819D01*
X70314566Y-68161819D02*
X70457423Y-68209438D01*
X70457423Y-68209438D02*
X70505042Y-68257057D01*
X71457423Y-69161819D02*
X70885995Y-69161819D01*
X71171709Y-69161819D02*
X71171709Y-68161819D01*
X71171709Y-68161819D02*
X71076471Y-68304676D01*
X71076471Y-68304676D02*
X70981233Y-68399914D01*
X70981233Y-68399914D02*
X70885995Y-68447533D01*
X71933614Y-69161819D02*
X72124090Y-69161819D01*
X72124090Y-69161819D02*
X72219328Y-69114200D01*
X72219328Y-69114200D02*
X72266947Y-69066580D01*
X72266947Y-69066580D02*
X72362185Y-68923723D01*
X72362185Y-68923723D02*
X72409804Y-68733247D01*
X72409804Y-68733247D02*
X72409804Y-68352295D01*
X72409804Y-68352295D02*
X72362185Y-68257057D01*
X72362185Y-68257057D02*
X72314566Y-68209438D01*
X72314566Y-68209438D02*
X72219328Y-68161819D01*
X72219328Y-68161819D02*
X72028852Y-68161819D01*
X72028852Y-68161819D02*
X71933614Y-68209438D01*
X71933614Y-68209438D02*
X71885995Y-68257057D01*
X71885995Y-68257057D02*
X71838376Y-68352295D01*
X71838376Y-68352295D02*
X71838376Y-68590390D01*
X71838376Y-68590390D02*
X71885995Y-68685628D01*
X71885995Y-68685628D02*
X71933614Y-68733247D01*
X71933614Y-68733247D02*
X72028852Y-68780866D01*
X72028852Y-68780866D02*
X72219328Y-68780866D01*
X72219328Y-68780866D02*
X72314566Y-68733247D01*
X72314566Y-68733247D02*
X72362185Y-68685628D01*
X72362185Y-68685628D02*
X72409804Y-68590390D01*
X97082095Y-59600819D02*
X97082095Y-60410342D01*
X97082095Y-60410342D02*
X97129714Y-60505580D01*
X97129714Y-60505580D02*
X97177333Y-60553200D01*
X97177333Y-60553200D02*
X97272571Y-60600819D01*
X97272571Y-60600819D02*
X97463047Y-60600819D01*
X97463047Y-60600819D02*
X97558285Y-60553200D01*
X97558285Y-60553200D02*
X97605904Y-60505580D01*
X97605904Y-60505580D02*
X97653523Y-60410342D01*
X97653523Y-60410342D02*
X97653523Y-59600819D01*
X98605904Y-59600819D02*
X98129714Y-59600819D01*
X98129714Y-59600819D02*
X98082095Y-60077009D01*
X98082095Y-60077009D02*
X98129714Y-60029390D01*
X98129714Y-60029390D02*
X98224952Y-59981771D01*
X98224952Y-59981771D02*
X98463047Y-59981771D01*
X98463047Y-59981771D02*
X98558285Y-60029390D01*
X98558285Y-60029390D02*
X98605904Y-60077009D01*
X98605904Y-60077009D02*
X98653523Y-60172247D01*
X98653523Y-60172247D02*
X98653523Y-60410342D01*
X98653523Y-60410342D02*
X98605904Y-60505580D01*
X98605904Y-60505580D02*
X98558285Y-60553200D01*
X98558285Y-60553200D02*
X98463047Y-60600819D01*
X98463047Y-60600819D02*
X98224952Y-60600819D01*
X98224952Y-60600819D02*
X98129714Y-60553200D01*
X98129714Y-60553200D02*
X98082095Y-60505580D01*
X118080952Y-118657200D02*
X118223809Y-118704819D01*
X118223809Y-118704819D02*
X118461904Y-118704819D01*
X118461904Y-118704819D02*
X118557142Y-118657200D01*
X118557142Y-118657200D02*
X118604761Y-118609580D01*
X118604761Y-118609580D02*
X118652380Y-118514342D01*
X118652380Y-118514342D02*
X118652380Y-118419104D01*
X118652380Y-118419104D02*
X118604761Y-118323866D01*
X118604761Y-118323866D02*
X118557142Y-118276247D01*
X118557142Y-118276247D02*
X118461904Y-118228628D01*
X118461904Y-118228628D02*
X118271428Y-118181009D01*
X118271428Y-118181009D02*
X118176190Y-118133390D01*
X118176190Y-118133390D02*
X118128571Y-118085771D01*
X118128571Y-118085771D02*
X118080952Y-117990533D01*
X118080952Y-117990533D02*
X118080952Y-117895295D01*
X118080952Y-117895295D02*
X118128571Y-117800057D01*
X118128571Y-117800057D02*
X118176190Y-117752438D01*
X118176190Y-117752438D02*
X118271428Y-117704819D01*
X118271428Y-117704819D02*
X118509523Y-117704819D01*
X118509523Y-117704819D02*
X118652380Y-117752438D01*
X119461904Y-118657200D02*
X119366666Y-118704819D01*
X119366666Y-118704819D02*
X119176190Y-118704819D01*
X119176190Y-118704819D02*
X119080952Y-118657200D01*
X119080952Y-118657200D02*
X119033333Y-118561961D01*
X119033333Y-118561961D02*
X119033333Y-118181009D01*
X119033333Y-118181009D02*
X119080952Y-118085771D01*
X119080952Y-118085771D02*
X119176190Y-118038152D01*
X119176190Y-118038152D02*
X119366666Y-118038152D01*
X119366666Y-118038152D02*
X119461904Y-118085771D01*
X119461904Y-118085771D02*
X119509523Y-118181009D01*
X119509523Y-118181009D02*
X119509523Y-118276247D01*
X119509523Y-118276247D02*
X119033333Y-118371485D01*
X120366666Y-118657200D02*
X120271428Y-118704819D01*
X120271428Y-118704819D02*
X120080952Y-118704819D01*
X120080952Y-118704819D02*
X119985714Y-118657200D01*
X119985714Y-118657200D02*
X119938095Y-118609580D01*
X119938095Y-118609580D02*
X119890476Y-118514342D01*
X119890476Y-118514342D02*
X119890476Y-118228628D01*
X119890476Y-118228628D02*
X119938095Y-118133390D01*
X119938095Y-118133390D02*
X119985714Y-118085771D01*
X119985714Y-118085771D02*
X120080952Y-118038152D01*
X120080952Y-118038152D02*
X120271428Y-118038152D01*
X120271428Y-118038152D02*
X120366666Y-118085771D01*
X120700000Y-117704819D02*
X121319047Y-117704819D01*
X121319047Y-117704819D02*
X120985714Y-118085771D01*
X120985714Y-118085771D02*
X121128571Y-118085771D01*
X121128571Y-118085771D02*
X121223809Y-118133390D01*
X121223809Y-118133390D02*
X121271428Y-118181009D01*
X121271428Y-118181009D02*
X121319047Y-118276247D01*
X121319047Y-118276247D02*
X121319047Y-118514342D01*
X121319047Y-118514342D02*
X121271428Y-118609580D01*
X121271428Y-118609580D02*
X121223809Y-118657200D01*
X121223809Y-118657200D02*
X121128571Y-118704819D01*
X121128571Y-118704819D02*
X120842857Y-118704819D01*
X120842857Y-118704819D02*
X120747619Y-118657200D01*
X120747619Y-118657200D02*
X120700000Y-118609580D01*
X110280952Y-118657200D02*
X110423809Y-118704819D01*
X110423809Y-118704819D02*
X110661904Y-118704819D01*
X110661904Y-118704819D02*
X110757142Y-118657200D01*
X110757142Y-118657200D02*
X110804761Y-118609580D01*
X110804761Y-118609580D02*
X110852380Y-118514342D01*
X110852380Y-118514342D02*
X110852380Y-118419104D01*
X110852380Y-118419104D02*
X110804761Y-118323866D01*
X110804761Y-118323866D02*
X110757142Y-118276247D01*
X110757142Y-118276247D02*
X110661904Y-118228628D01*
X110661904Y-118228628D02*
X110471428Y-118181009D01*
X110471428Y-118181009D02*
X110376190Y-118133390D01*
X110376190Y-118133390D02*
X110328571Y-118085771D01*
X110328571Y-118085771D02*
X110280952Y-117990533D01*
X110280952Y-117990533D02*
X110280952Y-117895295D01*
X110280952Y-117895295D02*
X110328571Y-117800057D01*
X110328571Y-117800057D02*
X110376190Y-117752438D01*
X110376190Y-117752438D02*
X110471428Y-117704819D01*
X110471428Y-117704819D02*
X110709523Y-117704819D01*
X110709523Y-117704819D02*
X110852380Y-117752438D01*
X111661904Y-118657200D02*
X111566666Y-118704819D01*
X111566666Y-118704819D02*
X111376190Y-118704819D01*
X111376190Y-118704819D02*
X111280952Y-118657200D01*
X111280952Y-118657200D02*
X111233333Y-118561961D01*
X111233333Y-118561961D02*
X111233333Y-118181009D01*
X111233333Y-118181009D02*
X111280952Y-118085771D01*
X111280952Y-118085771D02*
X111376190Y-118038152D01*
X111376190Y-118038152D02*
X111566666Y-118038152D01*
X111566666Y-118038152D02*
X111661904Y-118085771D01*
X111661904Y-118085771D02*
X111709523Y-118181009D01*
X111709523Y-118181009D02*
X111709523Y-118276247D01*
X111709523Y-118276247D02*
X111233333Y-118371485D01*
X112566666Y-118657200D02*
X112471428Y-118704819D01*
X112471428Y-118704819D02*
X112280952Y-118704819D01*
X112280952Y-118704819D02*
X112185714Y-118657200D01*
X112185714Y-118657200D02*
X112138095Y-118609580D01*
X112138095Y-118609580D02*
X112090476Y-118514342D01*
X112090476Y-118514342D02*
X112090476Y-118228628D01*
X112090476Y-118228628D02*
X112138095Y-118133390D01*
X112138095Y-118133390D02*
X112185714Y-118085771D01*
X112185714Y-118085771D02*
X112280952Y-118038152D01*
X112280952Y-118038152D02*
X112471428Y-118038152D01*
X112471428Y-118038152D02*
X112566666Y-118085771D01*
X112947619Y-117800057D02*
X112995238Y-117752438D01*
X112995238Y-117752438D02*
X113090476Y-117704819D01*
X113090476Y-117704819D02*
X113328571Y-117704819D01*
X113328571Y-117704819D02*
X113423809Y-117752438D01*
X113423809Y-117752438D02*
X113471428Y-117800057D01*
X113471428Y-117800057D02*
X113519047Y-117895295D01*
X113519047Y-117895295D02*
X113519047Y-117990533D01*
X113519047Y-117990533D02*
X113471428Y-118133390D01*
X113471428Y-118133390D02*
X112900000Y-118704819D01*
X112900000Y-118704819D02*
X113519047Y-118704819D01*
X197078695Y-111974219D02*
X197078695Y-110974219D01*
X197078695Y-111450409D02*
X197650123Y-111450409D01*
X197650123Y-111974219D02*
X197650123Y-110974219D01*
X198554885Y-111307552D02*
X198554885Y-111974219D01*
X198316790Y-110926600D02*
X198078695Y-111640885D01*
X198078695Y-111640885D02*
X198697742Y-111640885D01*
X156680952Y-118657200D02*
X156823809Y-118704819D01*
X156823809Y-118704819D02*
X157061904Y-118704819D01*
X157061904Y-118704819D02*
X157157142Y-118657200D01*
X157157142Y-118657200D02*
X157204761Y-118609580D01*
X157204761Y-118609580D02*
X157252380Y-118514342D01*
X157252380Y-118514342D02*
X157252380Y-118419104D01*
X157252380Y-118419104D02*
X157204761Y-118323866D01*
X157204761Y-118323866D02*
X157157142Y-118276247D01*
X157157142Y-118276247D02*
X157061904Y-118228628D01*
X157061904Y-118228628D02*
X156871428Y-118181009D01*
X156871428Y-118181009D02*
X156776190Y-118133390D01*
X156776190Y-118133390D02*
X156728571Y-118085771D01*
X156728571Y-118085771D02*
X156680952Y-117990533D01*
X156680952Y-117990533D02*
X156680952Y-117895295D01*
X156680952Y-117895295D02*
X156728571Y-117800057D01*
X156728571Y-117800057D02*
X156776190Y-117752438D01*
X156776190Y-117752438D02*
X156871428Y-117704819D01*
X156871428Y-117704819D02*
X157109523Y-117704819D01*
X157109523Y-117704819D02*
X157252380Y-117752438D01*
X158061904Y-118657200D02*
X157966666Y-118704819D01*
X157966666Y-118704819D02*
X157776190Y-118704819D01*
X157776190Y-118704819D02*
X157680952Y-118657200D01*
X157680952Y-118657200D02*
X157633333Y-118561961D01*
X157633333Y-118561961D02*
X157633333Y-118181009D01*
X157633333Y-118181009D02*
X157680952Y-118085771D01*
X157680952Y-118085771D02*
X157776190Y-118038152D01*
X157776190Y-118038152D02*
X157966666Y-118038152D01*
X157966666Y-118038152D02*
X158061904Y-118085771D01*
X158061904Y-118085771D02*
X158109523Y-118181009D01*
X158109523Y-118181009D02*
X158109523Y-118276247D01*
X158109523Y-118276247D02*
X157633333Y-118371485D01*
X158966666Y-118657200D02*
X158871428Y-118704819D01*
X158871428Y-118704819D02*
X158680952Y-118704819D01*
X158680952Y-118704819D02*
X158585714Y-118657200D01*
X158585714Y-118657200D02*
X158538095Y-118609580D01*
X158538095Y-118609580D02*
X158490476Y-118514342D01*
X158490476Y-118514342D02*
X158490476Y-118228628D01*
X158490476Y-118228628D02*
X158538095Y-118133390D01*
X158538095Y-118133390D02*
X158585714Y-118085771D01*
X158585714Y-118085771D02*
X158680952Y-118038152D01*
X158680952Y-118038152D02*
X158871428Y-118038152D01*
X158871428Y-118038152D02*
X158966666Y-118085771D01*
X159823809Y-117704819D02*
X159633333Y-117704819D01*
X159633333Y-117704819D02*
X159538095Y-117752438D01*
X159538095Y-117752438D02*
X159490476Y-117800057D01*
X159490476Y-117800057D02*
X159395238Y-117942914D01*
X159395238Y-117942914D02*
X159347619Y-118133390D01*
X159347619Y-118133390D02*
X159347619Y-118514342D01*
X159347619Y-118514342D02*
X159395238Y-118609580D01*
X159395238Y-118609580D02*
X159442857Y-118657200D01*
X159442857Y-118657200D02*
X159538095Y-118704819D01*
X159538095Y-118704819D02*
X159728571Y-118704819D01*
X159728571Y-118704819D02*
X159823809Y-118657200D01*
X159823809Y-118657200D02*
X159871428Y-118609580D01*
X159871428Y-118609580D02*
X159919047Y-118514342D01*
X159919047Y-118514342D02*
X159919047Y-118276247D01*
X159919047Y-118276247D02*
X159871428Y-118181009D01*
X159871428Y-118181009D02*
X159823809Y-118133390D01*
X159823809Y-118133390D02*
X159728571Y-118085771D01*
X159728571Y-118085771D02*
X159538095Y-118085771D01*
X159538095Y-118085771D02*
X159442857Y-118133390D01*
X159442857Y-118133390D02*
X159395238Y-118181009D01*
X159395238Y-118181009D02*
X159347619Y-118276247D01*
X92121142Y-38455580D02*
X92073523Y-38503200D01*
X92073523Y-38503200D02*
X91930666Y-38550819D01*
X91930666Y-38550819D02*
X91835428Y-38550819D01*
X91835428Y-38550819D02*
X91692571Y-38503200D01*
X91692571Y-38503200D02*
X91597333Y-38407961D01*
X91597333Y-38407961D02*
X91549714Y-38312723D01*
X91549714Y-38312723D02*
X91502095Y-38122247D01*
X91502095Y-38122247D02*
X91502095Y-37979390D01*
X91502095Y-37979390D02*
X91549714Y-37788914D01*
X91549714Y-37788914D02*
X91597333Y-37693676D01*
X91597333Y-37693676D02*
X91692571Y-37598438D01*
X91692571Y-37598438D02*
X91835428Y-37550819D01*
X91835428Y-37550819D02*
X91930666Y-37550819D01*
X91930666Y-37550819D02*
X92073523Y-37598438D01*
X92073523Y-37598438D02*
X92121142Y-37646057D01*
X92502095Y-37646057D02*
X92549714Y-37598438D01*
X92549714Y-37598438D02*
X92644952Y-37550819D01*
X92644952Y-37550819D02*
X92883047Y-37550819D01*
X92883047Y-37550819D02*
X92978285Y-37598438D01*
X92978285Y-37598438D02*
X93025904Y-37646057D01*
X93025904Y-37646057D02*
X93073523Y-37741295D01*
X93073523Y-37741295D02*
X93073523Y-37836533D01*
X93073523Y-37836533D02*
X93025904Y-37979390D01*
X93025904Y-37979390D02*
X92454476Y-38550819D01*
X92454476Y-38550819D02*
X93073523Y-38550819D01*
X93406857Y-37550819D02*
X94025904Y-37550819D01*
X94025904Y-37550819D02*
X93692571Y-37931771D01*
X93692571Y-37931771D02*
X93835428Y-37931771D01*
X93835428Y-37931771D02*
X93930666Y-37979390D01*
X93930666Y-37979390D02*
X93978285Y-38027009D01*
X93978285Y-38027009D02*
X94025904Y-38122247D01*
X94025904Y-38122247D02*
X94025904Y-38360342D01*
X94025904Y-38360342D02*
X93978285Y-38455580D01*
X93978285Y-38455580D02*
X93930666Y-38503200D01*
X93930666Y-38503200D02*
X93835428Y-38550819D01*
X93835428Y-38550819D02*
X93549714Y-38550819D01*
X93549714Y-38550819D02*
X93454476Y-38503200D01*
X93454476Y-38503200D02*
X93406857Y-38455580D01*
X183811905Y-71104819D02*
X183811905Y-70104819D01*
X183811905Y-70104819D02*
X184050000Y-70104819D01*
X184050000Y-70104819D02*
X184192857Y-70152438D01*
X184192857Y-70152438D02*
X184288095Y-70247676D01*
X184288095Y-70247676D02*
X184335714Y-70342914D01*
X184335714Y-70342914D02*
X184383333Y-70533390D01*
X184383333Y-70533390D02*
X184383333Y-70676247D01*
X184383333Y-70676247D02*
X184335714Y-70866723D01*
X184335714Y-70866723D02*
X184288095Y-70961961D01*
X184288095Y-70961961D02*
X184192857Y-71057200D01*
X184192857Y-71057200D02*
X184050000Y-71104819D01*
X184050000Y-71104819D02*
X183811905Y-71104819D01*
X185335714Y-71104819D02*
X184764286Y-71104819D01*
X185050000Y-71104819D02*
X185050000Y-70104819D01*
X185050000Y-70104819D02*
X184954762Y-70247676D01*
X184954762Y-70247676D02*
X184859524Y-70342914D01*
X184859524Y-70342914D02*
X184764286Y-70390533D01*
X180338095Y-45504819D02*
X180338095Y-46314342D01*
X180338095Y-46314342D02*
X180385714Y-46409580D01*
X180385714Y-46409580D02*
X180433333Y-46457200D01*
X180433333Y-46457200D02*
X180528571Y-46504819D01*
X180528571Y-46504819D02*
X180719047Y-46504819D01*
X180719047Y-46504819D02*
X180814285Y-46457200D01*
X180814285Y-46457200D02*
X180861904Y-46409580D01*
X180861904Y-46409580D02*
X180909523Y-46314342D01*
X180909523Y-46314342D02*
X180909523Y-45504819D01*
X181290476Y-45504819D02*
X181909523Y-45504819D01*
X181909523Y-45504819D02*
X181576190Y-45885771D01*
X181576190Y-45885771D02*
X181719047Y-45885771D01*
X181719047Y-45885771D02*
X181814285Y-45933390D01*
X181814285Y-45933390D02*
X181861904Y-45981009D01*
X181861904Y-45981009D02*
X181909523Y-46076247D01*
X181909523Y-46076247D02*
X181909523Y-46314342D01*
X181909523Y-46314342D02*
X181861904Y-46409580D01*
X181861904Y-46409580D02*
X181814285Y-46457200D01*
X181814285Y-46457200D02*
X181719047Y-46504819D01*
X181719047Y-46504819D02*
X181433333Y-46504819D01*
X181433333Y-46504819D02*
X181338095Y-46457200D01*
X181338095Y-46457200D02*
X181290476Y-46409580D01*
X162633333Y-58862380D02*
X162585714Y-58910000D01*
X162585714Y-58910000D02*
X162442857Y-58957619D01*
X162442857Y-58957619D02*
X162347619Y-58957619D01*
X162347619Y-58957619D02*
X162204762Y-58910000D01*
X162204762Y-58910000D02*
X162109524Y-58814761D01*
X162109524Y-58814761D02*
X162061905Y-58719523D01*
X162061905Y-58719523D02*
X162014286Y-58529047D01*
X162014286Y-58529047D02*
X162014286Y-58386190D01*
X162014286Y-58386190D02*
X162061905Y-58195714D01*
X162061905Y-58195714D02*
X162109524Y-58100476D01*
X162109524Y-58100476D02*
X162204762Y-58005238D01*
X162204762Y-58005238D02*
X162347619Y-57957619D01*
X162347619Y-57957619D02*
X162442857Y-57957619D01*
X162442857Y-57957619D02*
X162585714Y-58005238D01*
X162585714Y-58005238D02*
X162633333Y-58052857D01*
X163490476Y-58290952D02*
X163490476Y-58957619D01*
X163252381Y-57910000D02*
X163014286Y-58624285D01*
X163014286Y-58624285D02*
X163633333Y-58624285D01*
X102280952Y-118657200D02*
X102423809Y-118704819D01*
X102423809Y-118704819D02*
X102661904Y-118704819D01*
X102661904Y-118704819D02*
X102757142Y-118657200D01*
X102757142Y-118657200D02*
X102804761Y-118609580D01*
X102804761Y-118609580D02*
X102852380Y-118514342D01*
X102852380Y-118514342D02*
X102852380Y-118419104D01*
X102852380Y-118419104D02*
X102804761Y-118323866D01*
X102804761Y-118323866D02*
X102757142Y-118276247D01*
X102757142Y-118276247D02*
X102661904Y-118228628D01*
X102661904Y-118228628D02*
X102471428Y-118181009D01*
X102471428Y-118181009D02*
X102376190Y-118133390D01*
X102376190Y-118133390D02*
X102328571Y-118085771D01*
X102328571Y-118085771D02*
X102280952Y-117990533D01*
X102280952Y-117990533D02*
X102280952Y-117895295D01*
X102280952Y-117895295D02*
X102328571Y-117800057D01*
X102328571Y-117800057D02*
X102376190Y-117752438D01*
X102376190Y-117752438D02*
X102471428Y-117704819D01*
X102471428Y-117704819D02*
X102709523Y-117704819D01*
X102709523Y-117704819D02*
X102852380Y-117752438D01*
X103661904Y-118657200D02*
X103566666Y-118704819D01*
X103566666Y-118704819D02*
X103376190Y-118704819D01*
X103376190Y-118704819D02*
X103280952Y-118657200D01*
X103280952Y-118657200D02*
X103233333Y-118561961D01*
X103233333Y-118561961D02*
X103233333Y-118181009D01*
X103233333Y-118181009D02*
X103280952Y-118085771D01*
X103280952Y-118085771D02*
X103376190Y-118038152D01*
X103376190Y-118038152D02*
X103566666Y-118038152D01*
X103566666Y-118038152D02*
X103661904Y-118085771D01*
X103661904Y-118085771D02*
X103709523Y-118181009D01*
X103709523Y-118181009D02*
X103709523Y-118276247D01*
X103709523Y-118276247D02*
X103233333Y-118371485D01*
X104566666Y-118657200D02*
X104471428Y-118704819D01*
X104471428Y-118704819D02*
X104280952Y-118704819D01*
X104280952Y-118704819D02*
X104185714Y-118657200D01*
X104185714Y-118657200D02*
X104138095Y-118609580D01*
X104138095Y-118609580D02*
X104090476Y-118514342D01*
X104090476Y-118514342D02*
X104090476Y-118228628D01*
X104090476Y-118228628D02*
X104138095Y-118133390D01*
X104138095Y-118133390D02*
X104185714Y-118085771D01*
X104185714Y-118085771D02*
X104280952Y-118038152D01*
X104280952Y-118038152D02*
X104471428Y-118038152D01*
X104471428Y-118038152D02*
X104566666Y-118085771D01*
X105519047Y-118704819D02*
X104947619Y-118704819D01*
X105233333Y-118704819D02*
X105233333Y-117704819D01*
X105233333Y-117704819D02*
X105138095Y-117847676D01*
X105138095Y-117847676D02*
X105042857Y-117942914D01*
X105042857Y-117942914D02*
X104947619Y-117990533D01*
X81162166Y-46374009D02*
X80828833Y-46374009D01*
X80828833Y-46897819D02*
X80828833Y-45897819D01*
X80828833Y-45897819D02*
X81305023Y-45897819D01*
X81638357Y-45993057D02*
X81685976Y-45945438D01*
X81685976Y-45945438D02*
X81781214Y-45897819D01*
X81781214Y-45897819D02*
X82019309Y-45897819D01*
X82019309Y-45897819D02*
X82114547Y-45945438D01*
X82114547Y-45945438D02*
X82162166Y-45993057D01*
X82162166Y-45993057D02*
X82209785Y-46088295D01*
X82209785Y-46088295D02*
X82209785Y-46183533D01*
X82209785Y-46183533D02*
X82162166Y-46326390D01*
X82162166Y-46326390D02*
X81590738Y-46897819D01*
X81590738Y-46897819D02*
X82209785Y-46897819D01*
X72985714Y-71554819D02*
X72985714Y-70554819D01*
X72985714Y-70554819D02*
X73223809Y-70554819D01*
X73223809Y-70554819D02*
X73366666Y-70602438D01*
X73366666Y-70602438D02*
X73461904Y-70697676D01*
X73461904Y-70697676D02*
X73509523Y-70792914D01*
X73509523Y-70792914D02*
X73557142Y-70983390D01*
X73557142Y-70983390D02*
X73557142Y-71126247D01*
X73557142Y-71126247D02*
X73509523Y-71316723D01*
X73509523Y-71316723D02*
X73461904Y-71411961D01*
X73461904Y-71411961D02*
X73366666Y-71507200D01*
X73366666Y-71507200D02*
X73223809Y-71554819D01*
X73223809Y-71554819D02*
X72985714Y-71554819D01*
X74509523Y-71554819D02*
X73938095Y-71554819D01*
X74223809Y-71554819D02*
X74223809Y-70554819D01*
X74223809Y-70554819D02*
X74128571Y-70697676D01*
X74128571Y-70697676D02*
X74033333Y-70792914D01*
X74033333Y-70792914D02*
X73938095Y-70840533D01*
X74890476Y-70650057D02*
X74938095Y-70602438D01*
X74938095Y-70602438D02*
X75033333Y-70554819D01*
X75033333Y-70554819D02*
X75271428Y-70554819D01*
X75271428Y-70554819D02*
X75366666Y-70602438D01*
X75366666Y-70602438D02*
X75414285Y-70650057D01*
X75414285Y-70650057D02*
X75461904Y-70745295D01*
X75461904Y-70745295D02*
X75461904Y-70840533D01*
X75461904Y-70840533D02*
X75414285Y-70983390D01*
X75414285Y-70983390D02*
X74842857Y-71554819D01*
X74842857Y-71554819D02*
X75461904Y-71554819D01*
X196933333Y-50459580D02*
X196885714Y-50507200D01*
X196885714Y-50507200D02*
X196742857Y-50554819D01*
X196742857Y-50554819D02*
X196647619Y-50554819D01*
X196647619Y-50554819D02*
X196504762Y-50507200D01*
X196504762Y-50507200D02*
X196409524Y-50411961D01*
X196409524Y-50411961D02*
X196361905Y-50316723D01*
X196361905Y-50316723D02*
X196314286Y-50126247D01*
X196314286Y-50126247D02*
X196314286Y-49983390D01*
X196314286Y-49983390D02*
X196361905Y-49792914D01*
X196361905Y-49792914D02*
X196409524Y-49697676D01*
X196409524Y-49697676D02*
X196504762Y-49602438D01*
X196504762Y-49602438D02*
X196647619Y-49554819D01*
X196647619Y-49554819D02*
X196742857Y-49554819D01*
X196742857Y-49554819D02*
X196885714Y-49602438D01*
X196885714Y-49602438D02*
X196933333Y-49650057D01*
X197266667Y-49554819D02*
X197885714Y-49554819D01*
X197885714Y-49554819D02*
X197552381Y-49935771D01*
X197552381Y-49935771D02*
X197695238Y-49935771D01*
X197695238Y-49935771D02*
X197790476Y-49983390D01*
X197790476Y-49983390D02*
X197838095Y-50031009D01*
X197838095Y-50031009D02*
X197885714Y-50126247D01*
X197885714Y-50126247D02*
X197885714Y-50364342D01*
X197885714Y-50364342D02*
X197838095Y-50459580D01*
X197838095Y-50459580D02*
X197790476Y-50507200D01*
X197790476Y-50507200D02*
X197695238Y-50554819D01*
X197695238Y-50554819D02*
X197409524Y-50554819D01*
X197409524Y-50554819D02*
X197314286Y-50507200D01*
X197314286Y-50507200D02*
X197266667Y-50459580D01*
X117444742Y-107858380D02*
X117397123Y-107906000D01*
X117397123Y-107906000D02*
X117254266Y-107953619D01*
X117254266Y-107953619D02*
X117159028Y-107953619D01*
X117159028Y-107953619D02*
X117016171Y-107906000D01*
X117016171Y-107906000D02*
X116920933Y-107810761D01*
X116920933Y-107810761D02*
X116873314Y-107715523D01*
X116873314Y-107715523D02*
X116825695Y-107525047D01*
X116825695Y-107525047D02*
X116825695Y-107382190D01*
X116825695Y-107382190D02*
X116873314Y-107191714D01*
X116873314Y-107191714D02*
X116920933Y-107096476D01*
X116920933Y-107096476D02*
X117016171Y-107001238D01*
X117016171Y-107001238D02*
X117159028Y-106953619D01*
X117159028Y-106953619D02*
X117254266Y-106953619D01*
X117254266Y-106953619D02*
X117397123Y-107001238D01*
X117397123Y-107001238D02*
X117444742Y-107048857D01*
X117778076Y-106953619D02*
X118397123Y-106953619D01*
X118397123Y-106953619D02*
X118063790Y-107334571D01*
X118063790Y-107334571D02*
X118206647Y-107334571D01*
X118206647Y-107334571D02*
X118301885Y-107382190D01*
X118301885Y-107382190D02*
X118349504Y-107429809D01*
X118349504Y-107429809D02*
X118397123Y-107525047D01*
X118397123Y-107525047D02*
X118397123Y-107763142D01*
X118397123Y-107763142D02*
X118349504Y-107858380D01*
X118349504Y-107858380D02*
X118301885Y-107906000D01*
X118301885Y-107906000D02*
X118206647Y-107953619D01*
X118206647Y-107953619D02*
X117920933Y-107953619D01*
X117920933Y-107953619D02*
X117825695Y-107906000D01*
X117825695Y-107906000D02*
X117778076Y-107858380D01*
X119016171Y-106953619D02*
X119111409Y-106953619D01*
X119111409Y-106953619D02*
X119206647Y-107001238D01*
X119206647Y-107001238D02*
X119254266Y-107048857D01*
X119254266Y-107048857D02*
X119301885Y-107144095D01*
X119301885Y-107144095D02*
X119349504Y-107334571D01*
X119349504Y-107334571D02*
X119349504Y-107572666D01*
X119349504Y-107572666D02*
X119301885Y-107763142D01*
X119301885Y-107763142D02*
X119254266Y-107858380D01*
X119254266Y-107858380D02*
X119206647Y-107906000D01*
X119206647Y-107906000D02*
X119111409Y-107953619D01*
X119111409Y-107953619D02*
X119016171Y-107953619D01*
X119016171Y-107953619D02*
X118920933Y-107906000D01*
X118920933Y-107906000D02*
X118873314Y-107858380D01*
X118873314Y-107858380D02*
X118825695Y-107763142D01*
X118825695Y-107763142D02*
X118778076Y-107572666D01*
X118778076Y-107572666D02*
X118778076Y-107334571D01*
X118778076Y-107334571D02*
X118825695Y-107144095D01*
X118825695Y-107144095D02*
X118873314Y-107048857D01*
X118873314Y-107048857D02*
X118920933Y-107001238D01*
X118920933Y-107001238D02*
X119016171Y-106953619D01*
X172830952Y-118657200D02*
X172973809Y-118704819D01*
X172973809Y-118704819D02*
X173211904Y-118704819D01*
X173211904Y-118704819D02*
X173307142Y-118657200D01*
X173307142Y-118657200D02*
X173354761Y-118609580D01*
X173354761Y-118609580D02*
X173402380Y-118514342D01*
X173402380Y-118514342D02*
X173402380Y-118419104D01*
X173402380Y-118419104D02*
X173354761Y-118323866D01*
X173354761Y-118323866D02*
X173307142Y-118276247D01*
X173307142Y-118276247D02*
X173211904Y-118228628D01*
X173211904Y-118228628D02*
X173021428Y-118181009D01*
X173021428Y-118181009D02*
X172926190Y-118133390D01*
X172926190Y-118133390D02*
X172878571Y-118085771D01*
X172878571Y-118085771D02*
X172830952Y-117990533D01*
X172830952Y-117990533D02*
X172830952Y-117895295D01*
X172830952Y-117895295D02*
X172878571Y-117800057D01*
X172878571Y-117800057D02*
X172926190Y-117752438D01*
X172926190Y-117752438D02*
X173021428Y-117704819D01*
X173021428Y-117704819D02*
X173259523Y-117704819D01*
X173259523Y-117704819D02*
X173402380Y-117752438D01*
X174211904Y-118657200D02*
X174116666Y-118704819D01*
X174116666Y-118704819D02*
X173926190Y-118704819D01*
X173926190Y-118704819D02*
X173830952Y-118657200D01*
X173830952Y-118657200D02*
X173783333Y-118561961D01*
X173783333Y-118561961D02*
X173783333Y-118181009D01*
X173783333Y-118181009D02*
X173830952Y-118085771D01*
X173830952Y-118085771D02*
X173926190Y-118038152D01*
X173926190Y-118038152D02*
X174116666Y-118038152D01*
X174116666Y-118038152D02*
X174211904Y-118085771D01*
X174211904Y-118085771D02*
X174259523Y-118181009D01*
X174259523Y-118181009D02*
X174259523Y-118276247D01*
X174259523Y-118276247D02*
X173783333Y-118371485D01*
X175116666Y-118657200D02*
X175021428Y-118704819D01*
X175021428Y-118704819D02*
X174830952Y-118704819D01*
X174830952Y-118704819D02*
X174735714Y-118657200D01*
X174735714Y-118657200D02*
X174688095Y-118609580D01*
X174688095Y-118609580D02*
X174640476Y-118514342D01*
X174640476Y-118514342D02*
X174640476Y-118228628D01*
X174640476Y-118228628D02*
X174688095Y-118133390D01*
X174688095Y-118133390D02*
X174735714Y-118085771D01*
X174735714Y-118085771D02*
X174830952Y-118038152D01*
X174830952Y-118038152D02*
X175021428Y-118038152D01*
X175021428Y-118038152D02*
X175116666Y-118085771D01*
X175688095Y-118133390D02*
X175592857Y-118085771D01*
X175592857Y-118085771D02*
X175545238Y-118038152D01*
X175545238Y-118038152D02*
X175497619Y-117942914D01*
X175497619Y-117942914D02*
X175497619Y-117895295D01*
X175497619Y-117895295D02*
X175545238Y-117800057D01*
X175545238Y-117800057D02*
X175592857Y-117752438D01*
X175592857Y-117752438D02*
X175688095Y-117704819D01*
X175688095Y-117704819D02*
X175878571Y-117704819D01*
X175878571Y-117704819D02*
X175973809Y-117752438D01*
X175973809Y-117752438D02*
X176021428Y-117800057D01*
X176021428Y-117800057D02*
X176069047Y-117895295D01*
X176069047Y-117895295D02*
X176069047Y-117942914D01*
X176069047Y-117942914D02*
X176021428Y-118038152D01*
X176021428Y-118038152D02*
X175973809Y-118085771D01*
X175973809Y-118085771D02*
X175878571Y-118133390D01*
X175878571Y-118133390D02*
X175688095Y-118133390D01*
X175688095Y-118133390D02*
X175592857Y-118181009D01*
X175592857Y-118181009D02*
X175545238Y-118228628D01*
X175545238Y-118228628D02*
X175497619Y-118323866D01*
X175497619Y-118323866D02*
X175497619Y-118514342D01*
X175497619Y-118514342D02*
X175545238Y-118609580D01*
X175545238Y-118609580D02*
X175592857Y-118657200D01*
X175592857Y-118657200D02*
X175688095Y-118704819D01*
X175688095Y-118704819D02*
X175878571Y-118704819D01*
X175878571Y-118704819D02*
X175973809Y-118657200D01*
X175973809Y-118657200D02*
X176021428Y-118609580D01*
X176021428Y-118609580D02*
X176069047Y-118514342D01*
X176069047Y-118514342D02*
X176069047Y-118323866D01*
X176069047Y-118323866D02*
X176021428Y-118228628D01*
X176021428Y-118228628D02*
X175973809Y-118181009D01*
X175973809Y-118181009D02*
X175878571Y-118133390D01*
X117129580Y-94442857D02*
X117177200Y-94490476D01*
X117177200Y-94490476D02*
X117224819Y-94633333D01*
X117224819Y-94633333D02*
X117224819Y-94728571D01*
X117224819Y-94728571D02*
X117177200Y-94871428D01*
X117177200Y-94871428D02*
X117081961Y-94966666D01*
X117081961Y-94966666D02*
X116986723Y-95014285D01*
X116986723Y-95014285D02*
X116796247Y-95061904D01*
X116796247Y-95061904D02*
X116653390Y-95061904D01*
X116653390Y-95061904D02*
X116462914Y-95014285D01*
X116462914Y-95014285D02*
X116367676Y-94966666D01*
X116367676Y-94966666D02*
X116272438Y-94871428D01*
X116272438Y-94871428D02*
X116224819Y-94728571D01*
X116224819Y-94728571D02*
X116224819Y-94633333D01*
X116224819Y-94633333D02*
X116272438Y-94490476D01*
X116272438Y-94490476D02*
X116320057Y-94442857D01*
X116320057Y-94061904D02*
X116272438Y-94014285D01*
X116272438Y-94014285D02*
X116224819Y-93919047D01*
X116224819Y-93919047D02*
X116224819Y-93680952D01*
X116224819Y-93680952D02*
X116272438Y-93585714D01*
X116272438Y-93585714D02*
X116320057Y-93538095D01*
X116320057Y-93538095D02*
X116415295Y-93490476D01*
X116415295Y-93490476D02*
X116510533Y-93490476D01*
X116510533Y-93490476D02*
X116653390Y-93538095D01*
X116653390Y-93538095D02*
X117224819Y-94109523D01*
X117224819Y-94109523D02*
X117224819Y-93490476D01*
X116653390Y-92919047D02*
X116605771Y-93014285D01*
X116605771Y-93014285D02*
X116558152Y-93061904D01*
X116558152Y-93061904D02*
X116462914Y-93109523D01*
X116462914Y-93109523D02*
X116415295Y-93109523D01*
X116415295Y-93109523D02*
X116320057Y-93061904D01*
X116320057Y-93061904D02*
X116272438Y-93014285D01*
X116272438Y-93014285D02*
X116224819Y-92919047D01*
X116224819Y-92919047D02*
X116224819Y-92728571D01*
X116224819Y-92728571D02*
X116272438Y-92633333D01*
X116272438Y-92633333D02*
X116320057Y-92585714D01*
X116320057Y-92585714D02*
X116415295Y-92538095D01*
X116415295Y-92538095D02*
X116462914Y-92538095D01*
X116462914Y-92538095D02*
X116558152Y-92585714D01*
X116558152Y-92585714D02*
X116605771Y-92633333D01*
X116605771Y-92633333D02*
X116653390Y-92728571D01*
X116653390Y-92728571D02*
X116653390Y-92919047D01*
X116653390Y-92919047D02*
X116701009Y-93014285D01*
X116701009Y-93014285D02*
X116748628Y-93061904D01*
X116748628Y-93061904D02*
X116843866Y-93109523D01*
X116843866Y-93109523D02*
X117034342Y-93109523D01*
X117034342Y-93109523D02*
X117129580Y-93061904D01*
X117129580Y-93061904D02*
X117177200Y-93014285D01*
X117177200Y-93014285D02*
X117224819Y-92919047D01*
X117224819Y-92919047D02*
X117224819Y-92728571D01*
X117224819Y-92728571D02*
X117177200Y-92633333D01*
X117177200Y-92633333D02*
X117129580Y-92585714D01*
X117129580Y-92585714D02*
X117034342Y-92538095D01*
X117034342Y-92538095D02*
X116843866Y-92538095D01*
X116843866Y-92538095D02*
X116748628Y-92585714D01*
X116748628Y-92585714D02*
X116701009Y-92633333D01*
X116701009Y-92633333D02*
X116653390Y-92728571D01*
X149430952Y-118657200D02*
X149573809Y-118704819D01*
X149573809Y-118704819D02*
X149811904Y-118704819D01*
X149811904Y-118704819D02*
X149907142Y-118657200D01*
X149907142Y-118657200D02*
X149954761Y-118609580D01*
X149954761Y-118609580D02*
X150002380Y-118514342D01*
X150002380Y-118514342D02*
X150002380Y-118419104D01*
X150002380Y-118419104D02*
X149954761Y-118323866D01*
X149954761Y-118323866D02*
X149907142Y-118276247D01*
X149907142Y-118276247D02*
X149811904Y-118228628D01*
X149811904Y-118228628D02*
X149621428Y-118181009D01*
X149621428Y-118181009D02*
X149526190Y-118133390D01*
X149526190Y-118133390D02*
X149478571Y-118085771D01*
X149478571Y-118085771D02*
X149430952Y-117990533D01*
X149430952Y-117990533D02*
X149430952Y-117895295D01*
X149430952Y-117895295D02*
X149478571Y-117800057D01*
X149478571Y-117800057D02*
X149526190Y-117752438D01*
X149526190Y-117752438D02*
X149621428Y-117704819D01*
X149621428Y-117704819D02*
X149859523Y-117704819D01*
X149859523Y-117704819D02*
X150002380Y-117752438D01*
X150811904Y-118657200D02*
X150716666Y-118704819D01*
X150716666Y-118704819D02*
X150526190Y-118704819D01*
X150526190Y-118704819D02*
X150430952Y-118657200D01*
X150430952Y-118657200D02*
X150383333Y-118561961D01*
X150383333Y-118561961D02*
X150383333Y-118181009D01*
X150383333Y-118181009D02*
X150430952Y-118085771D01*
X150430952Y-118085771D02*
X150526190Y-118038152D01*
X150526190Y-118038152D02*
X150716666Y-118038152D01*
X150716666Y-118038152D02*
X150811904Y-118085771D01*
X150811904Y-118085771D02*
X150859523Y-118181009D01*
X150859523Y-118181009D02*
X150859523Y-118276247D01*
X150859523Y-118276247D02*
X150383333Y-118371485D01*
X151716666Y-118657200D02*
X151621428Y-118704819D01*
X151621428Y-118704819D02*
X151430952Y-118704819D01*
X151430952Y-118704819D02*
X151335714Y-118657200D01*
X151335714Y-118657200D02*
X151288095Y-118609580D01*
X151288095Y-118609580D02*
X151240476Y-118514342D01*
X151240476Y-118514342D02*
X151240476Y-118228628D01*
X151240476Y-118228628D02*
X151288095Y-118133390D01*
X151288095Y-118133390D02*
X151335714Y-118085771D01*
X151335714Y-118085771D02*
X151430952Y-118038152D01*
X151430952Y-118038152D02*
X151621428Y-118038152D01*
X151621428Y-118038152D02*
X151716666Y-118085771D01*
X152621428Y-117704819D02*
X152145238Y-117704819D01*
X152145238Y-117704819D02*
X152097619Y-118181009D01*
X152097619Y-118181009D02*
X152145238Y-118133390D01*
X152145238Y-118133390D02*
X152240476Y-118085771D01*
X152240476Y-118085771D02*
X152478571Y-118085771D01*
X152478571Y-118085771D02*
X152573809Y-118133390D01*
X152573809Y-118133390D02*
X152621428Y-118181009D01*
X152621428Y-118181009D02*
X152669047Y-118276247D01*
X152669047Y-118276247D02*
X152669047Y-118514342D01*
X152669047Y-118514342D02*
X152621428Y-118609580D01*
X152621428Y-118609580D02*
X152573809Y-118657200D01*
X152573809Y-118657200D02*
X152478571Y-118704819D01*
X152478571Y-118704819D02*
X152240476Y-118704819D01*
X152240476Y-118704819D02*
X152145238Y-118657200D01*
X152145238Y-118657200D02*
X152097619Y-118609580D01*
X105837142Y-38455580D02*
X105789523Y-38503200D01*
X105789523Y-38503200D02*
X105646666Y-38550819D01*
X105646666Y-38550819D02*
X105551428Y-38550819D01*
X105551428Y-38550819D02*
X105408571Y-38503200D01*
X105408571Y-38503200D02*
X105313333Y-38407961D01*
X105313333Y-38407961D02*
X105265714Y-38312723D01*
X105265714Y-38312723D02*
X105218095Y-38122247D01*
X105218095Y-38122247D02*
X105218095Y-37979390D01*
X105218095Y-37979390D02*
X105265714Y-37788914D01*
X105265714Y-37788914D02*
X105313333Y-37693676D01*
X105313333Y-37693676D02*
X105408571Y-37598438D01*
X105408571Y-37598438D02*
X105551428Y-37550819D01*
X105551428Y-37550819D02*
X105646666Y-37550819D01*
X105646666Y-37550819D02*
X105789523Y-37598438D01*
X105789523Y-37598438D02*
X105837142Y-37646057D01*
X106218095Y-37646057D02*
X106265714Y-37598438D01*
X106265714Y-37598438D02*
X106360952Y-37550819D01*
X106360952Y-37550819D02*
X106599047Y-37550819D01*
X106599047Y-37550819D02*
X106694285Y-37598438D01*
X106694285Y-37598438D02*
X106741904Y-37646057D01*
X106741904Y-37646057D02*
X106789523Y-37741295D01*
X106789523Y-37741295D02*
X106789523Y-37836533D01*
X106789523Y-37836533D02*
X106741904Y-37979390D01*
X106741904Y-37979390D02*
X106170476Y-38550819D01*
X106170476Y-38550819D02*
X106789523Y-38550819D01*
X107170476Y-37646057D02*
X107218095Y-37598438D01*
X107218095Y-37598438D02*
X107313333Y-37550819D01*
X107313333Y-37550819D02*
X107551428Y-37550819D01*
X107551428Y-37550819D02*
X107646666Y-37598438D01*
X107646666Y-37598438D02*
X107694285Y-37646057D01*
X107694285Y-37646057D02*
X107741904Y-37741295D01*
X107741904Y-37741295D02*
X107741904Y-37836533D01*
X107741904Y-37836533D02*
X107694285Y-37979390D01*
X107694285Y-37979390D02*
X107122857Y-38550819D01*
X107122857Y-38550819D02*
X107741904Y-38550819D01*
X110633333Y-56909580D02*
X110585714Y-56957200D01*
X110585714Y-56957200D02*
X110442857Y-57004819D01*
X110442857Y-57004819D02*
X110347619Y-57004819D01*
X110347619Y-57004819D02*
X110204762Y-56957200D01*
X110204762Y-56957200D02*
X110109524Y-56861961D01*
X110109524Y-56861961D02*
X110061905Y-56766723D01*
X110061905Y-56766723D02*
X110014286Y-56576247D01*
X110014286Y-56576247D02*
X110014286Y-56433390D01*
X110014286Y-56433390D02*
X110061905Y-56242914D01*
X110061905Y-56242914D02*
X110109524Y-56147676D01*
X110109524Y-56147676D02*
X110204762Y-56052438D01*
X110204762Y-56052438D02*
X110347619Y-56004819D01*
X110347619Y-56004819D02*
X110442857Y-56004819D01*
X110442857Y-56004819D02*
X110585714Y-56052438D01*
X110585714Y-56052438D02*
X110633333Y-56100057D01*
X110966667Y-56004819D02*
X111633333Y-56004819D01*
X111633333Y-56004819D02*
X111204762Y-57004819D01*
X140044742Y-107858380D02*
X139997123Y-107906000D01*
X139997123Y-107906000D02*
X139854266Y-107953619D01*
X139854266Y-107953619D02*
X139759028Y-107953619D01*
X139759028Y-107953619D02*
X139616171Y-107906000D01*
X139616171Y-107906000D02*
X139520933Y-107810761D01*
X139520933Y-107810761D02*
X139473314Y-107715523D01*
X139473314Y-107715523D02*
X139425695Y-107525047D01*
X139425695Y-107525047D02*
X139425695Y-107382190D01*
X139425695Y-107382190D02*
X139473314Y-107191714D01*
X139473314Y-107191714D02*
X139520933Y-107096476D01*
X139520933Y-107096476D02*
X139616171Y-107001238D01*
X139616171Y-107001238D02*
X139759028Y-106953619D01*
X139759028Y-106953619D02*
X139854266Y-106953619D01*
X139854266Y-106953619D02*
X139997123Y-107001238D01*
X139997123Y-107001238D02*
X140044742Y-107048857D01*
X140425695Y-107048857D02*
X140473314Y-107001238D01*
X140473314Y-107001238D02*
X140568552Y-106953619D01*
X140568552Y-106953619D02*
X140806647Y-106953619D01*
X140806647Y-106953619D02*
X140901885Y-107001238D01*
X140901885Y-107001238D02*
X140949504Y-107048857D01*
X140949504Y-107048857D02*
X140997123Y-107144095D01*
X140997123Y-107144095D02*
X140997123Y-107239333D01*
X140997123Y-107239333D02*
X140949504Y-107382190D01*
X140949504Y-107382190D02*
X140378076Y-107953619D01*
X140378076Y-107953619D02*
X140997123Y-107953619D01*
X141854266Y-106953619D02*
X141663790Y-106953619D01*
X141663790Y-106953619D02*
X141568552Y-107001238D01*
X141568552Y-107001238D02*
X141520933Y-107048857D01*
X141520933Y-107048857D02*
X141425695Y-107191714D01*
X141425695Y-107191714D02*
X141378076Y-107382190D01*
X141378076Y-107382190D02*
X141378076Y-107763142D01*
X141378076Y-107763142D02*
X141425695Y-107858380D01*
X141425695Y-107858380D02*
X141473314Y-107906000D01*
X141473314Y-107906000D02*
X141568552Y-107953619D01*
X141568552Y-107953619D02*
X141759028Y-107953619D01*
X141759028Y-107953619D02*
X141854266Y-107906000D01*
X141854266Y-107906000D02*
X141901885Y-107858380D01*
X141901885Y-107858380D02*
X141949504Y-107763142D01*
X141949504Y-107763142D02*
X141949504Y-107525047D01*
X141949504Y-107525047D02*
X141901885Y-107429809D01*
X141901885Y-107429809D02*
X141854266Y-107382190D01*
X141854266Y-107382190D02*
X141759028Y-107334571D01*
X141759028Y-107334571D02*
X141568552Y-107334571D01*
X141568552Y-107334571D02*
X141473314Y-107382190D01*
X141473314Y-107382190D02*
X141425695Y-107429809D01*
X141425695Y-107429809D02*
X141378076Y-107525047D01*
X69482195Y-43280819D02*
X70053623Y-43280819D01*
X69767909Y-44280819D02*
X69767909Y-43280819D01*
X70386957Y-44280819D02*
X70386957Y-43280819D01*
X70386957Y-43280819D02*
X70767909Y-43280819D01*
X70767909Y-43280819D02*
X70863147Y-43328438D01*
X70863147Y-43328438D02*
X70910766Y-43376057D01*
X70910766Y-43376057D02*
X70958385Y-43471295D01*
X70958385Y-43471295D02*
X70958385Y-43614152D01*
X70958385Y-43614152D02*
X70910766Y-43709390D01*
X70910766Y-43709390D02*
X70863147Y-43757009D01*
X70863147Y-43757009D02*
X70767909Y-43804628D01*
X70767909Y-43804628D02*
X70386957Y-43804628D01*
X71863147Y-43280819D02*
X71386957Y-43280819D01*
X71386957Y-43280819D02*
X71339338Y-43757009D01*
X71339338Y-43757009D02*
X71386957Y-43709390D01*
X71386957Y-43709390D02*
X71482195Y-43661771D01*
X71482195Y-43661771D02*
X71720290Y-43661771D01*
X71720290Y-43661771D02*
X71815528Y-43709390D01*
X71815528Y-43709390D02*
X71863147Y-43757009D01*
X71863147Y-43757009D02*
X71910766Y-43852247D01*
X71910766Y-43852247D02*
X71910766Y-44090342D01*
X71910766Y-44090342D02*
X71863147Y-44185580D01*
X71863147Y-44185580D02*
X71815528Y-44233200D01*
X71815528Y-44233200D02*
X71720290Y-44280819D01*
X71720290Y-44280819D02*
X71482195Y-44280819D01*
X71482195Y-44280819D02*
X71386957Y-44233200D01*
X71386957Y-44233200D02*
X71339338Y-44185580D01*
X167371266Y-78082419D02*
X167371266Y-78796704D01*
X167371266Y-78796704D02*
X167323647Y-78939561D01*
X167323647Y-78939561D02*
X167228409Y-79034800D01*
X167228409Y-79034800D02*
X167085552Y-79082419D01*
X167085552Y-79082419D02*
X166990314Y-79082419D01*
X168276028Y-78082419D02*
X168085552Y-78082419D01*
X168085552Y-78082419D02*
X167990314Y-78130038D01*
X167990314Y-78130038D02*
X167942695Y-78177657D01*
X167942695Y-78177657D02*
X167847457Y-78320514D01*
X167847457Y-78320514D02*
X167799838Y-78510990D01*
X167799838Y-78510990D02*
X167799838Y-78891942D01*
X167799838Y-78891942D02*
X167847457Y-78987180D01*
X167847457Y-78987180D02*
X167895076Y-79034800D01*
X167895076Y-79034800D02*
X167990314Y-79082419D01*
X167990314Y-79082419D02*
X168180790Y-79082419D01*
X168180790Y-79082419D02*
X168276028Y-79034800D01*
X168276028Y-79034800D02*
X168323647Y-78987180D01*
X168323647Y-78987180D02*
X168371266Y-78891942D01*
X168371266Y-78891942D02*
X168371266Y-78653847D01*
X168371266Y-78653847D02*
X168323647Y-78558609D01*
X168323647Y-78558609D02*
X168276028Y-78510990D01*
X168276028Y-78510990D02*
X168180790Y-78463371D01*
X168180790Y-78463371D02*
X167990314Y-78463371D01*
X167990314Y-78463371D02*
X167895076Y-78510990D01*
X167895076Y-78510990D02*
X167847457Y-78558609D01*
X167847457Y-78558609D02*
X167799838Y-78653847D01*
X168461905Y-41554819D02*
X168461905Y-40554819D01*
X168461905Y-40554819D02*
X168700000Y-40554819D01*
X168700000Y-40554819D02*
X168842857Y-40602438D01*
X168842857Y-40602438D02*
X168938095Y-40697676D01*
X168938095Y-40697676D02*
X168985714Y-40792914D01*
X168985714Y-40792914D02*
X169033333Y-40983390D01*
X169033333Y-40983390D02*
X169033333Y-41126247D01*
X169033333Y-41126247D02*
X168985714Y-41316723D01*
X168985714Y-41316723D02*
X168938095Y-41411961D01*
X168938095Y-41411961D02*
X168842857Y-41507200D01*
X168842857Y-41507200D02*
X168700000Y-41554819D01*
X168700000Y-41554819D02*
X168461905Y-41554819D01*
X169414286Y-40650057D02*
X169461905Y-40602438D01*
X169461905Y-40602438D02*
X169557143Y-40554819D01*
X169557143Y-40554819D02*
X169795238Y-40554819D01*
X169795238Y-40554819D02*
X169890476Y-40602438D01*
X169890476Y-40602438D02*
X169938095Y-40650057D01*
X169938095Y-40650057D02*
X169985714Y-40745295D01*
X169985714Y-40745295D02*
X169985714Y-40840533D01*
X169985714Y-40840533D02*
X169938095Y-40983390D01*
X169938095Y-40983390D02*
X169366667Y-41554819D01*
X169366667Y-41554819D02*
X169985714Y-41554819D01*
X64024819Y-86716666D02*
X63548628Y-87049999D01*
X64024819Y-87288094D02*
X63024819Y-87288094D01*
X63024819Y-87288094D02*
X63024819Y-86907142D01*
X63024819Y-86907142D02*
X63072438Y-86811904D01*
X63072438Y-86811904D02*
X63120057Y-86764285D01*
X63120057Y-86764285D02*
X63215295Y-86716666D01*
X63215295Y-86716666D02*
X63358152Y-86716666D01*
X63358152Y-86716666D02*
X63453390Y-86764285D01*
X63453390Y-86764285D02*
X63501009Y-86811904D01*
X63501009Y-86811904D02*
X63548628Y-86907142D01*
X63548628Y-86907142D02*
X63548628Y-87288094D01*
X63024819Y-85811904D02*
X63024819Y-86288094D01*
X63024819Y-86288094D02*
X63501009Y-86335713D01*
X63501009Y-86335713D02*
X63453390Y-86288094D01*
X63453390Y-86288094D02*
X63405771Y-86192856D01*
X63405771Y-86192856D02*
X63405771Y-85954761D01*
X63405771Y-85954761D02*
X63453390Y-85859523D01*
X63453390Y-85859523D02*
X63501009Y-85811904D01*
X63501009Y-85811904D02*
X63596247Y-85764285D01*
X63596247Y-85764285D02*
X63834342Y-85764285D01*
X63834342Y-85764285D02*
X63929580Y-85811904D01*
X63929580Y-85811904D02*
X63977200Y-85859523D01*
X63977200Y-85859523D02*
X64024819Y-85954761D01*
X64024819Y-85954761D02*
X64024819Y-86192856D01*
X64024819Y-86192856D02*
X63977200Y-86288094D01*
X63977200Y-86288094D02*
X63929580Y-86335713D01*
X106194742Y-107858380D02*
X106147123Y-107906000D01*
X106147123Y-107906000D02*
X106004266Y-107953619D01*
X106004266Y-107953619D02*
X105909028Y-107953619D01*
X105909028Y-107953619D02*
X105766171Y-107906000D01*
X105766171Y-107906000D02*
X105670933Y-107810761D01*
X105670933Y-107810761D02*
X105623314Y-107715523D01*
X105623314Y-107715523D02*
X105575695Y-107525047D01*
X105575695Y-107525047D02*
X105575695Y-107382190D01*
X105575695Y-107382190D02*
X105623314Y-107191714D01*
X105623314Y-107191714D02*
X105670933Y-107096476D01*
X105670933Y-107096476D02*
X105766171Y-107001238D01*
X105766171Y-107001238D02*
X105909028Y-106953619D01*
X105909028Y-106953619D02*
X106004266Y-106953619D01*
X106004266Y-106953619D02*
X106147123Y-107001238D01*
X106147123Y-107001238D02*
X106194742Y-107048857D01*
X106575695Y-107048857D02*
X106623314Y-107001238D01*
X106623314Y-107001238D02*
X106718552Y-106953619D01*
X106718552Y-106953619D02*
X106956647Y-106953619D01*
X106956647Y-106953619D02*
X107051885Y-107001238D01*
X107051885Y-107001238D02*
X107099504Y-107048857D01*
X107099504Y-107048857D02*
X107147123Y-107144095D01*
X107147123Y-107144095D02*
X107147123Y-107239333D01*
X107147123Y-107239333D02*
X107099504Y-107382190D01*
X107099504Y-107382190D02*
X106528076Y-107953619D01*
X106528076Y-107953619D02*
X107147123Y-107953619D01*
X107623314Y-107953619D02*
X107813790Y-107953619D01*
X107813790Y-107953619D02*
X107909028Y-107906000D01*
X107909028Y-107906000D02*
X107956647Y-107858380D01*
X107956647Y-107858380D02*
X108051885Y-107715523D01*
X108051885Y-107715523D02*
X108099504Y-107525047D01*
X108099504Y-107525047D02*
X108099504Y-107144095D01*
X108099504Y-107144095D02*
X108051885Y-107048857D01*
X108051885Y-107048857D02*
X108004266Y-107001238D01*
X108004266Y-107001238D02*
X107909028Y-106953619D01*
X107909028Y-106953619D02*
X107718552Y-106953619D01*
X107718552Y-106953619D02*
X107623314Y-107001238D01*
X107623314Y-107001238D02*
X107575695Y-107048857D01*
X107575695Y-107048857D02*
X107528076Y-107144095D01*
X107528076Y-107144095D02*
X107528076Y-107382190D01*
X107528076Y-107382190D02*
X107575695Y-107477428D01*
X107575695Y-107477428D02*
X107623314Y-107525047D01*
X107623314Y-107525047D02*
X107718552Y-107572666D01*
X107718552Y-107572666D02*
X107909028Y-107572666D01*
X107909028Y-107572666D02*
X108004266Y-107525047D01*
X108004266Y-107525047D02*
X108051885Y-107477428D01*
X108051885Y-107477428D02*
X108099504Y-107382190D01*
X146833333Y-53354819D02*
X146357143Y-53354819D01*
X146357143Y-53354819D02*
X146357143Y-52354819D01*
X147119048Y-52450057D02*
X147166667Y-52402438D01*
X147166667Y-52402438D02*
X147261905Y-52354819D01*
X147261905Y-52354819D02*
X147500000Y-52354819D01*
X147500000Y-52354819D02*
X147595238Y-52402438D01*
X147595238Y-52402438D02*
X147642857Y-52450057D01*
X147642857Y-52450057D02*
X147690476Y-52545295D01*
X147690476Y-52545295D02*
X147690476Y-52640533D01*
X147690476Y-52640533D02*
X147642857Y-52783390D01*
X147642857Y-52783390D02*
X147071429Y-53354819D01*
X147071429Y-53354819D02*
X147690476Y-53354819D01*
X77035714Y-71604819D02*
X77035714Y-70604819D01*
X77035714Y-70604819D02*
X77273809Y-70604819D01*
X77273809Y-70604819D02*
X77416666Y-70652438D01*
X77416666Y-70652438D02*
X77511904Y-70747676D01*
X77511904Y-70747676D02*
X77559523Y-70842914D01*
X77559523Y-70842914D02*
X77607142Y-71033390D01*
X77607142Y-71033390D02*
X77607142Y-71176247D01*
X77607142Y-71176247D02*
X77559523Y-71366723D01*
X77559523Y-71366723D02*
X77511904Y-71461961D01*
X77511904Y-71461961D02*
X77416666Y-71557200D01*
X77416666Y-71557200D02*
X77273809Y-71604819D01*
X77273809Y-71604819D02*
X77035714Y-71604819D01*
X78559523Y-71604819D02*
X77988095Y-71604819D01*
X78273809Y-71604819D02*
X78273809Y-70604819D01*
X78273809Y-70604819D02*
X78178571Y-70747676D01*
X78178571Y-70747676D02*
X78083333Y-70842914D01*
X78083333Y-70842914D02*
X77988095Y-70890533D01*
X78892857Y-70604819D02*
X79511904Y-70604819D01*
X79511904Y-70604819D02*
X79178571Y-70985771D01*
X79178571Y-70985771D02*
X79321428Y-70985771D01*
X79321428Y-70985771D02*
X79416666Y-71033390D01*
X79416666Y-71033390D02*
X79464285Y-71081009D01*
X79464285Y-71081009D02*
X79511904Y-71176247D01*
X79511904Y-71176247D02*
X79511904Y-71414342D01*
X79511904Y-71414342D02*
X79464285Y-71509580D01*
X79464285Y-71509580D02*
X79416666Y-71557200D01*
X79416666Y-71557200D02*
X79321428Y-71604819D01*
X79321428Y-71604819D02*
X79035714Y-71604819D01*
X79035714Y-71604819D02*
X78940476Y-71557200D01*
X78940476Y-71557200D02*
X78892857Y-71509580D01*
X136761905Y-47854819D02*
X136761905Y-46854819D01*
X136761905Y-46854819D02*
X137000000Y-46854819D01*
X137000000Y-46854819D02*
X137142857Y-46902438D01*
X137142857Y-46902438D02*
X137238095Y-46997676D01*
X137238095Y-46997676D02*
X137285714Y-47092914D01*
X137285714Y-47092914D02*
X137333333Y-47283390D01*
X137333333Y-47283390D02*
X137333333Y-47426247D01*
X137333333Y-47426247D02*
X137285714Y-47616723D01*
X137285714Y-47616723D02*
X137238095Y-47711961D01*
X137238095Y-47711961D02*
X137142857Y-47807200D01*
X137142857Y-47807200D02*
X137000000Y-47854819D01*
X137000000Y-47854819D02*
X136761905Y-47854819D01*
X137666667Y-46854819D02*
X138285714Y-46854819D01*
X138285714Y-46854819D02*
X137952381Y-47235771D01*
X137952381Y-47235771D02*
X138095238Y-47235771D01*
X138095238Y-47235771D02*
X138190476Y-47283390D01*
X138190476Y-47283390D02*
X138238095Y-47331009D01*
X138238095Y-47331009D02*
X138285714Y-47426247D01*
X138285714Y-47426247D02*
X138285714Y-47664342D01*
X138285714Y-47664342D02*
X138238095Y-47759580D01*
X138238095Y-47759580D02*
X138190476Y-47807200D01*
X138190476Y-47807200D02*
X138095238Y-47854819D01*
X138095238Y-47854819D02*
X137809524Y-47854819D01*
X137809524Y-47854819D02*
X137714286Y-47807200D01*
X137714286Y-47807200D02*
X137666667Y-47759580D01*
X180985714Y-94404819D02*
X180985714Y-93404819D01*
X180985714Y-93404819D02*
X181223809Y-93404819D01*
X181223809Y-93404819D02*
X181366666Y-93452438D01*
X181366666Y-93452438D02*
X181461904Y-93547676D01*
X181461904Y-93547676D02*
X181509523Y-93642914D01*
X181509523Y-93642914D02*
X181557142Y-93833390D01*
X181557142Y-93833390D02*
X181557142Y-93976247D01*
X181557142Y-93976247D02*
X181509523Y-94166723D01*
X181509523Y-94166723D02*
X181461904Y-94261961D01*
X181461904Y-94261961D02*
X181366666Y-94357200D01*
X181366666Y-94357200D02*
X181223809Y-94404819D01*
X181223809Y-94404819D02*
X180985714Y-94404819D01*
X182509523Y-94404819D02*
X181938095Y-94404819D01*
X182223809Y-94404819D02*
X182223809Y-93404819D01*
X182223809Y-93404819D02*
X182128571Y-93547676D01*
X182128571Y-93547676D02*
X182033333Y-93642914D01*
X182033333Y-93642914D02*
X181938095Y-93690533D01*
X183461904Y-94404819D02*
X182890476Y-94404819D01*
X183176190Y-94404819D02*
X183176190Y-93404819D01*
X183176190Y-93404819D02*
X183080952Y-93547676D01*
X183080952Y-93547676D02*
X182985714Y-93642914D01*
X182985714Y-93642914D02*
X182890476Y-93690533D01*
X149295180Y-91338095D02*
X148485657Y-91338095D01*
X148485657Y-91338095D02*
X148390419Y-91385714D01*
X148390419Y-91385714D02*
X148342800Y-91433333D01*
X148342800Y-91433333D02*
X148295180Y-91528571D01*
X148295180Y-91528571D02*
X148295180Y-91719047D01*
X148295180Y-91719047D02*
X148342800Y-91814285D01*
X148342800Y-91814285D02*
X148390419Y-91861904D01*
X148390419Y-91861904D02*
X148485657Y-91909523D01*
X148485657Y-91909523D02*
X149295180Y-91909523D01*
X148866609Y-92528571D02*
X148914228Y-92433333D01*
X148914228Y-92433333D02*
X148961847Y-92385714D01*
X148961847Y-92385714D02*
X149057085Y-92338095D01*
X149057085Y-92338095D02*
X149104704Y-92338095D01*
X149104704Y-92338095D02*
X149199942Y-92385714D01*
X149199942Y-92385714D02*
X149247561Y-92433333D01*
X149247561Y-92433333D02*
X149295180Y-92528571D01*
X149295180Y-92528571D02*
X149295180Y-92719047D01*
X149295180Y-92719047D02*
X149247561Y-92814285D01*
X149247561Y-92814285D02*
X149199942Y-92861904D01*
X149199942Y-92861904D02*
X149104704Y-92909523D01*
X149104704Y-92909523D02*
X149057085Y-92909523D01*
X149057085Y-92909523D02*
X148961847Y-92861904D01*
X148961847Y-92861904D02*
X148914228Y-92814285D01*
X148914228Y-92814285D02*
X148866609Y-92719047D01*
X148866609Y-92719047D02*
X148866609Y-92528571D01*
X148866609Y-92528571D02*
X148818990Y-92433333D01*
X148818990Y-92433333D02*
X148771371Y-92385714D01*
X148771371Y-92385714D02*
X148676133Y-92338095D01*
X148676133Y-92338095D02*
X148485657Y-92338095D01*
X148485657Y-92338095D02*
X148390419Y-92385714D01*
X148390419Y-92385714D02*
X148342800Y-92433333D01*
X148342800Y-92433333D02*
X148295180Y-92528571D01*
X148295180Y-92528571D02*
X148295180Y-92719047D01*
X148295180Y-92719047D02*
X148342800Y-92814285D01*
X148342800Y-92814285D02*
X148390419Y-92861904D01*
X148390419Y-92861904D02*
X148485657Y-92909523D01*
X148485657Y-92909523D02*
X148676133Y-92909523D01*
X148676133Y-92909523D02*
X148771371Y-92861904D01*
X148771371Y-92861904D02*
X148818990Y-92814285D01*
X148818990Y-92814285D02*
X148866609Y-92719047D01*
X133011904Y-118704819D02*
X133011904Y-117704819D01*
X133011904Y-117704819D02*
X133345237Y-118419104D01*
X133345237Y-118419104D02*
X133678570Y-117704819D01*
X133678570Y-117704819D02*
X133678570Y-118704819D01*
X134297618Y-118704819D02*
X134202380Y-118657200D01*
X134202380Y-118657200D02*
X134154761Y-118609580D01*
X134154761Y-118609580D02*
X134107142Y-118514342D01*
X134107142Y-118514342D02*
X134107142Y-118228628D01*
X134107142Y-118228628D02*
X134154761Y-118133390D01*
X134154761Y-118133390D02*
X134202380Y-118085771D01*
X134202380Y-118085771D02*
X134297618Y-118038152D01*
X134297618Y-118038152D02*
X134440475Y-118038152D01*
X134440475Y-118038152D02*
X134535713Y-118085771D01*
X134535713Y-118085771D02*
X134583332Y-118133390D01*
X134583332Y-118133390D02*
X134630951Y-118228628D01*
X134630951Y-118228628D02*
X134630951Y-118514342D01*
X134630951Y-118514342D02*
X134583332Y-118609580D01*
X134583332Y-118609580D02*
X134535713Y-118657200D01*
X134535713Y-118657200D02*
X134440475Y-118704819D01*
X134440475Y-118704819D02*
X134297618Y-118704819D01*
X134916666Y-118038152D02*
X135297618Y-118038152D01*
X135059523Y-117704819D02*
X135059523Y-118561961D01*
X135059523Y-118561961D02*
X135107142Y-118657200D01*
X135107142Y-118657200D02*
X135202380Y-118704819D01*
X135202380Y-118704819D02*
X135297618Y-118704819D01*
X135773809Y-118704819D02*
X135678571Y-118657200D01*
X135678571Y-118657200D02*
X135630952Y-118609580D01*
X135630952Y-118609580D02*
X135583333Y-118514342D01*
X135583333Y-118514342D02*
X135583333Y-118228628D01*
X135583333Y-118228628D02*
X135630952Y-118133390D01*
X135630952Y-118133390D02*
X135678571Y-118085771D01*
X135678571Y-118085771D02*
X135773809Y-118038152D01*
X135773809Y-118038152D02*
X135916666Y-118038152D01*
X135916666Y-118038152D02*
X136011904Y-118085771D01*
X136011904Y-118085771D02*
X136059523Y-118133390D01*
X136059523Y-118133390D02*
X136107142Y-118228628D01*
X136107142Y-118228628D02*
X136107142Y-118514342D01*
X136107142Y-118514342D02*
X136059523Y-118609580D01*
X136059523Y-118609580D02*
X136011904Y-118657200D01*
X136011904Y-118657200D02*
X135916666Y-118704819D01*
X135916666Y-118704819D02*
X135773809Y-118704819D01*
X136535714Y-118704819D02*
X136535714Y-118038152D01*
X136535714Y-118228628D02*
X136583333Y-118133390D01*
X136583333Y-118133390D02*
X136630952Y-118085771D01*
X136630952Y-118085771D02*
X136726190Y-118038152D01*
X136726190Y-118038152D02*
X136821428Y-118038152D01*
X137107143Y-118419104D02*
X137583333Y-118419104D01*
X137011905Y-118704819D02*
X137345238Y-117704819D01*
X137345238Y-117704819D02*
X137678571Y-118704819D01*
X138535714Y-118704819D02*
X137964286Y-118704819D01*
X138250000Y-118704819D02*
X138250000Y-117704819D01*
X138250000Y-117704819D02*
X138154762Y-117847676D01*
X138154762Y-117847676D02*
X138059524Y-117942914D01*
X138059524Y-117942914D02*
X137964286Y-117990533D01*
X189411905Y-43304819D02*
X189411905Y-42304819D01*
X189411905Y-42304819D02*
X189650000Y-42304819D01*
X189650000Y-42304819D02*
X189792857Y-42352438D01*
X189792857Y-42352438D02*
X189888095Y-42447676D01*
X189888095Y-42447676D02*
X189935714Y-42542914D01*
X189935714Y-42542914D02*
X189983333Y-42733390D01*
X189983333Y-42733390D02*
X189983333Y-42876247D01*
X189983333Y-42876247D02*
X189935714Y-43066723D01*
X189935714Y-43066723D02*
X189888095Y-43161961D01*
X189888095Y-43161961D02*
X189792857Y-43257200D01*
X189792857Y-43257200D02*
X189650000Y-43304819D01*
X189650000Y-43304819D02*
X189411905Y-43304819D01*
X190316667Y-42304819D02*
X190983333Y-42304819D01*
X190983333Y-42304819D02*
X190554762Y-43304819D01*
X47754761Y-103154819D02*
X47278571Y-103154819D01*
X47278571Y-103154819D02*
X47230952Y-103631009D01*
X47230952Y-103631009D02*
X47278571Y-103583390D01*
X47278571Y-103583390D02*
X47373809Y-103535771D01*
X47373809Y-103535771D02*
X47611904Y-103535771D01*
X47611904Y-103535771D02*
X47707142Y-103583390D01*
X47707142Y-103583390D02*
X47754761Y-103631009D01*
X47754761Y-103631009D02*
X47802380Y-103726247D01*
X47802380Y-103726247D02*
X47802380Y-103964342D01*
X47802380Y-103964342D02*
X47754761Y-104059580D01*
X47754761Y-104059580D02*
X47707142Y-104107200D01*
X47707142Y-104107200D02*
X47611904Y-104154819D01*
X47611904Y-104154819D02*
X47373809Y-104154819D01*
X47373809Y-104154819D02*
X47278571Y-104107200D01*
X47278571Y-104107200D02*
X47230952Y-104059580D01*
X48088095Y-103154819D02*
X48421428Y-104154819D01*
X48421428Y-104154819D02*
X48754761Y-103154819D01*
X49040476Y-104107200D02*
X49183333Y-104154819D01*
X49183333Y-104154819D02*
X49421428Y-104154819D01*
X49421428Y-104154819D02*
X49516666Y-104107200D01*
X49516666Y-104107200D02*
X49564285Y-104059580D01*
X49564285Y-104059580D02*
X49611904Y-103964342D01*
X49611904Y-103964342D02*
X49611904Y-103869104D01*
X49611904Y-103869104D02*
X49564285Y-103773866D01*
X49564285Y-103773866D02*
X49516666Y-103726247D01*
X49516666Y-103726247D02*
X49421428Y-103678628D01*
X49421428Y-103678628D02*
X49230952Y-103631009D01*
X49230952Y-103631009D02*
X49135714Y-103583390D01*
X49135714Y-103583390D02*
X49088095Y-103535771D01*
X49088095Y-103535771D02*
X49040476Y-103440533D01*
X49040476Y-103440533D02*
X49040476Y-103345295D01*
X49040476Y-103345295D02*
X49088095Y-103250057D01*
X49088095Y-103250057D02*
X49135714Y-103202438D01*
X49135714Y-103202438D02*
X49230952Y-103154819D01*
X49230952Y-103154819D02*
X49469047Y-103154819D01*
X49469047Y-103154819D02*
X49611904Y-103202438D01*
X50421428Y-104107200D02*
X50326190Y-104154819D01*
X50326190Y-104154819D02*
X50135714Y-104154819D01*
X50135714Y-104154819D02*
X50040476Y-104107200D01*
X50040476Y-104107200D02*
X49992857Y-104011961D01*
X49992857Y-104011961D02*
X49992857Y-103631009D01*
X49992857Y-103631009D02*
X50040476Y-103535771D01*
X50040476Y-103535771D02*
X50135714Y-103488152D01*
X50135714Y-103488152D02*
X50326190Y-103488152D01*
X50326190Y-103488152D02*
X50421428Y-103535771D01*
X50421428Y-103535771D02*
X50469047Y-103631009D01*
X50469047Y-103631009D02*
X50469047Y-103726247D01*
X50469047Y-103726247D02*
X49992857Y-103821485D01*
X50897619Y-103488152D02*
X50897619Y-104154819D01*
X50897619Y-103583390D02*
X50945238Y-103535771D01*
X50945238Y-103535771D02*
X51040476Y-103488152D01*
X51040476Y-103488152D02*
X51183333Y-103488152D01*
X51183333Y-103488152D02*
X51278571Y-103535771D01*
X51278571Y-103535771D02*
X51326190Y-103631009D01*
X51326190Y-103631009D02*
X51326190Y-104154819D01*
X51754762Y-104107200D02*
X51850000Y-104154819D01*
X51850000Y-104154819D02*
X52040476Y-104154819D01*
X52040476Y-104154819D02*
X52135714Y-104107200D01*
X52135714Y-104107200D02*
X52183333Y-104011961D01*
X52183333Y-104011961D02*
X52183333Y-103964342D01*
X52183333Y-103964342D02*
X52135714Y-103869104D01*
X52135714Y-103869104D02*
X52040476Y-103821485D01*
X52040476Y-103821485D02*
X51897619Y-103821485D01*
X51897619Y-103821485D02*
X51802381Y-103773866D01*
X51802381Y-103773866D02*
X51754762Y-103678628D01*
X51754762Y-103678628D02*
X51754762Y-103631009D01*
X51754762Y-103631009D02*
X51802381Y-103535771D01*
X51802381Y-103535771D02*
X51897619Y-103488152D01*
X51897619Y-103488152D02*
X52040476Y-103488152D01*
X52040476Y-103488152D02*
X52135714Y-103535771D01*
X52754762Y-104154819D02*
X52659524Y-104107200D01*
X52659524Y-104107200D02*
X52611905Y-104059580D01*
X52611905Y-104059580D02*
X52564286Y-103964342D01*
X52564286Y-103964342D02*
X52564286Y-103678628D01*
X52564286Y-103678628D02*
X52611905Y-103583390D01*
X52611905Y-103583390D02*
X52659524Y-103535771D01*
X52659524Y-103535771D02*
X52754762Y-103488152D01*
X52754762Y-103488152D02*
X52897619Y-103488152D01*
X52897619Y-103488152D02*
X52992857Y-103535771D01*
X52992857Y-103535771D02*
X53040476Y-103583390D01*
X53040476Y-103583390D02*
X53088095Y-103678628D01*
X53088095Y-103678628D02*
X53088095Y-103964342D01*
X53088095Y-103964342D02*
X53040476Y-104059580D01*
X53040476Y-104059580D02*
X52992857Y-104107200D01*
X52992857Y-104107200D02*
X52897619Y-104154819D01*
X52897619Y-104154819D02*
X52754762Y-104154819D01*
X53516667Y-104154819D02*
X53516667Y-103488152D01*
X53516667Y-103678628D02*
X53564286Y-103583390D01*
X53564286Y-103583390D02*
X53611905Y-103535771D01*
X53611905Y-103535771D02*
X53707143Y-103488152D01*
X53707143Y-103488152D02*
X53802381Y-103488152D01*
X54088096Y-104107200D02*
X54183334Y-104154819D01*
X54183334Y-104154819D02*
X54373810Y-104154819D01*
X54373810Y-104154819D02*
X54469048Y-104107200D01*
X54469048Y-104107200D02*
X54516667Y-104011961D01*
X54516667Y-104011961D02*
X54516667Y-103964342D01*
X54516667Y-103964342D02*
X54469048Y-103869104D01*
X54469048Y-103869104D02*
X54373810Y-103821485D01*
X54373810Y-103821485D02*
X54230953Y-103821485D01*
X54230953Y-103821485D02*
X54135715Y-103773866D01*
X54135715Y-103773866D02*
X54088096Y-103678628D01*
X54088096Y-103678628D02*
X54088096Y-103631009D01*
X54088096Y-103631009D02*
X54135715Y-103535771D01*
X54135715Y-103535771D02*
X54230953Y-103488152D01*
X54230953Y-103488152D02*
X54373810Y-103488152D01*
X54373810Y-103488152D02*
X54469048Y-103535771D01*
X55469048Y-104154819D02*
X54897620Y-104154819D01*
X55183334Y-104154819D02*
X55183334Y-103154819D01*
X55183334Y-103154819D02*
X55088096Y-103297676D01*
X55088096Y-103297676D02*
X54992858Y-103392914D01*
X54992858Y-103392914D02*
X54897620Y-103440533D01*
X70555542Y-58314780D02*
X70507923Y-58362400D01*
X70507923Y-58362400D02*
X70365066Y-58410019D01*
X70365066Y-58410019D02*
X70269828Y-58410019D01*
X70269828Y-58410019D02*
X70126971Y-58362400D01*
X70126971Y-58362400D02*
X70031733Y-58267161D01*
X70031733Y-58267161D02*
X69984114Y-58171923D01*
X69984114Y-58171923D02*
X69936495Y-57981447D01*
X69936495Y-57981447D02*
X69936495Y-57838590D01*
X69936495Y-57838590D02*
X69984114Y-57648114D01*
X69984114Y-57648114D02*
X70031733Y-57552876D01*
X70031733Y-57552876D02*
X70126971Y-57457638D01*
X70126971Y-57457638D02*
X70269828Y-57410019D01*
X70269828Y-57410019D02*
X70365066Y-57410019D01*
X70365066Y-57410019D02*
X70507923Y-57457638D01*
X70507923Y-57457638D02*
X70555542Y-57505257D01*
X70936495Y-57505257D02*
X70984114Y-57457638D01*
X70984114Y-57457638D02*
X71079352Y-57410019D01*
X71079352Y-57410019D02*
X71317447Y-57410019D01*
X71317447Y-57410019D02*
X71412685Y-57457638D01*
X71412685Y-57457638D02*
X71460304Y-57505257D01*
X71460304Y-57505257D02*
X71507923Y-57600495D01*
X71507923Y-57600495D02*
X71507923Y-57695733D01*
X71507923Y-57695733D02*
X71460304Y-57838590D01*
X71460304Y-57838590D02*
X70888876Y-58410019D01*
X70888876Y-58410019D02*
X71507923Y-58410019D01*
X72126971Y-57410019D02*
X72222209Y-57410019D01*
X72222209Y-57410019D02*
X72317447Y-57457638D01*
X72317447Y-57457638D02*
X72365066Y-57505257D01*
X72365066Y-57505257D02*
X72412685Y-57600495D01*
X72412685Y-57600495D02*
X72460304Y-57790971D01*
X72460304Y-57790971D02*
X72460304Y-58029066D01*
X72460304Y-58029066D02*
X72412685Y-58219542D01*
X72412685Y-58219542D02*
X72365066Y-58314780D01*
X72365066Y-58314780D02*
X72317447Y-58362400D01*
X72317447Y-58362400D02*
X72222209Y-58410019D01*
X72222209Y-58410019D02*
X72126971Y-58410019D01*
X72126971Y-58410019D02*
X72031733Y-58362400D01*
X72031733Y-58362400D02*
X71984114Y-58314780D01*
X71984114Y-58314780D02*
X71936495Y-58219542D01*
X71936495Y-58219542D02*
X71888876Y-58029066D01*
X71888876Y-58029066D02*
X71888876Y-57790971D01*
X71888876Y-57790971D02*
X71936495Y-57600495D01*
X71936495Y-57600495D02*
X71984114Y-57505257D01*
X71984114Y-57505257D02*
X72031733Y-57457638D01*
X72031733Y-57457638D02*
X72126971Y-57410019D01*
X119553142Y-38455580D02*
X119505523Y-38503200D01*
X119505523Y-38503200D02*
X119362666Y-38550819D01*
X119362666Y-38550819D02*
X119267428Y-38550819D01*
X119267428Y-38550819D02*
X119124571Y-38503200D01*
X119124571Y-38503200D02*
X119029333Y-38407961D01*
X119029333Y-38407961D02*
X118981714Y-38312723D01*
X118981714Y-38312723D02*
X118934095Y-38122247D01*
X118934095Y-38122247D02*
X118934095Y-37979390D01*
X118934095Y-37979390D02*
X118981714Y-37788914D01*
X118981714Y-37788914D02*
X119029333Y-37693676D01*
X119029333Y-37693676D02*
X119124571Y-37598438D01*
X119124571Y-37598438D02*
X119267428Y-37550819D01*
X119267428Y-37550819D02*
X119362666Y-37550819D01*
X119362666Y-37550819D02*
X119505523Y-37598438D01*
X119505523Y-37598438D02*
X119553142Y-37646057D01*
X119934095Y-37646057D02*
X119981714Y-37598438D01*
X119981714Y-37598438D02*
X120076952Y-37550819D01*
X120076952Y-37550819D02*
X120315047Y-37550819D01*
X120315047Y-37550819D02*
X120410285Y-37598438D01*
X120410285Y-37598438D02*
X120457904Y-37646057D01*
X120457904Y-37646057D02*
X120505523Y-37741295D01*
X120505523Y-37741295D02*
X120505523Y-37836533D01*
X120505523Y-37836533D02*
X120457904Y-37979390D01*
X120457904Y-37979390D02*
X119886476Y-38550819D01*
X119886476Y-38550819D02*
X120505523Y-38550819D01*
X121457904Y-38550819D02*
X120886476Y-38550819D01*
X121172190Y-38550819D02*
X121172190Y-37550819D01*
X121172190Y-37550819D02*
X121076952Y-37693676D01*
X121076952Y-37693676D02*
X120981714Y-37788914D01*
X120981714Y-37788914D02*
X120886476Y-37836533D01*
X73837542Y-57839780D02*
X73789923Y-57887400D01*
X73789923Y-57887400D02*
X73647066Y-57935019D01*
X73647066Y-57935019D02*
X73551828Y-57935019D01*
X73551828Y-57935019D02*
X73408971Y-57887400D01*
X73408971Y-57887400D02*
X73313733Y-57792161D01*
X73313733Y-57792161D02*
X73266114Y-57696923D01*
X73266114Y-57696923D02*
X73218495Y-57506447D01*
X73218495Y-57506447D02*
X73218495Y-57363590D01*
X73218495Y-57363590D02*
X73266114Y-57173114D01*
X73266114Y-57173114D02*
X73313733Y-57077876D01*
X73313733Y-57077876D02*
X73408971Y-56982638D01*
X73408971Y-56982638D02*
X73551828Y-56935019D01*
X73551828Y-56935019D02*
X73647066Y-56935019D01*
X73647066Y-56935019D02*
X73789923Y-56982638D01*
X73789923Y-56982638D02*
X73837542Y-57030257D01*
X74789923Y-57935019D02*
X74218495Y-57935019D01*
X74504209Y-57935019D02*
X74504209Y-56935019D01*
X74504209Y-56935019D02*
X74408971Y-57077876D01*
X74408971Y-57077876D02*
X74313733Y-57173114D01*
X74313733Y-57173114D02*
X74218495Y-57220733D01*
X75361352Y-57363590D02*
X75266114Y-57315971D01*
X75266114Y-57315971D02*
X75218495Y-57268352D01*
X75218495Y-57268352D02*
X75170876Y-57173114D01*
X75170876Y-57173114D02*
X75170876Y-57125495D01*
X75170876Y-57125495D02*
X75218495Y-57030257D01*
X75218495Y-57030257D02*
X75266114Y-56982638D01*
X75266114Y-56982638D02*
X75361352Y-56935019D01*
X75361352Y-56935019D02*
X75551828Y-56935019D01*
X75551828Y-56935019D02*
X75647066Y-56982638D01*
X75647066Y-56982638D02*
X75694685Y-57030257D01*
X75694685Y-57030257D02*
X75742304Y-57125495D01*
X75742304Y-57125495D02*
X75742304Y-57173114D01*
X75742304Y-57173114D02*
X75694685Y-57268352D01*
X75694685Y-57268352D02*
X75647066Y-57315971D01*
X75647066Y-57315971D02*
X75551828Y-57363590D01*
X75551828Y-57363590D02*
X75361352Y-57363590D01*
X75361352Y-57363590D02*
X75266114Y-57411209D01*
X75266114Y-57411209D02*
X75218495Y-57458828D01*
X75218495Y-57458828D02*
X75170876Y-57554066D01*
X75170876Y-57554066D02*
X75170876Y-57744542D01*
X75170876Y-57744542D02*
X75218495Y-57839780D01*
X75218495Y-57839780D02*
X75266114Y-57887400D01*
X75266114Y-57887400D02*
X75361352Y-57935019D01*
X75361352Y-57935019D02*
X75551828Y-57935019D01*
X75551828Y-57935019D02*
X75647066Y-57887400D01*
X75647066Y-57887400D02*
X75694685Y-57839780D01*
X75694685Y-57839780D02*
X75742304Y-57744542D01*
X75742304Y-57744542D02*
X75742304Y-57554066D01*
X75742304Y-57554066D02*
X75694685Y-57458828D01*
X75694685Y-57458828D02*
X75647066Y-57411209D01*
X75647066Y-57411209D02*
X75551828Y-57363590D01*
X137966780Y-91338095D02*
X137157257Y-91338095D01*
X137157257Y-91338095D02*
X137062019Y-91385714D01*
X137062019Y-91385714D02*
X137014400Y-91433333D01*
X137014400Y-91433333D02*
X136966780Y-91528571D01*
X136966780Y-91528571D02*
X136966780Y-91719047D01*
X136966780Y-91719047D02*
X137014400Y-91814285D01*
X137014400Y-91814285D02*
X137062019Y-91861904D01*
X137062019Y-91861904D02*
X137157257Y-91909523D01*
X137157257Y-91909523D02*
X137966780Y-91909523D01*
X136966780Y-92909523D02*
X136966780Y-92338095D01*
X136966780Y-92623809D02*
X137966780Y-92623809D01*
X137966780Y-92623809D02*
X137823923Y-92528571D01*
X137823923Y-92528571D02*
X137728685Y-92433333D01*
X137728685Y-92433333D02*
X137681066Y-92338095D01*
X183446666Y-96511009D02*
X183113333Y-96511009D01*
X183113333Y-97034819D02*
X183113333Y-96034819D01*
X183113333Y-96034819D02*
X183589523Y-96034819D01*
X184494285Y-97034819D02*
X183922857Y-97034819D01*
X184208571Y-97034819D02*
X184208571Y-96034819D01*
X184208571Y-96034819D02*
X184113333Y-96177676D01*
X184113333Y-96177676D02*
X184018095Y-96272914D01*
X184018095Y-96272914D02*
X183922857Y-96320533D01*
X52817342Y-69040580D02*
X52769723Y-69088200D01*
X52769723Y-69088200D02*
X52626866Y-69135819D01*
X52626866Y-69135819D02*
X52531628Y-69135819D01*
X52531628Y-69135819D02*
X52388771Y-69088200D01*
X52388771Y-69088200D02*
X52293533Y-68992961D01*
X52293533Y-68992961D02*
X52245914Y-68897723D01*
X52245914Y-68897723D02*
X52198295Y-68707247D01*
X52198295Y-68707247D02*
X52198295Y-68564390D01*
X52198295Y-68564390D02*
X52245914Y-68373914D01*
X52245914Y-68373914D02*
X52293533Y-68278676D01*
X52293533Y-68278676D02*
X52388771Y-68183438D01*
X52388771Y-68183438D02*
X52531628Y-68135819D01*
X52531628Y-68135819D02*
X52626866Y-68135819D01*
X52626866Y-68135819D02*
X52769723Y-68183438D01*
X52769723Y-68183438D02*
X52817342Y-68231057D01*
X53769723Y-69135819D02*
X53198295Y-69135819D01*
X53484009Y-69135819D02*
X53484009Y-68135819D01*
X53484009Y-68135819D02*
X53388771Y-68278676D01*
X53388771Y-68278676D02*
X53293533Y-68373914D01*
X53293533Y-68373914D02*
X53198295Y-68421533D01*
X54103057Y-68135819D02*
X54769723Y-68135819D01*
X54769723Y-68135819D02*
X54341152Y-69135819D01*
X54457342Y-59922580D02*
X54409723Y-59970200D01*
X54409723Y-59970200D02*
X54266866Y-60017819D01*
X54266866Y-60017819D02*
X54171628Y-60017819D01*
X54171628Y-60017819D02*
X54028771Y-59970200D01*
X54028771Y-59970200D02*
X53933533Y-59874961D01*
X53933533Y-59874961D02*
X53885914Y-59779723D01*
X53885914Y-59779723D02*
X53838295Y-59589247D01*
X53838295Y-59589247D02*
X53838295Y-59446390D01*
X53838295Y-59446390D02*
X53885914Y-59255914D01*
X53885914Y-59255914D02*
X53933533Y-59160676D01*
X53933533Y-59160676D02*
X54028771Y-59065438D01*
X54028771Y-59065438D02*
X54171628Y-59017819D01*
X54171628Y-59017819D02*
X54266866Y-59017819D01*
X54266866Y-59017819D02*
X54409723Y-59065438D01*
X54409723Y-59065438D02*
X54457342Y-59113057D01*
X55409723Y-60017819D02*
X54838295Y-60017819D01*
X55124009Y-60017819D02*
X55124009Y-59017819D01*
X55124009Y-59017819D02*
X55028771Y-59160676D01*
X55028771Y-59160676D02*
X54933533Y-59255914D01*
X54933533Y-59255914D02*
X54838295Y-59303533D01*
X55743057Y-59017819D02*
X56362104Y-59017819D01*
X56362104Y-59017819D02*
X56028771Y-59398771D01*
X56028771Y-59398771D02*
X56171628Y-59398771D01*
X56171628Y-59398771D02*
X56266866Y-59446390D01*
X56266866Y-59446390D02*
X56314485Y-59494009D01*
X56314485Y-59494009D02*
X56362104Y-59589247D01*
X56362104Y-59589247D02*
X56362104Y-59827342D01*
X56362104Y-59827342D02*
X56314485Y-59922580D01*
X56314485Y-59922580D02*
X56266866Y-59970200D01*
X56266866Y-59970200D02*
X56171628Y-60017819D01*
X56171628Y-60017819D02*
X55885914Y-60017819D01*
X55885914Y-60017819D02*
X55790676Y-59970200D01*
X55790676Y-59970200D02*
X55743057Y-59922580D01*
X126638380Y-90861905D02*
X125828857Y-90861905D01*
X125828857Y-90861905D02*
X125733619Y-90909524D01*
X125733619Y-90909524D02*
X125686000Y-90957143D01*
X125686000Y-90957143D02*
X125638380Y-91052381D01*
X125638380Y-91052381D02*
X125638380Y-91242857D01*
X125638380Y-91242857D02*
X125686000Y-91338095D01*
X125686000Y-91338095D02*
X125733619Y-91385714D01*
X125733619Y-91385714D02*
X125828857Y-91433333D01*
X125828857Y-91433333D02*
X126638380Y-91433333D01*
X125638380Y-92433333D02*
X125638380Y-91861905D01*
X125638380Y-92147619D02*
X126638380Y-92147619D01*
X126638380Y-92147619D02*
X126495523Y-92052381D01*
X126495523Y-92052381D02*
X126400285Y-91957143D01*
X126400285Y-91957143D02*
X126352666Y-91861905D01*
X126638380Y-93052381D02*
X126638380Y-93147619D01*
X126638380Y-93147619D02*
X126590761Y-93242857D01*
X126590761Y-93242857D02*
X126543142Y-93290476D01*
X126543142Y-93290476D02*
X126447904Y-93338095D01*
X126447904Y-93338095D02*
X126257428Y-93385714D01*
X126257428Y-93385714D02*
X126019333Y-93385714D01*
X126019333Y-93385714D02*
X125828857Y-93338095D01*
X125828857Y-93338095D02*
X125733619Y-93290476D01*
X125733619Y-93290476D02*
X125686000Y-93242857D01*
X125686000Y-93242857D02*
X125638380Y-93147619D01*
X125638380Y-93147619D02*
X125638380Y-93052381D01*
X125638380Y-93052381D02*
X125686000Y-92957143D01*
X125686000Y-92957143D02*
X125733619Y-92909524D01*
X125733619Y-92909524D02*
X125828857Y-92861905D01*
X125828857Y-92861905D02*
X126019333Y-92814286D01*
X126019333Y-92814286D02*
X126257428Y-92814286D01*
X126257428Y-92814286D02*
X126447904Y-92861905D01*
X126447904Y-92861905D02*
X126543142Y-92909524D01*
X126543142Y-92909524D02*
X126590761Y-92957143D01*
X126590761Y-92957143D02*
X126638380Y-93052381D01*
X198635714Y-109354819D02*
X198635714Y-108354819D01*
X198635714Y-108354819D02*
X198873809Y-108354819D01*
X198873809Y-108354819D02*
X199016666Y-108402438D01*
X199016666Y-108402438D02*
X199111904Y-108497676D01*
X199111904Y-108497676D02*
X199159523Y-108592914D01*
X199159523Y-108592914D02*
X199207142Y-108783390D01*
X199207142Y-108783390D02*
X199207142Y-108926247D01*
X199207142Y-108926247D02*
X199159523Y-109116723D01*
X199159523Y-109116723D02*
X199111904Y-109211961D01*
X199111904Y-109211961D02*
X199016666Y-109307200D01*
X199016666Y-109307200D02*
X198873809Y-109354819D01*
X198873809Y-109354819D02*
X198635714Y-109354819D01*
X200159523Y-109354819D02*
X199588095Y-109354819D01*
X199873809Y-109354819D02*
X199873809Y-108354819D01*
X199873809Y-108354819D02*
X199778571Y-108497676D01*
X199778571Y-108497676D02*
X199683333Y-108592914D01*
X199683333Y-108592914D02*
X199588095Y-108640533D01*
X201016666Y-108688152D02*
X201016666Y-109354819D01*
X200778571Y-108307200D02*
X200540476Y-109021485D01*
X200540476Y-109021485D02*
X201159523Y-109021485D01*
X61918533Y-60144819D02*
X61585200Y-59668628D01*
X61347105Y-60144819D02*
X61347105Y-59144819D01*
X61347105Y-59144819D02*
X61728057Y-59144819D01*
X61728057Y-59144819D02*
X61823295Y-59192438D01*
X61823295Y-59192438D02*
X61870914Y-59240057D01*
X61870914Y-59240057D02*
X61918533Y-59335295D01*
X61918533Y-59335295D02*
X61918533Y-59478152D01*
X61918533Y-59478152D02*
X61870914Y-59573390D01*
X61870914Y-59573390D02*
X61823295Y-59621009D01*
X61823295Y-59621009D02*
X61728057Y-59668628D01*
X61728057Y-59668628D02*
X61347105Y-59668628D01*
X62870914Y-60144819D02*
X62299486Y-60144819D01*
X62585200Y-60144819D02*
X62585200Y-59144819D01*
X62585200Y-59144819D02*
X62489962Y-59287676D01*
X62489962Y-59287676D02*
X62394724Y-59382914D01*
X62394724Y-59382914D02*
X62299486Y-59430533D01*
X122947580Y-60885066D02*
X122995200Y-60932685D01*
X122995200Y-60932685D02*
X123042819Y-61075542D01*
X123042819Y-61075542D02*
X123042819Y-61170780D01*
X123042819Y-61170780D02*
X122995200Y-61313637D01*
X122995200Y-61313637D02*
X122899961Y-61408875D01*
X122899961Y-61408875D02*
X122804723Y-61456494D01*
X122804723Y-61456494D02*
X122614247Y-61504113D01*
X122614247Y-61504113D02*
X122471390Y-61504113D01*
X122471390Y-61504113D02*
X122280914Y-61456494D01*
X122280914Y-61456494D02*
X122185676Y-61408875D01*
X122185676Y-61408875D02*
X122090438Y-61313637D01*
X122090438Y-61313637D02*
X122042819Y-61170780D01*
X122042819Y-61170780D02*
X122042819Y-61075542D01*
X122042819Y-61075542D02*
X122090438Y-60932685D01*
X122090438Y-60932685D02*
X122138057Y-60885066D01*
X122042819Y-60027923D02*
X122042819Y-60218399D01*
X122042819Y-60218399D02*
X122090438Y-60313637D01*
X122090438Y-60313637D02*
X122138057Y-60361256D01*
X122138057Y-60361256D02*
X122280914Y-60456494D01*
X122280914Y-60456494D02*
X122471390Y-60504113D01*
X122471390Y-60504113D02*
X122852342Y-60504113D01*
X122852342Y-60504113D02*
X122947580Y-60456494D01*
X122947580Y-60456494D02*
X122995200Y-60408875D01*
X122995200Y-60408875D02*
X123042819Y-60313637D01*
X123042819Y-60313637D02*
X123042819Y-60123161D01*
X123042819Y-60123161D02*
X122995200Y-60027923D01*
X122995200Y-60027923D02*
X122947580Y-59980304D01*
X122947580Y-59980304D02*
X122852342Y-59932685D01*
X122852342Y-59932685D02*
X122614247Y-59932685D01*
X122614247Y-59932685D02*
X122519009Y-59980304D01*
X122519009Y-59980304D02*
X122471390Y-60027923D01*
X122471390Y-60027923D02*
X122423771Y-60123161D01*
X122423771Y-60123161D02*
X122423771Y-60313637D01*
X122423771Y-60313637D02*
X122471390Y-60408875D01*
X122471390Y-60408875D02*
X122519009Y-60456494D01*
X122519009Y-60456494D02*
X122614247Y-60504113D01*
X128215580Y-93867266D02*
X128263200Y-93914885D01*
X128263200Y-93914885D02*
X128310819Y-94057742D01*
X128310819Y-94057742D02*
X128310819Y-94152980D01*
X128310819Y-94152980D02*
X128263200Y-94295837D01*
X128263200Y-94295837D02*
X128167961Y-94391075D01*
X128167961Y-94391075D02*
X128072723Y-94438694D01*
X128072723Y-94438694D02*
X127882247Y-94486313D01*
X127882247Y-94486313D02*
X127739390Y-94486313D01*
X127739390Y-94486313D02*
X127548914Y-94438694D01*
X127548914Y-94438694D02*
X127453676Y-94391075D01*
X127453676Y-94391075D02*
X127358438Y-94295837D01*
X127358438Y-94295837D02*
X127310819Y-94152980D01*
X127310819Y-94152980D02*
X127310819Y-94057742D01*
X127310819Y-94057742D02*
X127358438Y-93914885D01*
X127358438Y-93914885D02*
X127406057Y-93867266D01*
X127310819Y-92962504D02*
X127310819Y-93438694D01*
X127310819Y-93438694D02*
X127787009Y-93486313D01*
X127787009Y-93486313D02*
X127739390Y-93438694D01*
X127739390Y-93438694D02*
X127691771Y-93343456D01*
X127691771Y-93343456D02*
X127691771Y-93105361D01*
X127691771Y-93105361D02*
X127739390Y-93010123D01*
X127739390Y-93010123D02*
X127787009Y-92962504D01*
X127787009Y-92962504D02*
X127882247Y-92914885D01*
X127882247Y-92914885D02*
X128120342Y-92914885D01*
X128120342Y-92914885D02*
X128215580Y-92962504D01*
X128215580Y-92962504D02*
X128263200Y-93010123D01*
X128263200Y-93010123D02*
X128310819Y-93105361D01*
X128310819Y-93105361D02*
X128310819Y-93343456D01*
X128310819Y-93343456D02*
X128263200Y-93438694D01*
X128263200Y-93438694D02*
X128215580Y-93486313D01*
D11*
X57017580Y-64871118D02*
X57017580Y-65899213D01*
X57017580Y-65899213D02*
X57078057Y-66020165D01*
X57078057Y-66020165D02*
X57138533Y-66080642D01*
X57138533Y-66080642D02*
X57259485Y-66141118D01*
X57259485Y-66141118D02*
X57501390Y-66141118D01*
X57501390Y-66141118D02*
X57622342Y-66080642D01*
X57622342Y-66080642D02*
X57682819Y-66020165D01*
X57682819Y-66020165D02*
X57743295Y-65899213D01*
X57743295Y-65899213D02*
X57743295Y-64871118D01*
X58892342Y-64871118D02*
X58650437Y-64871118D01*
X58650437Y-64871118D02*
X58529485Y-64931594D01*
X58529485Y-64931594D02*
X58469009Y-64992070D01*
X58469009Y-64992070D02*
X58348056Y-65173499D01*
X58348056Y-65173499D02*
X58287580Y-65415403D01*
X58287580Y-65415403D02*
X58287580Y-65899213D01*
X58287580Y-65899213D02*
X58348056Y-66020165D01*
X58348056Y-66020165D02*
X58408533Y-66080642D01*
X58408533Y-66080642D02*
X58529485Y-66141118D01*
X58529485Y-66141118D02*
X58771390Y-66141118D01*
X58771390Y-66141118D02*
X58892342Y-66080642D01*
X58892342Y-66080642D02*
X58952818Y-66020165D01*
X58952818Y-66020165D02*
X59013295Y-65899213D01*
X59013295Y-65899213D02*
X59013295Y-65596832D01*
X59013295Y-65596832D02*
X58952818Y-65475880D01*
X58952818Y-65475880D02*
X58892342Y-65415403D01*
X58892342Y-65415403D02*
X58771390Y-65354927D01*
X58771390Y-65354927D02*
X58529485Y-65354927D01*
X58529485Y-65354927D02*
X58408533Y-65415403D01*
X58408533Y-65415403D02*
X58348056Y-65475880D01*
X58348056Y-65475880D02*
X58287580Y-65596832D01*
D12*
%TO.C,U2*%
X175184000Y-57380000D02*
X175184000Y-67620000D01*
X178315000Y-57380000D02*
X178315000Y-67620000D01*
X179825000Y-57380000D02*
X175184000Y-57380000D01*
X179825000Y-57380000D02*
X179825000Y-67620000D01*
X179825000Y-60650000D02*
X178315000Y-60650000D01*
X179825000Y-64351000D02*
X178315000Y-64351000D01*
X179825000Y-67620000D02*
X175184000Y-67620000D01*
%TO.C,C2*%
X159140000Y-44640000D02*
X159140000Y-48490000D01*
X159140000Y-55360000D02*
X159140000Y-51510000D01*
X168795563Y-44640000D02*
X159140000Y-44640000D01*
X168795563Y-55360000D02*
X159140000Y-55360000D01*
X169860000Y-45704437D02*
X168795563Y-44640000D01*
X169860000Y-45704437D02*
X169860000Y-48490000D01*
X169860000Y-54295563D02*
X168795563Y-55360000D01*
X169860000Y-54295563D02*
X169860000Y-51510000D01*
X170725000Y-53385000D02*
X170725000Y-52135000D01*
X171350000Y-52760000D02*
X170100000Y-52760000D01*
%TO.C,FlowPin1*%
X64000000Y-98950000D02*
G75*
G02*
X58400000Y-98950000I-2800000J0D01*
G01*
X58400000Y-98950000D02*
G75*
G02*
X64000000Y-98950000I2800000J0D01*
G01*
D13*
%TO.C,U9*%
X108535900Y-89379100D02*
X108535900Y-93620900D01*
X113793700Y-93620900D02*
X113793700Y-89379100D01*
D12*
%TO.C,RV3*%
X52937200Y-50178000D02*
X52937200Y-55028000D01*
X52937200Y-50178000D02*
X62437200Y-50178000D01*
X52937200Y-55028000D02*
X62437200Y-55028000D01*
X62437200Y-50178000D02*
X62437200Y-55028000D01*
%TO.C,R4*%
X48423300Y-65007258D02*
X48423300Y-64532742D01*
X49468300Y-65007258D02*
X49468300Y-64532742D01*
%TO.C,Sec7*%
X169600000Y-114150000D02*
G75*
G02*
X164000000Y-114150000I-2800000J0D01*
G01*
X164000000Y-114150000D02*
G75*
G02*
X169600000Y-114150000I2800000J0D01*
G01*
%TO.C,RV4*%
X67625100Y-55028000D02*
X67625100Y-50178000D01*
X77125100Y-50178000D02*
X67625100Y-50178000D01*
X77125100Y-55028000D02*
X67625100Y-55028000D01*
X77125100Y-55028000D02*
X77125100Y-50178000D01*
D14*
%TO.C,D10*%
X60787700Y-71331000D02*
G75*
G02*
X60687700Y-71331000I-50000J0D01*
G01*
X60687700Y-71331000D02*
G75*
G02*
X60787700Y-71331000I50000J0D01*
G01*
D12*
%TO.C,R10*%
X185662742Y-105827500D02*
X186137258Y-105827500D01*
X185662742Y-106872500D02*
X186137258Y-106872500D01*
%TO.C,MotorB1*%
X145900000Y-114150000D02*
G75*
G02*
X140300000Y-114150000I-2800000J0D01*
G01*
X140300000Y-114150000D02*
G75*
G02*
X145900000Y-114150000I2800000J0D01*
G01*
%TO.C,L1*%
X186700000Y-66150000D02*
X189700000Y-66150000D01*
X186700000Y-78750000D02*
X186700000Y-66150000D01*
X189700000Y-78750000D02*
X186700000Y-78750000D01*
X196300000Y-66150000D02*
X199300000Y-66150000D01*
X199300000Y-66150000D02*
X199300000Y-78750000D01*
X199300000Y-78750000D02*
X196300000Y-78750000D01*
%TO.C,R2*%
X52810000Y-77300000D02*
X53580000Y-77300000D01*
X53580000Y-75930000D02*
X53580000Y-78670000D01*
X53580000Y-78670000D02*
X60120000Y-78670000D01*
X60120000Y-75930000D02*
X53580000Y-75930000D01*
X60120000Y-78670000D02*
X60120000Y-75930000D01*
X60890000Y-77300000D02*
X60120000Y-77300000D01*
%TO.C,R3*%
X183466804Y-66116719D02*
X183466804Y-65642203D01*
X184511804Y-66116719D02*
X184511804Y-65642203D01*
%TO.C,C14*%
X61364400Y-67398020D02*
X61364400Y-67679180D01*
X62384400Y-67398020D02*
X62384400Y-67679180D01*
D15*
%TO.C,U7*%
X71737400Y-60999200D02*
X74937400Y-60999200D01*
X71737400Y-65899200D02*
X71737400Y-60999200D01*
X74937400Y-60999200D02*
X74937400Y-65899200D01*
X74937400Y-65899200D02*
X71737400Y-65899200D01*
X76787400Y-66029200D02*
X75287400Y-66029200D01*
D12*
%TO.C,GndSensor1*%
X84000000Y-98875000D02*
G75*
G02*
X78400000Y-98875000I-2800000J0D01*
G01*
X78400000Y-98875000D02*
G75*
G02*
X84000000Y-98875000I2800000J0D01*
G01*
%TO.C,Sec4*%
X130400000Y-114150000D02*
G75*
G02*
X124800000Y-114150000I-2800000J0D01*
G01*
X124800000Y-114150000D02*
G75*
G02*
X130400000Y-114150000I2800000J0D01*
G01*
%TO.C,Pressure1*%
X74350000Y-98950000D02*
G75*
G02*
X68750000Y-98950000I-2800000J0D01*
G01*
X68750000Y-98950000D02*
G75*
G02*
X74350000Y-98950000I2800000J0D01*
G01*
%TO.C,C27*%
X106240000Y-94040580D02*
X106240000Y-93759420D01*
X107260000Y-94040580D02*
X107260000Y-93759420D01*
%TO.C,C24*%
X100382000Y-52179420D02*
X100382000Y-52460580D01*
X101402000Y-52179420D02*
X101402000Y-52460580D01*
%TO.C,A1*%
X104010000Y-62953600D02*
X104010000Y-80993600D01*
X104010000Y-80993600D02*
X106680000Y-80993600D01*
X106680000Y-65623600D02*
X106680000Y-62953600D01*
X106680000Y-65623600D02*
X144780000Y-65623600D01*
X106680000Y-78323600D02*
X106680000Y-80993600D01*
X109220000Y-78323600D02*
X106680000Y-78323600D01*
X109220000Y-78323600D02*
X109220000Y-80993600D01*
X109220000Y-78323600D02*
X144780000Y-78323600D01*
X109220000Y-80993600D02*
X147450000Y-80993600D01*
X139570000Y-68033600D02*
X149990000Y-68033600D01*
X139570000Y-75913600D02*
X139570000Y-68033600D01*
X144780000Y-65623600D02*
X144780000Y-62953600D01*
X144780000Y-78323600D02*
X144780000Y-80993600D01*
X147450000Y-62953600D02*
X104010000Y-62953600D01*
X147450000Y-62953600D02*
X147450000Y-68033600D01*
X147450000Y-80993600D02*
X147450000Y-75913600D01*
X149990000Y-68033600D02*
X149990000Y-75913600D01*
X149990000Y-75913600D02*
X139570000Y-75913600D01*
%TO.C,C25*%
X140140000Y-93640580D02*
X140140000Y-93359420D01*
X141160000Y-93640580D02*
X141160000Y-93359420D01*
%TO.C,TP6*%
X76893100Y-46101000D02*
G75*
G02*
X73993100Y-46101000I-1450000J0D01*
G01*
X73993100Y-46101000D02*
G75*
G02*
X76893100Y-46101000I1450000J0D01*
G01*
%TO.C,C1*%
X125977600Y-99553237D02*
X125977600Y-105308800D01*
X125977600Y-105308800D02*
X128327600Y-105308800D01*
X127042037Y-98488800D02*
X125977600Y-99553237D01*
X127042037Y-98488800D02*
X128327600Y-98488800D01*
X131235100Y-97461300D02*
X131235100Y-98248800D01*
X131628850Y-97855050D02*
X130841350Y-97855050D01*
X131733163Y-98488800D02*
X130447600Y-98488800D01*
X131733163Y-98488800D02*
X132797600Y-99553237D01*
X132797600Y-99553237D02*
X132797600Y-105308800D01*
X132797600Y-105308800D02*
X130447600Y-105308800D01*
%TO.C,D5*%
X48185400Y-67729200D02*
X48185400Y-70014200D01*
X48185400Y-70014200D02*
X49655400Y-70014200D01*
X49655400Y-70014200D02*
X49655400Y-67729200D01*
%TO.C,J5*%
X197300000Y-90000000D02*
G75*
G02*
X187300000Y-90000000I-5000000J0D01*
G01*
X187300000Y-90000000D02*
G75*
G02*
X197300000Y-90000000I5000000J0D01*
G01*
D14*
%TO.C,D9*%
X64517900Y-71323200D02*
G75*
G02*
X64417900Y-71323200I-50000J0D01*
G01*
X64417900Y-71323200D02*
G75*
G02*
X64517900Y-71323200I50000J0D01*
G01*
D12*
%TO.C,TP8*%
X63154200Y-45847000D02*
G75*
G02*
X60254200Y-45847000I-1450000J0D01*
G01*
X60254200Y-45847000D02*
G75*
G02*
X63154200Y-45847000I1450000J0D01*
G01*
%TO.C,D8*%
X184430900Y-107565000D02*
X184430900Y-109035000D01*
X184430900Y-109035000D02*
X186715900Y-109035000D01*
X186715900Y-107565000D02*
X184430900Y-107565000D01*
%TO.C,R9*%
X77907400Y-64464620D02*
X77907400Y-64745780D01*
X78927400Y-64464620D02*
X78927400Y-64745780D01*
%TO.C,TP7*%
X57439200Y-45847000D02*
G75*
G02*
X54539200Y-45847000I-1450000J0D01*
G01*
X54539200Y-45847000D02*
G75*
G02*
X57439200Y-45847000I1450000J0D01*
G01*
%TO.C,C19*%
X71277980Y-66714200D02*
X70996820Y-66714200D01*
X71277980Y-67734200D02*
X70996820Y-67734200D01*
%TO.C,U5*%
X92724000Y-59146000D02*
X92724000Y-54505000D01*
X95993000Y-59146000D02*
X95993000Y-57636000D01*
X99694000Y-59146000D02*
X99694000Y-57636000D01*
X102964000Y-54505000D02*
X92724000Y-54505000D01*
X102964000Y-57636000D02*
X92724000Y-57636000D01*
X102964000Y-59146000D02*
X92724000Y-59146000D01*
X102964000Y-59146000D02*
X102964000Y-54505000D01*
%TO.C,Sec3*%
X122500000Y-114150000D02*
G75*
G02*
X116900000Y-114150000I-2800000J0D01*
G01*
X116900000Y-114150000D02*
G75*
G02*
X122500000Y-114150000I2800000J0D01*
G01*
%TO.C,Sec2*%
X114700000Y-114150000D02*
G75*
G02*
X109100000Y-114150000I-2800000J0D01*
G01*
X109100000Y-114150000D02*
G75*
G02*
X114700000Y-114150000I2800000J0D01*
G01*
%TO.C,Sec6*%
X161100000Y-114150000D02*
G75*
G02*
X155500000Y-114150000I-2800000J0D01*
G01*
X155500000Y-114150000D02*
G75*
G02*
X161100000Y-114150000I2800000J0D01*
G01*
%TO.C,C23*%
X91468000Y-39340000D02*
X95318000Y-39340000D01*
X91468000Y-48995563D02*
X91468000Y-39340000D01*
X92532437Y-50060000D02*
X91468000Y-48995563D01*
X92532437Y-50060000D02*
X95318000Y-50060000D01*
X93443000Y-50925000D02*
X94693000Y-50925000D01*
X94068000Y-51550000D02*
X94068000Y-50300000D01*
X101123563Y-50060000D02*
X98338000Y-50060000D01*
X101123563Y-50060000D02*
X102188000Y-48995563D01*
X102188000Y-39340000D02*
X98338000Y-39340000D01*
X102188000Y-48995563D02*
X102188000Y-39340000D01*
%TO.C,D1*%
X181715000Y-68065000D02*
X181715000Y-69535000D01*
X181715000Y-69535000D02*
X184000000Y-69535000D01*
X184000000Y-68065000D02*
X181715000Y-68065000D01*
%TO.C,U3*%
X175184000Y-39880000D02*
X175184000Y-50120000D01*
X178315000Y-39880000D02*
X178315000Y-50120000D01*
X179825000Y-39880000D02*
X175184000Y-39880000D01*
X179825000Y-39880000D02*
X179825000Y-50120000D01*
X179825000Y-43150000D02*
X178315000Y-43150000D01*
X179825000Y-46851000D02*
X178315000Y-46851000D01*
X179825000Y-50120000D02*
X175184000Y-50120000D01*
%TO.C,C4*%
X159140000Y-59640000D02*
X159140000Y-63490000D01*
X159140000Y-70360000D02*
X159140000Y-66510000D01*
X168795563Y-59640000D02*
X159140000Y-59640000D01*
X168795563Y-70360000D02*
X159140000Y-70360000D01*
X169860000Y-60704437D02*
X168795563Y-59640000D01*
X169860000Y-60704437D02*
X169860000Y-63490000D01*
X169860000Y-69295563D02*
X168795563Y-70360000D01*
X169860000Y-69295563D02*
X169860000Y-66510000D01*
X170725000Y-68385000D02*
X170725000Y-67135000D01*
X171350000Y-67760000D02*
X170100000Y-67760000D01*
%TO.C,Sec1*%
X106750000Y-114150000D02*
G75*
G02*
X101150000Y-114150000I-2800000J0D01*
G01*
X101150000Y-114150000D02*
G75*
G02*
X106750000Y-114150000I2800000J0D01*
G01*
%TO.C,F2*%
X83094000Y-38484000D02*
X83094000Y-53284000D01*
X87894000Y-38484000D02*
X83094000Y-38484000D01*
X87894000Y-38484000D02*
X87894000Y-53284000D01*
X87894000Y-53284000D02*
X83094000Y-53284000D01*
D14*
%TO.C,D12*%
X74171900Y-69621400D02*
G75*
G02*
X74071900Y-69621400I-50000J0D01*
G01*
X74071900Y-69621400D02*
G75*
G02*
X74171900Y-69621400I50000J0D01*
G01*
D12*
%TO.C,C3*%
X186012200Y-53907400D02*
X187262200Y-53907400D01*
X186637200Y-53282400D02*
X186637200Y-54532400D01*
X187502200Y-52371837D02*
X187502200Y-55157400D01*
X187502200Y-52371837D02*
X188566637Y-51307400D01*
X187502200Y-60962963D02*
X187502200Y-58177400D01*
X187502200Y-60962963D02*
X188566637Y-62027400D01*
X188566637Y-51307400D02*
X198222200Y-51307400D01*
X188566637Y-62027400D02*
X198222200Y-62027400D01*
X198222200Y-51307400D02*
X198222200Y-55157400D01*
X198222200Y-62027400D02*
X198222200Y-58177400D01*
%TO.C,C30*%
X114677600Y-99553237D02*
X114677600Y-105308800D01*
X114677600Y-105308800D02*
X117027600Y-105308800D01*
X115742037Y-98488800D02*
X114677600Y-99553237D01*
X115742037Y-98488800D02*
X117027600Y-98488800D01*
X119935100Y-97461300D02*
X119935100Y-98248800D01*
X120328850Y-97855050D02*
X119541350Y-97855050D01*
X120433163Y-98488800D02*
X119147600Y-98488800D01*
X120433163Y-98488800D02*
X121497600Y-99553237D01*
X121497600Y-99553237D02*
X121497600Y-105308800D01*
X121497600Y-105308800D02*
X119147600Y-105308800D01*
%TO.C,Sec8*%
X176950000Y-114150000D02*
G75*
G02*
X171350000Y-114150000I-2800000J0D01*
G01*
X171350000Y-114150000D02*
G75*
G02*
X176950000Y-114150000I2800000J0D01*
G01*
%TO.C,C28*%
X117690000Y-93940580D02*
X117690000Y-93659420D01*
X118710000Y-93940580D02*
X118710000Y-93659420D01*
%TO.C,Sec5*%
X153700000Y-114150000D02*
G75*
G02*
X148100000Y-114150000I-2800000J0D01*
G01*
X148100000Y-114150000D02*
G75*
G02*
X153700000Y-114150000I2800000J0D01*
G01*
%TO.C,C22*%
X105184000Y-39340000D02*
X109034000Y-39340000D01*
X105184000Y-48995563D02*
X105184000Y-39340000D01*
X106248437Y-50060000D02*
X105184000Y-48995563D01*
X106248437Y-50060000D02*
X109034000Y-50060000D01*
X107159000Y-50925000D02*
X108409000Y-50925000D01*
X107784000Y-51550000D02*
X107784000Y-50300000D01*
X114839563Y-50060000D02*
X112054000Y-50060000D01*
X114839563Y-50060000D02*
X115904000Y-48995563D01*
X115904000Y-39340000D02*
X112054000Y-39340000D01*
X115904000Y-48995563D02*
X115904000Y-39340000D01*
%TO.C,C7*%
X112185400Y-53232000D02*
X114535400Y-53232000D01*
X112185400Y-58987563D02*
X112185400Y-53232000D01*
X113249837Y-60052000D02*
X112185400Y-58987563D01*
X113249837Y-60052000D02*
X114535400Y-60052000D01*
X113354150Y-60685750D02*
X114141650Y-60685750D01*
X113747900Y-61079500D02*
X113747900Y-60292000D01*
X117940963Y-60052000D02*
X116655400Y-60052000D01*
X117940963Y-60052000D02*
X119005400Y-58987563D01*
X119005400Y-53232000D02*
X116655400Y-53232000D01*
X119005400Y-58987563D02*
X119005400Y-53232000D01*
%TO.C,C26*%
X137277600Y-99553237D02*
X137277600Y-105308800D01*
X137277600Y-105308800D02*
X139627600Y-105308800D01*
X138342037Y-98488800D02*
X137277600Y-99553237D01*
X138342037Y-98488800D02*
X139627600Y-98488800D01*
X142535100Y-97461300D02*
X142535100Y-98248800D01*
X142928850Y-97855050D02*
X142141350Y-97855050D01*
X143033163Y-98488800D02*
X141747600Y-98488800D01*
X143033163Y-98488800D02*
X144097600Y-99553237D01*
X144097600Y-99553237D02*
X144097600Y-105308800D01*
X144097600Y-105308800D02*
X141747600Y-105308800D01*
%TO.C,TP5*%
X72194100Y-45974000D02*
G75*
G02*
X69294100Y-45974000I-1450000J0D01*
G01*
X69294100Y-45974000D02*
G75*
G02*
X72194100Y-45974000I1450000J0D01*
G01*
%TO.C,J6*%
X177600000Y-83000000D02*
G75*
G02*
X167600000Y-83000000I-5000000J0D01*
G01*
X167600000Y-83000000D02*
G75*
G02*
X177600000Y-83000000I5000000J0D01*
G01*
%TO.C,D2*%
X160990000Y-39350000D02*
X160990000Y-42650000D01*
X160990000Y-39350000D02*
X166500000Y-39350000D01*
X160990000Y-42650000D02*
X166500000Y-42650000D01*
%TO.C,R5*%
X59830000Y-83280000D02*
X59830000Y-89820000D01*
X59830000Y-89820000D02*
X62570000Y-89820000D01*
X61200000Y-82510000D02*
X61200000Y-83280000D01*
X61200000Y-90590000D02*
X61200000Y-89820000D01*
X62570000Y-83280000D02*
X59830000Y-83280000D01*
X62570000Y-89820000D02*
X62570000Y-83280000D01*
%TO.C,C29*%
X103377600Y-99553237D02*
X103377600Y-105308800D01*
X103377600Y-105308800D02*
X105727600Y-105308800D01*
X104442037Y-98488800D02*
X103377600Y-99553237D01*
X104442037Y-98488800D02*
X105727600Y-98488800D01*
X108635100Y-97461300D02*
X108635100Y-98248800D01*
X109028850Y-97855050D02*
X108241350Y-97855050D01*
X109133163Y-98488800D02*
X107847600Y-98488800D01*
X109133163Y-98488800D02*
X110197600Y-99553237D01*
X110197600Y-99553237D02*
X110197600Y-105308800D01*
X110197600Y-105308800D02*
X107847600Y-105308800D01*
%TO.C,L2*%
X140700000Y-39200000D02*
X153300000Y-39200000D01*
X140700000Y-42200000D02*
X140700000Y-39200000D01*
X140700000Y-51800000D02*
X140700000Y-48800000D01*
X153300000Y-39200000D02*
X153300000Y-42200000D01*
X153300000Y-48800000D02*
X153300000Y-51800000D01*
X153300000Y-51800000D02*
X140700000Y-51800000D01*
D14*
%TO.C,D13*%
X77880300Y-69621400D02*
G75*
G02*
X77780300Y-69621400I-50000J0D01*
G01*
X77780300Y-69621400D02*
G75*
G02*
X77880300Y-69621400I50000J0D01*
G01*
D12*
%TO.C,D3*%
X130740000Y-43000000D02*
X130740000Y-46300000D01*
X130740000Y-43000000D02*
X136250000Y-43000000D01*
X130740000Y-46300000D02*
X136250000Y-46300000D01*
%TO.C,D11*%
X180350000Y-85990000D02*
X180350000Y-91500000D01*
X183650000Y-85990000D02*
X180350000Y-85990000D01*
X183650000Y-85990000D02*
X183650000Y-91500000D01*
D13*
%TO.C,U8*%
X142521100Y-89379100D02*
X142521100Y-93620900D01*
X147778900Y-93620900D02*
X147778900Y-89379100D01*
D12*
%TO.C,MotorA1*%
X138350000Y-114150000D02*
G75*
G02*
X132750000Y-114150000I-2800000J0D01*
G01*
X132750000Y-114150000D02*
G75*
G02*
X138350000Y-114150000I2800000J0D01*
G01*
%TO.C,D7*%
X181740000Y-41250000D02*
X181740000Y-44550000D01*
X181740000Y-41250000D02*
X187250000Y-41250000D01*
X181740000Y-44550000D02*
X187250000Y-44550000D01*
%TO.C,5VSensors1*%
X54100000Y-98950000D02*
G75*
G02*
X48500000Y-98950000I-2800000J0D01*
G01*
X48500000Y-98950000D02*
G75*
G02*
X54100000Y-98950000I2800000J0D01*
G01*
%TO.C,C20*%
X71057820Y-58875200D02*
X71338980Y-58875200D01*
X71057820Y-59895200D02*
X71338980Y-59895200D01*
%TO.C,C21*%
X118900000Y-39340000D02*
X122750000Y-39340000D01*
X118900000Y-48995563D02*
X118900000Y-39340000D01*
X119964437Y-50060000D02*
X118900000Y-48995563D01*
X119964437Y-50060000D02*
X122750000Y-50060000D01*
X120875000Y-50925000D02*
X122125000Y-50925000D01*
X121500000Y-51550000D02*
X121500000Y-50300000D01*
X128555563Y-50060000D02*
X125770000Y-50060000D01*
X128555563Y-50060000D02*
X129620000Y-48995563D01*
X129620000Y-39340000D02*
X125770000Y-39340000D01*
X129620000Y-48995563D02*
X129620000Y-39340000D01*
%TO.C,C18*%
X75602652Y-58650200D02*
X75080148Y-58650200D01*
X75602652Y-60120200D02*
X75080148Y-60120200D01*
D13*
%TO.C,U1*%
X131192700Y-89379100D02*
X131192700Y-93620900D01*
X136450500Y-93620900D02*
X136450500Y-89379100D01*
D12*
%TO.C,F1*%
X182800000Y-97750000D02*
X182800000Y-102550000D01*
X182800000Y-97750000D02*
X197600000Y-97750000D01*
X182800000Y-102550000D02*
X197600000Y-102550000D01*
X197600000Y-97750000D02*
X197600000Y-102550000D01*
%TO.C,C17*%
X55550780Y-69721000D02*
X55269620Y-69721000D01*
X55550780Y-70741000D02*
X55269620Y-70741000D01*
%TO.C,C13*%
X56975200Y-59703052D02*
X56975200Y-59180548D01*
X58445200Y-59703052D02*
X58445200Y-59180548D01*
D13*
%TO.C,U10*%
X119864300Y-89379100D02*
X119864300Y-93620900D01*
X125122100Y-93620900D02*
X125122100Y-89379100D01*
D12*
%TO.C,D14*%
X191290000Y-107150000D02*
X191290000Y-110450000D01*
X191290000Y-107150000D02*
X196800000Y-107150000D01*
X191290000Y-110450000D02*
X196800000Y-110450000D01*
%TO.C,R1*%
X59900200Y-59501220D02*
X59900200Y-59782380D01*
X60920200Y-59501220D02*
X60920200Y-59782380D01*
%TO.C,C6*%
X120648000Y-60577820D02*
X120648000Y-60858980D01*
X121668000Y-60577820D02*
X121668000Y-60858980D01*
%TO.C,C5*%
X128776000Y-93841180D02*
X128776000Y-93560020D01*
X129796000Y-93841180D02*
X129796000Y-93560020D01*
D15*
%TO.C,U6*%
X55535200Y-63966800D02*
X60435200Y-63966800D01*
X55535200Y-67166800D02*
X55535200Y-63966800D01*
X60435200Y-63966800D02*
X60435200Y-67166800D01*
X60435200Y-67166800D02*
X55535200Y-67166800D01*
X60565200Y-62116800D02*
X60565200Y-63616800D01*
%TD*%
%LPC*%
D16*
%TO.C,U2*%
X176555000Y-59960000D03*
D17*
X176555000Y-62500000D03*
X176555000Y-65040000D03*
%TD*%
D18*
%TO.C,C2*%
X168700000Y-50000000D03*
X160300000Y-50000000D03*
%TD*%
D19*
%TO.C,H2*%
X40690800Y-40843200D03*
%TD*%
D20*
%TO.C,FlowPin1*%
X61200000Y-98950000D03*
%TD*%
D21*
%TO.C,U9*%
X113069800Y-88775850D03*
X111799800Y-88775850D03*
X110529800Y-88775850D03*
X109259800Y-88775850D03*
X109259800Y-94224150D03*
X110529800Y-94224150D03*
X111799800Y-94224150D03*
X113069800Y-94224150D03*
D22*
X111164800Y-91500000D03*
%TD*%
D23*
%TO.C,RV3*%
X55187200Y-52628000D03*
X57687200Y-52628000D03*
X60187200Y-52628000D03*
%TD*%
D24*
%TO.C,R4*%
X48945800Y-65595000D03*
X48945800Y-63945000D03*
%TD*%
D20*
%TO.C,Sec7*%
X166800000Y-114150000D03*
%TD*%
D23*
%TO.C,RV4*%
X74875100Y-52578000D03*
X72375100Y-52578000D03*
X69875100Y-52578000D03*
%TD*%
D25*
%TO.C,D10*%
X60132700Y-71331000D03*
X57982700Y-71331000D03*
%TD*%
D26*
%TO.C,R10*%
X185075000Y-106350000D03*
X186725000Y-106350000D03*
%TD*%
D20*
%TO.C,MotorB1*%
X143100000Y-114150000D03*
%TD*%
D27*
%TO.C,L1*%
X193000000Y-77400000D03*
X193000000Y-67500000D03*
%TD*%
D28*
%TO.C,R2*%
X51770000Y-77300000D03*
D29*
X61930000Y-77300000D03*
%TD*%
D19*
%TO.C,H3*%
X40208200Y-117043200D03*
%TD*%
D24*
%TO.C,R3*%
X183989304Y-66704461D03*
X183989304Y-65054461D03*
%TD*%
D30*
%TO.C,C14*%
X61874400Y-66763600D03*
X61874400Y-68313600D03*
%TD*%
D31*
%TO.C,U7*%
X76037400Y-65354200D03*
X76037400Y-64084200D03*
X76037400Y-62814200D03*
X76037400Y-61544200D03*
X70637400Y-61544200D03*
X70637400Y-62814200D03*
X70637400Y-64084200D03*
X70637400Y-65354200D03*
%TD*%
D20*
%TO.C,GndSensor1*%
X81200000Y-98875000D03*
%TD*%
%TO.C,Sec4*%
X127600000Y-114150000D03*
%TD*%
%TO.C,Pressure1*%
X71550000Y-98950000D03*
%TD*%
D32*
%TO.C,C27*%
X106750000Y-94675000D03*
X106750000Y-93125000D03*
%TD*%
D30*
%TO.C,C24*%
X100892000Y-51545000D03*
X100892000Y-53095000D03*
%TD*%
D19*
%TO.C,H1*%
X198196200Y-40894000D03*
%TD*%
D33*
%TO.C,A1*%
X107950000Y-79593600D03*
D29*
X110490000Y-79593600D03*
X113030000Y-79593600D03*
X115570000Y-79593600D03*
X118110000Y-79593600D03*
X120650000Y-79593600D03*
X123190000Y-79593600D03*
X125730000Y-79593600D03*
X128270000Y-79593600D03*
X130810000Y-79593600D03*
X133350000Y-79593600D03*
X135890000Y-79593600D03*
X138430000Y-79593600D03*
X140970000Y-79593600D03*
X143510000Y-79593600D03*
X143510000Y-64353600D03*
X140970000Y-64353600D03*
X138430000Y-64353600D03*
X135890000Y-64353600D03*
X133350000Y-64353600D03*
X130810000Y-64353600D03*
X128270000Y-64353600D03*
X125730000Y-64353600D03*
X123190000Y-64353600D03*
X120650000Y-64353600D03*
X118110000Y-64353600D03*
X115570000Y-64353600D03*
X113030000Y-64353600D03*
X110490000Y-64353600D03*
X107950000Y-64353600D03*
%TD*%
D32*
%TO.C,C25*%
X140650000Y-94275000D03*
X140650000Y-92725000D03*
%TD*%
D34*
%TO.C,TP6*%
X75443100Y-46101000D03*
%TD*%
D35*
%TO.C,C1*%
X129387600Y-99098800D03*
X129387600Y-104698800D03*
%TD*%
D36*
%TO.C,D5*%
X48920400Y-69316700D03*
X48920400Y-67741700D03*
%TD*%
D37*
%TO.C,J5*%
X192300000Y-90000000D03*
%TD*%
D25*
%TO.C,D9*%
X63862900Y-71323200D03*
X61712900Y-71323200D03*
%TD*%
D34*
%TO.C,TP8*%
X61704200Y-45847000D03*
%TD*%
D38*
%TO.C,D8*%
X185128400Y-108300000D03*
X186703400Y-108300000D03*
%TD*%
D30*
%TO.C,R9*%
X78417400Y-63830200D03*
X78417400Y-65380200D03*
%TD*%
D34*
%TO.C,TP7*%
X55989200Y-45847000D03*
%TD*%
D39*
%TO.C,C19*%
X71912400Y-67224200D03*
X70362400Y-67224200D03*
%TD*%
D40*
%TO.C,U5*%
X100384000Y-55876000D03*
D41*
X97844000Y-55876000D03*
X95304000Y-55876000D03*
%TD*%
D20*
%TO.C,Sec3*%
X119700000Y-114150000D03*
%TD*%
%TO.C,Sec2*%
X111900000Y-114150000D03*
%TD*%
D19*
%TO.C,H4*%
X197840600Y-117119400D03*
%TD*%
D20*
%TO.C,Sec6*%
X158300000Y-114150000D03*
%TD*%
D42*
%TO.C,C23*%
X96828000Y-48900000D03*
X96828000Y-40500000D03*
%TD*%
D38*
%TO.C,D1*%
X182412500Y-68800000D03*
X183987500Y-68800000D03*
%TD*%
D16*
%TO.C,U3*%
X176555000Y-42460000D03*
D17*
X176555000Y-45000000D03*
X176555000Y-47540000D03*
%TD*%
D18*
%TO.C,C4*%
X168700000Y-65000000D03*
X160300000Y-65000000D03*
%TD*%
D20*
%TO.C,Sec1*%
X103950000Y-114150000D03*
%TD*%
D43*
%TO.C,F2*%
X85144000Y-39984000D03*
D44*
X85144000Y-43684000D03*
X85144000Y-47984000D03*
X85144000Y-51684000D03*
%TD*%
D45*
%TO.C,D12*%
X74726900Y-69621400D03*
X76876900Y-69621400D03*
%TD*%
D46*
%TO.C,C3*%
X188662200Y-56667400D03*
X197062200Y-56667400D03*
%TD*%
D35*
%TO.C,C30*%
X118087600Y-99098800D03*
X118087600Y-104698800D03*
%TD*%
D20*
%TO.C,Sec8*%
X174150000Y-114150000D03*
%TD*%
D32*
%TO.C,C28*%
X118200000Y-94575000D03*
X118200000Y-93025000D03*
%TD*%
D20*
%TO.C,Sec5*%
X150900000Y-114150000D03*
%TD*%
D42*
%TO.C,C22*%
X110544000Y-48900000D03*
X110544000Y-40500000D03*
%TD*%
D47*
%TO.C,C7*%
X115595400Y-59442000D03*
X115595400Y-53842000D03*
%TD*%
D35*
%TO.C,C26*%
X140687600Y-99098800D03*
X140687600Y-104698800D03*
%TD*%
D34*
%TO.C,TP5*%
X70744100Y-45974000D03*
%TD*%
D37*
%TO.C,J6*%
X172600000Y-83000000D03*
%TD*%
D48*
%TO.C,D2*%
X162500000Y-41000000D03*
X166500000Y-41000000D03*
%TD*%
D28*
%TO.C,R5*%
X61200000Y-81470000D03*
D29*
X61200000Y-91630000D03*
%TD*%
D35*
%TO.C,C29*%
X106787600Y-99098800D03*
X106787600Y-104698800D03*
%TD*%
D49*
%TO.C,L2*%
X151950000Y-45500000D03*
X142050000Y-45500000D03*
%TD*%
D45*
%TO.C,D13*%
X78435300Y-69621400D03*
X80585300Y-69621400D03*
%TD*%
D48*
%TO.C,D3*%
X132250000Y-44650000D03*
X136250000Y-44650000D03*
%TD*%
D50*
%TO.C,D11*%
X182000000Y-87500000D03*
X182000000Y-91500000D03*
%TD*%
D21*
%TO.C,U8*%
X147055000Y-88775850D03*
X145785000Y-88775850D03*
X144515000Y-88775850D03*
X143245000Y-88775850D03*
X143245000Y-94224150D03*
X144515000Y-94224150D03*
X145785000Y-94224150D03*
X147055000Y-94224150D03*
D22*
X145150000Y-91500000D03*
%TD*%
D20*
%TO.C,MotorA1*%
X135550000Y-114150000D03*
%TD*%
D48*
%TO.C,D7*%
X183250000Y-42900000D03*
X187250000Y-42900000D03*
%TD*%
D20*
%TO.C,5VSensors1*%
X51300000Y-98950000D03*
%TD*%
D51*
%TO.C,C20*%
X70423400Y-59385200D03*
X71973400Y-59385200D03*
%TD*%
D42*
%TO.C,C21*%
X124260000Y-48900000D03*
X124260000Y-40500000D03*
%TD*%
D52*
%TO.C,C18*%
X76291400Y-59385200D03*
X74391400Y-59385200D03*
%TD*%
D21*
%TO.C,U1*%
X135726600Y-88775850D03*
X134456600Y-88775850D03*
X133186600Y-88775850D03*
X131916600Y-88775850D03*
X131916600Y-94224150D03*
X133186600Y-94224150D03*
X134456600Y-94224150D03*
X135726600Y-94224150D03*
D22*
X133821600Y-91500000D03*
%TD*%
D53*
%TO.C,F1*%
X184300000Y-100500000D03*
D54*
X188000000Y-100500000D03*
X192300000Y-100500000D03*
X196000000Y-100500000D03*
%TD*%
D39*
%TO.C,C17*%
X56185200Y-70231000D03*
X54635200Y-70231000D03*
%TD*%
D55*
%TO.C,C13*%
X57710200Y-60391800D03*
X57710200Y-58491800D03*
%TD*%
D21*
%TO.C,U10*%
X124398200Y-88775850D03*
X123128200Y-88775850D03*
X121858200Y-88775850D03*
X120588200Y-88775850D03*
X120588200Y-94224150D03*
X121858200Y-94224150D03*
X123128200Y-94224150D03*
X124398200Y-94224150D03*
D22*
X122493200Y-91500000D03*
%TD*%
D48*
%TO.C,D14*%
X192800000Y-108800000D03*
X196800000Y-108800000D03*
%TD*%
D30*
%TO.C,R1*%
X60410200Y-58866800D03*
X60410200Y-60416800D03*
%TD*%
%TO.C,C6*%
X121158000Y-59943400D03*
X121158000Y-61493400D03*
%TD*%
D32*
%TO.C,C5*%
X129286000Y-94475600D03*
X129286000Y-92925600D03*
%TD*%
D56*
%TO.C,U6*%
X59890200Y-62866800D03*
X58620200Y-62866800D03*
X57350200Y-62866800D03*
X56080200Y-62866800D03*
X56080200Y-68266800D03*
X57350200Y-68266800D03*
X58620200Y-68266800D03*
X59890200Y-68266800D03*
%TD*%
%LPD*%
M02*
