%TF.GenerationSoftware,KiCad,Pcbnew,8.0.6*%
%TF.CreationDate,2024-11-17T15:14:54-07:00*%
%TF.ProjectId,SRX160,53525831-3630-42e6-9b69-6361645f7063,rev?*%
%TF.SameCoordinates,Original*%
%TF.FileFunction,Copper,L2,Bot*%
%TF.FilePolarity,Positive*%
%FSLAX46Y46*%
G04 Gerber Fmt 4.6, Leading zero omitted, Abs format (unit mm)*
G04 Created by KiCad (PCBNEW 8.0.6) date 2024-11-17 15:14:54*
%MOMM*%
%LPD*%
G01*
G04 APERTURE LIST*
%TA.AperFunction,ComponentPad*%
%ADD10R,2.000000X1.905000*%
%TD*%
%TA.AperFunction,ComponentPad*%
%ADD11O,2.000000X1.905000*%
%TD*%
%TA.AperFunction,ComponentPad*%
%ADD12C,9.200000*%
%TD*%
%TA.AperFunction,ComponentPad*%
%ADD13C,5.000000*%
%TD*%
%TA.AperFunction,ComponentPad*%
%ADD14C,2.000000*%
%TD*%
%TA.AperFunction,ComponentPad*%
%ADD15C,1.600000*%
%TD*%
%TA.AperFunction,ComponentPad*%
%ADD16O,1.600000X1.600000*%
%TD*%
%TA.AperFunction,ComponentPad*%
%ADD17R,1.600000X1.600000*%
%TD*%
%TA.AperFunction,ComponentPad*%
%ADD18C,2.500000*%
%TD*%
%TA.AperFunction,ComponentPad*%
%ADD19C,9.000000*%
%TD*%
%TA.AperFunction,ComponentPad*%
%ADD20R,1.905000X2.000000*%
%TD*%
%TA.AperFunction,ComponentPad*%
%ADD21O,1.905000X2.000000*%
%TD*%
%TA.AperFunction,ComponentPad*%
%ADD22R,3.000000X2.000000*%
%TD*%
%TA.AperFunction,ComponentPad*%
%ADD23O,3.000000X2.000000*%
%TD*%
%TA.AperFunction,ComponentPad*%
%ADD24R,2.000000X3.000000*%
%TD*%
%TA.AperFunction,ComponentPad*%
%ADD25O,2.000000X3.000000*%
%TD*%
%TA.AperFunction,ViaPad*%
%ADD26C,2.000000*%
%TD*%
%TA.AperFunction,ViaPad*%
%ADD27C,0.800000*%
%TD*%
%TA.AperFunction,Conductor*%
%ADD28C,2.032000*%
%TD*%
%TA.AperFunction,Conductor*%
%ADD29C,3.000000*%
%TD*%
%TA.AperFunction,Conductor*%
%ADD30C,1.016000*%
%TD*%
G04 APERTURE END LIST*
D10*
%TO.P,U2,1,VI*%
%TO.N,Net-(U2-VI)*%
X176555000Y-59960000D03*
D11*
%TO.P,U2,2,GND*%
%TO.N,GND*%
X176555000Y-62500000D03*
%TO.P,U2,3,VO*%
%TO.N,+5V*%
X176555000Y-65040000D03*
%TD*%
D12*
%TO.P,H2,1*%
%TO.N,N/C*%
X40690800Y-40843200D03*
%TD*%
D13*
%TO.P,FlowPin1,1,1*%
%TO.N,FlowSensor*%
X61200000Y-98950000D03*
%TD*%
D14*
%TO.P,RV3,1,1*%
%TO.N,Net-(U6B--)*%
X55187200Y-52628000D03*
%TO.P,RV3,2,2*%
X57687200Y-52628000D03*
%TO.P,RV3,3,3*%
%TO.N,Net-(U6A-+)*%
X60187200Y-52628000D03*
%TD*%
D13*
%TO.P,Sec7,1,1*%
%TO.N,S7*%
X166800000Y-114150000D03*
%TD*%
D14*
%TO.P,RV4,1,1*%
%TO.N,Net-(U7A-+)*%
X74875100Y-52578000D03*
%TO.P,RV4,2,2*%
%TO.N,Net-(U7B--)*%
X72375100Y-52578000D03*
%TO.P,RV4,3,3*%
X69875100Y-52578000D03*
%TD*%
D13*
%TO.P,MotorB1,1,1*%
%TO.N,M1B*%
X143100000Y-114150000D03*
%TD*%
D15*
%TO.P,R2,1*%
%TO.N,+5VA*%
X51770000Y-77300000D03*
D16*
%TO.P,R2,2*%
%TO.N,Net-(D10-K)*%
X61930000Y-77300000D03*
%TD*%
D12*
%TO.P,H3,1*%
%TO.N,N/C*%
X40208200Y-117043200D03*
%TD*%
D13*
%TO.P,GndSensor1,1,1*%
%TO.N,GND*%
X81200000Y-98875000D03*
%TD*%
%TO.P,Sec4,1,1*%
%TO.N,S4*%
X127600000Y-114150000D03*
%TD*%
%TO.P,Pressure1,1,1*%
%TO.N,PressureSensor*%
X71550000Y-98950000D03*
%TD*%
D12*
%TO.P,H1,1*%
%TO.N,N/C*%
X198196200Y-40894000D03*
%TD*%
D17*
%TO.P,A1,1,D1/TX*%
%TO.N,unconnected-(A1-D1{slash}TX-Pad1)*%
X107950000Y-79593600D03*
D16*
%TO.P,A1,2,D0/RX*%
%TO.N,unconnected-(A1-D0{slash}RX-Pad2)*%
X110490000Y-79593600D03*
%TO.P,A1,3,~{RESET}*%
%TO.N,unconnected-(A1-~{RESET}-Pad3)*%
X113030000Y-79593600D03*
%TO.P,A1,4,GND*%
%TO.N,GND*%
X115570000Y-79593600D03*
%TO.P,A1,5,D2*%
%TO.N,FlowPin*%
X118110000Y-79593600D03*
%TO.P,A1,6,D3*%
%TO.N,unconnected-(A1-D3-Pad6)*%
X120650000Y-79593600D03*
%TO.P,A1,7,D4*%
%TO.N,unconnected-(A1-D4-Pad7)*%
X123190000Y-79593600D03*
%TO.P,A1,8,D5*%
%TO.N,Net-(A1-D5)*%
X125730000Y-79593600D03*
%TO.P,A1,9,D6*%
%TO.N,Net-(A1-D6)*%
X128270000Y-79593600D03*
%TO.P,A1,10,D7*%
%TO.N,Net-(A1-D7)*%
X130810000Y-79593600D03*
%TO.P,A1,11,D8*%
%TO.N,Net-(A1-D8)*%
X133350000Y-79593600D03*
%TO.P,A1,12,D9*%
%TO.N,Net-(A1-D9)*%
X135890000Y-79593600D03*
%TO.P,A1,13,D10*%
%TO.N,Net-(A1-D10)*%
X138430000Y-79593600D03*
%TO.P,A1,14,D11*%
%TO.N,Net-(A1-D11)*%
X140970000Y-79593600D03*
%TO.P,A1,15,D12*%
%TO.N,Net-(A1-D12)*%
X143510000Y-79593600D03*
%TO.P,A1,16,D13*%
%TO.N,unconnected-(A1-D13-Pad16)*%
X143510000Y-64353600D03*
%TO.P,A1,17,3V3*%
%TO.N,unconnected-(A1-3V3-Pad17)*%
X140970000Y-64353600D03*
%TO.P,A1,18,AREF*%
%TO.N,unconnected-(A1-AREF-Pad18)*%
X138430000Y-64353600D03*
%TO.P,A1,19,A0*%
%TO.N,PressurePin*%
X135890000Y-64353600D03*
%TO.P,A1,20,A1*%
%TO.N,unconnected-(A1-A1-Pad20)*%
X133350000Y-64353600D03*
%TO.P,A1,21,A2*%
%TO.N,unconnected-(A1-A2-Pad21)*%
X130810000Y-64353600D03*
%TO.P,A1,22,A3*%
%TO.N,unconnected-(A1-A3-Pad22)*%
X128270000Y-64353600D03*
%TO.P,A1,23,A4*%
%TO.N,unconnected-(A1-A4-Pad23)*%
X125730000Y-64353600D03*
%TO.P,A1,24,A5*%
%TO.N,unconnected-(A1-A5-Pad24)*%
X123190000Y-64353600D03*
%TO.P,A1,25,A6*%
%TO.N,unconnected-(A1-A6-Pad25)*%
X120650000Y-64353600D03*
%TO.P,A1,26,A7*%
%TO.N,unconnected-(A1-A7-Pad26)*%
X118110000Y-64353600D03*
%TO.P,A1,27,+5V*%
%TO.N,+5V*%
X115570000Y-64353600D03*
%TO.P,A1,28,~{RESET}*%
%TO.N,unconnected-(A1-~{RESET}-Pad28)*%
X113030000Y-64353600D03*
%TO.P,A1,29,GND*%
%TO.N,GND*%
X110490000Y-64353600D03*
%TO.P,A1,30,VIN*%
%TO.N,unconnected-(A1-VIN-Pad30)*%
X107950000Y-64353600D03*
%TD*%
D18*
%TO.P,TP6,1,1*%
%TO.N,Net-(U7A-+)*%
X75443100Y-46101000D03*
%TD*%
D19*
%TO.P,J5,1,Pin_1*%
%TO.N,Net-(J5-Pin_1)*%
X192300000Y-90000000D03*
%TD*%
D18*
%TO.P,TP8,1,1*%
%TO.N,Net-(U6A-+)*%
X61704200Y-45847000D03*
%TD*%
%TO.P,TP7,1,1*%
%TO.N,Net-(U6B--)*%
X55989200Y-45847000D03*
%TD*%
D20*
%TO.P,U5,1,VI*%
%TO.N,Net-(D3-K)*%
X100384000Y-55876000D03*
D21*
%TO.P,U5,2,GND*%
%TO.N,GND*%
X97844000Y-55876000D03*
%TO.P,U5,3,VO*%
%TO.N,Net-(U5-VO)*%
X95304000Y-55876000D03*
%TD*%
D13*
%TO.P,Sec3,1,1*%
%TO.N,S3*%
X119700000Y-114150000D03*
%TD*%
%TO.P,Sec2,1,1*%
%TO.N,S2*%
X111900000Y-114150000D03*
%TD*%
D12*
%TO.P,H4,1*%
%TO.N,N/C*%
X197840600Y-117119400D03*
%TD*%
D13*
%TO.P,Sec6,1,1*%
%TO.N,S6*%
X158300000Y-114150000D03*
%TD*%
D10*
%TO.P,U3,1,VI*%
%TO.N,Net-(D2-A)*%
X176555000Y-42460000D03*
D11*
%TO.P,U3,2,GND*%
%TO.N,GND*%
X176555000Y-45000000D03*
%TO.P,U3,3,VO*%
%TO.N,Net-(U2-VI)*%
X176555000Y-47540000D03*
%TD*%
D13*
%TO.P,Sec1,1,1*%
%TO.N,S1*%
X103950000Y-114150000D03*
%TD*%
D22*
%TO.P,F2,1*%
%TO.N,+5VA*%
X85144000Y-39984000D03*
D23*
X85144000Y-43684000D03*
%TO.P,F2,2*%
%TO.N,Net-(U5-VO)*%
X85144000Y-47984000D03*
X85144000Y-51684000D03*
%TD*%
D13*
%TO.P,Sec8,1,1*%
%TO.N,S8*%
X174150000Y-114150000D03*
%TD*%
%TO.P,Sec5,1,1*%
%TO.N,S5*%
X150900000Y-114150000D03*
%TD*%
D18*
%TO.P,TP5,1,1*%
%TO.N,Net-(U7B--)*%
X70744100Y-45974000D03*
%TD*%
D19*
%TO.P,J6,1,Pin_1*%
%TO.N,GND*%
X172600000Y-83000000D03*
%TD*%
D15*
%TO.P,R5,1*%
%TO.N,Net-(D10-K)*%
X61200000Y-81470000D03*
D16*
%TO.P,R5,2*%
%TO.N,FlowSensor*%
X61200000Y-91630000D03*
%TD*%
D13*
%TO.P,MotorA1,1,1*%
%TO.N,M1A*%
X135550000Y-114150000D03*
%TD*%
%TO.P,5VSensors1,1,1*%
%TO.N,+5VA*%
X51300000Y-98950000D03*
%TD*%
D24*
%TO.P,F1,1*%
%TO.N,+12V*%
X184300000Y-100500000D03*
D25*
X188000000Y-100500000D03*
%TO.P,F1,2*%
%TO.N,Net-(J5-Pin_1)*%
X192300000Y-100500000D03*
X196000000Y-100500000D03*
%TD*%
D26*
%TO.N,GND*%
X173700000Y-45000000D03*
D27*
X133800000Y-91600000D03*
X150350000Y-89850000D03*
X188650000Y-36800000D03*
X140300000Y-120550000D03*
X84550000Y-58600000D03*
X145150000Y-91500000D03*
X143921600Y-90600000D03*
X67950000Y-42550000D03*
X129565400Y-107365800D03*
X74700000Y-55100000D03*
X86250000Y-98900000D03*
X178714400Y-83108800D03*
X164450000Y-46200000D03*
D26*
X173700000Y-62500000D03*
D27*
X122500000Y-91600000D03*
X62700000Y-64600000D03*
X115150000Y-70950000D03*
X147050000Y-49000000D03*
X143971600Y-92300000D03*
X123671600Y-90700000D03*
X41700000Y-104850000D03*
X123621600Y-92300000D03*
D26*
X160050000Y-68350000D03*
D27*
X73200000Y-36950000D03*
X121371600Y-92300000D03*
X89050000Y-118650000D03*
X68250000Y-68200000D03*
X70450000Y-55100000D03*
X109971600Y-90650000D03*
X146271600Y-92200000D03*
X99368000Y-40636000D03*
X76150000Y-98950000D03*
X79800000Y-61500000D03*
X146421600Y-90650000D03*
X112321600Y-90650000D03*
X172542200Y-76606400D03*
X134482567Y-95759032D03*
X129550000Y-54400000D03*
X81250000Y-105150000D03*
X65400000Y-116550000D03*
X172593000Y-89357200D03*
X105212800Y-106273600D03*
X136300000Y-36950000D03*
X132621600Y-90700000D03*
X72650000Y-64600000D03*
X41650000Y-77150000D03*
X54250000Y-67450000D03*
X99050000Y-115000000D03*
X137200000Y-76350000D03*
X111150000Y-91550000D03*
X107700000Y-60850000D03*
X88950000Y-86300000D03*
X74050000Y-68050000D03*
X120704000Y-40636000D03*
X113592000Y-40636000D03*
X201400000Y-79200000D03*
X132671600Y-92300000D03*
D26*
X160050000Y-53450000D03*
D27*
X123297419Y-95644670D03*
X134921600Y-92300000D03*
X111961800Y-95681800D03*
X63100000Y-42550000D03*
X201950000Y-108450000D03*
X142087600Y-107696000D03*
X134836600Y-41205000D03*
X83000000Y-46000000D03*
X166217600Y-83108800D03*
X73550000Y-61350000D03*
D26*
X200700000Y-56600000D03*
D27*
X189750000Y-120550000D03*
X54050000Y-43600000D03*
X134971600Y-90700000D03*
X145785000Y-95772400D03*
X81200000Y-93650000D03*
X49750000Y-43600000D03*
X177150000Y-105150000D03*
X118237000Y-107467400D03*
X121321600Y-90700000D03*
X112271600Y-92250000D03*
X99150000Y-86300000D03*
X41900000Y-49400000D03*
X139700000Y-89700000D03*
X67800000Y-63750000D03*
X97844000Y-53336000D03*
X116900000Y-89650000D03*
X110021600Y-92250000D03*
X127900000Y-89650000D03*
%TO.N,+5V*%
X120600000Y-86131400D03*
X143250000Y-86106000D03*
X153492200Y-86106000D03*
X168700000Y-70950000D03*
X109250000Y-86309200D03*
X131900000Y-86105400D03*
%TO.N,+12V*%
X182000000Y-98200000D03*
D26*
X109143800Y-98272600D03*
X120726200Y-98374200D03*
X131800600Y-98374200D03*
X143129000Y-98298000D03*
D27*
%TO.N,FlowPin*%
X62179200Y-57277000D03*
X78359000Y-56616600D03*
%TO.N,PressurePin*%
X81483200Y-63779400D03*
X132359400Y-67437000D03*
%TD*%
D28*
%TO.N,+5V*%
X109250000Y-86309200D02*
X109935800Y-85623400D01*
X154026600Y-85623400D02*
X168700000Y-70950000D01*
X109935800Y-85623400D02*
X154026600Y-85623400D01*
D29*
%TO.N,+12V*%
X106752600Y-98200000D02*
X182000000Y-98200000D01*
D30*
%TO.N,FlowPin*%
X62839600Y-56616600D02*
X62179200Y-57277000D01*
X78359000Y-56616600D02*
X62839600Y-56616600D01*
%TO.N,PressurePin*%
X132359400Y-67437000D02*
X132308600Y-67386200D01*
X101600000Y-63779400D02*
X81483200Y-63779400D01*
X105206800Y-67386200D02*
X101600000Y-63779400D01*
X132308600Y-67386200D02*
X105206800Y-67386200D01*
%TD*%
%TA.AperFunction,Conductor*%
%TO.N,GND*%
G36*
X203215931Y-34310002D02*
G01*
X203236905Y-34326905D01*
X204433095Y-35523095D01*
X204467121Y-35585407D01*
X204470000Y-35612190D01*
X204470000Y-121867810D01*
X204449998Y-121935931D01*
X204433095Y-121956905D01*
X203236905Y-123153095D01*
X203174593Y-123187121D01*
X203147810Y-123190000D01*
X97229627Y-123190000D01*
X97161506Y-123169998D01*
X97115013Y-123116342D01*
X97103627Y-123064054D01*
X97103232Y-122137109D01*
X97099832Y-114150000D01*
X100936401Y-114150000D01*
X100956777Y-114499846D01*
X100956777Y-114499852D01*
X100956778Y-114499857D01*
X101017633Y-114844984D01*
X101118143Y-115180712D01*
X101256950Y-115502501D01*
X101432175Y-115806000D01*
X101641449Y-116087104D01*
X101881943Y-116342012D01*
X101881948Y-116342016D01*
X101881954Y-116342022D01*
X102150396Y-116567273D01*
X102150400Y-116567276D01*
X102150403Y-116567278D01*
X102443200Y-116759853D01*
X102756374Y-116917135D01*
X102921032Y-116977065D01*
X103085681Y-117036993D01*
X103085682Y-117036993D01*
X103085690Y-117036996D01*
X103426694Y-117117816D01*
X103625597Y-117141064D01*
X103774772Y-117158500D01*
X103774775Y-117158500D01*
X104125228Y-117158500D01*
X104255755Y-117143243D01*
X104473306Y-117117816D01*
X104814310Y-117036996D01*
X105143626Y-116917135D01*
X105456800Y-116759853D01*
X105749597Y-116567278D01*
X106018057Y-116342012D01*
X106258551Y-116087104D01*
X106467825Y-115806000D01*
X106643050Y-115502501D01*
X106781857Y-115180712D01*
X106882367Y-114844984D01*
X106943222Y-114499857D01*
X106963599Y-114150000D01*
X108886401Y-114150000D01*
X108906777Y-114499846D01*
X108906777Y-114499852D01*
X108906778Y-114499857D01*
X108967633Y-114844984D01*
X109068143Y-115180712D01*
X109206950Y-115502501D01*
X109382175Y-115806000D01*
X109591449Y-116087104D01*
X109831943Y-116342012D01*
X109831948Y-116342016D01*
X109831954Y-116342022D01*
X110100396Y-116567273D01*
X110100400Y-116567276D01*
X110100403Y-116567278D01*
X110393200Y-116759853D01*
X110706374Y-116917135D01*
X110871032Y-116977065D01*
X111035681Y-117036993D01*
X111035682Y-117036993D01*
X111035690Y-117036996D01*
X111376694Y-117117816D01*
X111575597Y-117141064D01*
X111724772Y-117158500D01*
X111724775Y-117158500D01*
X112075228Y-117158500D01*
X112205755Y-117143243D01*
X112423306Y-117117816D01*
X112764310Y-117036996D01*
X113093626Y-116917135D01*
X113406800Y-116759853D01*
X113699597Y-116567278D01*
X113968057Y-116342012D01*
X114208551Y-116087104D01*
X114417825Y-115806000D01*
X114593050Y-115502501D01*
X114731857Y-115180712D01*
X114832367Y-114844984D01*
X114893222Y-114499857D01*
X114913599Y-114150000D01*
X116686401Y-114150000D01*
X116706777Y-114499846D01*
X116706777Y-114499852D01*
X116706778Y-114499857D01*
X116767633Y-114844984D01*
X116868143Y-115180712D01*
X117006950Y-115502501D01*
X117182175Y-115806000D01*
X117391449Y-116087104D01*
X117631943Y-116342012D01*
X117631948Y-116342016D01*
X117631954Y-116342022D01*
X117900396Y-116567273D01*
X117900400Y-116567276D01*
X117900403Y-116567278D01*
X118193200Y-116759853D01*
X118506374Y-116917135D01*
X118671032Y-116977065D01*
X118835681Y-117036993D01*
X118835682Y-117036993D01*
X118835690Y-117036996D01*
X119176694Y-117117816D01*
X119375597Y-117141064D01*
X119524772Y-117158500D01*
X119524775Y-117158500D01*
X119875228Y-117158500D01*
X120005755Y-117143243D01*
X120223306Y-117117816D01*
X120564310Y-117036996D01*
X120893626Y-116917135D01*
X121206800Y-116759853D01*
X121499597Y-116567278D01*
X121768057Y-116342012D01*
X122008551Y-116087104D01*
X122217825Y-115806000D01*
X122393050Y-115502501D01*
X122531857Y-115180712D01*
X122632367Y-114844984D01*
X122693222Y-114499857D01*
X122713599Y-114150000D01*
X124586401Y-114150000D01*
X124606777Y-114499846D01*
X124606777Y-114499852D01*
X124606778Y-114499857D01*
X124667633Y-114844984D01*
X124768143Y-115180712D01*
X124906950Y-115502501D01*
X125082175Y-115806000D01*
X125291449Y-116087104D01*
X125531943Y-116342012D01*
X125531948Y-116342016D01*
X125531954Y-116342022D01*
X125800396Y-116567273D01*
X125800400Y-116567276D01*
X125800403Y-116567278D01*
X126093200Y-116759853D01*
X126406374Y-116917135D01*
X126571032Y-116977065D01*
X126735681Y-117036993D01*
X126735682Y-117036993D01*
X126735690Y-117036996D01*
X127076694Y-117117816D01*
X127275597Y-117141064D01*
X127424772Y-117158500D01*
X127424775Y-117158500D01*
X127775228Y-117158500D01*
X127905755Y-117143243D01*
X128123306Y-117117816D01*
X128464310Y-117036996D01*
X128793626Y-116917135D01*
X129106800Y-116759853D01*
X129399597Y-116567278D01*
X129668057Y-116342012D01*
X129908551Y-116087104D01*
X130117825Y-115806000D01*
X130293050Y-115502501D01*
X130431857Y-115180712D01*
X130532367Y-114844984D01*
X130593222Y-114499857D01*
X130613599Y-114150000D01*
X132536401Y-114150000D01*
X132556777Y-114499846D01*
X132556777Y-114499852D01*
X132556778Y-114499857D01*
X132617633Y-114844984D01*
X132718143Y-115180712D01*
X132856950Y-115502501D01*
X133032175Y-115806000D01*
X133241449Y-116087104D01*
X133481943Y-116342012D01*
X133481948Y-116342016D01*
X133481954Y-116342022D01*
X133750396Y-116567273D01*
X133750400Y-116567276D01*
X133750403Y-116567278D01*
X134043200Y-116759853D01*
X134356374Y-116917135D01*
X134521032Y-116977065D01*
X134685681Y-117036993D01*
X134685682Y-117036993D01*
X134685690Y-117036996D01*
X135026694Y-117117816D01*
X135225597Y-117141064D01*
X135374772Y-117158500D01*
X135374775Y-117158500D01*
X135725228Y-117158500D01*
X135855755Y-117143243D01*
X136073306Y-117117816D01*
X136414310Y-117036996D01*
X136743626Y-116917135D01*
X137056800Y-116759853D01*
X137349597Y-116567278D01*
X137618057Y-116342012D01*
X137858551Y-116087104D01*
X138067825Y-115806000D01*
X138243050Y-115502501D01*
X138381857Y-115180712D01*
X138482367Y-114844984D01*
X138543222Y-114499857D01*
X138563599Y-114150000D01*
X140086401Y-114150000D01*
X140106777Y-114499846D01*
X140106777Y-114499852D01*
X140106778Y-114499857D01*
X140167633Y-114844984D01*
X140268143Y-115180712D01*
X140406950Y-115502501D01*
X140582175Y-115806000D01*
X140791449Y-116087104D01*
X141031943Y-116342012D01*
X141031948Y-116342016D01*
X141031954Y-116342022D01*
X141300396Y-116567273D01*
X141300400Y-116567276D01*
X141300403Y-116567278D01*
X141593200Y-116759853D01*
X141906374Y-116917135D01*
X142071032Y-116977065D01*
X142235681Y-117036993D01*
X142235682Y-117036993D01*
X142235690Y-117036996D01*
X142576694Y-117117816D01*
X142775597Y-117141064D01*
X142924772Y-117158500D01*
X142924775Y-117158500D01*
X143275228Y-117158500D01*
X143405755Y-117143243D01*
X143623306Y-117117816D01*
X143964310Y-117036996D01*
X144293626Y-116917135D01*
X144606800Y-116759853D01*
X144899597Y-116567278D01*
X145168057Y-116342012D01*
X145408551Y-116087104D01*
X145617825Y-115806000D01*
X145793050Y-115502501D01*
X145931857Y-115180712D01*
X146032367Y-114844984D01*
X146093222Y-114499857D01*
X146113599Y-114150000D01*
X147886401Y-114150000D01*
X147906777Y-114499846D01*
X147906777Y-114499852D01*
X147906778Y-114499857D01*
X147967633Y-114844984D01*
X148068143Y-115180712D01*
X148206950Y-115502501D01*
X148382175Y-115806000D01*
X148591449Y-116087104D01*
X148831943Y-116342012D01*
X148831948Y-116342016D01*
X148831954Y-116342022D01*
X149100396Y-116567273D01*
X149100400Y-116567276D01*
X149100403Y-116567278D01*
X149393200Y-116759853D01*
X149706374Y-116917135D01*
X149871032Y-116977065D01*
X150035681Y-117036993D01*
X150035682Y-117036993D01*
X150035690Y-117036996D01*
X150376694Y-117117816D01*
X150575597Y-117141064D01*
X150724772Y-117158500D01*
X150724775Y-117158500D01*
X151075228Y-117158500D01*
X151205755Y-117143243D01*
X151423306Y-117117816D01*
X151764310Y-117036996D01*
X152093626Y-116917135D01*
X152406800Y-116759853D01*
X152699597Y-116567278D01*
X152968057Y-116342012D01*
X153208551Y-116087104D01*
X153417825Y-115806000D01*
X153593050Y-115502501D01*
X153731857Y-115180712D01*
X153832367Y-114844984D01*
X153893222Y-114499857D01*
X153913599Y-114150000D01*
X155286401Y-114150000D01*
X155306777Y-114499846D01*
X155306777Y-114499852D01*
X155306778Y-114499857D01*
X155367633Y-114844984D01*
X155468143Y-115180712D01*
X155606950Y-115502501D01*
X155782175Y-115806000D01*
X155991449Y-116087104D01*
X156231943Y-116342012D01*
X156231948Y-116342016D01*
X156231954Y-116342022D01*
X156500396Y-116567273D01*
X156500400Y-116567276D01*
X156500403Y-116567278D01*
X156793200Y-116759853D01*
X157106374Y-116917135D01*
X157271032Y-116977065D01*
X157435681Y-117036993D01*
X157435682Y-117036993D01*
X157435690Y-117036996D01*
X157776694Y-117117816D01*
X157975597Y-117141064D01*
X158124772Y-117158500D01*
X158124775Y-117158500D01*
X158475228Y-117158500D01*
X158605755Y-117143243D01*
X158823306Y-117117816D01*
X159164310Y-117036996D01*
X159493626Y-116917135D01*
X159806800Y-116759853D01*
X160099597Y-116567278D01*
X160368057Y-116342012D01*
X160608551Y-116087104D01*
X160817825Y-115806000D01*
X160993050Y-115502501D01*
X161131857Y-115180712D01*
X161232367Y-114844984D01*
X161293222Y-114499857D01*
X161313599Y-114150000D01*
X163786401Y-114150000D01*
X163806777Y-114499846D01*
X163806777Y-114499852D01*
X163806778Y-114499857D01*
X163867633Y-114844984D01*
X163968143Y-115180712D01*
X164106950Y-115502501D01*
X164282175Y-115806000D01*
X164491449Y-116087104D01*
X164731943Y-116342012D01*
X164731948Y-116342016D01*
X164731954Y-116342022D01*
X165000396Y-116567273D01*
X165000400Y-116567276D01*
X165000403Y-116567278D01*
X165293200Y-116759853D01*
X165606374Y-116917135D01*
X165771032Y-116977065D01*
X165935681Y-117036993D01*
X165935682Y-117036993D01*
X165935690Y-117036996D01*
X166276694Y-117117816D01*
X166475597Y-117141064D01*
X166624772Y-117158500D01*
X166624775Y-117158500D01*
X166975228Y-117158500D01*
X167105755Y-117143243D01*
X167323306Y-117117816D01*
X167664310Y-117036996D01*
X167993626Y-116917135D01*
X168306800Y-116759853D01*
X168599597Y-116567278D01*
X168868057Y-116342012D01*
X169108551Y-116087104D01*
X169317825Y-115806000D01*
X169493050Y-115502501D01*
X169631857Y-115180712D01*
X169732367Y-114844984D01*
X169793222Y-114499857D01*
X169813599Y-114150000D01*
X171136401Y-114150000D01*
X171156777Y-114499846D01*
X171156777Y-114499852D01*
X171156778Y-114499857D01*
X171217633Y-114844984D01*
X171318143Y-115180712D01*
X171456950Y-115502501D01*
X171632175Y-115806000D01*
X171841449Y-116087104D01*
X172081943Y-116342012D01*
X172081948Y-116342016D01*
X172081954Y-116342022D01*
X172350396Y-116567273D01*
X172350400Y-116567276D01*
X172350403Y-116567278D01*
X172643200Y-116759853D01*
X172956374Y-116917135D01*
X173121032Y-116977065D01*
X173285681Y-117036993D01*
X173285682Y-117036993D01*
X173285690Y-117036996D01*
X173626694Y-117117816D01*
X173825597Y-117141064D01*
X173974772Y-117158500D01*
X173974775Y-117158500D01*
X174325228Y-117158500D01*
X174455755Y-117143243D01*
X174659771Y-117119398D01*
X192727233Y-117119398D01*
X192727233Y-117119401D01*
X192746691Y-117565060D01*
X192746691Y-117565063D01*
X192804916Y-118007322D01*
X192804918Y-118007332D01*
X192901463Y-118442822D01*
X192901472Y-118442856D01*
X193035600Y-118868255D01*
X193035608Y-118868277D01*
X193206312Y-119280394D01*
X193412297Y-119676089D01*
X193412300Y-119676095D01*
X193651972Y-120052304D01*
X193651977Y-120052310D01*
X193923518Y-120406189D01*
X193923525Y-120406197D01*
X193923534Y-120406209D01*
X194224904Y-120735096D01*
X194553791Y-121036466D01*
X194553804Y-121036476D01*
X194553810Y-121036481D01*
X194907689Y-121308022D01*
X194907695Y-121308027D01*
X195283904Y-121547699D01*
X195283908Y-121547701D01*
X195283916Y-121547706D01*
X195679598Y-121753684D01*
X196091725Y-121924393D01*
X196091743Y-121924398D01*
X196091744Y-121924399D01*
X196517143Y-122058527D01*
X196517149Y-122058528D01*
X196517163Y-122058533D01*
X196952673Y-122155083D01*
X197394941Y-122213309D01*
X197818208Y-122231789D01*
X197840599Y-122232767D01*
X197840600Y-122232767D01*
X197840601Y-122232767D01*
X197860059Y-122231917D01*
X198286259Y-122213309D01*
X198728527Y-122155083D01*
X199164037Y-122058533D01*
X199589475Y-121924393D01*
X200001602Y-121753684D01*
X200397284Y-121547706D01*
X200773507Y-121308025D01*
X201127409Y-121036466D01*
X201456296Y-120735096D01*
X201757666Y-120406209D01*
X202029225Y-120052307D01*
X202268906Y-119676084D01*
X202474884Y-119280402D01*
X202645593Y-118868275D01*
X202779733Y-118442837D01*
X202876283Y-118007327D01*
X202934509Y-117565059D01*
X202953967Y-117119400D01*
X202934509Y-116673741D01*
X202876283Y-116231473D01*
X202779733Y-115795963D01*
X202755707Y-115719763D01*
X202645599Y-115370544D01*
X202645598Y-115370543D01*
X202645593Y-115370525D01*
X202474884Y-114958398D01*
X202474881Y-114958390D01*
X202268913Y-114562729D01*
X202268899Y-114562705D01*
X202029227Y-114186495D01*
X202029222Y-114186489D01*
X201757681Y-113832610D01*
X201757676Y-113832604D01*
X201757666Y-113832591D01*
X201456296Y-113503704D01*
X201127409Y-113202334D01*
X201127397Y-113202325D01*
X201127389Y-113202318D01*
X200773510Y-112930777D01*
X200773504Y-112930772D01*
X200397295Y-112691100D01*
X200397289Y-112691097D01*
X200397287Y-112691096D01*
X200397284Y-112691094D01*
X200001602Y-112485116D01*
X200001600Y-112485115D01*
X200001594Y-112485112D01*
X199589477Y-112314408D01*
X199589475Y-112314407D01*
X199589469Y-112314405D01*
X199589455Y-112314400D01*
X199164056Y-112180272D01*
X199164022Y-112180263D01*
X198728532Y-112083718D01*
X198728522Y-112083716D01*
X198286262Y-112025491D01*
X197840601Y-112006033D01*
X197840599Y-112006033D01*
X197394939Y-112025491D01*
X197394936Y-112025491D01*
X196952677Y-112083716D01*
X196952667Y-112083718D01*
X196517177Y-112180263D01*
X196517143Y-112180272D01*
X196091744Y-112314400D01*
X196091722Y-112314408D01*
X195679590Y-112485118D01*
X195283929Y-112691086D01*
X195283905Y-112691100D01*
X194907695Y-112930772D01*
X194907689Y-112930777D01*
X194553810Y-113202318D01*
X194553784Y-113202340D01*
X194224904Y-113503704D01*
X193923540Y-113832584D01*
X193923518Y-113832610D01*
X193651977Y-114186489D01*
X193651972Y-114186495D01*
X193412300Y-114562705D01*
X193412286Y-114562729D01*
X193206318Y-114958390D01*
X193035608Y-115370522D01*
X193035600Y-115370544D01*
X192901472Y-115795943D01*
X192901463Y-115795977D01*
X192804918Y-116231467D01*
X192804916Y-116231477D01*
X192746691Y-116673736D01*
X192746691Y-116673739D01*
X192727233Y-117119398D01*
X174659771Y-117119398D01*
X174673306Y-117117816D01*
X175014310Y-117036996D01*
X175343626Y-116917135D01*
X175656800Y-116759853D01*
X175949597Y-116567278D01*
X176218057Y-116342012D01*
X176458551Y-116087104D01*
X176667825Y-115806000D01*
X176843050Y-115502501D01*
X176981857Y-115180712D01*
X177082367Y-114844984D01*
X177143222Y-114499857D01*
X177163599Y-114150000D01*
X177143222Y-113800143D01*
X177082367Y-113455016D01*
X176981857Y-113119288D01*
X176843050Y-112797499D01*
X176667825Y-112494000D01*
X176458551Y-112212896D01*
X176218057Y-111957988D01*
X176218050Y-111957982D01*
X176218045Y-111957977D01*
X175949603Y-111732726D01*
X175949597Y-111732722D01*
X175656800Y-111540147D01*
X175343626Y-111382865D01*
X175343621Y-111382863D01*
X175343616Y-111382861D01*
X175014318Y-111263006D01*
X175014313Y-111263005D01*
X175014312Y-111263004D01*
X175014310Y-111263004D01*
X174826961Y-111218601D01*
X174673307Y-111182184D01*
X174673301Y-111182183D01*
X174325228Y-111141500D01*
X174325225Y-111141500D01*
X173974775Y-111141500D01*
X173974772Y-111141500D01*
X173626698Y-111182183D01*
X173626692Y-111182184D01*
X173285686Y-111263005D01*
X173285681Y-111263006D01*
X172956383Y-111382861D01*
X172956378Y-111382863D01*
X172643198Y-111540148D01*
X172350396Y-111732726D01*
X172081954Y-111957977D01*
X172081948Y-111957983D01*
X171841450Y-112212894D01*
X171632178Y-112493995D01*
X171632168Y-112494011D01*
X171456953Y-112797493D01*
X171456944Y-112797511D01*
X171318146Y-113119280D01*
X171318143Y-113119288D01*
X171316092Y-113126140D01*
X171217633Y-113455015D01*
X171156777Y-113800147D01*
X171156777Y-113800153D01*
X171136401Y-114150000D01*
X169813599Y-114150000D01*
X169793222Y-113800143D01*
X169732367Y-113455016D01*
X169631857Y-113119288D01*
X169493050Y-112797499D01*
X169317825Y-112494000D01*
X169108551Y-112212896D01*
X168868057Y-111957988D01*
X168868050Y-111957982D01*
X168868045Y-111957977D01*
X168599603Y-111732726D01*
X168599597Y-111732722D01*
X168306800Y-111540147D01*
X167993626Y-111382865D01*
X167993621Y-111382863D01*
X167993616Y-111382861D01*
X167664318Y-111263006D01*
X167664313Y-111263005D01*
X167664312Y-111263004D01*
X167664310Y-111263004D01*
X167476961Y-111218601D01*
X167323307Y-111182184D01*
X167323301Y-111182183D01*
X166975228Y-111141500D01*
X166975225Y-111141500D01*
X166624775Y-111141500D01*
X166624772Y-111141500D01*
X166276698Y-111182183D01*
X166276692Y-111182184D01*
X165935686Y-111263005D01*
X165935681Y-111263006D01*
X165606383Y-111382861D01*
X165606378Y-111382863D01*
X165293198Y-111540148D01*
X165000396Y-111732726D01*
X164731954Y-111957977D01*
X164731948Y-111957983D01*
X164491450Y-112212894D01*
X164282178Y-112493995D01*
X164282168Y-112494011D01*
X164106953Y-112797493D01*
X164106944Y-112797511D01*
X163968146Y-113119280D01*
X163968143Y-113119288D01*
X163966092Y-113126140D01*
X163867633Y-113455015D01*
X163806777Y-113800147D01*
X163806777Y-113800153D01*
X163786401Y-114150000D01*
X161313599Y-114150000D01*
X161293222Y-113800143D01*
X161232367Y-113455016D01*
X161131857Y-113119288D01*
X160993050Y-112797499D01*
X160817825Y-112494000D01*
X160608551Y-112212896D01*
X160368057Y-111957988D01*
X160368050Y-111957982D01*
X160368045Y-111957977D01*
X160099603Y-111732726D01*
X160099597Y-111732722D01*
X159806800Y-111540147D01*
X159493626Y-111382865D01*
X159493621Y-111382863D01*
X159493616Y-111382861D01*
X159164318Y-111263006D01*
X159164313Y-111263005D01*
X159164312Y-111263004D01*
X159164310Y-111263004D01*
X158976961Y-111218601D01*
X158823307Y-111182184D01*
X158823301Y-111182183D01*
X158475228Y-111141500D01*
X158475225Y-111141500D01*
X158124775Y-111141500D01*
X158124772Y-111141500D01*
X157776698Y-111182183D01*
X157776692Y-111182184D01*
X157435686Y-111263005D01*
X157435681Y-111263006D01*
X157106383Y-111382861D01*
X157106378Y-111382863D01*
X156793198Y-111540148D01*
X156500396Y-111732726D01*
X156231954Y-111957977D01*
X156231948Y-111957983D01*
X155991450Y-112212894D01*
X155782178Y-112493995D01*
X155782168Y-112494011D01*
X155606953Y-112797493D01*
X155606944Y-112797511D01*
X155468146Y-113119280D01*
X155468143Y-113119288D01*
X155466092Y-113126140D01*
X155367633Y-113455015D01*
X155306777Y-113800147D01*
X155306777Y-113800153D01*
X155286401Y-114150000D01*
X153913599Y-114150000D01*
X153893222Y-113800143D01*
X153832367Y-113455016D01*
X153731857Y-113119288D01*
X153593050Y-112797499D01*
X153417825Y-112494000D01*
X153208551Y-112212896D01*
X152968057Y-111957988D01*
X152968050Y-111957982D01*
X152968045Y-111957977D01*
X152699603Y-111732726D01*
X152699597Y-111732722D01*
X152406800Y-111540147D01*
X152093626Y-111382865D01*
X152093621Y-111382863D01*
X152093616Y-111382861D01*
X151764318Y-111263006D01*
X151764313Y-111263005D01*
X151764312Y-111263004D01*
X151764310Y-111263004D01*
X151576961Y-111218601D01*
X151423307Y-111182184D01*
X151423301Y-111182183D01*
X151075228Y-111141500D01*
X151075225Y-111141500D01*
X150724775Y-111141500D01*
X150724772Y-111141500D01*
X150376698Y-111182183D01*
X150376692Y-111182184D01*
X150035686Y-111263005D01*
X150035681Y-111263006D01*
X149706383Y-111382861D01*
X149706378Y-111382863D01*
X149393198Y-111540148D01*
X149100396Y-111732726D01*
X148831954Y-111957977D01*
X148831948Y-111957983D01*
X148591450Y-112212894D01*
X148382178Y-112493995D01*
X148382168Y-112494011D01*
X148206953Y-112797493D01*
X148206944Y-112797511D01*
X148068146Y-113119280D01*
X148068143Y-113119288D01*
X148066092Y-113126140D01*
X147967633Y-113455015D01*
X147906777Y-113800147D01*
X147906777Y-113800153D01*
X147886401Y-114150000D01*
X146113599Y-114150000D01*
X146093222Y-113800143D01*
X146032367Y-113455016D01*
X145931857Y-113119288D01*
X145793050Y-112797499D01*
X145617825Y-112494000D01*
X145408551Y-112212896D01*
X145168057Y-111957988D01*
X145168050Y-111957982D01*
X145168045Y-111957977D01*
X144899603Y-111732726D01*
X144899597Y-111732722D01*
X144606800Y-111540147D01*
X144293626Y-111382865D01*
X144293621Y-111382863D01*
X144293616Y-111382861D01*
X143964318Y-111263006D01*
X143964313Y-111263005D01*
X143964312Y-111263004D01*
X143964310Y-111263004D01*
X143776961Y-111218601D01*
X143623307Y-111182184D01*
X143623301Y-111182183D01*
X143275228Y-111141500D01*
X143275225Y-111141500D01*
X142924775Y-111141500D01*
X142924772Y-111141500D01*
X142576698Y-111182183D01*
X142576692Y-111182184D01*
X142235686Y-111263005D01*
X142235681Y-111263006D01*
X141906383Y-111382861D01*
X141906378Y-111382863D01*
X141593198Y-111540148D01*
X141300396Y-111732726D01*
X141031954Y-111957977D01*
X141031948Y-111957983D01*
X140791450Y-112212894D01*
X140582178Y-112493995D01*
X140582168Y-112494011D01*
X140406953Y-112797493D01*
X140406944Y-112797511D01*
X140268146Y-113119280D01*
X140268143Y-113119288D01*
X140266092Y-113126140D01*
X140167633Y-113455015D01*
X140106777Y-113800147D01*
X140106777Y-113800153D01*
X140086401Y-114150000D01*
X138563599Y-114150000D01*
X138543222Y-113800143D01*
X138482367Y-113455016D01*
X138381857Y-113119288D01*
X138243050Y-112797499D01*
X138067825Y-112494000D01*
X137858551Y-112212896D01*
X137618057Y-111957988D01*
X137618050Y-111957982D01*
X137618045Y-111957977D01*
X137349603Y-111732726D01*
X137349597Y-111732722D01*
X137056800Y-111540147D01*
X136743626Y-111382865D01*
X136743621Y-111382863D01*
X136743616Y-111382861D01*
X136414318Y-111263006D01*
X136414313Y-111263005D01*
X136414312Y-111263004D01*
X136414310Y-111263004D01*
X136226961Y-111218601D01*
X136073307Y-111182184D01*
X136073301Y-111182183D01*
X135725228Y-111141500D01*
X135725225Y-111141500D01*
X135374775Y-111141500D01*
X135374772Y-111141500D01*
X135026698Y-111182183D01*
X135026692Y-111182184D01*
X134685686Y-111263005D01*
X134685681Y-111263006D01*
X134356383Y-111382861D01*
X134356378Y-111382863D01*
X134043198Y-111540148D01*
X133750396Y-111732726D01*
X133481954Y-111957977D01*
X133481948Y-111957983D01*
X133241450Y-112212894D01*
X133032178Y-112493995D01*
X133032168Y-112494011D01*
X132856953Y-112797493D01*
X132856944Y-112797511D01*
X132718146Y-113119280D01*
X132718143Y-113119288D01*
X132716092Y-113126140D01*
X132617633Y-113455015D01*
X132556777Y-113800147D01*
X132556777Y-113800153D01*
X132536401Y-114150000D01*
X130613599Y-114150000D01*
X130593222Y-113800143D01*
X130532367Y-113455016D01*
X130431857Y-113119288D01*
X130293050Y-112797499D01*
X130117825Y-112494000D01*
X129908551Y-112212896D01*
X129668057Y-111957988D01*
X129668050Y-111957982D01*
X129668045Y-111957977D01*
X129399603Y-111732726D01*
X129399597Y-111732722D01*
X129106800Y-111540147D01*
X128793626Y-111382865D01*
X128793621Y-111382863D01*
X128793616Y-111382861D01*
X128464318Y-111263006D01*
X128464313Y-111263005D01*
X128464312Y-111263004D01*
X128464310Y-111263004D01*
X128276961Y-111218601D01*
X128123307Y-111182184D01*
X128123301Y-111182183D01*
X127775228Y-111141500D01*
X127775225Y-111141500D01*
X127424775Y-111141500D01*
X127424772Y-111141500D01*
X127076698Y-111182183D01*
X127076692Y-111182184D01*
X126735686Y-111263005D01*
X126735681Y-111263006D01*
X126406383Y-111382861D01*
X126406378Y-111382863D01*
X126093198Y-111540148D01*
X125800396Y-111732726D01*
X125531954Y-111957977D01*
X125531948Y-111957983D01*
X125291450Y-112212894D01*
X125082178Y-112493995D01*
X125082168Y-112494011D01*
X124906953Y-112797493D01*
X124906944Y-112797511D01*
X124768146Y-113119280D01*
X124768143Y-113119288D01*
X124766092Y-113126140D01*
X124667633Y-113455015D01*
X124606777Y-113800147D01*
X124606777Y-113800153D01*
X124586401Y-114150000D01*
X122713599Y-114150000D01*
X122693222Y-113800143D01*
X122632367Y-113455016D01*
X122531857Y-113119288D01*
X122393050Y-112797499D01*
X122217825Y-112494000D01*
X122008551Y-112212896D01*
X121768057Y-111957988D01*
X121768050Y-111957982D01*
X121768045Y-111957977D01*
X121499603Y-111732726D01*
X121499597Y-111732722D01*
X121206800Y-111540147D01*
X120893626Y-111382865D01*
X120893621Y-111382863D01*
X120893616Y-111382861D01*
X120564318Y-111263006D01*
X120564313Y-111263005D01*
X120564312Y-111263004D01*
X120564310Y-111263004D01*
X120376961Y-111218601D01*
X120223307Y-111182184D01*
X120223301Y-111182183D01*
X119875228Y-111141500D01*
X119875225Y-111141500D01*
X119524775Y-111141500D01*
X119524772Y-111141500D01*
X119176698Y-111182183D01*
X119176692Y-111182184D01*
X118835686Y-111263005D01*
X118835681Y-111263006D01*
X118506383Y-111382861D01*
X118506378Y-111382863D01*
X118193198Y-111540148D01*
X117900396Y-111732726D01*
X117631954Y-111957977D01*
X117631948Y-111957983D01*
X117391450Y-112212894D01*
X117182178Y-112493995D01*
X117182168Y-112494011D01*
X117006953Y-112797493D01*
X117006944Y-112797511D01*
X116868146Y-113119280D01*
X116868143Y-113119288D01*
X116866092Y-113126140D01*
X116767633Y-113455015D01*
X116706777Y-113800147D01*
X116706777Y-113800153D01*
X116686401Y-114150000D01*
X114913599Y-114150000D01*
X114893222Y-113800143D01*
X114832367Y-113455016D01*
X114731857Y-113119288D01*
X114593050Y-112797499D01*
X114417825Y-112494000D01*
X114208551Y-112212896D01*
X113968057Y-111957988D01*
X113968050Y-111957982D01*
X113968045Y-111957977D01*
X113699603Y-111732726D01*
X113699597Y-111732722D01*
X113406800Y-111540147D01*
X113093626Y-111382865D01*
X113093621Y-111382863D01*
X113093616Y-111382861D01*
X112764318Y-111263006D01*
X112764313Y-111263005D01*
X112764312Y-111263004D01*
X112764310Y-111263004D01*
X112576961Y-111218601D01*
X112423307Y-111182184D01*
X112423301Y-111182183D01*
X112075228Y-111141500D01*
X112075225Y-111141500D01*
X111724775Y-111141500D01*
X111724772Y-111141500D01*
X111376698Y-111182183D01*
X111376692Y-111182184D01*
X111035686Y-111263005D01*
X111035681Y-111263006D01*
X110706383Y-111382861D01*
X110706378Y-111382863D01*
X110393198Y-111540148D01*
X110100396Y-111732726D01*
X109831954Y-111957977D01*
X109831948Y-111957983D01*
X109591450Y-112212894D01*
X109382178Y-112493995D01*
X109382168Y-112494011D01*
X109206953Y-112797493D01*
X109206944Y-112797511D01*
X109068146Y-113119280D01*
X109068143Y-113119288D01*
X109066092Y-113126140D01*
X108967633Y-113455015D01*
X108906777Y-113800147D01*
X108906777Y-113800153D01*
X108886401Y-114150000D01*
X106963599Y-114150000D01*
X106943222Y-113800143D01*
X106882367Y-113455016D01*
X106781857Y-113119288D01*
X106643050Y-112797499D01*
X106467825Y-112494000D01*
X106258551Y-112212896D01*
X106018057Y-111957988D01*
X106018050Y-111957982D01*
X106018045Y-111957977D01*
X105749603Y-111732726D01*
X105749597Y-111732722D01*
X105456800Y-111540147D01*
X105143626Y-111382865D01*
X105143621Y-111382863D01*
X105143616Y-111382861D01*
X104814318Y-111263006D01*
X104814313Y-111263005D01*
X104814312Y-111263004D01*
X104814310Y-111263004D01*
X104626961Y-111218601D01*
X104473307Y-111182184D01*
X104473301Y-111182183D01*
X104125228Y-111141500D01*
X104125225Y-111141500D01*
X103774775Y-111141500D01*
X103774772Y-111141500D01*
X103426698Y-111182183D01*
X103426692Y-111182184D01*
X103085686Y-111263005D01*
X103085681Y-111263006D01*
X102756383Y-111382861D01*
X102756378Y-111382863D01*
X102443198Y-111540148D01*
X102150396Y-111732726D01*
X101881954Y-111957977D01*
X101881948Y-111957983D01*
X101641450Y-112212894D01*
X101432178Y-112493995D01*
X101432168Y-112494011D01*
X101256953Y-112797493D01*
X101256944Y-112797511D01*
X101118146Y-113119280D01*
X101118143Y-113119288D01*
X101116092Y-113126140D01*
X101017633Y-113455015D01*
X100956777Y-113800147D01*
X100956777Y-113800153D01*
X100936401Y-114150000D01*
X97099832Y-114150000D01*
X97092986Y-98068353D01*
X104744100Y-98068353D01*
X104744100Y-98331646D01*
X104778464Y-98592672D01*
X104778465Y-98592678D01*
X104778466Y-98592680D01*
X104846610Y-98846997D01*
X104947366Y-99090243D01*
X104947367Y-99090244D01*
X104947372Y-99090255D01*
X105079007Y-99318253D01*
X105239289Y-99527138D01*
X105239298Y-99527148D01*
X105425451Y-99713301D01*
X105425461Y-99713310D01*
X105634346Y-99873592D01*
X105862344Y-100005227D01*
X105862348Y-100005228D01*
X105862357Y-100005234D01*
X106105603Y-100105990D01*
X106359920Y-100174134D01*
X106359926Y-100174134D01*
X106359927Y-100174135D01*
X106389881Y-100178078D01*
X106620956Y-100208500D01*
X106620963Y-100208500D01*
X182131637Y-100208500D01*
X182131644Y-100208500D01*
X182392680Y-100174134D01*
X182632893Y-100109769D01*
X182703865Y-100111459D01*
X182762661Y-100151253D01*
X182790609Y-100216517D01*
X182791500Y-100231476D01*
X182791500Y-102048649D01*
X182798009Y-102109196D01*
X182798011Y-102109204D01*
X182849110Y-102246202D01*
X182849112Y-102246207D01*
X182936738Y-102363261D01*
X183053792Y-102450887D01*
X183053794Y-102450888D01*
X183053796Y-102450889D01*
X183108664Y-102471354D01*
X183190795Y-102501988D01*
X183190803Y-102501990D01*
X183251350Y-102508499D01*
X183251355Y-102508499D01*
X183251362Y-102508500D01*
X183251368Y-102508500D01*
X185348632Y-102508500D01*
X185348638Y-102508500D01*
X185348645Y-102508499D01*
X185348649Y-102508499D01*
X185409196Y-102501990D01*
X185409199Y-102501989D01*
X185409201Y-102501989D01*
X185546204Y-102450889D01*
X185663261Y-102363261D01*
X185717965Y-102290185D01*
X185750887Y-102246207D01*
X185750887Y-102246206D01*
X185750889Y-102246204D01*
X185801989Y-102109201D01*
X185808500Y-102048638D01*
X185808500Y-99881278D01*
X186491500Y-99881278D01*
X186491500Y-101118722D01*
X186528644Y-101353241D01*
X186528645Y-101353246D01*
X186595776Y-101559853D01*
X186602018Y-101579063D01*
X186709815Y-101790627D01*
X186849380Y-101982722D01*
X186849382Y-101982724D01*
X186849384Y-101982727D01*
X187017272Y-102150615D01*
X187017275Y-102150617D01*
X187017278Y-102150620D01*
X187209373Y-102290185D01*
X187420937Y-102397982D01*
X187646759Y-102471356D01*
X187881278Y-102508500D01*
X187881281Y-102508500D01*
X188118719Y-102508500D01*
X188118722Y-102508500D01*
X188353241Y-102471356D01*
X188579063Y-102397982D01*
X188790627Y-102290185D01*
X188982722Y-102150620D01*
X189150620Y-101982722D01*
X189290185Y-101790627D01*
X189397982Y-101579063D01*
X189471356Y-101353241D01*
X189508500Y-101118722D01*
X189508500Y-99881278D01*
X190791500Y-99881278D01*
X190791500Y-101118722D01*
X190828644Y-101353241D01*
X190828645Y-101353246D01*
X190895776Y-101559853D01*
X190902018Y-101579063D01*
X191009815Y-101790627D01*
X191149380Y-101982722D01*
X191149382Y-101982724D01*
X191149384Y-101982727D01*
X191317272Y-102150615D01*
X191317275Y-102150617D01*
X191317278Y-102150620D01*
X191509373Y-102290185D01*
X191720937Y-102397982D01*
X191946759Y-102471356D01*
X192181278Y-102508500D01*
X192181281Y-102508500D01*
X192418719Y-102508500D01*
X192418722Y-102508500D01*
X192653241Y-102471356D01*
X192879063Y-102397982D01*
X193090627Y-102290185D01*
X193282722Y-102150620D01*
X193450620Y-101982722D01*
X193590185Y-101790627D01*
X193697982Y-101579063D01*
X193771356Y-101353241D01*
X193808500Y-101118722D01*
X193808500Y-99881278D01*
X194491500Y-99881278D01*
X194491500Y-101118722D01*
X194528644Y-101353241D01*
X194528645Y-101353246D01*
X194595776Y-101559853D01*
X194602018Y-101579063D01*
X194709815Y-101790627D01*
X194849380Y-101982722D01*
X194849382Y-101982724D01*
X194849384Y-101982727D01*
X195017272Y-102150615D01*
X195017275Y-102150617D01*
X195017278Y-102150620D01*
X195209373Y-102290185D01*
X195420937Y-102397982D01*
X195646759Y-102471356D01*
X195881278Y-102508500D01*
X195881281Y-102508500D01*
X196118719Y-102508500D01*
X196118722Y-102508500D01*
X196353241Y-102471356D01*
X196579063Y-102397982D01*
X196790627Y-102290185D01*
X196982722Y-102150620D01*
X197150620Y-101982722D01*
X197290185Y-101790627D01*
X197397982Y-101579063D01*
X197471356Y-101353241D01*
X197508500Y-101118722D01*
X197508500Y-99881278D01*
X197471356Y-99646759D01*
X197397982Y-99420937D01*
X197290185Y-99209373D01*
X197150620Y-99017278D01*
X197150617Y-99017275D01*
X197150615Y-99017272D01*
X196982727Y-98849384D01*
X196982724Y-98849382D01*
X196982722Y-98849380D01*
X196790627Y-98709815D01*
X196579063Y-98602018D01*
X196579060Y-98602017D01*
X196579058Y-98602016D01*
X196353246Y-98528645D01*
X196353242Y-98528644D01*
X196353241Y-98528644D01*
X196118722Y-98491500D01*
X195881278Y-98491500D01*
X195646759Y-98528644D01*
X195646753Y-98528645D01*
X195420941Y-98602016D01*
X195420935Y-98602019D01*
X195209369Y-98709817D01*
X195017275Y-98849382D01*
X195017272Y-98849384D01*
X194849384Y-99017272D01*
X194849382Y-99017275D01*
X194709817Y-99209369D01*
X194602019Y-99420935D01*
X194602016Y-99420941D01*
X194528645Y-99646753D01*
X194528644Y-99646758D01*
X194528644Y-99646759D01*
X194491500Y-99881278D01*
X193808500Y-99881278D01*
X193771356Y-99646759D01*
X193697982Y-99420937D01*
X193590185Y-99209373D01*
X193450620Y-99017278D01*
X193450617Y-99017275D01*
X193450615Y-99017272D01*
X193282727Y-98849384D01*
X193282724Y-98849382D01*
X193282722Y-98849380D01*
X193090627Y-98709815D01*
X192879063Y-98602018D01*
X192879060Y-98602017D01*
X192879058Y-98602016D01*
X192653246Y-98528645D01*
X192653242Y-98528644D01*
X192653241Y-98528644D01*
X192418722Y-98491500D01*
X192181278Y-98491500D01*
X191946759Y-98528644D01*
X191946753Y-98528645D01*
X191720941Y-98602016D01*
X191720935Y-98602019D01*
X191509369Y-98709817D01*
X191317275Y-98849382D01*
X191317272Y-98849384D01*
X191149384Y-99017272D01*
X191149382Y-99017275D01*
X191009817Y-99209369D01*
X190902019Y-99420935D01*
X190902016Y-99420941D01*
X190828645Y-99646753D01*
X190828644Y-99646758D01*
X190828644Y-99646759D01*
X190791500Y-99881278D01*
X189508500Y-99881278D01*
X189471356Y-99646759D01*
X189397982Y-99420937D01*
X189290185Y-99209373D01*
X189150620Y-99017278D01*
X189150617Y-99017275D01*
X189150615Y-99017272D01*
X188982727Y-98849384D01*
X188982724Y-98849382D01*
X188982722Y-98849380D01*
X188790627Y-98709815D01*
X188579063Y-98602018D01*
X188579060Y-98602017D01*
X188579058Y-98602016D01*
X188353246Y-98528645D01*
X188353242Y-98528644D01*
X188353241Y-98528644D01*
X188118722Y-98491500D01*
X187881278Y-98491500D01*
X187646759Y-98528644D01*
X187646753Y-98528645D01*
X187420941Y-98602016D01*
X187420935Y-98602019D01*
X187209369Y-98709817D01*
X187017275Y-98849382D01*
X187017272Y-98849384D01*
X186849384Y-99017272D01*
X186849382Y-99017275D01*
X186709817Y-99209369D01*
X186602019Y-99420935D01*
X186602016Y-99420941D01*
X186528645Y-99646753D01*
X186528644Y-99646758D01*
X186528644Y-99646759D01*
X186491500Y-99881278D01*
X185808500Y-99881278D01*
X185808500Y-98951362D01*
X185808354Y-98950000D01*
X185801990Y-98890803D01*
X185801988Y-98890795D01*
X185750889Y-98753797D01*
X185750887Y-98753792D01*
X185663261Y-98636738D01*
X185546207Y-98549112D01*
X185546202Y-98549110D01*
X185409204Y-98498011D01*
X185409196Y-98498009D01*
X185348649Y-98491500D01*
X185348638Y-98491500D01*
X184131130Y-98491500D01*
X184063009Y-98471498D01*
X184016516Y-98417842D01*
X184006208Y-98349056D01*
X184008499Y-98331651D01*
X184008500Y-98331644D01*
X184008500Y-98068356D01*
X183974134Y-97807320D01*
X183905990Y-97553003D01*
X183805234Y-97309757D01*
X183805228Y-97309748D01*
X183805227Y-97309744D01*
X183673592Y-97081746D01*
X183620760Y-97012894D01*
X183513311Y-96872862D01*
X183513310Y-96872861D01*
X183513301Y-96872851D01*
X183327148Y-96686698D01*
X183327138Y-96686689D01*
X183118253Y-96526407D01*
X182890255Y-96394772D01*
X182890247Y-96394768D01*
X182890243Y-96394766D01*
X182646997Y-96294010D01*
X182392680Y-96225866D01*
X182392678Y-96225865D01*
X182392672Y-96225864D01*
X182131646Y-96191500D01*
X182131644Y-96191500D01*
X106620956Y-96191500D01*
X106620953Y-96191500D01*
X106359927Y-96225864D01*
X106105603Y-96294010D01*
X105862355Y-96394767D01*
X105862344Y-96394772D01*
X105634346Y-96526407D01*
X105425461Y-96686689D01*
X105425451Y-96686698D01*
X105239298Y-96872851D01*
X105239289Y-96872861D01*
X105079007Y-97081746D01*
X104947372Y-97309744D01*
X104947367Y-97309755D01*
X104846610Y-97553003D01*
X104778464Y-97807327D01*
X104744100Y-98068353D01*
X97092986Y-98068353D01*
X97089552Y-89999997D01*
X187286452Y-89999997D01*
X187286452Y-90000002D01*
X187306634Y-90449401D01*
X187306635Y-90449410D01*
X187367022Y-90895204D01*
X187467125Y-91333788D01*
X187606140Y-91761631D01*
X187606142Y-91761635D01*
X187782949Y-92175297D01*
X187996126Y-92571445D01*
X188243954Y-92946890D01*
X188403150Y-93146515D01*
X188524437Y-93298604D01*
X188524440Y-93298607D01*
X188835324Y-93623767D01*
X188954992Y-93728318D01*
X189174099Y-93919747D01*
X189342509Y-94042103D01*
X189538052Y-94184173D01*
X189538064Y-94184180D01*
X189538077Y-94184189D01*
X189924212Y-94414894D01*
X189924227Y-94414902D01*
X189924237Y-94414908D01*
X190329550Y-94610097D01*
X190750728Y-94768167D01*
X191184381Y-94887848D01*
X191627015Y-94968174D01*
X192075068Y-95008500D01*
X192075074Y-95008500D01*
X192524926Y-95008500D01*
X192524932Y-95008500D01*
X192972985Y-94968174D01*
X193415619Y-94887848D01*
X193849272Y-94768167D01*
X194270450Y-94610097D01*
X194675763Y-94414908D01*
X194675781Y-94414897D01*
X194675787Y-94414894D01*
X195061922Y-94184189D01*
X195061927Y-94184185D01*
X195061948Y-94184173D01*
X195425896Y-93919750D01*
X195425896Y-93919749D01*
X195425900Y-93919747D01*
X195505111Y-93850541D01*
X195764676Y-93623767D01*
X196075560Y-93298607D01*
X196356046Y-92946890D01*
X196603874Y-92571445D01*
X196817051Y-92175297D01*
X196993858Y-91761635D01*
X197132874Y-91333788D01*
X197232978Y-90895204D01*
X197293365Y-90449411D01*
X197313548Y-90000000D01*
X197293365Y-89550589D01*
X197232978Y-89104796D01*
X197132874Y-88666212D01*
X196993858Y-88238365D01*
X196817051Y-87824703D01*
X196603874Y-87428555D01*
X196356046Y-87053110D01*
X196075560Y-86701393D01*
X195764681Y-86376238D01*
X195764679Y-86376236D01*
X195764676Y-86376233D01*
X195665233Y-86289353D01*
X195425900Y-86080252D01*
X195184700Y-85905011D01*
X195061948Y-85815827D01*
X195061938Y-85815821D01*
X195061922Y-85815810D01*
X194675787Y-85585105D01*
X194675761Y-85585091D01*
X194270454Y-85389905D01*
X194270448Y-85389902D01*
X193849264Y-85231830D01*
X193415625Y-85112153D01*
X192972992Y-85031827D01*
X192972989Y-85031826D01*
X192972985Y-85031826D01*
X192524932Y-84991500D01*
X192075068Y-84991500D01*
X191627015Y-85031826D01*
X191627011Y-85031826D01*
X191627007Y-85031827D01*
X191184374Y-85112153D01*
X190750735Y-85231830D01*
X190329551Y-85389902D01*
X190329545Y-85389905D01*
X189924238Y-85585091D01*
X189924212Y-85585105D01*
X189538077Y-85815810D01*
X189538042Y-85815834D01*
X189174099Y-86080252D01*
X188835326Y-86376231D01*
X188835318Y-86376238D01*
X188524437Y-86701395D01*
X188243954Y-87053110D01*
X187996129Y-87428549D01*
X187996125Y-87428556D01*
X187782950Y-87824700D01*
X187606140Y-88238368D01*
X187467125Y-88666211D01*
X187367022Y-89104795D01*
X187306635Y-89550589D01*
X187306634Y-89550598D01*
X187286452Y-89999997D01*
X97089552Y-89999997D01*
X97088626Y-87824700D01*
X97087930Y-86189220D01*
X107725500Y-86189220D01*
X107725500Y-86429180D01*
X107763039Y-86666188D01*
X107763040Y-86666193D01*
X107802039Y-86786221D01*
X107837190Y-86894405D01*
X107946130Y-87108212D01*
X107946132Y-87108215D01*
X107947692Y-87110362D01*
X108087176Y-87302345D01*
X108087178Y-87302347D01*
X108087180Y-87302350D01*
X108256849Y-87472019D01*
X108256852Y-87472021D01*
X108256855Y-87472024D01*
X108450988Y-87613070D01*
X108664795Y-87722010D01*
X108893006Y-87796159D01*
X108893007Y-87796159D01*
X108893012Y-87796161D01*
X109130020Y-87833700D01*
X109130023Y-87833700D01*
X109369977Y-87833700D01*
X109369980Y-87833700D01*
X109606988Y-87796161D01*
X109835205Y-87722010D01*
X110049012Y-87613070D01*
X110243145Y-87472024D01*
X110530365Y-87184803D01*
X110592676Y-87150780D01*
X110619459Y-87147900D01*
X154146578Y-87147900D01*
X154146580Y-87147900D01*
X154146581Y-87147900D01*
X154383588Y-87110362D01*
X154611805Y-87036210D01*
X154654413Y-87014500D01*
X154825612Y-86927270D01*
X155019745Y-86786224D01*
X169862823Y-71943145D01*
X170003869Y-71749012D01*
X170112810Y-71535205D01*
X170186961Y-71306988D01*
X170224499Y-71069981D01*
X170224499Y-70830020D01*
X170186961Y-70593012D01*
X170112810Y-70364795D01*
X170003869Y-70150988D01*
X170003867Y-70150984D01*
X169929838Y-70049094D01*
X169862823Y-69956855D01*
X169862820Y-69956852D01*
X169862818Y-69956849D01*
X169693150Y-69787181D01*
X169693147Y-69787179D01*
X169693145Y-69787177D01*
X169631652Y-69742499D01*
X169499015Y-69646132D01*
X169388111Y-69589624D01*
X169285205Y-69537190D01*
X169285202Y-69537189D01*
X169285200Y-69537188D01*
X169056991Y-69463040D01*
X169056988Y-69463039D01*
X168819980Y-69425501D01*
X168580019Y-69425501D01*
X168343012Y-69463039D01*
X168343009Y-69463039D01*
X168343008Y-69463040D01*
X168114799Y-69537188D01*
X168114793Y-69537191D01*
X167900984Y-69646132D01*
X167706852Y-69787179D01*
X167706849Y-69787181D01*
X153432036Y-84061995D01*
X153369724Y-84096021D01*
X153342941Y-84098900D01*
X109815819Y-84098900D01*
X109578812Y-84136438D01*
X109578806Y-84136439D01*
X109350599Y-84210588D01*
X109350593Y-84210591D01*
X109136784Y-84319532D01*
X108942652Y-84460578D01*
X108942649Y-84460580D01*
X108087180Y-85316049D01*
X108087178Y-85316052D01*
X107946132Y-85510184D01*
X107837191Y-85723993D01*
X107837188Y-85723999D01*
X107763040Y-85952206D01*
X107763039Y-85952211D01*
X107763039Y-85952212D01*
X107725500Y-86189220D01*
X97087930Y-86189220D01*
X97084761Y-78744950D01*
X106641500Y-78744950D01*
X106641500Y-80442249D01*
X106648009Y-80502796D01*
X106648011Y-80502804D01*
X106699110Y-80639802D01*
X106699112Y-80639807D01*
X106786738Y-80756861D01*
X106903792Y-80844487D01*
X106903794Y-80844488D01*
X106903796Y-80844489D01*
X106962875Y-80866524D01*
X107040795Y-80895588D01*
X107040803Y-80895590D01*
X107101350Y-80902099D01*
X107101355Y-80902099D01*
X107101362Y-80902100D01*
X107101368Y-80902100D01*
X108798632Y-80902100D01*
X108798638Y-80902100D01*
X108798645Y-80902099D01*
X108798649Y-80902099D01*
X108859196Y-80895590D01*
X108859199Y-80895589D01*
X108859201Y-80895589D01*
X108996204Y-80844489D01*
X109018389Y-80827882D01*
X109113261Y-80756861D01*
X109200887Y-80639807D01*
X109200887Y-80639806D01*
X109200889Y-80639804D01*
X109251989Y-80502801D01*
X109252998Y-80493408D01*
X109280163Y-80427815D01*
X109338478Y-80387321D01*
X109409429Y-80384782D01*
X109470490Y-80421005D01*
X109481487Y-80434595D01*
X109483796Y-80437892D01*
X109483802Y-80437900D01*
X109645700Y-80599798D01*
X109833251Y-80731123D01*
X110040757Y-80827884D01*
X110261913Y-80887143D01*
X110490000Y-80907098D01*
X110718087Y-80887143D01*
X110939243Y-80827884D01*
X111146749Y-80731123D01*
X111334300Y-80599798D01*
X111496198Y-80437900D01*
X111627523Y-80250349D01*
X111645805Y-80211143D01*
X111692721Y-80157858D01*
X111760998Y-80138396D01*
X111828958Y-80158937D01*
X111874195Y-80211143D01*
X111885653Y-80235716D01*
X111892477Y-80250349D01*
X112023802Y-80437900D01*
X112185700Y-80599798D01*
X112373251Y-80731123D01*
X112580757Y-80827884D01*
X112801913Y-80887143D01*
X113030000Y-80907098D01*
X113258087Y-80887143D01*
X113479243Y-80827884D01*
X113686749Y-80731123D01*
X113874300Y-80599798D01*
X114036198Y-80437900D01*
X114167523Y-80250349D01*
X114264284Y-80042843D01*
X114323543Y-79821687D01*
X114343498Y-79593600D01*
X116796502Y-79593600D01*
X116816457Y-79821686D01*
X116875715Y-80042840D01*
X116875717Y-80042846D01*
X116920273Y-80138396D01*
X116972477Y-80250349D01*
X117103802Y-80437900D01*
X117265700Y-80599798D01*
X117453251Y-80731123D01*
X117660757Y-80827884D01*
X117881913Y-80887143D01*
X118110000Y-80907098D01*
X118338087Y-80887143D01*
X118559243Y-80827884D01*
X118766749Y-80731123D01*
X118954300Y-80599798D01*
X119116198Y-80437900D01*
X119247523Y-80250349D01*
X119265805Y-80211143D01*
X119312721Y-80157858D01*
X119380998Y-80138396D01*
X119448958Y-80158937D01*
X119494195Y-80211143D01*
X119505653Y-80235716D01*
X119512477Y-80250349D01*
X119643802Y-80437900D01*
X119805700Y-80599798D01*
X119993251Y-80731123D01*
X120200757Y-80827884D01*
X120421913Y-80887143D01*
X120650000Y-80907098D01*
X120878087Y-80887143D01*
X121099243Y-80827884D01*
X121306749Y-80731123D01*
X121494300Y-80599798D01*
X121656198Y-80437900D01*
X121787523Y-80250349D01*
X121805805Y-80211143D01*
X121852721Y-80157858D01*
X121920998Y-80138396D01*
X121988958Y-80158937D01*
X122034195Y-80211143D01*
X122045653Y-80235716D01*
X122052477Y-80250349D01*
X122183802Y-80437900D01*
X122345700Y-80599798D01*
X122533251Y-80731123D01*
X122740757Y-80827884D01*
X122961913Y-80887143D01*
X123190000Y-80907098D01*
X123418087Y-80887143D01*
X123639243Y-80827884D01*
X123846749Y-80731123D01*
X124034300Y-80599798D01*
X124196198Y-80437900D01*
X124327523Y-80250349D01*
X124345805Y-80211143D01*
X124392721Y-80157858D01*
X124460998Y-80138396D01*
X124528958Y-80158937D01*
X124574195Y-80211143D01*
X124585653Y-80235716D01*
X124592477Y-80250349D01*
X124723802Y-80437900D01*
X124885700Y-80599798D01*
X125073251Y-80731123D01*
X125280757Y-80827884D01*
X125501913Y-80887143D01*
X125730000Y-80907098D01*
X125958087Y-80887143D01*
X126179243Y-80827884D01*
X126386749Y-80731123D01*
X126574300Y-80599798D01*
X126736198Y-80437900D01*
X126867523Y-80250349D01*
X126885805Y-80211143D01*
X126932721Y-80157858D01*
X127000998Y-80138396D01*
X127068958Y-80158937D01*
X127114195Y-80211143D01*
X127125653Y-80235716D01*
X127132477Y-80250349D01*
X127263802Y-80437900D01*
X127425700Y-80599798D01*
X127613251Y-80731123D01*
X127820757Y-80827884D01*
X128041913Y-80887143D01*
X128270000Y-80907098D01*
X128498087Y-80887143D01*
X128719243Y-80827884D01*
X128926749Y-80731123D01*
X129114300Y-80599798D01*
X129276198Y-80437900D01*
X129407523Y-80250349D01*
X129425805Y-80211143D01*
X129472721Y-80157858D01*
X129540998Y-80138396D01*
X129608958Y-80158937D01*
X129654195Y-80211143D01*
X129665653Y-80235716D01*
X129672477Y-80250349D01*
X129803802Y-80437900D01*
X129965700Y-80599798D01*
X130153251Y-80731123D01*
X130360757Y-80827884D01*
X130581913Y-80887143D01*
X130810000Y-80907098D01*
X131038087Y-80887143D01*
X131259243Y-80827884D01*
X131466749Y-80731123D01*
X131654300Y-80599798D01*
X131816198Y-80437900D01*
X131947523Y-80250349D01*
X131965805Y-80211143D01*
X132012721Y-80157858D01*
X132080998Y-80138396D01*
X132148958Y-80158937D01*
X132194195Y-80211143D01*
X132205653Y-80235716D01*
X132212477Y-80250349D01*
X132343802Y-80437900D01*
X132505700Y-80599798D01*
X132693251Y-80731123D01*
X132900757Y-80827884D01*
X133121913Y-80887143D01*
X133350000Y-80907098D01*
X133578087Y-80887143D01*
X133799243Y-80827884D01*
X134006749Y-80731123D01*
X134194300Y-80599798D01*
X134356198Y-80437900D01*
X134487523Y-80250349D01*
X134505805Y-80211143D01*
X134552721Y-80157858D01*
X134620998Y-80138396D01*
X134688958Y-80158937D01*
X134734195Y-80211143D01*
X134745653Y-80235716D01*
X134752477Y-80250349D01*
X134883802Y-80437900D01*
X135045700Y-80599798D01*
X135233251Y-80731123D01*
X135440757Y-80827884D01*
X135661913Y-80887143D01*
X135890000Y-80907098D01*
X136118087Y-80887143D01*
X136339243Y-80827884D01*
X136546749Y-80731123D01*
X136734300Y-80599798D01*
X136896198Y-80437900D01*
X137027523Y-80250349D01*
X137045805Y-80211143D01*
X137092721Y-80157858D01*
X137160998Y-80138396D01*
X137228958Y-80158937D01*
X137274195Y-80211143D01*
X137285653Y-80235716D01*
X137292477Y-80250349D01*
X137423802Y-80437900D01*
X137585700Y-80599798D01*
X137773251Y-80731123D01*
X137980757Y-80827884D01*
X138201913Y-80887143D01*
X138430000Y-80907098D01*
X138658087Y-80887143D01*
X138879243Y-80827884D01*
X139086749Y-80731123D01*
X139274300Y-80599798D01*
X139436198Y-80437900D01*
X139567523Y-80250349D01*
X139585805Y-80211143D01*
X139632721Y-80157858D01*
X139700998Y-80138396D01*
X139768958Y-80158937D01*
X139814195Y-80211143D01*
X139825653Y-80235716D01*
X139832477Y-80250349D01*
X139963802Y-80437900D01*
X140125700Y-80599798D01*
X140313251Y-80731123D01*
X140520757Y-80827884D01*
X140741913Y-80887143D01*
X140970000Y-80907098D01*
X141198087Y-80887143D01*
X141419243Y-80827884D01*
X141626749Y-80731123D01*
X141814300Y-80599798D01*
X141976198Y-80437900D01*
X142107523Y-80250349D01*
X142125805Y-80211143D01*
X142172721Y-80157858D01*
X142240998Y-80138396D01*
X142308958Y-80158937D01*
X142354195Y-80211143D01*
X142365653Y-80235716D01*
X142372477Y-80250349D01*
X142503802Y-80437900D01*
X142665700Y-80599798D01*
X142853251Y-80731123D01*
X143060757Y-80827884D01*
X143281913Y-80887143D01*
X143510000Y-80907098D01*
X143738087Y-80887143D01*
X143959243Y-80827884D01*
X144166749Y-80731123D01*
X144354300Y-80599798D01*
X144516198Y-80437900D01*
X144647523Y-80250349D01*
X144744284Y-80042843D01*
X144803543Y-79821687D01*
X144823498Y-79593600D01*
X144803543Y-79365513D01*
X144744284Y-79144357D01*
X144647523Y-78936851D01*
X144516198Y-78749300D01*
X144354300Y-78587402D01*
X144166749Y-78456077D01*
X144126960Y-78437523D01*
X143959246Y-78359317D01*
X143959240Y-78359315D01*
X143865771Y-78334270D01*
X143738087Y-78300057D01*
X143510000Y-78280102D01*
X143281913Y-78300057D01*
X143060759Y-78359315D01*
X143060753Y-78359317D01*
X142853250Y-78456077D01*
X142665703Y-78587399D01*
X142665697Y-78587404D01*
X142503804Y-78749297D01*
X142503799Y-78749303D01*
X142372477Y-78936850D01*
X142354195Y-78976057D01*
X142307278Y-79029342D01*
X142239001Y-79048803D01*
X142171041Y-79028261D01*
X142125805Y-78976057D01*
X142123894Y-78971959D01*
X142107523Y-78936851D01*
X141976198Y-78749300D01*
X141814300Y-78587402D01*
X141626749Y-78456077D01*
X141586960Y-78437523D01*
X141419246Y-78359317D01*
X141419240Y-78359315D01*
X141325771Y-78334270D01*
X141198087Y-78300057D01*
X140970000Y-78280102D01*
X140741913Y-78300057D01*
X140520759Y-78359315D01*
X140520753Y-78359317D01*
X140313250Y-78456077D01*
X140125703Y-78587399D01*
X140125697Y-78587404D01*
X139963804Y-78749297D01*
X139963799Y-78749303D01*
X139832477Y-78936850D01*
X139814195Y-78976057D01*
X139767278Y-79029342D01*
X139699001Y-79048803D01*
X139631041Y-79028261D01*
X139585805Y-78976057D01*
X139583894Y-78971959D01*
X139567523Y-78936851D01*
X139436198Y-78749300D01*
X139274300Y-78587402D01*
X139086749Y-78456077D01*
X139046960Y-78437523D01*
X138879246Y-78359317D01*
X138879240Y-78359315D01*
X138785771Y-78334270D01*
X138658087Y-78300057D01*
X138430000Y-78280102D01*
X138201913Y-78300057D01*
X137980759Y-78359315D01*
X137980753Y-78359317D01*
X137773250Y-78456077D01*
X137585703Y-78587399D01*
X137585697Y-78587404D01*
X137423804Y-78749297D01*
X137423799Y-78749303D01*
X137292477Y-78936850D01*
X137274195Y-78976057D01*
X137227278Y-79029342D01*
X137159001Y-79048803D01*
X137091041Y-79028261D01*
X137045805Y-78976057D01*
X137043894Y-78971959D01*
X137027523Y-78936851D01*
X136896198Y-78749300D01*
X136734300Y-78587402D01*
X136546749Y-78456077D01*
X136506960Y-78437523D01*
X136339246Y-78359317D01*
X136339240Y-78359315D01*
X136245771Y-78334270D01*
X136118087Y-78300057D01*
X135890000Y-78280102D01*
X135661913Y-78300057D01*
X135440759Y-78359315D01*
X135440753Y-78359317D01*
X135233250Y-78456077D01*
X135045703Y-78587399D01*
X135045697Y-78587404D01*
X134883804Y-78749297D01*
X134883799Y-78749303D01*
X134752477Y-78936850D01*
X134734195Y-78976057D01*
X134687278Y-79029342D01*
X134619001Y-79048803D01*
X134551041Y-79028261D01*
X134505805Y-78976057D01*
X134503894Y-78971959D01*
X134487523Y-78936851D01*
X134356198Y-78749300D01*
X134194300Y-78587402D01*
X134006749Y-78456077D01*
X133966960Y-78437523D01*
X133799246Y-78359317D01*
X133799240Y-78359315D01*
X133705771Y-78334270D01*
X133578087Y-78300057D01*
X133350000Y-78280102D01*
X133121913Y-78300057D01*
X132900759Y-78359315D01*
X132900753Y-78359317D01*
X132693250Y-78456077D01*
X132505703Y-78587399D01*
X132505697Y-78587404D01*
X132343804Y-78749297D01*
X132343799Y-78749303D01*
X132212477Y-78936850D01*
X132194195Y-78976057D01*
X132147278Y-79029342D01*
X132079001Y-79048803D01*
X132011041Y-79028261D01*
X131965805Y-78976057D01*
X131963894Y-78971959D01*
X131947523Y-78936851D01*
X131816198Y-78749300D01*
X131654300Y-78587402D01*
X131466749Y-78456077D01*
X131426960Y-78437523D01*
X131259246Y-78359317D01*
X131259240Y-78359315D01*
X131165771Y-78334270D01*
X131038087Y-78300057D01*
X130810000Y-78280102D01*
X130581913Y-78300057D01*
X130360759Y-78359315D01*
X130360753Y-78359317D01*
X130153250Y-78456077D01*
X129965703Y-78587399D01*
X129965697Y-78587404D01*
X129803804Y-78749297D01*
X129803799Y-78749303D01*
X129672477Y-78936850D01*
X129654195Y-78976057D01*
X129607278Y-79029342D01*
X129539001Y-79048803D01*
X129471041Y-79028261D01*
X129425805Y-78976057D01*
X129423894Y-78971959D01*
X129407523Y-78936851D01*
X129276198Y-78749300D01*
X129114300Y-78587402D01*
X128926749Y-78456077D01*
X128886960Y-78437523D01*
X128719246Y-78359317D01*
X128719240Y-78359315D01*
X128625771Y-78334270D01*
X128498087Y-78300057D01*
X128270000Y-78280102D01*
X128041913Y-78300057D01*
X127820759Y-78359315D01*
X127820753Y-78359317D01*
X127613250Y-78456077D01*
X127425703Y-78587399D01*
X127425697Y-78587404D01*
X127263804Y-78749297D01*
X127263799Y-78749303D01*
X127132477Y-78936850D01*
X127114195Y-78976057D01*
X127067278Y-79029342D01*
X126999001Y-79048803D01*
X126931041Y-79028261D01*
X126885805Y-78976057D01*
X126883894Y-78971959D01*
X126867523Y-78936851D01*
X126736198Y-78749300D01*
X126574300Y-78587402D01*
X126386749Y-78456077D01*
X126346960Y-78437523D01*
X126179246Y-78359317D01*
X126179240Y-78359315D01*
X126085771Y-78334270D01*
X125958087Y-78300057D01*
X125730000Y-78280102D01*
X125501913Y-78300057D01*
X125280759Y-78359315D01*
X125280753Y-78359317D01*
X125073250Y-78456077D01*
X124885703Y-78587399D01*
X124885697Y-78587404D01*
X124723804Y-78749297D01*
X124723799Y-78749303D01*
X124592477Y-78936850D01*
X124574195Y-78976057D01*
X124527278Y-79029342D01*
X124459001Y-79048803D01*
X124391041Y-79028261D01*
X124345805Y-78976057D01*
X124343894Y-78971959D01*
X124327523Y-78936851D01*
X124196198Y-78749300D01*
X124034300Y-78587402D01*
X123846749Y-78456077D01*
X123806960Y-78437523D01*
X123639246Y-78359317D01*
X123639240Y-78359315D01*
X123545771Y-78334270D01*
X123418087Y-78300057D01*
X123190000Y-78280102D01*
X122961913Y-78300057D01*
X122740759Y-78359315D01*
X122740753Y-78359317D01*
X122533250Y-78456077D01*
X122345703Y-78587399D01*
X122345697Y-78587404D01*
X122183804Y-78749297D01*
X122183799Y-78749303D01*
X122052477Y-78936850D01*
X122034195Y-78976057D01*
X121987278Y-79029342D01*
X121919001Y-79048803D01*
X121851041Y-79028261D01*
X121805805Y-78976057D01*
X121803894Y-78971959D01*
X121787523Y-78936851D01*
X121656198Y-78749300D01*
X121494300Y-78587402D01*
X121306749Y-78456077D01*
X121266960Y-78437523D01*
X121099246Y-78359317D01*
X121099240Y-78359315D01*
X121005771Y-78334270D01*
X120878087Y-78300057D01*
X120650000Y-78280102D01*
X120421913Y-78300057D01*
X120200759Y-78359315D01*
X120200753Y-78359317D01*
X119993250Y-78456077D01*
X119805703Y-78587399D01*
X119805697Y-78587404D01*
X119643804Y-78749297D01*
X119643799Y-78749303D01*
X119512477Y-78936850D01*
X119494195Y-78976057D01*
X119447278Y-79029342D01*
X119379001Y-79048803D01*
X119311041Y-79028261D01*
X119265805Y-78976057D01*
X119263894Y-78971959D01*
X119247523Y-78936851D01*
X119116198Y-78749300D01*
X118954300Y-78587402D01*
X118766749Y-78456077D01*
X118726960Y-78437523D01*
X118559246Y-78359317D01*
X118559240Y-78359315D01*
X118465771Y-78334270D01*
X118338087Y-78300057D01*
X118110000Y-78280102D01*
X117881913Y-78300057D01*
X117660759Y-78359315D01*
X117660753Y-78359317D01*
X117453250Y-78456077D01*
X117265703Y-78587399D01*
X117265697Y-78587404D01*
X117103804Y-78749297D01*
X117103799Y-78749303D01*
X116972477Y-78936850D01*
X116875717Y-79144353D01*
X116875715Y-79144359D01*
X116816457Y-79365513D01*
X116796502Y-79593600D01*
X114343498Y-79593600D01*
X114323543Y-79365513D01*
X114264284Y-79144357D01*
X114167523Y-78936851D01*
X114036198Y-78749300D01*
X113874300Y-78587402D01*
X113686749Y-78456077D01*
X113646960Y-78437523D01*
X113479246Y-78359317D01*
X113479240Y-78359315D01*
X113385771Y-78334270D01*
X113258087Y-78300057D01*
X113030000Y-78280102D01*
X112801913Y-78300057D01*
X112580759Y-78359315D01*
X112580753Y-78359317D01*
X112373250Y-78456077D01*
X112185703Y-78587399D01*
X112185697Y-78587404D01*
X112023804Y-78749297D01*
X112023799Y-78749303D01*
X111892477Y-78936850D01*
X111874195Y-78976057D01*
X111827278Y-79029342D01*
X111759001Y-79048803D01*
X111691041Y-79028261D01*
X111645805Y-78976057D01*
X111643894Y-78971959D01*
X111627523Y-78936851D01*
X111496198Y-78749300D01*
X111334300Y-78587402D01*
X111146749Y-78456077D01*
X111106960Y-78437523D01*
X110939246Y-78359317D01*
X110939240Y-78359315D01*
X110845771Y-78334270D01*
X110718087Y-78300057D01*
X110490000Y-78280102D01*
X110261913Y-78300057D01*
X110040759Y-78359315D01*
X110040753Y-78359317D01*
X109833250Y-78456077D01*
X109645703Y-78587399D01*
X109645697Y-78587404D01*
X109483804Y-78749297D01*
X109483795Y-78749308D01*
X109481483Y-78752610D01*
X109426021Y-78796933D01*
X109355401Y-78804235D01*
X109292044Y-78772198D01*
X109256065Y-78710993D01*
X109252999Y-78693798D01*
X109251989Y-78684399D01*
X109200889Y-78547396D01*
X109200888Y-78547394D01*
X109200887Y-78547392D01*
X109113261Y-78430338D01*
X108996207Y-78342712D01*
X108996202Y-78342710D01*
X108859204Y-78291611D01*
X108859196Y-78291609D01*
X108798649Y-78285100D01*
X108798638Y-78285100D01*
X107101362Y-78285100D01*
X107101350Y-78285100D01*
X107040803Y-78291609D01*
X107040795Y-78291611D01*
X106903797Y-78342710D01*
X106903792Y-78342712D01*
X106786738Y-78430338D01*
X106699112Y-78547392D01*
X106699110Y-78547397D01*
X106648011Y-78684395D01*
X106648009Y-78684403D01*
X106641500Y-78744950D01*
X97084761Y-78744950D01*
X97078876Y-64921954D01*
X97098849Y-64853824D01*
X97152485Y-64807309D01*
X97204876Y-64795900D01*
X101126762Y-64795900D01*
X101194883Y-64815902D01*
X101215857Y-64832805D01*
X104417233Y-68034181D01*
X104558819Y-68175767D01*
X104725307Y-68287010D01*
X104910298Y-68363636D01*
X105074100Y-68396218D01*
X105106683Y-68402700D01*
X105106684Y-68402700D01*
X132009501Y-68402700D01*
X132057721Y-68412291D01*
X132062898Y-68414436D01*
X132259284Y-68453500D01*
X132459516Y-68453500D01*
X132655902Y-68414436D01*
X132840893Y-68337810D01*
X133007381Y-68226567D01*
X133148967Y-68084981D01*
X133260210Y-67918493D01*
X133336836Y-67733502D01*
X133375900Y-67537116D01*
X133375900Y-67336884D01*
X133336836Y-67140498D01*
X133260210Y-66955507D01*
X133148967Y-66789019D01*
X133148965Y-66789017D01*
X133148960Y-66789011D01*
X132956588Y-66596639D01*
X132956582Y-66596634D01*
X132956581Y-66596633D01*
X132790093Y-66485390D01*
X132673439Y-66437070D01*
X132605105Y-66408765D01*
X132605102Y-66408764D01*
X132408719Y-66369700D01*
X132408716Y-66369700D01*
X105680038Y-66369700D01*
X105611917Y-66349698D01*
X105590943Y-66332795D01*
X103611749Y-64353600D01*
X106636502Y-64353600D01*
X106656457Y-64581686D01*
X106715715Y-64802840D01*
X106715717Y-64802846D01*
X106760273Y-64898396D01*
X106812477Y-65010349D01*
X106943802Y-65197900D01*
X107105700Y-65359798D01*
X107293251Y-65491123D01*
X107500757Y-65587884D01*
X107721913Y-65647143D01*
X107950000Y-65667098D01*
X108178087Y-65647143D01*
X108399243Y-65587884D01*
X108606749Y-65491123D01*
X108794300Y-65359798D01*
X108956198Y-65197900D01*
X109087523Y-65010349D01*
X109184284Y-64802843D01*
X109243543Y-64581687D01*
X109263498Y-64353600D01*
X111716502Y-64353600D01*
X111736457Y-64581686D01*
X111795715Y-64802840D01*
X111795717Y-64802846D01*
X111840273Y-64898396D01*
X111892477Y-65010349D01*
X112023802Y-65197900D01*
X112185700Y-65359798D01*
X112373251Y-65491123D01*
X112580757Y-65587884D01*
X112801913Y-65647143D01*
X113030000Y-65667098D01*
X113258087Y-65647143D01*
X113479243Y-65587884D01*
X113686749Y-65491123D01*
X113874300Y-65359798D01*
X114036198Y-65197900D01*
X114167523Y-65010349D01*
X114185805Y-64971143D01*
X114232721Y-64917858D01*
X114300998Y-64898396D01*
X114368958Y-64918937D01*
X114414195Y-64971143D01*
X114432477Y-65010349D01*
X114563802Y-65197900D01*
X114725700Y-65359798D01*
X114913251Y-65491123D01*
X115120757Y-65587884D01*
X115341913Y-65647143D01*
X115570000Y-65667098D01*
X115798087Y-65647143D01*
X116019243Y-65587884D01*
X116226749Y-65491123D01*
X116414300Y-65359798D01*
X116576198Y-65197900D01*
X116707523Y-65010349D01*
X116725805Y-64971143D01*
X116772721Y-64917858D01*
X116840998Y-64898396D01*
X116908958Y-64918937D01*
X116954195Y-64971143D01*
X116972477Y-65010349D01*
X117103802Y-65197900D01*
X117265700Y-65359798D01*
X117453251Y-65491123D01*
X117660757Y-65587884D01*
X117881913Y-65647143D01*
X118110000Y-65667098D01*
X118338087Y-65647143D01*
X118559243Y-65587884D01*
X118766749Y-65491123D01*
X118954300Y-65359798D01*
X119116198Y-65197900D01*
X119247523Y-65010349D01*
X119265805Y-64971143D01*
X119312721Y-64917858D01*
X119380998Y-64898396D01*
X119448958Y-64918937D01*
X119494195Y-64971143D01*
X119512477Y-65010349D01*
X119643802Y-65197900D01*
X119805700Y-65359798D01*
X119993251Y-65491123D01*
X120200757Y-65587884D01*
X120421913Y-65647143D01*
X120650000Y-65667098D01*
X120878087Y-65647143D01*
X121099243Y-65587884D01*
X121306749Y-65491123D01*
X121494300Y-65359798D01*
X121656198Y-65197900D01*
X121787523Y-65010349D01*
X121805805Y-64971143D01*
X121852721Y-64917858D01*
X121920998Y-64898396D01*
X121988958Y-64918937D01*
X122034195Y-64971143D01*
X122052477Y-65010349D01*
X122183802Y-65197900D01*
X122345700Y-65359798D01*
X122533251Y-65491123D01*
X122740757Y-65587884D01*
X122961913Y-65647143D01*
X123190000Y-65667098D01*
X123418087Y-65647143D01*
X123639243Y-65587884D01*
X123846749Y-65491123D01*
X124034300Y-65359798D01*
X124196198Y-65197900D01*
X124327523Y-65010349D01*
X124345805Y-64971143D01*
X124392721Y-64917858D01*
X124460998Y-64898396D01*
X124528958Y-64918937D01*
X124574195Y-64971143D01*
X124592477Y-65010349D01*
X124723802Y-65197900D01*
X124885700Y-65359798D01*
X125073251Y-65491123D01*
X125280757Y-65587884D01*
X125501913Y-65647143D01*
X125730000Y-65667098D01*
X125958087Y-65647143D01*
X126179243Y-65587884D01*
X126386749Y-65491123D01*
X126574300Y-65359798D01*
X126736198Y-65197900D01*
X126867523Y-65010349D01*
X126885805Y-64971143D01*
X126932721Y-64917858D01*
X127000998Y-64898396D01*
X127068958Y-64918937D01*
X127114195Y-64971143D01*
X127132477Y-65010349D01*
X127263802Y-65197900D01*
X127425700Y-65359798D01*
X127613251Y-65491123D01*
X127820757Y-65587884D01*
X128041913Y-65647143D01*
X128270000Y-65667098D01*
X128498087Y-65647143D01*
X128719243Y-65587884D01*
X128926749Y-65491123D01*
X129114300Y-65359798D01*
X129276198Y-65197900D01*
X129407523Y-65010349D01*
X129425805Y-64971143D01*
X129472721Y-64917858D01*
X129540998Y-64898396D01*
X129608958Y-64918937D01*
X129654195Y-64971143D01*
X129672477Y-65010349D01*
X129803802Y-65197900D01*
X129965700Y-65359798D01*
X130153251Y-65491123D01*
X130360757Y-65587884D01*
X130581913Y-65647143D01*
X130810000Y-65667098D01*
X131038087Y-65647143D01*
X131259243Y-65587884D01*
X131466749Y-65491123D01*
X131654300Y-65359798D01*
X131816198Y-65197900D01*
X131947523Y-65010349D01*
X131965805Y-64971143D01*
X132012721Y-64917858D01*
X132080998Y-64898396D01*
X132148958Y-64918937D01*
X132194195Y-64971143D01*
X132212477Y-65010349D01*
X132343802Y-65197900D01*
X132505700Y-65359798D01*
X132693251Y-65491123D01*
X132900757Y-65587884D01*
X133121913Y-65647143D01*
X133350000Y-65667098D01*
X133578087Y-65647143D01*
X133799243Y-65587884D01*
X134006749Y-65491123D01*
X134194300Y-65359798D01*
X134356198Y-65197900D01*
X134487523Y-65010349D01*
X134505805Y-64971143D01*
X134552721Y-64917858D01*
X134620998Y-64898396D01*
X134688958Y-64918937D01*
X134734195Y-64971143D01*
X134752477Y-65010349D01*
X134883802Y-65197900D01*
X135045700Y-65359798D01*
X135233251Y-65491123D01*
X135440757Y-65587884D01*
X135661913Y-65647143D01*
X135890000Y-65667098D01*
X136118087Y-65647143D01*
X136339243Y-65587884D01*
X136546749Y-65491123D01*
X136734300Y-65359798D01*
X136896198Y-65197900D01*
X137027523Y-65010349D01*
X137045805Y-64971143D01*
X137092721Y-64917858D01*
X137160998Y-64898396D01*
X137228958Y-64918937D01*
X137274195Y-64971143D01*
X137292477Y-65010349D01*
X137423802Y-65197900D01*
X137585700Y-65359798D01*
X137773251Y-65491123D01*
X137980757Y-65587884D01*
X138201913Y-65647143D01*
X138430000Y-65667098D01*
X138658087Y-65647143D01*
X138879243Y-65587884D01*
X139086749Y-65491123D01*
X139274300Y-65359798D01*
X139436198Y-65197900D01*
X139567523Y-65010349D01*
X139585805Y-64971143D01*
X139632721Y-64917858D01*
X139700998Y-64898396D01*
X139768958Y-64918937D01*
X139814195Y-64971143D01*
X139832477Y-65010349D01*
X139963802Y-65197900D01*
X140125700Y-65359798D01*
X140313251Y-65491123D01*
X140520757Y-65587884D01*
X140741913Y-65647143D01*
X140970000Y-65667098D01*
X141198087Y-65647143D01*
X141419243Y-65587884D01*
X141626749Y-65491123D01*
X141814300Y-65359798D01*
X141976198Y-65197900D01*
X142107523Y-65010349D01*
X142125805Y-64971143D01*
X142172721Y-64917858D01*
X142240998Y-64898396D01*
X142308958Y-64918937D01*
X142354195Y-64971143D01*
X142372477Y-65010349D01*
X142503802Y-65197900D01*
X142665700Y-65359798D01*
X142853251Y-65491123D01*
X143060757Y-65587884D01*
X143281913Y-65647143D01*
X143510000Y-65667098D01*
X143738087Y-65647143D01*
X143959243Y-65587884D01*
X144166749Y-65491123D01*
X144354300Y-65359798D01*
X144516198Y-65197900D01*
X144647523Y-65010349D01*
X144687314Y-64925017D01*
X175046500Y-64925017D01*
X175046500Y-65154983D01*
X175053298Y-65197902D01*
X175082474Y-65382120D01*
X175117892Y-65491122D01*
X175153538Y-65600829D01*
X175153539Y-65600832D01*
X175153541Y-65600836D01*
X175177135Y-65647142D01*
X175257940Y-65805731D01*
X175393111Y-65991778D01*
X175393113Y-65991780D01*
X175393115Y-65991783D01*
X175555716Y-66154384D01*
X175555719Y-66154386D01*
X175555722Y-66154389D01*
X175741769Y-66289560D01*
X175946671Y-66393962D01*
X176165382Y-66465026D01*
X176392517Y-66501000D01*
X176392519Y-66501000D01*
X176717481Y-66501000D01*
X176717483Y-66501000D01*
X176944618Y-66465026D01*
X177163329Y-66393962D01*
X177368231Y-66289560D01*
X177554278Y-66154389D01*
X177716889Y-65991778D01*
X177852060Y-65805731D01*
X177956462Y-65600829D01*
X178027526Y-65382118D01*
X178063500Y-65154983D01*
X178063500Y-64925017D01*
X178027526Y-64697882D01*
X177956462Y-64479171D01*
X177852060Y-64274269D01*
X177716889Y-64088222D01*
X177716886Y-64088219D01*
X177716884Y-64088216D01*
X177554283Y-63925615D01*
X177554280Y-63925613D01*
X177554278Y-63925611D01*
X177368231Y-63790440D01*
X177261498Y-63736057D01*
X177163336Y-63686041D01*
X177163332Y-63686039D01*
X177163329Y-63686038D01*
X177053973Y-63650506D01*
X176944620Y-63614974D01*
X176831050Y-63596987D01*
X176717483Y-63579000D01*
X176392517Y-63579000D01*
X176301663Y-63593389D01*
X176165379Y-63614974D01*
X176001348Y-63668272D01*
X175946671Y-63686038D01*
X175946669Y-63686038D01*
X175946663Y-63686041D01*
X175741768Y-63790440D01*
X175555719Y-63925613D01*
X175555716Y-63925615D01*
X175393115Y-64088216D01*
X175393113Y-64088219D01*
X175257940Y-64274268D01*
X175153541Y-64479163D01*
X175153538Y-64479172D01*
X175082474Y-64697879D01*
X175065850Y-64802843D01*
X175046500Y-64925017D01*
X144687314Y-64925017D01*
X144744284Y-64802843D01*
X144803543Y-64581687D01*
X144823498Y-64353600D01*
X144803543Y-64125513D01*
X144744284Y-63904357D01*
X144647523Y-63696851D01*
X144516198Y-63509300D01*
X144354300Y-63347402D01*
X144166749Y-63216077D01*
X143959246Y-63119317D01*
X143959240Y-63119315D01*
X143865771Y-63094270D01*
X143738087Y-63060057D01*
X143510000Y-63040102D01*
X143281913Y-63060057D01*
X143060759Y-63119315D01*
X143060753Y-63119317D01*
X142853250Y-63216077D01*
X142665703Y-63347399D01*
X142665697Y-63347404D01*
X142503804Y-63509297D01*
X142503799Y-63509303D01*
X142372477Y-63696850D01*
X142354195Y-63736057D01*
X142307278Y-63789342D01*
X142239001Y-63808803D01*
X142171041Y-63788261D01*
X142125805Y-63736057D01*
X142123894Y-63731959D01*
X142107523Y-63696851D01*
X141976198Y-63509300D01*
X141814300Y-63347402D01*
X141626749Y-63216077D01*
X141419246Y-63119317D01*
X141419240Y-63119315D01*
X141325771Y-63094270D01*
X141198087Y-63060057D01*
X140970000Y-63040102D01*
X140741913Y-63060057D01*
X140520759Y-63119315D01*
X140520753Y-63119317D01*
X140313250Y-63216077D01*
X140125703Y-63347399D01*
X140125697Y-63347404D01*
X139963804Y-63509297D01*
X139963799Y-63509303D01*
X139832477Y-63696850D01*
X139814195Y-63736057D01*
X139767278Y-63789342D01*
X139699001Y-63808803D01*
X139631041Y-63788261D01*
X139585805Y-63736057D01*
X139583894Y-63731959D01*
X139567523Y-63696851D01*
X139436198Y-63509300D01*
X139274300Y-63347402D01*
X139086749Y-63216077D01*
X138879246Y-63119317D01*
X138879240Y-63119315D01*
X138785771Y-63094270D01*
X138658087Y-63060057D01*
X138430000Y-63040102D01*
X138201913Y-63060057D01*
X137980759Y-63119315D01*
X137980753Y-63119317D01*
X137773250Y-63216077D01*
X137585703Y-63347399D01*
X137585697Y-63347404D01*
X137423804Y-63509297D01*
X137423799Y-63509303D01*
X137292477Y-63696850D01*
X137274195Y-63736057D01*
X137227278Y-63789342D01*
X137159001Y-63808803D01*
X137091041Y-63788261D01*
X137045805Y-63736057D01*
X137043894Y-63731959D01*
X137027523Y-63696851D01*
X136896198Y-63509300D01*
X136734300Y-63347402D01*
X136546749Y-63216077D01*
X136339246Y-63119317D01*
X136339240Y-63119315D01*
X136245771Y-63094270D01*
X136118087Y-63060057D01*
X135890000Y-63040102D01*
X135661913Y-63060057D01*
X135440759Y-63119315D01*
X135440753Y-63119317D01*
X135233250Y-63216077D01*
X135045703Y-63347399D01*
X135045697Y-63347404D01*
X134883804Y-63509297D01*
X134883799Y-63509303D01*
X134752477Y-63696850D01*
X134734195Y-63736057D01*
X134687278Y-63789342D01*
X134619001Y-63808803D01*
X134551041Y-63788261D01*
X134505805Y-63736057D01*
X134503894Y-63731959D01*
X134487523Y-63696851D01*
X134356198Y-63509300D01*
X134194300Y-63347402D01*
X134006749Y-63216077D01*
X133799246Y-63119317D01*
X133799240Y-63119315D01*
X133705771Y-63094270D01*
X133578087Y-63060057D01*
X133350000Y-63040102D01*
X133121913Y-63060057D01*
X132900759Y-63119315D01*
X132900753Y-63119317D01*
X132693250Y-63216077D01*
X132505703Y-63347399D01*
X132505697Y-63347404D01*
X132343804Y-63509297D01*
X132343799Y-63509303D01*
X132212477Y-63696850D01*
X132194195Y-63736057D01*
X132147278Y-63789342D01*
X132079001Y-63808803D01*
X132011041Y-63788261D01*
X131965805Y-63736057D01*
X131963894Y-63731959D01*
X131947523Y-63696851D01*
X131816198Y-63509300D01*
X131654300Y-63347402D01*
X131466749Y-63216077D01*
X131259246Y-63119317D01*
X131259240Y-63119315D01*
X131165771Y-63094270D01*
X131038087Y-63060057D01*
X130810000Y-63040102D01*
X130581913Y-63060057D01*
X130360759Y-63119315D01*
X130360753Y-63119317D01*
X130153250Y-63216077D01*
X129965703Y-63347399D01*
X129965697Y-63347404D01*
X129803804Y-63509297D01*
X129803799Y-63509303D01*
X129672477Y-63696850D01*
X129654195Y-63736057D01*
X129607278Y-63789342D01*
X129539001Y-63808803D01*
X129471041Y-63788261D01*
X129425805Y-63736057D01*
X129423894Y-63731959D01*
X129407523Y-63696851D01*
X129276198Y-63509300D01*
X129114300Y-63347402D01*
X128926749Y-63216077D01*
X128719246Y-63119317D01*
X128719240Y-63119315D01*
X128625771Y-63094270D01*
X128498087Y-63060057D01*
X128270000Y-63040102D01*
X128041913Y-63060057D01*
X127820759Y-63119315D01*
X127820753Y-63119317D01*
X127613250Y-63216077D01*
X127425703Y-63347399D01*
X127425697Y-63347404D01*
X127263804Y-63509297D01*
X127263799Y-63509303D01*
X127132477Y-63696850D01*
X127114195Y-63736057D01*
X127067278Y-63789342D01*
X126999001Y-63808803D01*
X126931041Y-63788261D01*
X126885805Y-63736057D01*
X126883894Y-63731959D01*
X126867523Y-63696851D01*
X126736198Y-63509300D01*
X126574300Y-63347402D01*
X126386749Y-63216077D01*
X126179246Y-63119317D01*
X126179240Y-63119315D01*
X126085771Y-63094270D01*
X125958087Y-63060057D01*
X125730000Y-63040102D01*
X125501913Y-63060057D01*
X125280759Y-63119315D01*
X125280753Y-63119317D01*
X125073250Y-63216077D01*
X124885703Y-63347399D01*
X124885697Y-63347404D01*
X124723804Y-63509297D01*
X124723799Y-63509303D01*
X124592477Y-63696850D01*
X124574195Y-63736057D01*
X124527278Y-63789342D01*
X124459001Y-63808803D01*
X124391041Y-63788261D01*
X124345805Y-63736057D01*
X124343894Y-63731959D01*
X124327523Y-63696851D01*
X124196198Y-63509300D01*
X124034300Y-63347402D01*
X123846749Y-63216077D01*
X123639246Y-63119317D01*
X123639240Y-63119315D01*
X123545771Y-63094270D01*
X123418087Y-63060057D01*
X123190000Y-63040102D01*
X122961913Y-63060057D01*
X122740759Y-63119315D01*
X122740753Y-63119317D01*
X122533250Y-63216077D01*
X122345703Y-63347399D01*
X122345697Y-63347404D01*
X122183804Y-63509297D01*
X122183799Y-63509303D01*
X122052477Y-63696850D01*
X122034195Y-63736057D01*
X121987278Y-63789342D01*
X121919001Y-63808803D01*
X121851041Y-63788261D01*
X121805805Y-63736057D01*
X121803894Y-63731959D01*
X121787523Y-63696851D01*
X121656198Y-63509300D01*
X121494300Y-63347402D01*
X121306749Y-63216077D01*
X121099246Y-63119317D01*
X121099240Y-63119315D01*
X121005771Y-63094270D01*
X120878087Y-63060057D01*
X120650000Y-63040102D01*
X120421913Y-63060057D01*
X120200759Y-63119315D01*
X120200753Y-63119317D01*
X119993250Y-63216077D01*
X119805703Y-63347399D01*
X119805697Y-63347404D01*
X119643804Y-63509297D01*
X119643799Y-63509303D01*
X119512477Y-63696850D01*
X119494195Y-63736057D01*
X119447278Y-63789342D01*
X119379001Y-63808803D01*
X119311041Y-63788261D01*
X119265805Y-63736057D01*
X119263894Y-63731959D01*
X119247523Y-63696851D01*
X119116198Y-63509300D01*
X118954300Y-63347402D01*
X118766749Y-63216077D01*
X118559246Y-63119317D01*
X118559240Y-63119315D01*
X118465771Y-63094270D01*
X118338087Y-63060057D01*
X118110000Y-63040102D01*
X117881913Y-63060057D01*
X117660759Y-63119315D01*
X117660753Y-63119317D01*
X117453250Y-63216077D01*
X117265703Y-63347399D01*
X117265697Y-63347404D01*
X117103804Y-63509297D01*
X117103799Y-63509303D01*
X116972477Y-63696850D01*
X116954195Y-63736057D01*
X116907278Y-63789342D01*
X116839001Y-63808803D01*
X116771041Y-63788261D01*
X116725805Y-63736057D01*
X116723894Y-63731959D01*
X116707523Y-63696851D01*
X116576198Y-63509300D01*
X116414300Y-63347402D01*
X116226749Y-63216077D01*
X116019246Y-63119317D01*
X116019240Y-63119315D01*
X115925771Y-63094270D01*
X115798087Y-63060057D01*
X115570000Y-63040102D01*
X115341913Y-63060057D01*
X115120759Y-63119315D01*
X115120753Y-63119317D01*
X114913250Y-63216077D01*
X114725703Y-63347399D01*
X114725697Y-63347404D01*
X114563804Y-63509297D01*
X114563799Y-63509303D01*
X114432477Y-63696850D01*
X114414195Y-63736057D01*
X114367278Y-63789342D01*
X114299001Y-63808803D01*
X114231041Y-63788261D01*
X114185805Y-63736057D01*
X114183894Y-63731959D01*
X114167523Y-63696851D01*
X114036198Y-63509300D01*
X113874300Y-63347402D01*
X113686749Y-63216077D01*
X113479246Y-63119317D01*
X113479240Y-63119315D01*
X113385771Y-63094270D01*
X113258087Y-63060057D01*
X113030000Y-63040102D01*
X112801913Y-63060057D01*
X112580759Y-63119315D01*
X112580753Y-63119317D01*
X112373250Y-63216077D01*
X112185703Y-63347399D01*
X112185697Y-63347404D01*
X112023804Y-63509297D01*
X112023799Y-63509303D01*
X111892477Y-63696850D01*
X111795717Y-63904353D01*
X111795715Y-63904359D01*
X111736457Y-64125513D01*
X111716502Y-64353600D01*
X109263498Y-64353600D01*
X109243543Y-64125513D01*
X109184284Y-63904357D01*
X109087523Y-63696851D01*
X108956198Y-63509300D01*
X108794300Y-63347402D01*
X108606749Y-63216077D01*
X108399246Y-63119317D01*
X108399240Y-63119315D01*
X108305771Y-63094270D01*
X108178087Y-63060057D01*
X107950000Y-63040102D01*
X107721913Y-63060057D01*
X107500759Y-63119315D01*
X107500753Y-63119317D01*
X107293250Y-63216077D01*
X107105703Y-63347399D01*
X107105697Y-63347404D01*
X106943804Y-63509297D01*
X106943799Y-63509303D01*
X106812477Y-63696850D01*
X106715717Y-63904353D01*
X106715715Y-63904359D01*
X106656457Y-64125513D01*
X106636502Y-64353600D01*
X103611749Y-64353600D01*
X102247988Y-62989839D01*
X102247982Y-62989834D01*
X102247981Y-62989833D01*
X102081493Y-62878590D01*
X101964839Y-62830270D01*
X101896505Y-62801965D01*
X101896502Y-62801964D01*
X101700119Y-62762900D01*
X101700116Y-62762900D01*
X81383084Y-62762900D01*
X81383080Y-62762900D01*
X81186697Y-62801964D01*
X81186694Y-62801965D01*
X81001707Y-62878590D01*
X80835217Y-62989834D01*
X80835211Y-62989839D01*
X80693639Y-63131411D01*
X80693634Y-63131417D01*
X80582390Y-63297907D01*
X80505765Y-63482894D01*
X80505764Y-63482897D01*
X80466700Y-63679280D01*
X80466700Y-63879519D01*
X80505764Y-64075902D01*
X80505765Y-64075905D01*
X80510866Y-64088219D01*
X80582390Y-64260893D01*
X80693633Y-64427381D01*
X80693634Y-64427382D01*
X80693639Y-64427388D01*
X80835211Y-64568960D01*
X80835217Y-64568965D01*
X80835219Y-64568967D01*
X81001707Y-64680210D01*
X81186698Y-64756836D01*
X81383084Y-64795900D01*
X91771006Y-64795900D01*
X91839127Y-64815902D01*
X91885620Y-64869558D01*
X91897005Y-64922005D01*
X91874910Y-90895204D01*
X91847544Y-123064107D01*
X91827484Y-123132211D01*
X91773789Y-123178658D01*
X91721544Y-123190000D01*
X35538288Y-123190000D01*
X35470167Y-123169998D01*
X35446481Y-123150299D01*
X34324193Y-121956375D01*
X34292110Y-121893040D01*
X34290000Y-121870076D01*
X34290000Y-117043198D01*
X35094833Y-117043198D01*
X35094833Y-117043201D01*
X35114291Y-117488860D01*
X35114291Y-117488863D01*
X35172516Y-117931122D01*
X35172518Y-117931132D01*
X35269063Y-118366622D01*
X35269072Y-118366656D01*
X35403200Y-118792055D01*
X35403208Y-118792077D01*
X35573912Y-119204194D01*
X35779897Y-119599889D01*
X35779900Y-119599895D01*
X36019572Y-119976104D01*
X36019577Y-119976110D01*
X36291118Y-120329989D01*
X36291125Y-120329997D01*
X36291134Y-120330009D01*
X36592504Y-120658896D01*
X36921391Y-120960266D01*
X36921404Y-120960276D01*
X36921410Y-120960281D01*
X37275289Y-121231822D01*
X37275295Y-121231827D01*
X37651504Y-121471499D01*
X37651508Y-121471501D01*
X37651516Y-121471506D01*
X38047198Y-121677484D01*
X38459325Y-121848193D01*
X38459343Y-121848198D01*
X38459344Y-121848199D01*
X38884743Y-121982327D01*
X38884749Y-121982328D01*
X38884763Y-121982333D01*
X39320273Y-122078883D01*
X39762541Y-122137109D01*
X40185808Y-122155589D01*
X40208199Y-122156567D01*
X40208200Y-122156567D01*
X40208201Y-122156567D01*
X40227659Y-122155717D01*
X40653859Y-122137109D01*
X41096127Y-122078883D01*
X41531637Y-121982333D01*
X41957075Y-121848193D01*
X42369202Y-121677484D01*
X42764884Y-121471506D01*
X43141107Y-121231825D01*
X43495009Y-120960266D01*
X43823896Y-120658896D01*
X44125266Y-120330009D01*
X44396825Y-119976107D01*
X44636506Y-119599884D01*
X44842484Y-119204202D01*
X45013193Y-118792075D01*
X45147333Y-118366637D01*
X45243883Y-117931127D01*
X45302109Y-117488859D01*
X45321567Y-117043200D01*
X45302109Y-116597541D01*
X45243883Y-116155273D01*
X45147333Y-115719763D01*
X45078826Y-115502488D01*
X45013199Y-115294344D01*
X45013198Y-115294343D01*
X45013193Y-115294325D01*
X44842484Y-114882198D01*
X44842481Y-114882190D01*
X44636513Y-114486529D01*
X44636499Y-114486505D01*
X44396827Y-114110295D01*
X44396822Y-114110289D01*
X44125281Y-113756410D01*
X44125276Y-113756404D01*
X44125266Y-113756391D01*
X43823896Y-113427504D01*
X43495009Y-113126134D01*
X43494997Y-113126125D01*
X43494989Y-113126118D01*
X43141110Y-112854577D01*
X43141104Y-112854572D01*
X42764895Y-112614900D01*
X42764889Y-112614897D01*
X42764887Y-112614896D01*
X42764884Y-112614894D01*
X42369202Y-112408916D01*
X42369200Y-112408915D01*
X42369194Y-112408912D01*
X41957077Y-112238208D01*
X41957075Y-112238207D01*
X41957069Y-112238205D01*
X41957055Y-112238200D01*
X41531656Y-112104072D01*
X41531622Y-112104063D01*
X41096132Y-112007518D01*
X41096122Y-112007516D01*
X40653862Y-111949291D01*
X40208201Y-111929833D01*
X40208199Y-111929833D01*
X39762539Y-111949291D01*
X39762536Y-111949291D01*
X39320277Y-112007516D01*
X39320267Y-112007518D01*
X38884777Y-112104063D01*
X38884743Y-112104072D01*
X38459344Y-112238200D01*
X38459322Y-112238208D01*
X38047190Y-112408918D01*
X37651529Y-112614886D01*
X37651505Y-112614900D01*
X37275295Y-112854572D01*
X37275289Y-112854577D01*
X36921410Y-113126118D01*
X36921384Y-113126140D01*
X36592504Y-113427504D01*
X36291140Y-113756384D01*
X36291118Y-113756410D01*
X36019577Y-114110289D01*
X36019572Y-114110295D01*
X35779900Y-114486505D01*
X35779886Y-114486529D01*
X35573918Y-114882190D01*
X35403208Y-115294322D01*
X35403200Y-115294344D01*
X35269072Y-115719743D01*
X35269063Y-115719777D01*
X35172518Y-116155267D01*
X35172516Y-116155277D01*
X35114291Y-116597536D01*
X35114291Y-116597539D01*
X35094833Y-117043198D01*
X34290000Y-117043198D01*
X34290000Y-98950000D01*
X48286401Y-98950000D01*
X48306777Y-99299846D01*
X48306777Y-99299852D01*
X48306778Y-99299857D01*
X48367633Y-99644984D01*
X48468143Y-99980712D01*
X48468145Y-99980718D01*
X48468146Y-99980719D01*
X48576312Y-100231476D01*
X48606950Y-100302501D01*
X48782175Y-100606000D01*
X48991449Y-100887104D01*
X49231943Y-101142012D01*
X49231948Y-101142016D01*
X49231954Y-101142022D01*
X49500396Y-101367273D01*
X49500400Y-101367276D01*
X49500403Y-101367278D01*
X49793200Y-101559853D01*
X50106374Y-101717135D01*
X50271032Y-101777065D01*
X50435681Y-101836993D01*
X50435682Y-101836993D01*
X50435690Y-101836996D01*
X50776694Y-101917816D01*
X50975597Y-101941064D01*
X51124772Y-101958500D01*
X51124775Y-101958500D01*
X51475228Y-101958500D01*
X51605755Y-101943243D01*
X51823306Y-101917816D01*
X52164310Y-101836996D01*
X52493626Y-101717135D01*
X52806800Y-101559853D01*
X53099597Y-101367278D01*
X53368057Y-101142012D01*
X53608551Y-100887104D01*
X53817825Y-100606000D01*
X53993050Y-100302501D01*
X54131857Y-99980712D01*
X54232367Y-99644984D01*
X54293222Y-99299857D01*
X54313599Y-98950000D01*
X58186401Y-98950000D01*
X58206777Y-99299846D01*
X58206777Y-99299852D01*
X58206778Y-99299857D01*
X58267633Y-99644984D01*
X58368143Y-99980712D01*
X58368145Y-99980718D01*
X58368146Y-99980719D01*
X58476312Y-100231476D01*
X58506950Y-100302501D01*
X58682175Y-100606000D01*
X58891449Y-100887104D01*
X59131943Y-101142012D01*
X59131948Y-101142016D01*
X59131954Y-101142022D01*
X59400396Y-101367273D01*
X59400400Y-101367276D01*
X59400403Y-101367278D01*
X59693200Y-101559853D01*
X60006374Y-101717135D01*
X60171032Y-101777065D01*
X60335681Y-101836993D01*
X60335682Y-101836993D01*
X60335690Y-101836996D01*
X60676694Y-101917816D01*
X60875597Y-101941064D01*
X61024772Y-101958500D01*
X61024775Y-101958500D01*
X61375228Y-101958500D01*
X61505755Y-101943243D01*
X61723306Y-101917816D01*
X62064310Y-101836996D01*
X62393626Y-101717135D01*
X62706800Y-101559853D01*
X62999597Y-101367278D01*
X63268057Y-101142012D01*
X63508551Y-100887104D01*
X63717825Y-100606000D01*
X63893050Y-100302501D01*
X64031857Y-99980712D01*
X64132367Y-99644984D01*
X64193222Y-99299857D01*
X64213599Y-98950000D01*
X68536401Y-98950000D01*
X68556777Y-99299846D01*
X68556777Y-99299852D01*
X68556778Y-99299857D01*
X68617633Y-99644984D01*
X68718143Y-99980712D01*
X68718145Y-99980718D01*
X68718146Y-99980719D01*
X68826312Y-100231476D01*
X68856950Y-100302501D01*
X69032175Y-100606000D01*
X69241449Y-100887104D01*
X69481943Y-101142012D01*
X69481948Y-101142016D01*
X69481954Y-101142022D01*
X69750396Y-101367273D01*
X69750400Y-101367276D01*
X69750403Y-101367278D01*
X70043200Y-101559853D01*
X70356374Y-101717135D01*
X70521032Y-101777065D01*
X70685681Y-101836993D01*
X70685682Y-101836993D01*
X70685690Y-101836996D01*
X71026694Y-101917816D01*
X71225597Y-101941064D01*
X71374772Y-101958500D01*
X71374775Y-101958500D01*
X71725228Y-101958500D01*
X71855755Y-101943243D01*
X72073306Y-101917816D01*
X72414310Y-101836996D01*
X72743626Y-101717135D01*
X73056800Y-101559853D01*
X73349597Y-101367278D01*
X73618057Y-101142012D01*
X73858551Y-100887104D01*
X74067825Y-100606000D01*
X74243050Y-100302501D01*
X74381857Y-99980712D01*
X74482367Y-99644984D01*
X74543222Y-99299857D01*
X74563599Y-98950000D01*
X74543222Y-98600143D01*
X74482367Y-98255016D01*
X74381857Y-97919288D01*
X74243050Y-97597499D01*
X74067825Y-97294000D01*
X73858551Y-97012896D01*
X73618057Y-96757988D01*
X73618050Y-96757982D01*
X73618045Y-96757977D01*
X73349603Y-96532726D01*
X73339995Y-96526407D01*
X73056800Y-96340147D01*
X72743626Y-96182865D01*
X72743621Y-96182863D01*
X72743616Y-96182861D01*
X72414318Y-96063006D01*
X72414313Y-96063005D01*
X72414312Y-96063004D01*
X72414310Y-96063004D01*
X72226961Y-96018601D01*
X72073307Y-95982184D01*
X72073301Y-95982183D01*
X71725228Y-95941500D01*
X71725225Y-95941500D01*
X71374775Y-95941500D01*
X71374772Y-95941500D01*
X71026698Y-95982183D01*
X71026692Y-95982184D01*
X70685686Y-96063005D01*
X70685681Y-96063006D01*
X70356383Y-96182861D01*
X70356378Y-96182863D01*
X70043198Y-96340148D01*
X69750396Y-96532726D01*
X69481954Y-96757977D01*
X69481948Y-96757983D01*
X69241450Y-97012894D01*
X69032178Y-97293995D01*
X69032168Y-97294011D01*
X68856953Y-97597493D01*
X68856944Y-97597511D01*
X68718146Y-97919280D01*
X68718144Y-97919286D01*
X68617633Y-98255015D01*
X68556777Y-98600147D01*
X68556777Y-98600153D01*
X68536401Y-98950000D01*
X64213599Y-98950000D01*
X64193222Y-98600143D01*
X64132367Y-98255016D01*
X64031857Y-97919288D01*
X63893050Y-97597499D01*
X63717825Y-97294000D01*
X63508551Y-97012896D01*
X63268057Y-96757988D01*
X63268050Y-96757982D01*
X63268045Y-96757977D01*
X62999603Y-96532726D01*
X62989995Y-96526407D01*
X62706800Y-96340147D01*
X62393626Y-96182865D01*
X62393621Y-96182863D01*
X62393616Y-96182861D01*
X62064318Y-96063006D01*
X62064313Y-96063005D01*
X62064312Y-96063004D01*
X62064310Y-96063004D01*
X61876961Y-96018601D01*
X61723307Y-95982184D01*
X61723301Y-95982183D01*
X61375228Y-95941500D01*
X61375225Y-95941500D01*
X61024775Y-95941500D01*
X61024772Y-95941500D01*
X60676698Y-95982183D01*
X60676692Y-95982184D01*
X60335686Y-96063005D01*
X60335681Y-96063006D01*
X60006383Y-96182861D01*
X60006378Y-96182863D01*
X59693198Y-96340148D01*
X59400396Y-96532726D01*
X59131954Y-96757977D01*
X59131948Y-96757983D01*
X58891450Y-97012894D01*
X58682178Y-97293995D01*
X58682168Y-97294011D01*
X58506953Y-97597493D01*
X58506944Y-97597511D01*
X58368146Y-97919280D01*
X58368144Y-97919286D01*
X58267633Y-98255015D01*
X58206777Y-98600147D01*
X58206777Y-98600153D01*
X58186401Y-98950000D01*
X54313599Y-98950000D01*
X54293222Y-98600143D01*
X54232367Y-98255016D01*
X54131857Y-97919288D01*
X53993050Y-97597499D01*
X53817825Y-97294000D01*
X53608551Y-97012896D01*
X53368057Y-96757988D01*
X53368050Y-96757982D01*
X53368045Y-96757977D01*
X53099603Y-96532726D01*
X53089995Y-96526407D01*
X52806800Y-96340147D01*
X52493626Y-96182865D01*
X52493621Y-96182863D01*
X52493616Y-96182861D01*
X52164318Y-96063006D01*
X52164313Y-96063005D01*
X52164312Y-96063004D01*
X52164310Y-96063004D01*
X51976961Y-96018601D01*
X51823307Y-95982184D01*
X51823301Y-95982183D01*
X51475228Y-95941500D01*
X51475225Y-95941500D01*
X51124775Y-95941500D01*
X51124772Y-95941500D01*
X50776698Y-95982183D01*
X50776692Y-95982184D01*
X50435686Y-96063005D01*
X50435681Y-96063006D01*
X50106383Y-96182861D01*
X50106378Y-96182863D01*
X49793198Y-96340148D01*
X49500396Y-96532726D01*
X49231954Y-96757977D01*
X49231948Y-96757983D01*
X48991450Y-97012894D01*
X48782178Y-97293995D01*
X48782168Y-97294011D01*
X48606953Y-97597493D01*
X48606944Y-97597511D01*
X48468146Y-97919280D01*
X48468144Y-97919286D01*
X48367633Y-98255015D01*
X48306777Y-98600147D01*
X48306777Y-98600153D01*
X48286401Y-98950000D01*
X34290000Y-98950000D01*
X34290000Y-91630000D01*
X59886502Y-91630000D01*
X59906457Y-91858087D01*
X59965716Y-92079243D01*
X60062477Y-92286749D01*
X60193802Y-92474300D01*
X60355700Y-92636198D01*
X60543251Y-92767523D01*
X60750757Y-92864284D01*
X60971913Y-92923543D01*
X61200000Y-92943498D01*
X61428087Y-92923543D01*
X61649243Y-92864284D01*
X61856749Y-92767523D01*
X62044300Y-92636198D01*
X62206198Y-92474300D01*
X62337523Y-92286749D01*
X62434284Y-92079243D01*
X62493543Y-91858087D01*
X62513498Y-91630000D01*
X62493543Y-91401913D01*
X62434284Y-91180757D01*
X62337523Y-90973251D01*
X62206198Y-90785700D01*
X62044300Y-90623802D01*
X61856749Y-90492477D01*
X61764372Y-90449401D01*
X61649246Y-90395717D01*
X61649240Y-90395715D01*
X61555771Y-90370670D01*
X61428087Y-90336457D01*
X61200000Y-90316502D01*
X60971913Y-90336457D01*
X60750759Y-90395715D01*
X60750753Y-90395717D01*
X60543250Y-90492477D01*
X60355703Y-90623799D01*
X60355697Y-90623804D01*
X60193804Y-90785697D01*
X60193799Y-90785703D01*
X60062477Y-90973250D01*
X59965717Y-91180753D01*
X59965716Y-91180757D01*
X59906457Y-91401913D01*
X59886502Y-91630000D01*
X34290000Y-91630000D01*
X34290000Y-81470000D01*
X59886502Y-81470000D01*
X59906457Y-81698087D01*
X59965716Y-81919243D01*
X60062477Y-82126749D01*
X60193802Y-82314300D01*
X60355700Y-82476198D01*
X60543251Y-82607523D01*
X60750757Y-82704284D01*
X60971913Y-82763543D01*
X61200000Y-82783498D01*
X61428087Y-82763543D01*
X61649243Y-82704284D01*
X61856749Y-82607523D01*
X62044300Y-82476198D01*
X62206198Y-82314300D01*
X62337523Y-82126749D01*
X62434284Y-81919243D01*
X62493543Y-81698087D01*
X62513498Y-81470000D01*
X62493543Y-81241913D01*
X62434284Y-81020757D01*
X62337523Y-80813251D01*
X62206198Y-80625700D01*
X62044300Y-80463802D01*
X61992905Y-80427815D01*
X61856749Y-80332477D01*
X61649246Y-80235717D01*
X61649240Y-80235715D01*
X61555771Y-80210670D01*
X61428087Y-80176457D01*
X61200000Y-80156502D01*
X60971913Y-80176457D01*
X60750759Y-80235715D01*
X60750753Y-80235717D01*
X60543250Y-80332477D01*
X60355703Y-80463799D01*
X60355697Y-80463804D01*
X60193804Y-80625697D01*
X60193799Y-80625703D01*
X60062477Y-80813250D01*
X59965717Y-81020753D01*
X59965716Y-81020757D01*
X59906457Y-81241913D01*
X59886502Y-81470000D01*
X34290000Y-81470000D01*
X34290000Y-77300000D01*
X50456502Y-77300000D01*
X50476457Y-77528087D01*
X50535716Y-77749243D01*
X50632477Y-77956749D01*
X50763802Y-78144300D01*
X50925700Y-78306198D01*
X51113251Y-78437523D01*
X51320757Y-78534284D01*
X51541913Y-78593543D01*
X51770000Y-78613498D01*
X51998087Y-78593543D01*
X52219243Y-78534284D01*
X52426749Y-78437523D01*
X52614300Y-78306198D01*
X52776198Y-78144300D01*
X52907523Y-77956749D01*
X53004284Y-77749243D01*
X53063543Y-77528087D01*
X53083498Y-77300000D01*
X60616502Y-77300000D01*
X60636457Y-77528087D01*
X60695716Y-77749243D01*
X60792477Y-77956749D01*
X60923802Y-78144300D01*
X61085700Y-78306198D01*
X61273251Y-78437523D01*
X61480757Y-78534284D01*
X61701913Y-78593543D01*
X61930000Y-78613498D01*
X62158087Y-78593543D01*
X62379243Y-78534284D01*
X62586749Y-78437523D01*
X62774300Y-78306198D01*
X62936198Y-78144300D01*
X63067523Y-77956749D01*
X63164284Y-77749243D01*
X63223543Y-77528087D01*
X63243498Y-77300000D01*
X63223543Y-77071913D01*
X63164284Y-76850757D01*
X63067523Y-76643251D01*
X62936198Y-76455700D01*
X62774300Y-76293802D01*
X62586749Y-76162477D01*
X62379246Y-76065717D01*
X62379240Y-76065715D01*
X62285771Y-76040670D01*
X62158087Y-76006457D01*
X61930000Y-75986502D01*
X61701913Y-76006457D01*
X61480759Y-76065715D01*
X61480753Y-76065717D01*
X61273250Y-76162477D01*
X61085703Y-76293799D01*
X61085697Y-76293804D01*
X60923804Y-76455697D01*
X60923799Y-76455703D01*
X60792477Y-76643250D01*
X60695717Y-76850753D01*
X60695716Y-76850757D01*
X60636457Y-77071913D01*
X60616502Y-77300000D01*
X53083498Y-77300000D01*
X53063543Y-77071913D01*
X53004284Y-76850757D01*
X52907523Y-76643251D01*
X52776198Y-76455700D01*
X52614300Y-76293802D01*
X52426749Y-76162477D01*
X52219246Y-76065717D01*
X52219240Y-76065715D01*
X52125771Y-76040670D01*
X51998087Y-76006457D01*
X51770000Y-75986502D01*
X51541913Y-76006457D01*
X51320759Y-76065715D01*
X51320753Y-76065717D01*
X51113250Y-76162477D01*
X50925703Y-76293799D01*
X50925697Y-76293804D01*
X50763804Y-76455697D01*
X50763799Y-76455703D01*
X50632477Y-76643250D01*
X50535717Y-76850753D01*
X50535716Y-76850757D01*
X50476457Y-77071913D01*
X50456502Y-77300000D01*
X34290000Y-77300000D01*
X34290000Y-58958850D01*
X175046500Y-58958850D01*
X175046500Y-60961149D01*
X175053009Y-61021696D01*
X175053011Y-61021704D01*
X175104110Y-61158702D01*
X175104112Y-61158707D01*
X175191738Y-61275761D01*
X175308792Y-61363387D01*
X175308794Y-61363388D01*
X175308796Y-61363389D01*
X175367875Y-61385424D01*
X175445795Y-61414488D01*
X175445803Y-61414490D01*
X175506350Y-61420999D01*
X175506355Y-61420999D01*
X175506362Y-61421000D01*
X175506368Y-61421000D01*
X177603632Y-61421000D01*
X177603638Y-61421000D01*
X177603645Y-61420999D01*
X177603649Y-61420999D01*
X177664196Y-61414490D01*
X177664199Y-61414489D01*
X177664201Y-61414489D01*
X177801204Y-61363389D01*
X177918261Y-61275761D01*
X178005889Y-61158704D01*
X178056989Y-61021701D01*
X178063500Y-60961138D01*
X178063500Y-58958862D01*
X178063499Y-58958850D01*
X178056990Y-58898303D01*
X178056988Y-58898295D01*
X178005889Y-58761297D01*
X178005887Y-58761292D01*
X177918261Y-58644238D01*
X177801207Y-58556612D01*
X177801202Y-58556610D01*
X177664204Y-58505511D01*
X177664196Y-58505509D01*
X177603649Y-58499000D01*
X177603638Y-58499000D01*
X175506362Y-58499000D01*
X175506350Y-58499000D01*
X175445803Y-58505509D01*
X175445795Y-58505511D01*
X175308797Y-58556610D01*
X175308792Y-58556612D01*
X175191738Y-58644238D01*
X175104112Y-58761292D01*
X175104110Y-58761297D01*
X175053011Y-58898295D01*
X175053009Y-58898303D01*
X175046500Y-58958850D01*
X34290000Y-58958850D01*
X34290000Y-57176880D01*
X61162700Y-57176880D01*
X61162700Y-57377119D01*
X61201764Y-57573502D01*
X61201765Y-57573505D01*
X61210269Y-57594035D01*
X61278390Y-57758493D01*
X61389633Y-57924981D01*
X61389634Y-57924982D01*
X61389639Y-57924988D01*
X61531211Y-58066560D01*
X61531217Y-58066565D01*
X61531219Y-58066567D01*
X61697707Y-58177810D01*
X61882698Y-58254436D01*
X62079084Y-58293500D01*
X62279316Y-58293500D01*
X62475702Y-58254436D01*
X62660693Y-58177810D01*
X62827181Y-58066567D01*
X63223744Y-57670003D01*
X63286055Y-57635980D01*
X63312838Y-57633100D01*
X78459116Y-57633100D01*
X78655502Y-57594036D01*
X78840493Y-57517410D01*
X79006981Y-57406167D01*
X79148567Y-57264581D01*
X79259810Y-57098093D01*
X79336436Y-56913102D01*
X79375500Y-56716716D01*
X79375500Y-56516484D01*
X79336436Y-56320098D01*
X79259810Y-56135107D01*
X79148567Y-55968619D01*
X79148565Y-55968617D01*
X79148560Y-55968611D01*
X79006988Y-55827039D01*
X79006982Y-55827034D01*
X79006981Y-55827033D01*
X78840493Y-55715790D01*
X78835006Y-55713517D01*
X93843000Y-55713517D01*
X93843000Y-56038483D01*
X93864584Y-56174764D01*
X93878974Y-56265620D01*
X93914506Y-56374973D01*
X93950038Y-56484329D01*
X93950039Y-56484332D01*
X93950041Y-56484336D01*
X94023761Y-56629019D01*
X94054440Y-56689231D01*
X94189611Y-56875278D01*
X94189613Y-56875280D01*
X94189615Y-56875283D01*
X94352216Y-57037884D01*
X94352219Y-57037886D01*
X94352222Y-57037889D01*
X94538269Y-57173060D01*
X94743171Y-57277462D01*
X94961882Y-57348526D01*
X95189017Y-57384500D01*
X95189019Y-57384500D01*
X95418981Y-57384500D01*
X95418983Y-57384500D01*
X95646118Y-57348526D01*
X95864829Y-57277462D01*
X96069731Y-57173060D01*
X96255778Y-57037889D01*
X96418389Y-56875278D01*
X96553560Y-56689231D01*
X96657962Y-56484329D01*
X96729026Y-56265618D01*
X96765000Y-56038483D01*
X96765000Y-55713517D01*
X96729026Y-55486382D01*
X96657962Y-55267671D01*
X96553560Y-55062769D01*
X96418389Y-54876722D01*
X96418386Y-54876719D01*
X96418384Y-54876716D01*
X96369018Y-54827350D01*
X98923000Y-54827350D01*
X98923000Y-56924649D01*
X98929509Y-56985196D01*
X98929511Y-56985204D01*
X98980610Y-57122202D01*
X98980612Y-57122207D01*
X99068238Y-57239261D01*
X99185292Y-57326887D01*
X99185294Y-57326888D01*
X99185296Y-57326889D01*
X99243304Y-57348525D01*
X99322295Y-57377988D01*
X99322303Y-57377990D01*
X99382850Y-57384499D01*
X99382855Y-57384499D01*
X99382862Y-57384500D01*
X99382868Y-57384500D01*
X101385132Y-57384500D01*
X101385138Y-57384500D01*
X101385145Y-57384499D01*
X101385149Y-57384499D01*
X101445696Y-57377990D01*
X101445699Y-57377989D01*
X101445701Y-57377989D01*
X101582704Y-57326889D01*
X101699761Y-57239261D01*
X101787389Y-57122204D01*
X101838489Y-56985201D01*
X101845000Y-56924638D01*
X101845000Y-54827362D01*
X101844999Y-54827350D01*
X101838490Y-54766803D01*
X101838488Y-54766795D01*
X101787389Y-54629797D01*
X101787387Y-54629792D01*
X101699761Y-54512738D01*
X101582707Y-54425112D01*
X101582702Y-54425110D01*
X101445704Y-54374011D01*
X101445696Y-54374009D01*
X101385149Y-54367500D01*
X101385138Y-54367500D01*
X99382862Y-54367500D01*
X99382850Y-54367500D01*
X99322303Y-54374009D01*
X99322295Y-54374011D01*
X99185297Y-54425110D01*
X99185292Y-54425112D01*
X99068238Y-54512738D01*
X98980612Y-54629792D01*
X98980610Y-54629797D01*
X98929511Y-54766795D01*
X98929509Y-54766803D01*
X98923000Y-54827350D01*
X96369018Y-54827350D01*
X96255783Y-54714115D01*
X96255780Y-54714113D01*
X96255778Y-54714111D01*
X96069731Y-54578940D01*
X95864836Y-54474541D01*
X95864832Y-54474539D01*
X95864829Y-54474538D01*
X95755473Y-54439006D01*
X95646120Y-54403474D01*
X95532550Y-54385487D01*
X95418983Y-54367500D01*
X95189017Y-54367500D01*
X95098163Y-54381889D01*
X94961879Y-54403474D01*
X94797848Y-54456772D01*
X94743171Y-54474538D01*
X94743169Y-54474538D01*
X94743163Y-54474541D01*
X94538268Y-54578940D01*
X94352219Y-54714113D01*
X94352216Y-54714115D01*
X94189615Y-54876716D01*
X94189613Y-54876719D01*
X94054440Y-55062768D01*
X93950041Y-55267663D01*
X93950038Y-55267672D01*
X93878974Y-55486379D01*
X93878974Y-55486382D01*
X93843000Y-55713517D01*
X78835006Y-55713517D01*
X78723839Y-55667470D01*
X78655505Y-55639165D01*
X78655502Y-55639164D01*
X78459119Y-55600100D01*
X78459116Y-55600100D01*
X62939717Y-55600100D01*
X62739484Y-55600100D01*
X62739480Y-55600100D01*
X62543097Y-55639164D01*
X62543094Y-55639165D01*
X62358107Y-55715790D01*
X62191617Y-55827034D01*
X62191611Y-55827039D01*
X61389639Y-56629011D01*
X61389634Y-56629017D01*
X61278390Y-56795507D01*
X61201765Y-56980494D01*
X61201764Y-56980497D01*
X61162700Y-57176880D01*
X34290000Y-57176880D01*
X34290000Y-52628000D01*
X53674035Y-52628000D01*
X53690296Y-52834617D01*
X53692665Y-52864710D01*
X53748094Y-53095592D01*
X53818249Y-53264961D01*
X53838960Y-53314963D01*
X53932384Y-53467417D01*
X53963025Y-53517417D01*
X53963026Y-53517419D01*
X54117230Y-53697969D01*
X54297780Y-53852173D01*
X54297784Y-53852176D01*
X54500237Y-53976240D01*
X54719606Y-54067105D01*
X54950489Y-54122535D01*
X55187200Y-54141165D01*
X55423911Y-54122535D01*
X55654794Y-54067105D01*
X55874163Y-53976240D01*
X56076616Y-53852176D01*
X56257169Y-53697969D01*
X56341389Y-53599359D01*
X56400839Y-53560551D01*
X56471834Y-53560043D01*
X56531833Y-53597999D01*
X56533011Y-53599360D01*
X56617230Y-53697969D01*
X56797780Y-53852173D01*
X56797784Y-53852176D01*
X57000237Y-53976240D01*
X57219606Y-54067105D01*
X57450489Y-54122535D01*
X57687200Y-54141165D01*
X57923911Y-54122535D01*
X58154794Y-54067105D01*
X58374163Y-53976240D01*
X58576616Y-53852176D01*
X58757169Y-53697969D01*
X58841389Y-53599359D01*
X58900839Y-53560551D01*
X58971834Y-53560043D01*
X59031833Y-53597999D01*
X59033011Y-53599360D01*
X59117230Y-53697969D01*
X59297780Y-53852173D01*
X59297784Y-53852176D01*
X59500237Y-53976240D01*
X59719606Y-54067105D01*
X59950489Y-54122535D01*
X60187200Y-54141165D01*
X60423911Y-54122535D01*
X60654794Y-54067105D01*
X60874163Y-53976240D01*
X61076616Y-53852176D01*
X61257169Y-53697969D01*
X61411376Y-53517416D01*
X61535440Y-53314963D01*
X61626305Y-53095594D01*
X61681735Y-52864711D01*
X61700365Y-52628000D01*
X61696430Y-52578000D01*
X68361935Y-52578000D01*
X68380565Y-52814710D01*
X68435994Y-53045592D01*
X68526859Y-53264961D01*
X68650925Y-53467417D01*
X68650926Y-53467419D01*
X68805130Y-53647969D01*
X68863673Y-53697969D01*
X68985684Y-53802176D01*
X69188137Y-53926240D01*
X69407506Y-54017105D01*
X69638389Y-54072535D01*
X69875100Y-54091165D01*
X70111811Y-54072535D01*
X70342694Y-54017105D01*
X70562063Y-53926240D01*
X70764516Y-53802176D01*
X70945069Y-53647969D01*
X71029289Y-53549359D01*
X71088739Y-53510551D01*
X71159734Y-53510043D01*
X71219733Y-53547999D01*
X71220911Y-53549360D01*
X71305130Y-53647969D01*
X71363673Y-53697969D01*
X71485684Y-53802176D01*
X71688137Y-53926240D01*
X71907506Y-54017105D01*
X72138389Y-54072535D01*
X72375100Y-54091165D01*
X72611811Y-54072535D01*
X72842694Y-54017105D01*
X73062063Y-53926240D01*
X73264516Y-53802176D01*
X73445069Y-53647969D01*
X73529289Y-53549359D01*
X73588739Y-53510551D01*
X73659734Y-53510043D01*
X73719733Y-53547999D01*
X73720911Y-53549360D01*
X73805130Y-53647969D01*
X73863673Y-53697969D01*
X73985684Y-53802176D01*
X74188137Y-53926240D01*
X74407506Y-54017105D01*
X74638389Y-54072535D01*
X74875100Y-54091165D01*
X75111811Y-54072535D01*
X75342694Y-54017105D01*
X75562063Y-53926240D01*
X75764516Y-53802176D01*
X75945069Y-53647969D01*
X76099276Y-53467416D01*
X76223340Y-53264963D01*
X76314205Y-53045594D01*
X76369635Y-52814711D01*
X76388265Y-52578000D01*
X76369635Y-52341289D01*
X76314205Y-52110406D01*
X76223340Y-51891037D01*
X76099276Y-51688584D01*
X76073154Y-51657999D01*
X75993963Y-51565278D01*
X83135500Y-51565278D01*
X83135500Y-51802722D01*
X83149488Y-51891037D01*
X83172645Y-52037246D01*
X83212663Y-52160407D01*
X83246018Y-52263063D01*
X83353815Y-52474627D01*
X83493380Y-52666722D01*
X83493382Y-52666724D01*
X83493384Y-52666727D01*
X83661272Y-52834615D01*
X83661275Y-52834617D01*
X83661278Y-52834620D01*
X83853373Y-52974185D01*
X84064937Y-53081982D01*
X84290759Y-53155356D01*
X84525278Y-53192500D01*
X84525281Y-53192500D01*
X85762719Y-53192500D01*
X85762722Y-53192500D01*
X85997241Y-53155356D01*
X86223063Y-53081982D01*
X86434627Y-52974185D01*
X86626722Y-52834620D01*
X86794620Y-52666722D01*
X86934185Y-52474627D01*
X87041982Y-52263063D01*
X87115356Y-52037241D01*
X87152500Y-51802722D01*
X87152500Y-51565278D01*
X87115356Y-51330759D01*
X87041982Y-51104937D01*
X86934185Y-50893373D01*
X86794620Y-50701278D01*
X86794617Y-50701275D01*
X86794615Y-50701272D01*
X86626727Y-50533384D01*
X86626724Y-50533382D01*
X86626722Y-50533380D01*
X86434627Y-50393815D01*
X86223063Y-50286018D01*
X86223060Y-50286017D01*
X86223058Y-50286016D01*
X85997246Y-50212645D01*
X85997242Y-50212644D01*
X85997241Y-50212644D01*
X85762722Y-50175500D01*
X84525278Y-50175500D01*
X84290759Y-50212644D01*
X84290753Y-50212645D01*
X84064941Y-50286016D01*
X84064935Y-50286019D01*
X83853369Y-50393817D01*
X83661275Y-50533382D01*
X83661272Y-50533384D01*
X83493384Y-50701272D01*
X83493382Y-50701275D01*
X83353817Y-50893369D01*
X83246019Y-51104935D01*
X83246016Y-51104941D01*
X83172645Y-51330753D01*
X83172644Y-51330758D01*
X83172644Y-51330759D01*
X83135500Y-51565278D01*
X75993963Y-51565278D01*
X75945069Y-51508030D01*
X75764519Y-51353826D01*
X75764517Y-51353825D01*
X75764516Y-51353824D01*
X75562063Y-51229760D01*
X75463406Y-51188895D01*
X75342692Y-51138894D01*
X75184751Y-51100976D01*
X75111811Y-51083465D01*
X74875100Y-51064835D01*
X74638389Y-51083465D01*
X74407507Y-51138894D01*
X74188138Y-51229759D01*
X73985682Y-51353825D01*
X73985680Y-51353826D01*
X73805133Y-51508028D01*
X73720911Y-51606640D01*
X73661460Y-51645449D01*
X73590466Y-51645955D01*
X73530467Y-51607999D01*
X73529289Y-51606640D01*
X73493965Y-51565281D01*
X73445069Y-51508031D01*
X73445067Y-51508029D01*
X73445066Y-51508028D01*
X73264519Y-51353826D01*
X73264517Y-51353825D01*
X73264516Y-51353824D01*
X73062063Y-51229760D01*
X72963406Y-51188895D01*
X72842692Y-51138894D01*
X72684751Y-51100976D01*
X72611811Y-51083465D01*
X72375100Y-51064835D01*
X72138389Y-51083465D01*
X71907507Y-51138894D01*
X71688138Y-51229759D01*
X71485682Y-51353825D01*
X71485680Y-51353826D01*
X71305133Y-51508028D01*
X71220911Y-51606640D01*
X71161460Y-51645449D01*
X71090466Y-51645955D01*
X71030467Y-51607999D01*
X71029289Y-51606640D01*
X70993965Y-51565281D01*
X70945069Y-51508031D01*
X70945067Y-51508029D01*
X70945066Y-51508028D01*
X70764519Y-51353826D01*
X70764517Y-51353825D01*
X70764516Y-51353824D01*
X70562063Y-51229760D01*
X70463406Y-51188895D01*
X70342692Y-51138894D01*
X70184751Y-51100976D01*
X70111811Y-51083465D01*
X69875100Y-51064835D01*
X69638389Y-51083465D01*
X69407507Y-51138894D01*
X69188138Y-51229759D01*
X68985682Y-51353825D01*
X68985680Y-51353826D01*
X68805130Y-51508030D01*
X68650926Y-51688580D01*
X68650925Y-51688582D01*
X68526859Y-51891038D01*
X68435994Y-52110407D01*
X68380565Y-52341289D01*
X68361935Y-52578000D01*
X61696430Y-52578000D01*
X61681735Y-52391289D01*
X61626305Y-52160406D01*
X61535440Y-51941037D01*
X61411376Y-51738584D01*
X61404663Y-51730724D01*
X61257169Y-51558030D01*
X61076619Y-51403826D01*
X61076617Y-51403825D01*
X61076616Y-51403824D01*
X60874163Y-51279760D01*
X60753450Y-51229759D01*
X60654792Y-51188894D01*
X60496851Y-51150976D01*
X60423911Y-51133465D01*
X60187200Y-51114835D01*
X59950489Y-51133465D01*
X59719607Y-51188894D01*
X59500238Y-51279759D01*
X59297782Y-51403825D01*
X59297780Y-51403826D01*
X59117233Y-51558028D01*
X59033011Y-51656640D01*
X58973560Y-51695449D01*
X58902566Y-51695955D01*
X58842567Y-51657999D01*
X58841389Y-51656640D01*
X58831831Y-51645449D01*
X58757169Y-51558031D01*
X58757167Y-51558029D01*
X58757166Y-51558028D01*
X58576619Y-51403826D01*
X58576617Y-51403825D01*
X58576616Y-51403824D01*
X58374163Y-51279760D01*
X58253450Y-51229759D01*
X58154792Y-51188894D01*
X57996851Y-51150976D01*
X57923911Y-51133465D01*
X57687200Y-51114835D01*
X57450489Y-51133465D01*
X57219607Y-51188894D01*
X57000238Y-51279759D01*
X56797782Y-51403825D01*
X56797780Y-51403826D01*
X56617233Y-51558028D01*
X56533011Y-51656640D01*
X56473560Y-51695449D01*
X56402566Y-51695955D01*
X56342567Y-51657999D01*
X56341389Y-51656640D01*
X56331831Y-51645449D01*
X56257169Y-51558031D01*
X56257167Y-51558029D01*
X56257166Y-51558028D01*
X56076619Y-51403826D01*
X56076617Y-51403825D01*
X56076616Y-51403824D01*
X55874163Y-51279760D01*
X55753450Y-51229759D01*
X55654792Y-51188894D01*
X55496851Y-51150976D01*
X55423911Y-51133465D01*
X55187200Y-51114835D01*
X54950489Y-51133465D01*
X54719607Y-51188894D01*
X54500238Y-51279759D01*
X54297782Y-51403825D01*
X54297780Y-51403826D01*
X54117230Y-51558030D01*
X53963026Y-51738580D01*
X53963025Y-51738582D01*
X53838959Y-51941038D01*
X53748094Y-52160407D01*
X53723450Y-52263058D01*
X53692665Y-52391289D01*
X53674035Y-52628000D01*
X34290000Y-52628000D01*
X34290000Y-47865278D01*
X83135500Y-47865278D01*
X83135500Y-48102722D01*
X83172644Y-48337241D01*
X83172645Y-48337246D01*
X83246016Y-48563058D01*
X83246018Y-48563063D01*
X83353815Y-48774627D01*
X83493380Y-48966722D01*
X83493382Y-48966724D01*
X83493384Y-48966727D01*
X83661272Y-49134615D01*
X83661275Y-49134617D01*
X83661278Y-49134620D01*
X83853373Y-49274185D01*
X84064937Y-49381982D01*
X84290759Y-49455356D01*
X84525278Y-49492500D01*
X84525281Y-49492500D01*
X85762719Y-49492500D01*
X85762722Y-49492500D01*
X85997241Y-49455356D01*
X86223063Y-49381982D01*
X86434627Y-49274185D01*
X86626722Y-49134620D01*
X86794620Y-48966722D01*
X86934185Y-48774627D01*
X87041982Y-48563063D01*
X87115356Y-48337241D01*
X87152500Y-48102722D01*
X87152500Y-47865278D01*
X87115356Y-47630759D01*
X87048506Y-47425017D01*
X175046500Y-47425017D01*
X175046500Y-47654983D01*
X175052556Y-47693217D01*
X175082474Y-47882120D01*
X175118006Y-47991473D01*
X175153538Y-48100829D01*
X175153539Y-48100832D01*
X175153541Y-48100836D01*
X175257940Y-48305731D01*
X175393111Y-48491778D01*
X175393113Y-48491780D01*
X175393115Y-48491783D01*
X175555716Y-48654384D01*
X175555719Y-48654386D01*
X175555722Y-48654389D01*
X175741769Y-48789560D01*
X175946671Y-48893962D01*
X176165382Y-48965026D01*
X176392517Y-49001000D01*
X176392519Y-49001000D01*
X176717481Y-49001000D01*
X176717483Y-49001000D01*
X176944618Y-48965026D01*
X177163329Y-48893962D01*
X177368231Y-48789560D01*
X177554278Y-48654389D01*
X177716889Y-48491778D01*
X177852060Y-48305731D01*
X177956462Y-48100829D01*
X178027526Y-47882118D01*
X178063500Y-47654983D01*
X178063500Y-47425017D01*
X178027526Y-47197882D01*
X177956462Y-46979171D01*
X177852060Y-46774269D01*
X177716889Y-46588222D01*
X177716886Y-46588219D01*
X177716884Y-46588216D01*
X177554283Y-46425615D01*
X177554280Y-46425613D01*
X177554278Y-46425611D01*
X177368231Y-46290440D01*
X177263007Y-46236826D01*
X177163336Y-46186041D01*
X177163332Y-46186039D01*
X177163329Y-46186038D01*
X177053973Y-46150506D01*
X176944620Y-46114974D01*
X176831050Y-46096987D01*
X176717483Y-46079000D01*
X176392517Y-46079000D01*
X176301663Y-46093389D01*
X176165379Y-46114974D01*
X176001348Y-46168272D01*
X175946671Y-46186038D01*
X175946669Y-46186038D01*
X175946663Y-46186041D01*
X175741768Y-46290440D01*
X175555719Y-46425613D01*
X175555716Y-46425615D01*
X175393115Y-46588216D01*
X175393113Y-46588219D01*
X175257940Y-46774268D01*
X175153541Y-46979163D01*
X175153538Y-46979172D01*
X175082474Y-47197879D01*
X175066231Y-47300438D01*
X175046500Y-47425017D01*
X87048506Y-47425017D01*
X87041982Y-47404937D01*
X86934185Y-47193373D01*
X86794620Y-47001278D01*
X86794617Y-47001275D01*
X86794615Y-47001272D01*
X86626727Y-46833384D01*
X86626724Y-46833382D01*
X86626722Y-46833380D01*
X86434627Y-46693815D01*
X86223063Y-46586018D01*
X86223060Y-46586017D01*
X86223058Y-46586016D01*
X85997246Y-46512645D01*
X85997242Y-46512644D01*
X85997241Y-46512644D01*
X85762722Y-46475500D01*
X84525278Y-46475500D01*
X84290759Y-46512644D01*
X84290753Y-46512645D01*
X84064941Y-46586016D01*
X84064935Y-46586019D01*
X83853369Y-46693817D01*
X83661275Y-46833382D01*
X83661272Y-46833384D01*
X83493384Y-47001272D01*
X83493382Y-47001275D01*
X83353817Y-47193369D01*
X83246019Y-47404935D01*
X83246016Y-47404941D01*
X83172645Y-47630753D01*
X83172644Y-47630758D01*
X83172644Y-47630759D01*
X83135500Y-47865278D01*
X34290000Y-47865278D01*
X34290000Y-40843198D01*
X35577433Y-40843198D01*
X35577433Y-40843201D01*
X35596891Y-41288860D01*
X35596891Y-41288863D01*
X35655116Y-41731122D01*
X35655118Y-41731132D01*
X35751663Y-42166622D01*
X35751672Y-42166656D01*
X35885800Y-42592055D01*
X35885808Y-42592077D01*
X36056512Y-43004194D01*
X36262497Y-43399889D01*
X36262500Y-43399895D01*
X36502172Y-43776104D01*
X36502177Y-43776110D01*
X36773718Y-44129989D01*
X36773725Y-44129997D01*
X36773734Y-44130009D01*
X37075104Y-44458896D01*
X37403991Y-44760266D01*
X37404004Y-44760276D01*
X37404010Y-44760281D01*
X37757889Y-45031822D01*
X37757895Y-45031827D01*
X38134104Y-45271499D01*
X38134108Y-45271501D01*
X38134116Y-45271506D01*
X38529798Y-45477484D01*
X38941925Y-45648193D01*
X38941943Y-45648198D01*
X38941944Y-45648199D01*
X39367343Y-45782327D01*
X39367349Y-45782328D01*
X39367363Y-45782333D01*
X39802873Y-45878883D01*
X40245141Y-45937109D01*
X40668408Y-45955589D01*
X40690799Y-45956567D01*
X40690800Y-45956567D01*
X40690801Y-45956567D01*
X40710259Y-45955717D01*
X41136459Y-45937109D01*
X41578727Y-45878883D01*
X41722542Y-45847000D01*
X54225769Y-45847000D01*
X54245465Y-46109826D01*
X54245466Y-46109830D01*
X54304111Y-46366775D01*
X54400402Y-46612120D01*
X54400405Y-46612128D01*
X54532182Y-46840372D01*
X54532184Y-46840375D01*
X54532185Y-46840376D01*
X54696514Y-47046438D01*
X54889719Y-47225706D01*
X54889725Y-47225710D01*
X55107475Y-47374170D01*
X55107479Y-47374172D01*
X55107485Y-47374176D01*
X55344946Y-47488532D01*
X55344949Y-47488532D01*
X55344954Y-47488535D01*
X55596789Y-47566215D01*
X55596791Y-47566215D01*
X55596800Y-47566218D01*
X55857419Y-47605500D01*
X55857423Y-47605500D01*
X56120977Y-47605500D01*
X56120981Y-47605500D01*
X56381600Y-47566218D01*
X56592463Y-47501176D01*
X56633445Y-47488535D01*
X56633447Y-47488534D01*
X56633454Y-47488532D01*
X56870916Y-47374176D01*
X57088681Y-47225706D01*
X57281886Y-47046438D01*
X57446215Y-46840376D01*
X57530832Y-46693815D01*
X57577994Y-46612128D01*
X57577996Y-46612124D01*
X57674287Y-46366780D01*
X57732935Y-46109826D01*
X57752631Y-45847000D01*
X59940769Y-45847000D01*
X59960465Y-46109826D01*
X59960466Y-46109830D01*
X60019111Y-46366775D01*
X60115402Y-46612120D01*
X60115405Y-46612128D01*
X60247182Y-46840372D01*
X60247184Y-46840375D01*
X60247185Y-46840376D01*
X60411514Y-47046438D01*
X60604719Y-47225706D01*
X60604725Y-47225710D01*
X60822475Y-47374170D01*
X60822479Y-47374172D01*
X60822485Y-47374176D01*
X61059946Y-47488532D01*
X61059949Y-47488532D01*
X61059954Y-47488535D01*
X61311789Y-47566215D01*
X61311791Y-47566215D01*
X61311800Y-47566218D01*
X61572419Y-47605500D01*
X61572423Y-47605500D01*
X61835977Y-47605500D01*
X61835981Y-47605500D01*
X62096600Y-47566218D01*
X62307463Y-47501176D01*
X62348445Y-47488535D01*
X62348447Y-47488534D01*
X62348454Y-47488532D01*
X62585916Y-47374176D01*
X62803681Y-47225706D01*
X62996886Y-47046438D01*
X63161215Y-46840376D01*
X63245832Y-46693815D01*
X63292994Y-46612128D01*
X63292996Y-46612124D01*
X63389287Y-46366780D01*
X63447935Y-46109826D01*
X63458114Y-45974000D01*
X68980669Y-45974000D01*
X69000365Y-46236826D01*
X69000366Y-46236830D01*
X69059011Y-46493775D01*
X69155302Y-46739120D01*
X69155305Y-46739128D01*
X69287082Y-46967372D01*
X69287084Y-46967375D01*
X69287085Y-46967376D01*
X69451414Y-47173438D01*
X69644619Y-47352706D01*
X69644625Y-47352710D01*
X69862375Y-47501170D01*
X69862379Y-47501172D01*
X69862385Y-47501176D01*
X70099846Y-47615532D01*
X70099849Y-47615532D01*
X70099854Y-47615535D01*
X70351689Y-47693215D01*
X70351691Y-47693215D01*
X70351700Y-47693218D01*
X70612319Y-47732500D01*
X70612323Y-47732500D01*
X70875877Y-47732500D01*
X70875881Y-47732500D01*
X71136500Y-47693218D01*
X71338989Y-47630759D01*
X71388345Y-47615535D01*
X71388347Y-47615534D01*
X71388354Y-47615532D01*
X71625816Y-47501176D01*
X71843581Y-47352706D01*
X72036786Y-47173438D01*
X72201115Y-46967376D01*
X72332896Y-46739124D01*
X72429187Y-46493780D01*
X72487835Y-46236826D01*
X72498014Y-46101000D01*
X73679669Y-46101000D01*
X73699365Y-46363826D01*
X73699366Y-46363830D01*
X73758011Y-46620775D01*
X73854302Y-46866120D01*
X73854305Y-46866128D01*
X73986082Y-47094372D01*
X73986084Y-47094375D01*
X73986085Y-47094376D01*
X74150414Y-47300438D01*
X74343619Y-47479706D01*
X74356564Y-47488532D01*
X74561375Y-47628170D01*
X74561379Y-47628172D01*
X74561385Y-47628176D01*
X74798846Y-47742532D01*
X74798849Y-47742532D01*
X74798854Y-47742535D01*
X75050689Y-47820215D01*
X75050691Y-47820215D01*
X75050700Y-47820218D01*
X75311319Y-47859500D01*
X75311323Y-47859500D01*
X75574877Y-47859500D01*
X75574881Y-47859500D01*
X75835500Y-47820218D01*
X75835510Y-47820215D01*
X76087345Y-47742535D01*
X76087347Y-47742534D01*
X76087354Y-47742532D01*
X76324816Y-47628176D01*
X76542581Y-47479706D01*
X76735786Y-47300438D01*
X76900115Y-47094376D01*
X77031896Y-46866124D01*
X77128187Y-46620780D01*
X77186835Y-46363826D01*
X77206531Y-46101000D01*
X77186835Y-45838174D01*
X77128187Y-45581220D01*
X77031896Y-45335876D01*
X77031895Y-45335875D01*
X77031894Y-45335871D01*
X76900117Y-45107627D01*
X76900115Y-45107624D01*
X76735786Y-44901562D01*
X76542581Y-44722294D01*
X76542574Y-44722289D01*
X76324825Y-44573829D01*
X76324818Y-44573825D01*
X76087357Y-44459469D01*
X76087345Y-44459464D01*
X75835510Y-44381784D01*
X75835502Y-44381782D01*
X75835500Y-44381782D01*
X75574881Y-44342500D01*
X75311319Y-44342500D01*
X75050700Y-44381782D01*
X75050698Y-44381782D01*
X75050689Y-44381784D01*
X74798854Y-44459464D01*
X74798842Y-44459469D01*
X74561383Y-44573825D01*
X74561375Y-44573829D01*
X74343625Y-44722289D01*
X74343620Y-44722293D01*
X74150415Y-44901561D01*
X73986082Y-45107627D01*
X73854305Y-45335871D01*
X73854302Y-45335879D01*
X73758011Y-45581224D01*
X73700515Y-45833136D01*
X73699365Y-45838174D01*
X73679669Y-46101000D01*
X72498014Y-46101000D01*
X72507531Y-45974000D01*
X72487835Y-45711174D01*
X72429187Y-45454220D01*
X72332896Y-45208876D01*
X72332895Y-45208875D01*
X72332894Y-45208871D01*
X72201117Y-44980627D01*
X72195980Y-44974185D01*
X72036786Y-44774562D01*
X71843581Y-44595294D01*
X71812092Y-44573825D01*
X71625825Y-44446829D01*
X71625818Y-44446825D01*
X71388357Y-44332469D01*
X71388345Y-44332464D01*
X71136510Y-44254784D01*
X71136502Y-44254782D01*
X71136500Y-44254782D01*
X70875881Y-44215500D01*
X70612319Y-44215500D01*
X70351700Y-44254782D01*
X70351698Y-44254782D01*
X70351689Y-44254784D01*
X70099854Y-44332464D01*
X70099842Y-44332469D01*
X69862383Y-44446825D01*
X69862375Y-44446829D01*
X69644625Y-44595289D01*
X69644620Y-44595293D01*
X69451415Y-44774561D01*
X69287082Y-44980627D01*
X69155305Y-45208871D01*
X69155302Y-45208879D01*
X69059011Y-45454224D01*
X69003146Y-45698991D01*
X69000365Y-45711174D01*
X68980669Y-45974000D01*
X63458114Y-45974000D01*
X63467631Y-45847000D01*
X63447935Y-45584174D01*
X63389287Y-45327220D01*
X63292996Y-45081876D01*
X63292995Y-45081875D01*
X63292994Y-45081871D01*
X63161217Y-44853627D01*
X63161215Y-44853624D01*
X62996886Y-44647562D01*
X62803681Y-44468294D01*
X62803674Y-44468289D01*
X62585925Y-44319829D01*
X62585918Y-44319825D01*
X62348457Y-44205469D01*
X62348445Y-44205464D01*
X62096610Y-44127784D01*
X62096602Y-44127782D01*
X62096600Y-44127782D01*
X61835981Y-44088500D01*
X61572419Y-44088500D01*
X61311800Y-44127782D01*
X61311798Y-44127782D01*
X61311789Y-44127784D01*
X61059954Y-44205464D01*
X61059942Y-44205469D01*
X60822483Y-44319825D01*
X60822475Y-44319829D01*
X60604725Y-44468289D01*
X60604720Y-44468293D01*
X60467846Y-44595294D01*
X60411514Y-44647562D01*
X60370431Y-44699077D01*
X60247182Y-44853627D01*
X60115405Y-45081871D01*
X60115402Y-45081879D01*
X60019111Y-45327224D01*
X59961139Y-45581220D01*
X59960465Y-45584174D01*
X59940769Y-45847000D01*
X57752631Y-45847000D01*
X57732935Y-45584174D01*
X57674287Y-45327220D01*
X57577996Y-45081876D01*
X57577995Y-45081875D01*
X57577994Y-45081871D01*
X57446217Y-44853627D01*
X57446215Y-44853624D01*
X57281886Y-44647562D01*
X57088681Y-44468294D01*
X57088674Y-44468289D01*
X56870925Y-44319829D01*
X56870918Y-44319825D01*
X56633457Y-44205469D01*
X56633445Y-44205464D01*
X56381610Y-44127784D01*
X56381602Y-44127782D01*
X56381600Y-44127782D01*
X56120981Y-44088500D01*
X55857419Y-44088500D01*
X55596800Y-44127782D01*
X55596798Y-44127782D01*
X55596789Y-44127784D01*
X55344954Y-44205464D01*
X55344942Y-44205469D01*
X55107483Y-44319825D01*
X55107475Y-44319829D01*
X54889725Y-44468289D01*
X54889720Y-44468293D01*
X54752846Y-44595294D01*
X54696514Y-44647562D01*
X54655431Y-44699077D01*
X54532182Y-44853627D01*
X54400405Y-45081871D01*
X54400402Y-45081879D01*
X54304111Y-45327224D01*
X54246139Y-45581220D01*
X54245465Y-45584174D01*
X54225769Y-45847000D01*
X41722542Y-45847000D01*
X42014237Y-45782333D01*
X42439675Y-45648193D01*
X42851802Y-45477484D01*
X43247484Y-45271506D01*
X43247495Y-45271499D01*
X43623704Y-45031827D01*
X43623704Y-45031826D01*
X43623707Y-45031825D01*
X43977609Y-44760266D01*
X44306496Y-44458896D01*
X44607866Y-44130009D01*
X44879425Y-43776107D01*
X44879646Y-43775761D01*
X45013738Y-43565278D01*
X83135500Y-43565278D01*
X83135500Y-43802722D01*
X83172644Y-44037241D01*
X83172645Y-44037246D01*
X83243327Y-44254782D01*
X83246018Y-44263063D01*
X83353815Y-44474627D01*
X83493380Y-44666722D01*
X83493382Y-44666724D01*
X83493384Y-44666727D01*
X83661272Y-44834615D01*
X83661275Y-44834617D01*
X83661278Y-44834620D01*
X83853373Y-44974185D01*
X84064937Y-45081982D01*
X84290759Y-45155356D01*
X84525278Y-45192500D01*
X84525281Y-45192500D01*
X85762719Y-45192500D01*
X85762722Y-45192500D01*
X85997241Y-45155356D01*
X86223063Y-45081982D01*
X86434627Y-44974185D01*
X86626722Y-44834620D01*
X86794620Y-44666722D01*
X86934185Y-44474627D01*
X87041982Y-44263063D01*
X87115356Y-44037241D01*
X87152500Y-43802722D01*
X87152500Y-43565278D01*
X87115356Y-43330759D01*
X87041982Y-43104937D01*
X86934185Y-42893373D01*
X86794620Y-42701278D01*
X86794617Y-42701275D01*
X86794615Y-42701272D01*
X86626727Y-42533384D01*
X86626724Y-42533382D01*
X86626722Y-42533380D01*
X86434627Y-42393815D01*
X86223063Y-42286018D01*
X86223060Y-42286017D01*
X86223058Y-42286016D01*
X85997246Y-42212645D01*
X85997242Y-42212644D01*
X85997241Y-42212644D01*
X85762722Y-42175500D01*
X84525278Y-42175500D01*
X84290759Y-42212644D01*
X84290753Y-42212645D01*
X84064941Y-42286016D01*
X84064935Y-42286019D01*
X83853369Y-42393817D01*
X83661275Y-42533382D01*
X83661272Y-42533384D01*
X83493384Y-42701272D01*
X83493382Y-42701275D01*
X83353817Y-42893369D01*
X83246019Y-43104935D01*
X83246016Y-43104941D01*
X83172645Y-43330753D01*
X83172644Y-43330758D01*
X83172644Y-43330759D01*
X83135500Y-43565278D01*
X45013738Y-43565278D01*
X45119099Y-43399895D01*
X45119099Y-43399894D01*
X45119106Y-43399884D01*
X45325084Y-43004202D01*
X45495793Y-42592075D01*
X45629933Y-42166637D01*
X45726483Y-41731127D01*
X45784709Y-41288859D01*
X45804167Y-40843200D01*
X45784709Y-40397541D01*
X45726483Y-39955273D01*
X45629933Y-39519763D01*
X45495793Y-39094325D01*
X45429943Y-38935350D01*
X83135500Y-38935350D01*
X83135500Y-41032649D01*
X83142009Y-41093196D01*
X83142011Y-41093204D01*
X83193110Y-41230202D01*
X83193112Y-41230207D01*
X83280738Y-41347261D01*
X83397792Y-41434887D01*
X83397794Y-41434888D01*
X83397796Y-41434889D01*
X83456875Y-41456924D01*
X83534795Y-41485988D01*
X83534803Y-41485990D01*
X83595350Y-41492499D01*
X83595355Y-41492499D01*
X83595362Y-41492500D01*
X83595368Y-41492500D01*
X86692632Y-41492500D01*
X86692638Y-41492500D01*
X86692645Y-41492499D01*
X86692649Y-41492499D01*
X86753196Y-41485990D01*
X86753199Y-41485989D01*
X86753201Y-41485989D01*
X86825963Y-41458850D01*
X175046500Y-41458850D01*
X175046500Y-43461149D01*
X175053009Y-43521696D01*
X175053011Y-43521704D01*
X175104110Y-43658702D01*
X175104112Y-43658707D01*
X175191738Y-43775761D01*
X175308792Y-43863387D01*
X175308794Y-43863388D01*
X175308796Y-43863389D01*
X175367875Y-43885424D01*
X175445795Y-43914488D01*
X175445803Y-43914490D01*
X175506350Y-43920999D01*
X175506355Y-43920999D01*
X175506362Y-43921000D01*
X175506368Y-43921000D01*
X177603632Y-43921000D01*
X177603638Y-43921000D01*
X177603645Y-43920999D01*
X177603649Y-43920999D01*
X177664196Y-43914490D01*
X177664199Y-43914489D01*
X177664201Y-43914489D01*
X177801204Y-43863389D01*
X177882246Y-43802722D01*
X177918261Y-43775761D01*
X178005887Y-43658707D01*
X178005887Y-43658706D01*
X178005889Y-43658704D01*
X178056989Y-43521701D01*
X178063500Y-43461138D01*
X178063500Y-41458862D01*
X178060923Y-41434889D01*
X178056990Y-41398303D01*
X178056988Y-41398295D01*
X178016170Y-41288860D01*
X178005889Y-41261296D01*
X178005888Y-41261294D01*
X178005887Y-41261292D01*
X177918261Y-41144238D01*
X177801207Y-41056612D01*
X177801202Y-41056610D01*
X177664204Y-41005511D01*
X177664196Y-41005509D01*
X177603649Y-40999000D01*
X177603638Y-40999000D01*
X175506362Y-40999000D01*
X175506350Y-40999000D01*
X175445803Y-41005509D01*
X175445795Y-41005511D01*
X175308797Y-41056610D01*
X175308792Y-41056612D01*
X175191738Y-41144238D01*
X175104112Y-41261292D01*
X175104110Y-41261297D01*
X175053011Y-41398295D01*
X175053009Y-41398303D01*
X175046500Y-41458850D01*
X86825963Y-41458850D01*
X86890204Y-41434889D01*
X86939083Y-41398299D01*
X87007261Y-41347261D01*
X87094887Y-41230207D01*
X87094887Y-41230206D01*
X87094889Y-41230204D01*
X87145989Y-41093201D01*
X87152500Y-41032638D01*
X87152500Y-40893998D01*
X193082833Y-40893998D01*
X193082833Y-40894001D01*
X193102291Y-41339660D01*
X193102291Y-41339663D01*
X193160516Y-41781922D01*
X193160518Y-41781932D01*
X193257063Y-42217422D01*
X193257072Y-42217456D01*
X193391200Y-42642855D01*
X193391208Y-42642877D01*
X193561912Y-43054994D01*
X193561915Y-43055000D01*
X193561916Y-43055002D01*
X193741449Y-43399884D01*
X193767897Y-43450689D01*
X193767900Y-43450695D01*
X194007572Y-43826904D01*
X194007577Y-43826910D01*
X194279118Y-44180789D01*
X194279125Y-44180797D01*
X194279134Y-44180809D01*
X194580504Y-44509696D01*
X194909391Y-44811066D01*
X194909404Y-44811076D01*
X194909410Y-44811081D01*
X195263289Y-45082622D01*
X195263295Y-45082627D01*
X195639504Y-45322299D01*
X195639508Y-45322301D01*
X195639516Y-45322306D01*
X196035198Y-45528284D01*
X196447325Y-45698993D01*
X196447343Y-45698998D01*
X196447344Y-45698999D01*
X196872743Y-45833127D01*
X196872749Y-45833128D01*
X196872763Y-45833133D01*
X197308273Y-45929683D01*
X197750541Y-45987909D01*
X198173808Y-46006389D01*
X198196199Y-46007367D01*
X198196200Y-46007367D01*
X198196201Y-46007367D01*
X198215659Y-46006517D01*
X198641859Y-45987909D01*
X199084127Y-45929683D01*
X199519637Y-45833133D01*
X199945075Y-45698993D01*
X200357202Y-45528284D01*
X200752884Y-45322306D01*
X200956638Y-45192500D01*
X201129104Y-45082627D01*
X201129104Y-45082626D01*
X201129107Y-45082625D01*
X201483009Y-44811066D01*
X201811896Y-44509696D01*
X202113266Y-44180809D01*
X202384825Y-43826907D01*
X202491981Y-43658707D01*
X202624499Y-43450695D01*
X202624499Y-43450694D01*
X202624506Y-43450684D01*
X202830484Y-43055002D01*
X203001193Y-42642875D01*
X203135333Y-42217437D01*
X203231883Y-41781927D01*
X203290109Y-41339659D01*
X203309567Y-40894000D01*
X203290109Y-40448341D01*
X203231883Y-40006073D01*
X203135333Y-39570563D01*
X203119320Y-39519777D01*
X203001199Y-39145144D01*
X203001198Y-39145143D01*
X203001193Y-39145125D01*
X202832472Y-38737797D01*
X202830481Y-38732990D01*
X202624513Y-38337329D01*
X202624499Y-38337305D01*
X202384827Y-37961095D01*
X202384822Y-37961089D01*
X202113281Y-37607210D01*
X202113276Y-37607204D01*
X202113266Y-37607191D01*
X201811896Y-37278304D01*
X201483009Y-36976934D01*
X201482997Y-36976925D01*
X201482989Y-36976918D01*
X201129110Y-36705377D01*
X201129104Y-36705372D01*
X200752895Y-36465700D01*
X200752889Y-36465697D01*
X200752887Y-36465696D01*
X200752884Y-36465694D01*
X200357202Y-36259716D01*
X200357200Y-36259715D01*
X200357194Y-36259712D01*
X199945077Y-36089008D01*
X199945075Y-36089007D01*
X199945069Y-36089005D01*
X199945055Y-36089000D01*
X199519656Y-35954872D01*
X199519622Y-35954863D01*
X199084132Y-35858318D01*
X199084122Y-35858316D01*
X198641862Y-35800091D01*
X198196201Y-35780633D01*
X198196199Y-35780633D01*
X197750539Y-35800091D01*
X197750536Y-35800091D01*
X197308277Y-35858316D01*
X197308267Y-35858318D01*
X196872777Y-35954863D01*
X196872743Y-35954872D01*
X196447344Y-36089000D01*
X196447322Y-36089008D01*
X196035190Y-36259718D01*
X195639529Y-36465686D01*
X195639505Y-36465700D01*
X195263295Y-36705372D01*
X195263289Y-36705377D01*
X194909410Y-36976918D01*
X194909384Y-36976940D01*
X194580504Y-37278304D01*
X194279140Y-37607184D01*
X194279118Y-37607210D01*
X194007577Y-37961089D01*
X194007572Y-37961095D01*
X193767900Y-38337305D01*
X193767886Y-38337329D01*
X193561918Y-38732990D01*
X193391208Y-39145122D01*
X193391200Y-39145144D01*
X193257072Y-39570543D01*
X193257063Y-39570577D01*
X193160518Y-40006067D01*
X193160516Y-40006077D01*
X193102291Y-40448336D01*
X193102291Y-40448339D01*
X193082833Y-40893998D01*
X87152500Y-40893998D01*
X87152500Y-38935362D01*
X87152499Y-38935350D01*
X87145990Y-38874803D01*
X87145988Y-38874795D01*
X87094889Y-38737797D01*
X87094887Y-38737792D01*
X87007261Y-38620738D01*
X86890207Y-38533112D01*
X86890202Y-38533110D01*
X86753204Y-38482011D01*
X86753196Y-38482009D01*
X86692649Y-38475500D01*
X86692638Y-38475500D01*
X83595362Y-38475500D01*
X83595350Y-38475500D01*
X83534803Y-38482009D01*
X83534795Y-38482011D01*
X83397797Y-38533110D01*
X83397792Y-38533112D01*
X83280738Y-38620738D01*
X83193112Y-38737792D01*
X83193110Y-38737797D01*
X83142011Y-38874795D01*
X83142009Y-38874803D01*
X83135500Y-38935350D01*
X45429943Y-38935350D01*
X45325084Y-38682198D01*
X45325081Y-38682190D01*
X45119113Y-38286529D01*
X45119099Y-38286505D01*
X44879427Y-37910295D01*
X44879422Y-37910289D01*
X44607881Y-37556410D01*
X44607876Y-37556404D01*
X44607866Y-37556391D01*
X44306496Y-37227504D01*
X43977609Y-36926134D01*
X43977597Y-36926125D01*
X43977589Y-36926118D01*
X43623710Y-36654577D01*
X43623704Y-36654572D01*
X43247495Y-36414900D01*
X43247489Y-36414897D01*
X43247487Y-36414896D01*
X43247484Y-36414894D01*
X42851802Y-36208916D01*
X42851800Y-36208915D01*
X42851794Y-36208912D01*
X42439677Y-36038208D01*
X42439675Y-36038207D01*
X42439669Y-36038205D01*
X42439655Y-36038200D01*
X42014256Y-35904072D01*
X42014222Y-35904063D01*
X41578732Y-35807518D01*
X41578722Y-35807516D01*
X41136462Y-35749291D01*
X40690801Y-35729833D01*
X40690799Y-35729833D01*
X40245139Y-35749291D01*
X40245136Y-35749291D01*
X39802877Y-35807516D01*
X39802867Y-35807518D01*
X39367377Y-35904063D01*
X39367343Y-35904072D01*
X38941944Y-36038200D01*
X38941922Y-36038208D01*
X38529790Y-36208918D01*
X38134129Y-36414886D01*
X38134105Y-36414900D01*
X37757895Y-36654572D01*
X37757889Y-36654577D01*
X37404010Y-36926118D01*
X37403984Y-36926140D01*
X37075104Y-37227504D01*
X36773740Y-37556384D01*
X36773718Y-37556410D01*
X36502177Y-37910289D01*
X36502172Y-37910295D01*
X36262500Y-38286505D01*
X36262486Y-38286529D01*
X36056518Y-38682190D01*
X35885808Y-39094322D01*
X35885800Y-39094344D01*
X35751672Y-39519743D01*
X35751663Y-39519777D01*
X35655118Y-39955267D01*
X35655116Y-39955277D01*
X35596891Y-40397536D01*
X35596891Y-40397539D01*
X35577433Y-40843198D01*
X34290000Y-40843198D01*
X34290000Y-35612190D01*
X34310002Y-35544069D01*
X34326905Y-35523095D01*
X35523095Y-34326905D01*
X35585407Y-34292879D01*
X35612190Y-34290000D01*
X203147810Y-34290000D01*
X203215931Y-34310002D01*
G37*
%TD.AperFunction*%
%TD*%
M02*
