M48
; DRILL file {KiCad 8.0.6} date 2024-11-17T15:14:54-0700
; FORMAT={-:-/ absolute / inch / decimal}
; #@! TF.CreationDate,2024-11-17T15:14:54-07:00
; #@! TF.GenerationSoftware,Kicad,Pcbnew,8.0.6
; #@! TF.FileFunction,Plated,1,2,PTH
FMAT,2
INCH
; #@! TA.AperFunction,Plated,PTH,ViaDrill
T1C0.0157
; #@! TA.AperFunction,Plated,PTH,ViaDrill
T2C0.0197
; #@! TA.AperFunction,Plated,PTH,ComponentDrill
T3C0.0197
; #@! TA.AperFunction,Plated,PTH,ViaDrill
T4C0.0236
; #@! TA.AperFunction,Plated,PTH,ComponentDrill
T5C0.0315
; #@! TA.AperFunction,Plated,PTH,ComponentDrill
T6C0.0394
; #@! TA.AperFunction,Plated,PTH,ComponentDrill
T7C0.0433
; #@! TA.AperFunction,Plated,PTH,ComponentDrill
T8C0.0472
; #@! TA.AperFunction,Plated,PTH,ComponentDrill
T9C0.0512
; #@! TA.AperFunction,Plated,PTH,ComponentDrill
T10C0.0591
; #@! TA.AperFunction,Plated,PTH,ComponentDrill
T11C0.2087
%
G90
G05
T1
X1.6398Y-3.0374
X1.6417Y-4.128
X1.6496Y-1.9449
X1.9587Y-1.7165
X2.128Y-1.7165
X2.1358Y-2.6555
X2.448Y-2.255
X2.4685Y-2.5433
X2.4843Y-1.6752
X2.5748Y-4.5886
X2.6693Y-2.5098
X2.6752Y-1.6752
X2.687Y-2.685
X2.7736Y-2.1693
X2.8602Y-2.5433
X2.8819Y-1.4547
X2.8957Y-2.4154
X2.9154Y-2.6791
X2.9409Y-2.1693
X2.998Y-3.8957
X3.085Y-2.229
X3.1417Y-2.4213
X3.1969Y-3.687
X3.1988Y-4.1398
X3.208Y-2.511
X3.2677Y-1.811
X3.3287Y-2.3071
X3.3957Y-3.8937
X3.502Y-3.3976
X3.5059Y-4.6713
X3.8521Y-2.0998
X3.8996Y-4.5276
X3.9035Y-3.3976
X3.9121Y-1.5998
X4.1422Y-4.184
X4.2402Y-2.3957
X4.3012Y-3.398
X4.3296Y-3.5689
X4.3316Y-3.6319
X4.376Y-3.6043
X4.4079Y-3.767
X4.4201Y-3.6319
X4.4221Y-3.5689
X4.4721Y-1.5998
X4.5335Y-2.7933
X4.6024Y-3.5295
X4.655Y-4.231
X4.748Y-3.391
X4.7521Y-1.5998
X4.7764Y-3.5709
X4.7784Y-3.6339
X4.8228Y-3.6063
X4.8542Y-3.7655
X4.867Y-3.6339
X4.869Y-3.5709
X5.0354Y-3.5295
X5.1004Y-2.1417
X5.101Y-4.227
X5.1929Y-3.39
X5.211Y-2.655
X5.2213Y-3.5709
X5.2233Y-3.6339
X5.2677Y-3.6063
X5.2946Y-3.77
X5.3085Y-1.6222
X5.3119Y-3.6339
X5.3138Y-3.5709
X5.3661Y-1.4547
X5.4016Y-3.0059
X5.5Y-3.5315
X5.5236Y-4.7461
X5.594Y-4.24
X5.6398Y-3.39
X5.6662Y-3.5669
X5.6682Y-3.6339
X5.7146Y-3.6024
X5.7396Y-3.7706
X5.7587Y-3.6299
X5.7646Y-3.5689
X5.7894Y-1.9291
X5.9193Y-3.5374
X6.043Y-3.39
X6.4744Y-1.8189
X6.544Y-3.272
X6.6417Y-2.7933
X6.793Y-3.016
X6.795Y-3.518
X6.9744Y-4.1398
X7.036Y-3.272
X7.1654Y-3.8661
X7.4272Y-1.4488
X7.4705Y-4.7461
X7.9291Y-3.1181
X7.9508Y-4.2697
T2
X6.3012Y-2.1043
X6.3012Y-2.6909
X6.8386Y-1.7717
X6.8386Y-2.4606
X7.9016Y-2.2283
T4
X4.297Y-3.869
X4.753Y-3.873
X5.189Y-3.873
X5.635Y-3.87
T5
X2.0382Y-3.0433
X2.4094Y-3.2075
X2.4094Y-3.6075
X2.4382Y-3.0433
T6
X2.1727Y-2.072
X2.2711Y-2.072
X2.3696Y-2.072
X2.751Y-2.07
X2.8494Y-2.07
X2.9478Y-2.07
X4.25Y-2.5336
X4.25Y-3.1336
X4.35Y-2.5336
X4.35Y-3.1336
X4.45Y-2.5336
X4.45Y-3.1336
X4.55Y-2.5336
X4.55Y-3.1336
X4.65Y-2.5336
X4.65Y-3.1336
X4.75Y-2.5336
X4.75Y-3.1336
X4.85Y-2.5336
X4.85Y-3.1336
X4.95Y-2.5336
X4.95Y-3.1336
X5.05Y-2.5336
X5.05Y-3.1336
X5.15Y-2.5336
X5.15Y-3.1336
X5.25Y-2.5336
X5.25Y-3.1336
X5.35Y-2.5336
X5.35Y-3.1336
X5.45Y-2.5336
X5.45Y-3.1336
X5.55Y-2.5336
X5.55Y-3.1336
X5.65Y-2.5336
X5.65Y-3.1336
T7
X3.7521Y-2.1998
X3.8521Y-2.1998
X3.9521Y-2.1998
X6.951Y-1.6717
X6.951Y-1.7717
X6.951Y-1.8717
X6.951Y-2.3606
X6.951Y-2.4606
X6.951Y-2.5606
T8
X2.2043Y-1.805
X2.4293Y-1.805
X2.7852Y-1.81
X2.9702Y-1.815
T9
X2.0197Y-3.8957
X2.4094Y-3.8957
X2.8169Y-3.8957
X3.1969Y-3.8927
X4.0925Y-4.4941
X4.4055Y-4.4941
X4.7126Y-4.4941
X5.0236Y-4.4941
X5.3366Y-4.4941
X5.6339Y-4.4941
X5.9409Y-4.4941
X6.2323Y-4.4941
X6.5669Y-4.4941
X6.8563Y-4.4941
T10
X6.7953Y-3.2677
X7.5709Y-3.5433
T11
X1.583Y-4.608
X1.602Y-1.608
X7.789Y-4.611
X7.803Y-1.61
T3
G00X3.3246Y-1.5742
M15
G01X3.3797Y-1.5742
M16
G05
G00X3.3246Y-1.7198
M15
G01X3.3797Y-1.7198
M16
G05
G00X3.3246Y-1.8891
M15
G01X3.3797Y-1.8891
M16
G05
G00X3.3246Y-2.0348
M15
G01X3.3797Y-2.0348
M16
G05
G00X7.2559Y-3.9843
M15
G01X7.2559Y-3.9291
M16
G05
G00X7.4016Y-3.9843
M15
G01X7.4016Y-3.9291
M16
G05
G00X7.5709Y-3.9843
M15
G01X7.5709Y-3.9291
M16
G05
G00X7.7165Y-3.9843
M15
G01X7.7165Y-3.9291
M16
G05
M30
